<?xml version="1.0" encoding="UTF-8"?>
<svg width="90px" height="82px" viewBox="0 0 90 82" version="1.1" xmlns="http://www.w3.org/2000/svg" xmlns:xlink="http://www.w3.org/1999/xlink">
    <!-- Generator: Sketch 49 (51002) - http://www.bohemiancoding.com/sketch -->
    <title>health kit</title>
    <desc>Created with Sketch.</desc>
    <defs></defs>
    <g id="Page-1" stroke="none" stroke-width="1" fill="none" fill-rule="evenodd">
        <g id="12" transform="translate(-552.000000, -296.000000)">
            <g id="health-kit" transform="translate(534.000000, 274.000000)">
                <g transform="translate(17.942584, 21.994888)">
                    <path d="M66.958134,9.817751 C79.293569,9.817751 89.3861977,19.9359009 89.3861977,32.3025286 L89.3861977,59.0863957 C89.3861977,71.4530234 79.293569,81.5711733 66.958134,81.5711733 L23.016324,81.5711733 C10.6808889,81.5711733 0.588260279,71.4530234 0.588260279,59.0863957 L0.588260279,32.3025286 C0.588260279,19.9359009 10.6808889,9.817751 23.016324,9.817751 L66.958134,9.817751 L66.958134,9.817751 Z" id="Stroke-43" fill="#3D9AD9"></path>
                    <polygon id="Stroke-45" fill="#3D9AD9" points="58.6998355 0.183402193 58.6998355 9.81737991 54.2314176 9.81737991 54.2314176 4.66386888 35.7342459 4.66386888 35.7342459 9.81737991 31.2665756 9.81737991 31.2665756 0.183402193"></polygon>
                    <path d="M27.8294483,45.6828856 C27.8294483,36.189063 35.5095649,28.4910246 44.9854218,28.4910246 C54.4605311,28.4910246 62.1406477,36.189063 62.1406477,45.6828856 C62.1406477,55.1812051 54.4605311,62.881492 44.9854218,62.881492 C35.5095649,62.881492 27.8294483,55.1812051 27.8294483,45.6828856 L27.8294483,45.6828856 Z" id="Stroke-47" fill="#FFFFFF"></path>
                    <polygon id="Stroke-49" fill="#3D9AD9" points="56.0832013 43.0823519 47.5807223 43.0823519 47.5807223 34.5613707 42.3893732 34.5613707 42.3893732 43.0823519 33.8868942 43.0823519 33.8868942 48.2845799 42.3893732 48.2845799 42.3893732 56.8078096 47.5807223 56.8078096 47.5807223 48.2845799 56.0832013 48.2845799"></polygon>
                </g>
            </g>
        </g>
    </g>
</svg>