<?xml version="1.0" encoding="UTF-8"?>
<svg width="429px" height="429px" viewBox="0 0 429 429" version="1.1" xmlns="http://www.w3.org/2000/svg" xmlns:xlink="http://www.w3.org/1999/xlink">
    <!-- Generator: Sketch 49 (51002) - http://www.bohemiancoding.com/sketch -->
    <title>Search</title>
    <desc>Created with Sketch.</desc>
    <defs></defs>
    <g id="Page-1" stroke="none" stroke-width="1" fill="none" fill-rule="evenodd" stroke-linecap="round" stroke-linejoin="round">
        <g id="20-Internet-Element-Icons" transform="translate(-3250.000000, -2234.000000)" stroke="#3D9AD9" stroke-width="26">
            <g id="Search" transform="translate(3263.000000, 2247.000000)">
                <path d="M226.4,398.3 C217.8,399.4 208.9,400 200,400 C89.5,400 0,310.5 0,200 C0,89.5 89.5,0 200,0 C310.5,0 400,89.5 400,200 C400,209 399.4,217.8 398.3,226.4" id="Shape"></path>
                <path d="M0,200 L160,200" id="Shape"></path>
                <path d="M200,0 L200,155.2" id="Shape"></path>
                <path d="M200,0 C245,45 271.7,101.5 280,160" id="Shape"></path>
                <path d="M200,400 C89.5,289.5 89.5,110.5 200,0" id="Shape"></path>
                <path d="M372.2,98.3 L27.8,98.3" id="Shape"></path>
                <path d="M27.8,301.7 L160,301.7" id="Shape"></path>
                <circle id="Oval" cx="286.8" cy="286.8" r="86.8"></circle>
                <path d="M348.2,348.2 L402.2,402.2" id="Shape"></path>
            </g>
        </g>
    </g>
</svg>