<?xml version="1.0" encoding="UTF-8"?>
<svg width="201px" height="152px" viewBox="0 0 201 152" version="1.1" xmlns="http://www.w3.org/2000/svg" xmlns:xlink="http://www.w3.org/1999/xlink">
    <!-- Generator: Sketch 52.6 (67491) - http://www.bohemiancoding.com/sketch -->
    <title>event</title>
    <desc>Created with Sketch.</desc>
    <g id="Page-1" stroke="none" stroke-width="1" fill="none" fill-rule="evenodd">
        <g id="event" fill="#0072C6">
            <circle id="Oval" cx="30" cy="86" r="16"></circle>
            <circle id="Oval-Copy" cx="101" cy="90" r="16"></circle>
            <circle id="Oval-Copy-2" cx="172" cy="86" r="16"></circle>
            <path d="M1,121 C17,141.666667 50.3333333,152 101,152 C177,152 184.512561,133.992203 199,125 C203.666667,113.666667 200,104.666667 188,98 C183.8898,102.617081 180.223133,105.283748 177,106 C173.776867,106.716252 168.443533,106.049585 161,104 C151.441077,111.14863 145.441077,116.815297 143,121 C139.338385,127.277054 140.069041,139.737642 140,140 C139.953972,140.174905 139.287306,140.174905 138,140 C137.595511,127.624899 136.262178,119.958232 134,117 C131.737822,114.041768 124.404489,110.375101 112,106 C107.333333,109.333333 103.666667,111 101,111 C98.3333333,111 94.3333333,109.333333 89,106 C79.5089898,107.976334 71.8423231,112.643001 66,120 C64.6890526,121.650823 64.0223859,128.317489 64,140 L62,140 C60.6613959,128.784014 58.7430864,121.117347 56.2450716,117 C53.7470569,112.882653 48.384907,108.54932 40.158622,104 C33.7689932,106.032786 29.0494526,106.699453 26,106 C22.9505474,105.300547 18.9505474,102.633881 14,98 C8.44393723,101.522265 4.77727056,104.855598 3,108 C1.22272944,111.144402 0.556062771,115.477735 1,121 Z" id="Path-2"></path>
            <circle id="Oval" cx="37.5" cy="28.5" r="13.5"></circle>
            <circle id="Oval-Copy-3" cx="101.5" cy="20.5" r="13.5"></circle>
            <circle id="Oval-Copy-4" cx="164.5" cy="28.5" r="13.5"></circle>
            <circle id="Oval-Copy-5" cx="133" cy="12" r="12"></circle>
            <circle id="Oval-Copy-6" cx="70" cy="12" r="12"></circle>
            <path d="M7,77 C15.9283686,70.3333333 23.6868977,66 30.2755874,64 C36.8642771,62 48.4390813,59.6666667 65,57 L65,48 C63.1505956,46.3890523 61.3021392,45.055719 59.454631,44 C57.6071228,42.944281 54.7889124,41.6109477 51,40 C46.761538,43.525055 43.2672248,45.525055 40.5170603,46 C37.7668958,46.474945 33.5405554,45.8082783 27.838039,44 C18.7222006,48.2701785 12.7761876,52.6035119 10,57 C7.22381239,61.3964881 6.22381239,68.0631548 7,77 Z" id="Path-3"></path>
            <path d="M136.254393,77 C145.182762,70.3333333 152.941291,66 159.529981,64 C166.118671,62 177.693475,59.6666667 194.254393,57 L194.254393,48 C192.404989,46.3890523 190.556533,45.055719 188.709024,44 C186.861516,42.944281 184.043306,41.6109477 180.254393,40 C176.015931,43.525055 172.521618,45.525055 169.771454,46 C167.021289,46.474945 162.794949,45.8082783 157.092432,44 C147.976594,48.2701785 142.030581,52.6035119 139.254393,57 C136.478206,61.3964881 135.478206,68.0631548 136.254393,77 Z" id="Path-3-Copy" transform="translate(165.127197, 58.500000) scale(-1, 1) translate(-165.127197, -58.500000) "></path>
            <path d="M70,57 C83.7777778,55.6666667 94.1111111,55 101,55 C107.888889,55 118.222222,55.6666667 132,57 L132,48 C129.013354,44.6755696 126.013354,42.0089029 123,40 C119.986646,37.9910971 115.986646,35.9910971 111,34 C106.777778,36.6666667 103.444444,38 101,38 C98.5555556,38 95.2222222,36.6666667 91,34 C86.0915984,36.3833788 82.4249318,38.3833788 80,40 C77.5750682,41.6166212 74.2417349,44.2832878 70,48 L70,57 Z" id="Path-4"></path>
            <path d="M53.029164,38 L56.910156,26 C62.3033853,27.3333333 66.6666667,28 70,28 C73.3333333,28 77.3333333,26.6666667 82,24 L89,32 C83.6750023,34.1456064 79.6750023,36.1456064 77,38 C74.3249977,39.8543936 71.1123911,42.8543936 67.3621803,47 C64.7331589,43.3458131 62.6124321,41.0124798 61,40 C59.3875679,38.9875202 56.7306226,38.3208536 53.029164,38 Z" id="Path-5"></path>
            <path d="M114,37 L117.880992,25 C123.274221,26.3333333 127.637503,27 130.970836,27 C134.304169,27 138.304169,25.6666667 142.970836,23 L149.970836,31 C144.645838,33.1456064 140.645838,35.1456064 137.970836,37 C135.295834,38.8543936 132.083227,41.8543936 128.333016,46 C125.703995,42.3458131 123.583268,40.0124798 121.970836,39 C120.358404,37.9875202 117.701459,37.3208536 114,37 Z" id="Path-5-Copy" transform="translate(131.985418, 34.500000) scale(-1, 1) translate(-131.985418, -34.500000) "></path>
        </g>
    </g>
</svg>