<?xml version="1.0" encoding="UTF-8"?>
<svg width="632px" height="508px" viewBox="0 0 632 508" version="1.1" xmlns="http://www.w3.org/2000/svg" xmlns:xlink="http://www.w3.org/1999/xlink">
    <!-- Generator: Sketch 43.2 (39069) - http://www.bohemiancoding.com/sketch -->
    <title>hippo-vector</title>
    <desc>Created with Sketch.</desc>
    <defs></defs>
    <g id="Page-1" stroke="none" stroke-width="1" fill="none" fill-rule="evenodd">
        <g id="Artboard-Copy" fill="#000000">
            <path d="M208.498885,423.589029 C205.332206,423.757874 202.143401,423.843373 198.934625,423.843373 C194.039062,423.843373 189.189986,423.644356 184.395049,423.253972 C184.39642,423.450281 184.397094,423.646749 184.397094,423.843373 C184.397094,470.321795 146.715298,508 100.232446,508 C53.7495935,508 16.0677966,470.321795 16.0677966,423.843373 C16.0677966,393.347272 32.2902861,366.639776 56.5771996,351.878171 C34.9628444,322.56233 22.188862,286.330013 22.188862,247.114458 C22.188862,246.976069 22.1890211,246.837718 22.189339,246.699404 C20.5602839,247.217449 18.8248965,247.496988 17.0242131,247.496988 C7.62199982,247.496988 0,239.875715 0,230.474398 C0,221.073081 7.62199982,213.451807 17.0242131,213.451807 C19.9139359,213.451807 22.635498,214.17172 25.0193004,215.441962 C39.9465922,132.951357 112.133397,70.3855422 198.934625,70.3855422 C231.596224,70.3855422 262.188613,79.244044 288.439814,94.6892879 C292.462929,75.3306351 302.660075,58.2343192 316.879678,45.5517091 C307.491018,42.531385 300.697337,33.7261602 300.697337,23.3343373 C300.697337,10.4471387 311.145471,0 324.033898,0 C336.922325,0 347.37046,10.4471387 347.37046,23.3343373 C347.37046,24.8403204 347.22778,26.312982 346.9552,27.7395444 C356.41748,24.3913245 366.601266,22.5692771 377.210654,22.5692771 C419.435071,22.5692771 454.918076,51.4299421 465.005767,90.4991476 C481.629865,80.4054505 501.14218,74.5933735 522.012107,74.5933735 C582.756743,74.5933735 632,123.831937 632,184.570783 C632,245.309629 582.756743,294.548193 522.012107,294.548193 C465.362783,294.548193 418.716303,251.725008 412.684117,196.687171 C401.788361,201.32334 389.799105,203.888554 377.210654,203.888554 C374.882158,203.888554 372.574164,203.800788 370.289799,203.628382 C373.810064,217.540037 375.680387,232.10885 375.680387,247.114458 C375.680387,287.181828 362.345442,324.134952 339.871094,353.778686 C362.174535,368.915211 376.828087,394.47693 376.828087,423.460843 C376.828087,469.939265 339.14629,507.61747 292.663438,507.61747 C246.223326,507.61747 208.568092,470.008522 208.498885,423.589029 Z" id="hippo-vector"></path>
        </g>
    </g>
</svg>