<?xml version="1.0" encoding="UTF-8"?>
<svg width="130px" height="122px" viewBox="0 0 130 122" version="1.1" xmlns="http://www.w3.org/2000/svg" xmlns:xlink="http://www.w3.org/1999/xlink">
    <!-- Generator: Sketch 48.2 (47327) - http://www.bohemiancoding.com/sketch -->
    <title>nurse-admin</title>
    <desc>Created with Sketch.</desc>
    <defs>
        <path d="M7.17845047,8.95073065 C7.14236293,8.93140627 7.13309041,8.89189724 7.15811188,8.86266356 C7.15811188,8.86266356 13.920438,0.603990148 28.8083389,0.603990148 C43.6962397,0.603990148 50.4585658,8.86266356 50.4585658,8.86266356 C50.4834207,8.89197729 50.4883287,8.93623585 50.4616818,8.972216 C50.4616818,8.972216 41.1084018,21.5017368 41.1084018,27.5664379 C41.1084018,33.631139 33.7655777,45.3623635 33.7655777,45.3623635 C33.7436409,45.3976779 33.6930046,45.4263058 33.643103,45.4263058 L26.4398532,45.4263058 C26.3941491,45.4263058 26.3269728,45.4083604 26.2900366,45.3859468 C26.2900366,45.3859468 15.8553638,39.2953676 15.8553638,27.5664379 C15.8553638,13.347987 7.17845047,8.95073065 7.17845047,8.95073065 Z" id="path-1"></path>
        <path d="M0.126803093,4.73284164 C-0.253297139,3.21258137 0.642306522,1.57243937 2.14186278,1.15989554 C2.14186278,1.15989554 4.32789274,0.0123760432 11.9103037,0.0123760432 C19.4927146,0.0123760432 21.6902124,1.16274169 21.6902124,1.16274169 C23.1768847,1.61419318 24.0744581,3.21050331 23.6938383,4.73284164 L21.1943902,14.7297092 C21.1830757,14.774963 21.1438475,14.8083929 21.0912983,14.8027997 C21.0912983,14.8027997 16.5419256,14.3018334 11.9101962,14.3018334 C7.27846674,14.3018334 2.72933884,14.8027997 2.72933884,14.8027997 C2.68371962,14.8076868 2.63753482,14.7748395 2.62625121,14.7297092 L0.126803093,4.73284164 Z" id="path-2"></path>
    </defs>
    <g id="3" stroke="none" stroke-width="1" fill="none" fill-rule="evenodd" transform="translate(-32.000000, -176.000000)">
        <g id="nurse-admin" transform="translate(32.000000, 176.000000)">
            <g id="Admin">
                <g id="Clothes" transform="translate(0.000000, 48.913726)">
                    <g id="Body" transform="translate(0.000000, 0.609867)">
                        <path d="M12.5607181,5.75254617 C14.8612608,4.08313203 23.5245193,2.18089766 23.5245193,2.18089766 L28.9775709,37.0155444 L36.3127739,2.73925999 C36.3127739,2.73925999 39.807166,3.42399071 43.7830924,5.02111813 C47.7590188,6.61824555 55.3621803,10.5092953 55.3621803,29.2735698 C55.3621803,48.0378443 49.2534479,48.3002733 49.2534479,48.9936394 C49.2534479,49.6870056 50.6475517,71.213568 50.6475517,71.213568 C50.6503498,71.2567903 50.6210762,71.2918288 50.5820223,71.2918288 L7.20469648,71.2918288 C7.16570753,71.2918288 7.13357251,71.263101 7.13265691,71.2128455 C7.13265691,71.2128455 6.80586907,53.5919232 7.13410075,52.4247995 C7.66340619,50.5426993 0.0213671094,48.4251435 0.0213671094,29.2735698 C0.0213671094,10.1219961 10.2601753,7.42196031 12.5607181,5.75254617 Z" id="Fill---Suit" fill="#4A4A4A" opacity="0.965013587"></path>
                        <path d="M10.1449084,68.8710955 L52.4521678,68.8710955 C52.4457612,68.771995 52.4378394,68.6494553 52.4279036,68.4957596 C52.3802511,67.7582584 52.3271529,66.9353137 52.2699703,66.0476083 C52.1065908,63.5112985 51.943211,60.9641503 51.7907215,58.5716156 C51.7821636,58.4373321 51.7821636,58.4373321 51.7736072,58.3030251 C51.3419053,51.5261243 51.0924726,47.4843829 51.0924726,47.1640391 C51.0924726,47.0717994 51.1103851,46.9824057 51.1436425,46.8987527 C51.2664707,46.5898001 52.4518985,45.8311211 52.3637556,45.8969495 C53.0316305,45.398156 53.6430115,44.7382453 54.2336355,43.7722395 C56.0873537,40.7403566 57.201205,35.5392871 57.201205,27.4439695 C57.201205,19.054784 55.691246,13.1537108 53.0053037,9.21299343 C51.0949338,6.41016798 48.9708929,4.93630491 45.9929054,3.74004898 C44.2766682,3.05063745 42.5248846,2.48010755 40.8327336,2.02228275 C40.240821,1.86213614 39.6990432,1.72760756 39.2192381,1.6178528 C39.211761,1.61614242 39.2043422,1.61444778 39.1969821,1.61276885 L31.3175567,38.4321222 L25.4685656,1.06817451 C25.1099912,1.15144288 24.7163331,1.24526842 24.2957032,1.34849223 C22.9543378,1.67766723 21.6132488,2.03448452 20.3634585,2.4057459 C18.6069598,2.92752953 17.1791982,3.43460072 16.2080317,3.90359091 C15.8427355,4.07999761 15.5501422,4.24748237 15.3380589,4.40138296 C14.9811732,4.66036099 13.0070907,5.73513562 12.8351348,5.83530583 C11.5332147,6.59371887 10.4216663,7.39452672 9.35716326,8.41166633 C5.37032556,12.221116 3.0426578,18.1985986 3.0426578,27.4439695 C3.0426578,35.407514 4.32740377,40.9273425 6.5370972,44.8828339 C7.28741028,46.2259419 7.86871413,47.0036233 9.06259949,48.4182346 C10.0870388,49.6320727 10.3326622,50.0464021 10.133316,50.755236 C10.0188031,51.16242 9.98423664,54.7234289 10.0275329,59.9540048 C10.0401848,61.482477 10.0586812,63.1073552 10.0814863,64.7752525 C10.0973168,65.9330532 10.1142784,67.043201 10.1312395,68.0664116 C10.1361071,68.3600571 10.1406894,68.6291874 10.1449084,68.8710955 Z" id="Outline---Suit" stroke="#3C3C3C" stroke-width="1.18226601"></path>
                        <polygon id="Bottom-of-shirt" stroke="#3C3C3C" stroke-width="1.18226601" fill="#FFFFFF" points="30.7002564 39.2996621 34.7200022 57.6418741 26.6805106 57.6418741"></polygon>
                    </g>
                    <g id="Lapels" transform="translate(21.202297, 0.000000)" fill="#FFFFFF">
                        <path d="M2.65490573,13.2833942 L5.77250646,10.0573977 L9.56883151,15.8760822 L4.37341809,0.570674783 C4.37341809,0.570674783 3.79857116,0.593691708 1.27791605,1.37911076 C-1.24273905,2.16452981 2.65490573,13.2833942 2.65490573,13.2833942 Z" id="Left"></path>
                        <path d="M13.0315522,13.8932609 L16.149153,10.6672645 L19.945478,16.485949 L14.7500646,1.18054156 C14.7500646,1.18054156 14.1752177,1.20355848 11.6545626,1.98897753 C9.13390745,2.77439658 13.0315522,13.8932609 13.0315522,13.8932609 Z" id="Right" transform="translate(15.375711, 8.833245) scale(-1, 1) translate(-15.375711, -8.833245) "></path>
                    </g>
                </g>
                <g id="Face" transform="translate(15.838039, 0.493608)">
                    <path d="M14.4476057,65.1277498 C14.7585798,65.8414599 15.2192232,65.8295847 15.4788348,65.0945632 L20.5016873,50.8736849 C20.5016873,50.8736849 18.2942272,50.2779752 18.2963406,50.2617867 C18.3019271,50.2189956 18.2963406,45.2431965 18.2963406,45.2431965 C18.2963406,45.2431965 28.7354304,42.4175696 28.3990756,31.9598755 C28.1540036,24.3402761 22.0768848,18.145383 14.2780672,18.145383 C6.47924956,18.145383 0.157058721,24.3303419 0.157058721,31.9598755 C0.157058721,43.2189952 10.3867687,45.2431965 10.3867687,45.2431965 C10.3867687,45.2431965 10.3792322,50.1765789 10.3867687,50.2617867 C10.3899265,50.2974893 8.13007362,50.6285138 8.13007362,50.6285138 L14.4476057,65.1277498 Z" fill="#BA9462" opacity="0.905853714"></path>
                    <path d="M15.6683876,63.9080162 C15.9793617,64.6217264 16.4400051,64.6098511 16.6996167,63.8748296 L21.7224693,49.6539513 C21.7224693,49.6539513 19.5150091,49.0582417 19.5171226,49.0420531 C19.5227091,48.999262 19.5171226,44.0234629 19.5171226,44.0234629 C19.5171226,44.0234629 29.9562124,41.1978361 29.6198576,30.7401419 C29.3747855,23.1205426 23.2976667,16.9256494 15.4988491,16.9256494 C7.7000315,16.9256494 1.37784066,23.1106084 1.37784066,30.7401419 C1.37784066,41.9992617 11.6075507,44.0234629 11.6075507,44.0234629 C11.6075507,44.0234629 11.6000142,48.9568453 11.6075507,49.0420531 C11.6107085,49.0777558 9.35085556,49.4087803 9.35085556,49.4087803 L15.6683876,63.9080162 Z" stroke="#B18D5F" stroke-width="1.18226601"></path>
                    <g id="Mouth" transform="translate(11.718128, 37.213218)" fill="#C94240">
                        <path d="M3.94160323,3.07865833 C5.49652277,3.07865833 7.67122248,1.84166653 7.67122248,0.315759828 C7.67122248,-0.440465909 5.33679714,0.598350146 3.94160323,0.591681854 C2.54640932,0.585013561 0.0108558351,-0.45392114 0.0108558351,0.315759828 C0.0108558351,1.84166653 2.38668369,3.07865833 3.94160323,3.07865833 Z" id="Oval"></path>
                    </g>
                    <g id="Eyes" transform="translate(6.409029, 26.003745)" fill="#472424">
                        <path d="M1.60881765,3.08518694 C2.03862296,3.08518694 2.6386564,2.8505225 2.95655595,2.4009379 C3.27445549,1.95135329 3.33895741,1.22438699 3.33895741,1.22438699 C3.33895741,1.22438699 5.00074955,1.81196758 5.38519237,1.79110614 C6.04574846,1.75526165 6.05052432,0.875177268 5.58914812,1.03511495 C5.24411401,1.15472223 4.68755514,1.00270106 4.12746566,0.794283605 C3.56737618,0.58586615 3.34554704,0.382031822 2.93765103,0.249953597 C1.97197422,-0.0627360998 1.83366751,0.00652861661 1.60881765,0.00652861661 C0.720292195,0.00652861661 0,0.695709758 0,1.54585778 C0,2.3960058 0.720292195,3.08518694 1.60881765,3.08518694 Z" id="Left" transform="translate(2.955777, 1.542593) scale(-1, 1) translate(-2.955777, -1.542593) "></path>
                        <path d="M14.4793588,3.08518694 C14.9091641,3.08518694 15.5091976,2.8505225 15.8270971,2.4009379 C16.1449967,1.95135329 16.2094986,1.22438699 16.2094986,1.22438699 C16.2094986,1.22438699 17.8712907,1.81196758 18.2557335,1.79110614 C18.9162896,1.75526165 18.9210655,0.875177268 18.4596893,1.03511495 C18.1146552,1.15472223 17.5580963,1.00270106 16.9980068,0.794283605 C16.4379173,0.58586615 16.2160882,0.382031822 15.8081922,0.249953597 C14.8425154,-0.0627360998 14.7042087,0.00652861661 14.4793588,0.00652861661 C13.5908334,0.00652861661 12.8705412,0.695709758 12.8705412,1.54585778 C12.8705412,2.3960058 13.5908334,3.08518694 14.4793588,3.08518694 Z" id="Right"></path>
                    </g>
                    <g id="Hair">
                        <path d="M5.85470567,12.5355048 C5.12436669,9.87333171 5.90607267,6.34620415 7.47504753,4.10547583 C10.1507327,0.284201344 15.5797134,-0.530940656 19.6010153,2.28480521 C23.0651904,4.71044676 24.3546486,9.03931154 22.9349039,12.6351396 C26.9572077,15.2524297 28.5234876,20.1975651 28.5234876,26.9482785 C28.5234876,31.7718024 16.3492656,17.0980848 14.3251325,17.0980848 C12.1556045,17.0980848 0.0637301068,32.8746647 0.0637301068,26.9482785 C0.0637301068,20.110913 1.69808509,15.1257757 5.85470567,12.5355048 Z" id="Fill" fill="#371C1B" opacity="0.91479846"></path>
                        <path d="M7.07548761,12.5355048 C6.34514863,9.87333171 7.12685461,6.34620415 8.69582947,4.10547583 C11.3715147,0.284201344 16.8004953,-0.530940656 20.8217972,2.28480521 C24.2859723,4.71044676 25.5754306,9.03931154 24.1556858,12.6351396 C28.1779897,15.2524297 29.7442695,20.1975651 29.7442695,26.9482785 C29.7442695,31.7718024 17.5700475,17.0980848 15.5459145,17.0980848 C13.3763864,17.0980848 1.28451205,32.8746647 1.28451205,26.9482785 C1.28451205,20.110913 2.91886703,15.1257757 7.07548761,12.5355048 Z" id="Outline" stroke="#281514" stroke-width="0.886699507"></path>
                    </g>
                    <path d="M12.6790213,23.1112926 C12.5844469,23.2359312 10.2717086,22.9777337 8.51525807,23.475929 C6.75880756,23.9741242 5.34796263,25.2854074 5.34796263,25.2854074" id="Left" stroke="#4E2928" stroke-width="0.761034809"></path>
                    <path d="M26.3539713,23.1112926 C26.2593968,23.2359312 23.9466586,22.9777337 22.1902081,23.475929 C20.4337575,23.9741242 19.0229126,25.2854074 19.0229126,25.2854074" id="Right" stroke="#4E2928" stroke-width="0.761034809" transform="translate(22.688442, 24.198350) scale(-1, 1) translate(-22.688442, -24.198350) "></path>
                </g>
                <g id="Glasses" transform="translate(17.910156, 25.445342)" stroke="#000000" stroke-width="0.70466186">
                    <rect id="Rectangle-2" x="15.7004513" y="0.35233093" width="7.33482974" height="5.13248995" rx="1.40932372"></rect>
                    <path d="M23.0221805,1.82410994 L26.6764949,1.09446596" id="Line" stroke-linecap="square"></path>
                    <path d="M4.75060868,1.82410994 L0.365431437,1.09446596" id="Line" stroke-linecap="square"></path>
                    <path d="M12.0592374,2.55375392 C12.0592374,2.55375392 13.2620324,2.36538376 13.8863946,2.36538376 C14.5107568,2.36538376 15.7135518,2.55375392 15.7135518,2.55375392" id="Line" stroke-linecap="square"></path>
                    <rect id="Rectangle-2" x="4.73750817" y="0.35233093" width="7.33482974" height="5.13248995" rx="1.40932372"></rect>
                </g>
                <g id="Pocket" transform="translate(38.454631, 70.170206)">
                    <path d="M0,3.62877816 C0,2.9719398 0.534557645,2.43946711 1.18821149,2.43946711 L7.3572621,2.43946711 C8.01349319,2.43946711 8.54547359,2.96785823 8.54547359,3.62877816 L8.54547359,9.85010039 C8.54547359,11.4832627 7.22897099,12.8072023 5.58066423,12.8072023 L2.96480936,12.8072023 C1.32739036,12.8072023 0,11.4835907 0,9.85010039 L0,3.62877816 Z" fill="#3C3C3C"></path>
                    <path d="M3.66234583,2.4512669 C3.66234583,2.4512669 3.66234583,0.0117997905 3.05195485,0.0117997905 C2.44156388,0.0117997905 2.44156388,2.4512669 2.44156388,2.4512669 L3.66234583,2.4512669 Z" id="Pen" fill="#2075B8"></path>
                </g>
            </g>
            <g id="Nurse" transform="translate(73.000000, 1.000000)">
                <g id="Back-of-hair" transform="translate(13.123436, 17.552320)">
                    <path d="M15.0116922,24.8601716 C17.0298691,24.8601716 30.1564906,14.7220124 30.1564906,9.88219096 C30.1564906,-0.485288606 23.2399168,1.44150045 15.0116922,1.44150045 C6.78346754,1.44150045 0.00312108363,-0.485288606 0.00312108363,9.88219096 C0.00312108363,15.828601 5.95076069,30.3941104 11.8058818,26.8505105 C17.661003,23.3069105 12.8485481,24.8601716 15.0116922,24.8601716 Z" id="Hair" fill="#78413F"></path>
                    <path d="M15.6136719,23.6521913 C17.6318488,23.6521913 30.7584703,13.5140321 30.7584703,8.67421067 C30.7584703,-1.6932689 23.8418965,0.233520151 15.6136719,0.233520151 C7.38544724,0.233520151 0.605100779,-1.6932689 0.605100779,8.67421067 C0.605100779,14.6206207 6.55274039,29.1861301 12.4078615,25.6425302 C18.2629827,22.0989302 13.4505278,23.6521913 15.6136719,23.6521913 Z" id="Hair" stroke="#693937" stroke-width="0.9"></path>
                </g>
                <g id="Clothes" transform="translate(0.000000, 49.911549)">
                    <g id="Body">
                        <g id="Undershirt">
                            <use fill="#6BC0B8" fill-rule="evenodd" xlink:href="#path-1"></use>
                            <path stroke="#3E706B" stroke-width="0.785454545" d="M7.72796631,8.81486422 C7.73819965,8.82119543 7.74859457,8.82765303 7.75914959,8.83423749 C8.06711899,9.02635596 8.40881914,9.26412867 8.77573588,9.55028168 C9.81881737,10.3637657 10.8599735,11.4032274 11.8304724,12.690209 C14.5931952,16.3538643 16.2480911,21.2602271 16.2480911,27.5664379 C16.2480911,32.594009 18.1659372,36.9470172 21.3685762,40.6162928 C22.4919269,41.90332 23.6959972,43.0121447 24.8994196,43.9400142 C25.3198764,44.2641972 25.7097747,44.542344 26.0589075,44.7741594 C26.2443049,44.8972586 26.3809467,44.9829808 26.4656621,45.0335786 L33.5073454,45.0335786 C33.5664446,44.9376167 33.6463052,44.8067731 33.7448687,44.6434888 C33.9945094,44.229924 34.2728211,43.7587575 34.572623,43.2385111 C35.4293468,41.7518376 36.286094,40.1707745 37.0853534,38.5637734 C37.7769359,37.1732688 38.3934236,35.8262696 38.9153025,34.5463099 C40.0750376,31.7019446 40.7156745,29.3184413 40.7156745,27.5664379 C40.7156745,25.5996688 41.6313784,22.9253884 43.2712318,19.6982814 C43.9056654,18.4497644 44.6377074,17.1416295 45.4484352,15.7927506 C46.4760898,14.0829518 47.576598,12.3946546 48.6771027,10.8015056 C49.0623119,10.2438562 49.4200865,9.73781932 49.7413061,9.29264103 C49.8436302,9.15082993 49.9305573,9.03131674 50.0005969,8.93565722 C49.9587953,8.88977463 49.9098891,8.83706797 49.8538478,8.77792644 C49.5937285,8.50341719 49.2785449,8.19646562 48.9076708,7.86511056 C47.8436511,6.914469 46.5491449,5.96236346 45.0190365,5.07285061 C40.6380417,2.52600409 35.2505738,0.996717421 28.8083389,0.996717421 C22.3661039,0.996717421 16.9786361,2.52600409 12.5976412,5.07285061 C11.0675328,5.96236346 9.77302659,6.914469 8.70900689,7.86511056 C8.33813282,8.19646562 8.02294919,8.50341719 7.76282992,8.77792644 C7.75088555,8.79053158 7.7392653,8.8028444 7.72796631,8.81486422 Z M33.4332325,45.1531176 C33.4330492,45.1534105 33.4328662,45.153704 33.4326836,45.1539979 C33.4328665,45.1537058 33.4330498,45.1534128 33.4332338,45.1531189 Z M7.46075544,9.11283585 C7.45929455,9.11460432 7.45786743,9.11633751 7.45647398,9.11803538 C7.45797168,9.11628556 7.45944744,9.11452675 7.46090136,9.11275925 Z"></path>
                        </g>
                        <path d="M14.3296965,2.72822025 C16.6234697,1.05316555 22.1658181,0.438652253 22.1658181,0.438652253 L28.7382124,36.8486746 L37.5634685,0.438652253 C37.5634685,0.438652253 41.0475781,1.12569651 45.0118051,2.72822025 C48.9760321,4.33074398 57.0052127,7.50104131 57.0052127,26.3287158 C57.0052127,45.1563904 50.9144556,45.419706 50.9144556,46.1154149 C50.9144556,46.8111238 52.3044571,68.4104194 52.3044571,68.4104194 C52.307247,68.4537877 52.2780595,68.4889446 52.2391206,68.4889446 L8.9894353,68.4889446 C8.95056107,68.4889446 8.91852061,68.4531424 8.91787649,68.4090118 C8.91787649,68.4090118 8.59178146,46.4280932 8.91904729,45.2570261 C9.44679522,43.3685667 1.82724332,45.5449981 1.82724332,26.3287158 C1.82724332,7.11243355 12.0359232,4.40327494 14.3296965,2.72822025 Z" id="Fill---Coat" fill="#F4F4F4"></path>
                        <path d="M7.70454576,69.7009151 L49.863763,69.7009151 C49.857456,69.6027366 49.8496975,69.4819613 49.8400244,69.3313809 C49.7925121,68.5913877 49.7395701,67.7656622 49.6825558,66.8749573 C49.519657,64.3300772 49.3567579,61.7743221 49.2047171,59.3737029 C49.1961843,59.2389656 49.1961843,59.2389656 49.1876531,59.1042047 C48.75719,52.3039088 48.5085165,48.2489229 48.5085165,47.9273854 C48.5085165,47.8344099 48.526464,47.744274 48.5598076,47.6598722 C48.6831953,47.3475447 49.8694043,46.5835526 49.7788622,46.6516015 C50.4438512,46.1518146 51.0527138,45.4904557 51.6411167,44.5219811 C53.4888314,41.4807576 54.5992736,36.2627328 54.5992736,28.1406863 C54.5992736,19.7238504 53.0939447,13.8035739 50.4165705,9.85052317 C48.5128718,7.03977749 46.3967624,5.56210869 43.4293887,4.36255913 C41.7187135,3.67102516 39.972572,3.09872729 38.2858787,2.6394859 C37.6958865,2.47884683 37.1558773,2.34390727 36.6776554,2.23382113 C36.6742072,2.23302737 36.6707715,2.23223698 36.6673483,2.23144997 L28.8914578,38.7973666 L21.1140972,2.11909981 C20.8291417,2.1862324 20.519175,2.26163784 20.1896539,2.34469549 C19.0525799,2.63130138 17.915866,2.94961673 16.8574209,3.29043025 C15.0290077,3.8791693 13.6329658,4.47313294 12.877607,5.0247425 C12.5210998,5.285086 10.5519526,6.36397062 10.3811248,6.46411462 C9.08371631,7.22469116 7.97608858,8.02773357 6.91531729,9.04773355 C2.94165054,12.8686703 0.621304235,18.8651293 0.621304235,28.1406863 C0.621304235,36.1067508 1.89499795,40.8867823 4.04404074,43.5043817 C4.58161637,44.1591651 5.14201185,44.6421162 5.78799206,45.0587564 C6.02087948,45.2089626 6.96877934,45.7447668 7.16422926,45.8896417 C7.63529443,46.2388132 7.84562054,46.6770848 7.69096764,47.2304849 C7.57626592,47.6409262 7.54216092,52.0717388 7.58654414,58.6166647 C7.59916036,60.477103 7.61733049,62.4539903 7.63960885,64.4840984 C7.65541747,65.924653 7.67235543,67.3074236 7.68929313,68.5830454 C7.69477714,68.9960599 7.69989861,69.3703114 7.70454576,69.7009151 Z" id="Outline---Coat" stroke="#CECECE" stroke-width="1.2"></path>
                    </g>
                    <g id="Lapels" transform="translate(17.229651, 0.603990)" fill="#DEDEDE">
                        <path d="M0.566227572,2.77783813 C0.566227572,3.45600852 0.692781104,10.1922772 0.692781104,10.1922772 L5.50001914,10.112103 L2.02241602,15.5316421 L11.9298535,37.1549544 L5.50001914,0.38762581 C5.50001914,0.38762581 0.566227572,2.09966774 0.566227572,2.77783813 Z" id="Left"></path>
                        <path d="M12.2470176,2.79241928 L12.4529908,10.4075333 L17.2602288,10.3246138 L13.7826257,15.9297237 L25.9957938,35.2848766 L19.5695619,0.597906765 C19.5695619,0.597906765 17.6962866,0.828364887 15.1830486,1.61643768 C12.6698107,2.40451048 13.1148969,2.38193514 12.2470176,2.79241928 Z" id="Right" transform="translate(19.121406, 17.941392) scale(-1, 1) translate(-19.121406, -17.941392) "></path>
                    </g>
                </g>
                <g id="Face" transform="translate(14.757569, 19.663136)">
                    <path d="M14.9005631,36.4725345 C22.0972628,36.4725345 20.7726041,31.7655557 20.7726041,31.7655557 C20.7726041,31.7655557 18.0803359,31.0598728 18.0859059,31.0169371 C18.091476,30.9740015 18.0859059,25.9813903 18.0859059,25.9813903 C18.0859059,25.9813903 28.494278,23.1462163 28.158913,12.6531881 C28.0629591,9.65094669 27.5826458,5.94073118 25.4291735,4.59761102 C24.4862711,4.00952305 23.1970314,4.66753042 21.8191322,4.00952305 C20.4412331,3.35151567 16.9939541,0.279893358 14.0834233,0.279893358 C11.4817531,0.279893358 9.65331995,2.73397256 7.56114452,3.53551406 C5.46896909,4.33705556 3.85861782,2.9370159 2.72690891,4.45302505 C1.01266527,6.74938324 1.17591664e-16,9.58485885 0,12.6531881 C0,23.9503497 10.1996084,25.9813903 10.1996084,25.9813903 C10.1996084,25.9813903 10.1920941,30.9314414 10.1996084,31.0169371 C10.2071227,31.1024328 8.73406532,30.9309442 8.74194637,31.0169371 C8.74982743,31.10293 7.70386337,36.4725345 14.9005631,36.4725345 Z" fill="#FCC988"></path>
                    <path d="M14.5091519,36.0648554 C21.7058516,36.0648554 20.7726041,31.7655557 20.7726041,31.7655557 C20.7726041,31.7655557 18.0803359,31.0598728 18.0859059,31.0169371 C18.091476,30.9740015 18.0859059,25.9813903 18.0859059,25.9813903 C18.0859059,25.9813903 28.494278,23.1462163 28.158913,12.6531881 C28.0561036,9.43644996 26.9239077,6.47277418 25.0675745,4.11865811 C23.985796,2.74679653 21.687763,3.94642671 20.1745628,3.44096913 C18.6613625,2.93551155 16.6771118,0.639712409 14.0794565,0.639712409 C11.2794663,0.639712409 9.75376156,2.60114838 7.56114452,3.44096913 C5.36852748,4.28078988 4.41215009,2.49752655 3.55917563,3.44096913 C1.34514188,5.88982756 1.35527562e-16,9.11685595 0,12.6531881 C0,23.9503497 10.1996084,25.9813903 10.1996084,25.9813903 C10.1996084,25.9813903 10.1920941,30.9314414 10.1996084,31.0169371 C10.2071227,31.1024328 8.35450658,31.0755726 8.36238763,31.1615655 C8.37026869,31.2475584 7.31245219,36.0648554 14.5091519,36.0648554 Z" stroke="#E4B67D" stroke-width="0.9"></path>
                    <g id="Mouth" transform="translate(10.201972, 19.291079)" fill="#EA4F4D">
                        <path d="M3.93000481,3.08906038 C5.4803489,3.08906038 7.64864943,1.84788909 7.64864943,0.316826706 C7.64864943,-0.441954139 5.32109328,0.600371829 3.93000481,0.593681007 C2.53891635,0.586990184 0.0108238911,-0.455454832 0.0108238911,0.316826706 C0.0108238911,1.84788909 2.37966072,3.08906038 3.93000481,3.08906038 Z" id="Oval"></path>
                    </g>
                    <g id="Eyes" transform="translate(4.162471, 3.971420)">
                        <path d="M15.3752669,6.70152239 C15.8038075,6.70152239 16.4020753,6.46606507 16.7190394,6.01496143 C17.0360035,5.56385778 17.1003157,4.83443524 17.1003157,4.83443524 C17.1003157,4.83443524 18.4449451,4.61200028 17.8865037,4.40287863 C17.3280623,4.19375698 17.1068859,3.98923395 16.7001901,3.85670946 C15.7373549,3.54296326 15.5994552,3.61246201 15.3752669,3.61246201 C14.489356,3.61246201 13.7711833,4.30397173 13.7711833,5.1569922 C13.7711833,6.01001267 14.489356,6.70152239 15.3752669,6.70152239 Z" id="Left" fill="#3F1D1E"></path>
                        <path d="M4.18565735,6.70152239 C4.61419794,6.70152239 5.21246575,6.46606507 5.52942985,6.01496143 C5.84639395,5.56385778 5.91070607,4.83443524 5.91070607,4.83443524 C5.91070607,4.83443524 7.25533547,4.61200028 6.69689409,4.40287863 C6.13845271,4.19375698 5.91727631,3.98923395 5.51058056,3.85670946 C4.54774532,3.54296326 4.40984558,3.61246201 4.18565735,3.61246201 C3.29974645,3.61246201 2.58157376,4.30397173 2.58157376,5.1569922 C2.58157376,6.01001267 3.29974645,6.70152239 4.18565735,6.70152239 Z" id="Right" fill="#3F1D1E" transform="translate(4.707124, 5.153717) scale(-1, 1) translate(-4.707124, -5.153717) "></path>
                        <g id="Eyebrows" transform="translate(0.030422, 0.235477)" stroke="#78413F" stroke-width="0.785454545">
                            <path d="M7.48886679,0.441997313 C7.3945706,0.567057067 5.08863768,0.30798721 3.33735564,0.807865744 C1.58607361,1.30774428 0.179380176,2.62345794 0.179380176,2.62345794" id="Left"></path>
                            <path d="M20.6056875,0.441997313 C20.5113913,0.567057067 18.2054584,0.30798721 16.4541764,0.807865744 C14.7028943,1.30774428 13.2962009,2.62345794 13.2962009,2.62345794" id="Right" transform="translate(16.950944, 1.532728) scale(-1, 1) translate(-16.950944, -1.532728) "></path>
                        </g>
                    </g>
                </g>
                <g id="Bangs" transform="translate(11.912861, 5.984993)">
                    <path d="M16.4280225,5.26642097 C18.0202302,3.00920845 20.7191097,1.524807 23.7805393,1.524807 C28.6751971,1.524807 32.6431012,5.31924496 32.6431012,9.99992139 C32.6431012,14.6805978 28.2594415,20.7912123 23.7805393,18.4750358 C20.7787894,16.9227396 17.8198191,15.7468056 16.1945676,13.7309758 C14.5926076,15.4395161 11.8919012,16.5080625 8.86256188,18.1582091 C4.0095824,20.8017319 0,14.3637711 0,9.68309468 C0,5.00241825 3.96790411,1.2079803 8.86256188,1.2079803 C12.0650343,1.2079803 14.870781,2.83230781 16.4280225,5.26642097 Z" id="Fill---Hair" fill="#78413F"></path>
                    <path d="M17.0300021,4.05844068 C18.6222099,1.80122815 21.3210894,0.316826706 24.382519,0.316826706 C29.2771768,0.316826706 33.2450809,4.11126467 33.2450809,8.7919411 C33.2450809,13.4726175 28.8614212,19.583232 24.382519,17.2670555 C21.3807691,15.7147593 18.4217988,14.5388253 16.7965473,12.5229955 C15.1945873,14.2315359 12.4938809,15.3000822 9.46454157,16.9502288 C4.61156209,19.5937516 0.601979695,13.1557908 0.601979695,8.47511439 C0.601979695,3.79443796 4.5698838,-1.77635684e-15 9.46454157,-1.77635684e-15 C12.667014,-1.77635684e-15 15.4727607,1.62432751 17.0300021,4.05844068 Z" id="Outline---Hair" stroke="#693937" stroke-width="0.9"></path>
                </g>
                <g id="Hat" transform="translate(17.489094, 0.000000)">
                    <g>
                        <use fill="#FAFAFA" fill-rule="evenodd" xlink:href="#path-2"></use>
                        <path stroke="#CECECE" stroke-width="0.9" d="M2.9884916,14.3233007 C3.12086242,14.3099783 3.28219939,14.294217 3.47033102,14.2765049 C4.0969258,14.2175126 4.79598549,14.158542 5.55011773,14.1035099 C7.70551953,13.9462215 9.87164226,13.8518334 11.9101962,13.8518334 C13.9487498,13.8518334 16.1149179,13.9462215 18.2703958,14.1035099 C19.0245546,14.1585419 19.7236427,14.2175125 20.3502659,14.2765047 C20.5385128,14.2942269 20.6999336,14.309996 20.8321497,14.3233011 L23.2572766,4.62369111 C23.5797301,3.33399634 22.8166347,1.97508803 21.4815096,1.56141842 C21.434849,1.53699208 21.3073694,1.48345327 21.086451,1.41002943 C20.7000385,1.28160248 20.1949655,1.15168524 19.5587739,1.02947966 C17.7169581,0.675686606 15.2004869,0.462376043 11.9103037,0.462376043 C8.62009542,0.462376043 6.10575327,0.675158631 4.2675215,1.02806539 C3.63263016,1.14995288 3.12895131,1.27952321 2.74394,1.40759222 C2.52394136,1.48077191 2.39720398,1.53409057 2.26122781,1.5937757 C1.01305878,1.93716024 0.238511572,3.32439824 0.563364842,4.62369111 L2.9884916,14.3233007 Z"></path>
                    </g>
                </g>
                <g id="Cross" transform="translate(25.504929, 3.660546)" fill="#DF1F2F">
                    <path d="M4.61174034,2.5617482 L7.09343101,2.5617482 C7.13764556,2.5617482 7.17348854,2.59655054 7.17348854,2.64790503 L7.17348854,4.48069586 C7.17348854,4.52827896 7.14170619,4.56685269 7.09343101,4.56685269 L4.61174034,4.56685269 L4.61174034,7.04854336 C4.61174034,7.09275791 4.576938,7.12860089 4.52558351,7.12860089 L2.69279268,7.12860089 C2.64520957,7.12860089 2.60663585,7.09681854 2.60663585,7.04854336 L2.60663585,4.56685269 L0.12494518,4.56685269 C0.0807306273,4.56685269 0.0448876504,4.53205035 0.0448876504,4.48069586 L0.0448876504,2.64790503 C0.0448876504,2.60032192 0.0766700001,2.5617482 0.12494518,2.5617482 L2.60663585,2.5617482 L2.60663585,0.0800575295 C2.60663585,0.0358429769 2.64143819,0 2.69279268,0 L4.52558351,0 C4.57316661,0 4.61174034,0.0317823497 4.61174034,0.0800575295 L4.61174034,2.5617482 Z" id="Combined-Shape"></path>
                </g>
            </g>
        </g>
    </g>
</svg>