<?xml version="1.0" encoding="UTF-8"?>
<svg width="227px" height="143px" viewBox="0 0 227 143" version="1.1" xmlns="http://www.w3.org/2000/svg" xmlns:xlink="http://www.w3.org/1999/xlink">
    <!-- Generator: Sketch 49 (51002) - http://www.bohemiancoding.com/sketch -->
    <title>prototype</title>
    <desc>Created with Sketch.</desc>
    <defs>
        <rect id="path-1" x="0" y="0" width="60" height="106" rx="4"></rect>
        <rect id="path-3" x="40" y="11" width="10" height="2"></rect>
        <rect id="path-4" x="40" y="15" width="10" height="2"></rect>
        <rect id="path-5" x="10" y="27" width="18" height="18" rx="2"></rect>
        <rect id="path-6" x="10" y="49" width="18" height="18" rx="2"></rect>
        <rect id="path-7" x="10" y="71" width="18" height="18" rx="2"></rect>
        <rect id="path-8" x="10" y="93" width="18" height="18" rx="2"></rect>
        <rect id="path-9" x="32" y="27" width="18" height="18" rx="2"></rect>
        <rect id="path-10" x="32" y="49" width="18" height="18" rx="2"></rect>
        <rect id="path-11" x="32" y="71" width="18" height="18" rx="2"></rect>
        <rect id="path-12" x="32" y="93" width="18" height="18" rx="2"></rect>
        <rect id="path-13" x="0" y="0" width="60" height="106" rx="4"></rect>
        <rect id="path-15" x="0" y="0" width="60" height="106" rx="4"></rect>
        <path d="M36,38.9968516 C36,37.8940209 36.8983383,37 38.0073299,37 L60.9926701,37 C62.1012878,37 63,37.8923153 63,38.9968516 L63,86 L36,86 L36,38.9968516 Z" id="path-17"></path>
        <path d="M-4,37.9992604 C-4,36.8950994 -3.10010248,36 -2.00875569,36 L22.0087557,36 C23.1084896,36 24,36.8959923 24,37.9992604 L24,87 L-4,87 L-4,37.9992604 Z" id="path-18"></path>
        <rect id="path-19" x="10" y="25" width="40" height="73" rx="2"></rect>
        <rect id="path-20" x="45" y="15" width="5" height="2"></rect>
        <rect id="path-21" x="10" y="15" width="10" height="2"></rect>
        <rect id="path-22" x="10" y="10" width="20" height="2"></rect>
        <rect id="path-23" x="0" y="0" width="60" height="106" rx="4"></rect>
        <rect id="path-25" x="0" y="0" width="60" height="106" rx="4"></rect>
        <rect id="path-27" x="40" y="11" width="10" height="2"></rect>
        <rect id="path-28" x="40" y="15" width="10" height="2"></rect>
        <rect id="path-29" x="10" y="27" width="40" height="18" rx="2"></rect>
        <rect id="path-30" x="10" y="49" width="40" height="18" rx="2"></rect>
        <rect id="path-31" x="10" y="71" width="40" height="18" rx="2"></rect>
        <rect id="path-32" x="10" y="93" width="40" height="18" rx="2"></rect>
        <rect id="path-33" x="0" y="0" width="60" height="106" rx="4"></rect>
        <rect id="path-35" x="0" y="0" width="60" height="106" rx="4"></rect>
        <rect id="path-37" x="10" y="10" width="40" height="10" rx="2"></rect>
        <rect id="path-38" x="10" y="50" width="40" height="2"></rect>
        <rect id="path-39" x="10" y="84" width="40" height="2"></rect>
        <rect id="path-40" x="10" y="54" width="20" height="2"></rect>
        <rect id="path-41" x="10" y="88" width="20" height="2"></rect>
        <rect id="path-42" x="10" y="28" width="40" height="18" rx="2"></rect>
        <rect id="path-43" x="10" y="62" width="40" height="18" rx="2"></rect>
        <rect id="path-44" x="10" y="96" width="40" height="18" rx="2"></rect>
        <rect id="path-45" x="0" y="0" width="60" height="106" rx="4"></rect>
        <rect id="path-47" x="0" y="0" width="60" height="106" rx="4"></rect>
        <rect id="path-49" x="5" y="21" width="30" height="30" rx="2"></rect>
        <rect id="path-50" x="3" y="12" width="34" height="34" rx="2"></rect>
        <rect id="path-51" x="0" y="0" width="40" height="40" rx="2"></rect>
        <rect id="path-52" x="0" y="0" width="60" height="106" rx="4"></rect>
    </defs>
    <g id="Page-1" stroke="none" stroke-width="1" fill="none" fill-rule="evenodd">
        <g id="Dribble-Image" transform="translate(-288.000000, -331.000000)">
            <g id="prototype" transform="translate(288.000000, 331.000000)">
                <g id="Gallery-Copy-3" transform="translate(52.000000, 1.000000)">
                    <mask id="mask-2" fill="white">
                        <use xlink:href="#path-1"></use>
                    </mask>
                    <g id="Borders-2">
                        <use fill="#F8F8F8" fill-rule="evenodd" xlink:href="#path-1"></use>
                        <rect stroke="#79818F" stroke-width="2" x="1" y="1" width="58" height="104" rx="4"></rect>
                    </g>
                    <circle id="Oval-15" stroke="#3D9AD9" fill="#3D9AD9" mask="url(#mask-2)" cx="14" cy="14" r="4"></circle>
                    <g id="Rectangle-31" mask="url(#mask-2)">
                        <use fill="#79818F" fill-rule="evenodd" xlink:href="#path-3"></use>
                        <rect stroke="#3D9AD9" stroke-width="1" x="40.5" y="11.5" width="9" height="1"></rect>
                    </g>
                    <g id="Rectangle-31" mask="url(#mask-2)">
                        <use fill="#79818F" fill-rule="evenodd" xlink:href="#path-4"></use>
                        <rect stroke="#3D9AD9" stroke-width="1" x="40.5" y="15.5" width="9" height="1"></rect>
                    </g>
                    <g id="Rectangle-33" mask="url(#mask-2)">
                        <use fill="#FFFFFF" fill-rule="evenodd" xlink:href="#path-5"></use>
                        <rect stroke="#3D9AD9" stroke-width="2" x="11" y="28" width="16" height="16" rx="2"></rect>
                    </g>
                    <g id="Rectangle-33" mask="url(#mask-2)">
                        <use fill="#FFFFFF" fill-rule="evenodd" xlink:href="#path-6"></use>
                        <rect stroke="#3D9AD9" stroke-width="2" x="11" y="50" width="16" height="16" rx="2"></rect>
                    </g>
                    <g id="Rectangle-33" mask="url(#mask-2)">
                        <use fill="#FFFFFF" fill-rule="evenodd" xlink:href="#path-7"></use>
                        <rect stroke="#3D9AD9" stroke-width="2" x="11" y="72" width="16" height="16" rx="2"></rect>
                    </g>
                    <g id="Rectangle-33" mask="url(#mask-2)">
                        <use fill="#FFFFFF" fill-rule="evenodd" xlink:href="#path-8"></use>
                        <rect stroke="#3D9AD9" stroke-width="2" x="11" y="94" width="16" height="16" rx="2"></rect>
                    </g>
                    <g id="Rectangle-33" mask="url(#mask-2)">
                        <use fill="#FFFFFF" fill-rule="evenodd" xlink:href="#path-9"></use>
                        <rect stroke="#3D9AD9" stroke-width="2" x="33" y="28" width="16" height="16" rx="2"></rect>
                    </g>
                    <g id="Rectangle-33" mask="url(#mask-2)">
                        <use fill="#FFFFFF" fill-rule="evenodd" xlink:href="#path-10"></use>
                        <rect stroke="#3D9AD9" stroke-width="2" x="33" y="50" width="16" height="16" rx="2"></rect>
                    </g>
                    <g id="Rectangle-33" mask="url(#mask-2)">
                        <use fill="#FFFFFF" fill-rule="evenodd" xlink:href="#path-11"></use>
                        <rect stroke="#3D9AD9" stroke-width="2" x="33" y="72" width="16" height="16" rx="2"></rect>
                    </g>
                    <g id="Rectangle-33" mask="url(#mask-2)">
                        <use fill="#FFFFFF" fill-rule="evenodd" xlink:href="#path-12"></use>
                        <rect stroke="#3D9AD9" stroke-width="2" x="33" y="94" width="16" height="16" rx="2"></rect>
                    </g>
                    <mask id="mask-14" fill="white">
                        <use xlink:href="#path-13"></use>
                    </mask>
                    <rect stroke="#3D9AD9" stroke-width="2" x="1" y="1" width="58" height="104" rx="4"></rect>
                </g>
                <g id="Cards-Copy-3" transform="translate(0.000000, 19.000000)">
                    <mask id="mask-16" fill="white">
                        <use xlink:href="#path-15"></use>
                    </mask>
                    <g id="Base">
                        <use fill="#F8F8F8" fill-rule="evenodd" xlink:href="#path-15"></use>
                        <rect stroke="#79818F" stroke-width="2" x="1" y="1" width="58" height="104" rx="4"></rect>
                    </g>
                    <g id="Ticket-Right" mask="url(#mask-16)">
                        <use fill="#FFFFFF" fill-rule="evenodd" xlink:href="#path-17"></use>
                        <path stroke="#3D9AD9" stroke-width="2" d="M37,85 L62,85 L62,38.9968516 C62,38.446497 61.5508951,38 60.9926701,38 L38.0073299,38 C37.4496126,38 37,38.4473232 37,38.9968516 L37,85 Z"></path>
                    </g>
                    <g id="Ticket-Right" mask="url(#mask-16)">
                        <use fill="#FFFFFF" fill-rule="evenodd" xlink:href="#path-18"></use>
                        <path stroke="#3D9AD9" stroke-width="2" d="M-3,86 L23,86 L23,37.9992604 C23,37.4470026 22.554927,37 22.0087557,37 L-2.00875569,37 C-2.55046521,37 -3,37.4500351 -3,37.9992604 L-3,86 Z"></path>
                    </g>
                    <g id="Ticket-Center" mask="url(#mask-16)">
                        <use fill="#FFFFFF" fill-rule="evenodd" xlink:href="#path-19"></use>
                        <rect stroke="#3D9AD9" stroke-width="2" x="11" y="26" width="38" height="71" rx="2"></rect>
                    </g>
                    <g id="Price" mask="url(#mask-16)">
                        <use fill="#79818F" fill-rule="evenodd" xlink:href="#path-20"></use>
                        <rect stroke="#3D9AD9" stroke-width="1" x="45.5" y="15.5" width="4" height="1"></rect>
                    </g>
                    <g id="Product" mask="url(#mask-16)">
                        <use fill="#79818F" fill-rule="evenodd" xlink:href="#path-21"></use>
                        <rect stroke="#3D9AD9" stroke-width="1" x="10.5" y="15.5" width="9" height="1"></rect>
                    </g>
                    <g id="Date" mask="url(#mask-16)">
                        <use fill="#79818F" fill-rule="evenodd" xlink:href="#path-22"></use>
                        <rect stroke="#3D9AD9" stroke-width="1" x="10.5" y="10.5" width="19" height="1"></rect>
                    </g>
                    <mask id="mask-24" fill="white">
                        <use xlink:href="#path-23"></use>
                    </mask>
                    <rect stroke="#3D9AD9" stroke-width="2" x="1" y="1" width="58" height="104" rx="4"></rect>
                </g>
                <g id="prototypes" transform="translate(92.000000, 0.000000)">
                    <g id="prototype" transform="translate(29.500000, 0.625000)">
                        <mask id="mask-26" fill="white">
                            <use xlink:href="#path-25"></use>
                        </mask>
                        <g id="Borders-2">
                            <use fill="#F8F8F8" fill-rule="evenodd" xlink:href="#path-25"></use>
                            <rect stroke="#79818F" stroke-width="2" x="1" y="1" width="58" height="104" rx="4"></rect>
                        </g>
                        <circle id="Oval-15" stroke="#3D9AD9" fill="#3D9AD9" mask="url(#mask-26)" cx="14" cy="14" r="4"></circle>
                        <g id="Rectangle-31" mask="url(#mask-26)">
                            <use fill="#79818F" fill-rule="evenodd" xlink:href="#path-27"></use>
                            <rect stroke="#3D9AD9" stroke-width="1" x="40.5" y="11.5" width="9" height="1"></rect>
                        </g>
                        <g id="Rectangle-31" mask="url(#mask-26)">
                            <use fill="#79818F" fill-rule="evenodd" xlink:href="#path-28"></use>
                            <rect stroke="#3D9AD9" stroke-width="1" x="40.5" y="15.5" width="9" height="1"></rect>
                        </g>
                        <g id="Rectangle-33" mask="url(#mask-26)">
                            <use fill="#FFFFFF" fill-rule="evenodd" xlink:href="#path-29"></use>
                            <rect stroke="#3D9AD9" stroke-width="2" x="11" y="28" width="38" height="16" rx="2"></rect>
                        </g>
                        <g id="Rectangle-33" mask="url(#mask-26)">
                            <use fill="#FFFFFF" fill-rule="evenodd" xlink:href="#path-30"></use>
                            <rect stroke="#3D9AD9" stroke-width="2" x="11" y="50" width="38" height="16" rx="2"></rect>
                        </g>
                        <g id="Rectangle-33" mask="url(#mask-26)">
                            <use fill="#FFFFFF" fill-rule="evenodd" xlink:href="#path-31"></use>
                            <rect stroke="#3D9AD9" stroke-width="2" x="11" y="72" width="38" height="16" rx="2"></rect>
                        </g>
                        <g id="Rectangle-33" mask="url(#mask-26)">
                            <use fill="#FFFFFF" fill-rule="evenodd" xlink:href="#path-32"></use>
                            <rect stroke="#3D9AD9" stroke-width="2" x="11" y="94" width="38" height="16" rx="2"></rect>
                        </g>
                        <mask id="mask-34" fill="white">
                            <use xlink:href="#path-33"></use>
                        </mask>
                        <rect stroke="#3D9AD9" stroke-width="2" x="1" y="1" width="58" height="104" rx="4"></rect>
                    </g>
                    <g id="Gallery-Copy" transform="translate(75.000000, 13.000000)">
                        <mask id="mask-36" fill="white">
                            <use xlink:href="#path-35"></use>
                        </mask>
                        <g id="Borders-2">
                            <use fill="#F8F8F8" fill-rule="evenodd" xlink:href="#path-35"></use>
                            <rect stroke="#3D9AD9" stroke-width="2" x="1" y="1" width="58" height="104" rx="4"></rect>
                        </g>
                        <g id="Rectangle-33" mask="url(#mask-36)">
                            <use fill="#FFFFFF" fill-rule="evenodd" xlink:href="#path-37"></use>
                            <rect stroke="#3D9AD9" stroke-width="2" x="11" y="11" width="38" height="8" rx="2"></rect>
                        </g>
                        <g id="Rectangle-39" mask="url(#mask-36)">
                            <use fill="#79818F" fill-rule="evenodd" xlink:href="#path-38"></use>
                            <rect stroke="#3D9AD9" stroke-width="1" x="10.5" y="50.5" width="39" height="1"></rect>
                        </g>
                        <g id="Rectangle-39" mask="url(#mask-36)">
                            <use fill="#79818F" fill-rule="evenodd" xlink:href="#path-39"></use>
                            <rect stroke="#3D9AD9" stroke-width="1" x="10.5" y="84.5" width="39" height="1"></rect>
                        </g>
                        <g id="Rectangle-38" mask="url(#mask-36)">
                            <use fill="#79818F" fill-rule="evenodd" xlink:href="#path-40"></use>
                            <rect stroke="#3D9AD9" stroke-width="1" x="10.5" y="54.5" width="19" height="1"></rect>
                        </g>
                        <g id="Rectangle-38" mask="url(#mask-36)">
                            <use fill="#79818F" fill-rule="evenodd" xlink:href="#path-41"></use>
                            <rect stroke="#3D9AD9" stroke-width="1" x="10.5" y="88.5" width="19" height="1"></rect>
                        </g>
                        <g id="Rectangle-33" mask="url(#mask-36)">
                            <use fill="#FFFFFF" fill-rule="evenodd" xlink:href="#path-42"></use>
                            <rect stroke="#3D9AD9" stroke-width="2" x="11" y="29" width="38" height="16" rx="2"></rect>
                        </g>
                        <g id="Rectangle-33" mask="url(#mask-36)">
                            <use fill="#FFFFFF" fill-rule="evenodd" xlink:href="#path-43"></use>
                            <rect stroke="#3D9AD9" stroke-width="2" x="11" y="63" width="38" height="16" rx="2"></rect>
                        </g>
                        <g id="Rectangle-33" mask="url(#mask-36)">
                            <use fill="#FFFFFF" fill-rule="evenodd" xlink:href="#path-44"></use>
                            <rect stroke="#3D9AD9" stroke-width="2" x="11" y="97" width="38" height="16" rx="2"></rect>
                        </g>
                        <g id="Line-+-Oval-20" mask="url(#mask-36)" stroke="#3D9AD9">
                            <g transform="translate(29.000000, 13.000000)">
                                <path d="M2,2.5 L3,3.56066017" id="Line" stroke-linecap="round"></path>
                                <circle id="Oval-20" cx="1" cy="1.5" r="1.5"></circle>
                            </g>
                        </g>
                        <mask id="mask-46" fill="white">
                            <use xlink:href="#path-45"></use>
                        </mask>
                        <rect stroke="#3D9AD9" stroke-width="2" x="1" y="1" width="58" height="104" rx="4"></rect>
                    </g>
                    <g id="Cards-Copy-2" transform="translate(0.000000, 37.000000)">
                        <mask id="mask-48" fill="white">
                            <use xlink:href="#path-47"></use>
                        </mask>
                        <g id="Base">
                            <use fill="#F8F8F8" fill-rule="evenodd" xlink:href="#path-47"></use>
                            <rect stroke="#79818F" stroke-width="2" x="1" y="1" width="58" height="104" rx="4"></rect>
                        </g>
                        <g id="Ticket-Center-3-+-Ticket-Center-2-+-Ticket-Center" mask="url(#mask-48)">
                            <g transform="translate(10.000000, 35.000000)">
                                <g id="Ticket-Center-3">
                                    <use fill="#FFFFFF" fill-rule="evenodd" xlink:href="#path-49"></use>
                                    <rect stroke="#3D9AD9" stroke-width="2" x="6" y="22" width="28" height="28" rx="2"></rect>
                                </g>
                                <g id="Ticket-Center-2">
                                    <use fill="#FFFFFF" fill-rule="evenodd" xlink:href="#path-50"></use>
                                    <rect stroke="#3D9AD9" stroke-width="2" x="4" y="13" width="32" height="32" rx="2"></rect>
                                </g>
                                <g id="Ticket-Center">
                                    <use fill="#FFFFFF" fill-rule="evenodd" xlink:href="#path-51"></use>
                                    <rect stroke="#3D9AD9" stroke-width="2" x="1" y="1" width="38" height="38" rx="2"></rect>
                                </g>
                            </g>
                        </g>
                        <rect id="Price" stroke="#3D9AD9" mask="url(#mask-48)" x="45.5" y="15.5" width="4" height="1"></rect>
                        <rect id="Product" stroke="#3D9AD9" mask="url(#mask-48)" x="10.5" y="15.5" width="9" height="1"></rect>
                        <rect id="Date" stroke="#3D9AD9" mask="url(#mask-48)" x="10.5" y="10.5" width="19" height="1"></rect>
                        <mask id="mask-53" fill="white">
                            <use xlink:href="#path-52"></use>
                        </mask>
                        <rect stroke="#3D9AD9" stroke-width="2" x="1" y="1" width="58" height="104" rx="4"></rect>
                    </g>
                </g>
            </g>
        </g>
    </g>
</svg>