<?xml version="1.0" encoding="UTF-8"?>
<svg width="86px" height="126px" viewBox="0 0 86 126" version="1.1" xmlns="http://www.w3.org/2000/svg" xmlns:xlink="http://www.w3.org/1999/xlink">
    <!-- Generator: Sketch 52.6 (67491) - http://www.bohemiancoding.com/sketch -->
    <title>sbp-2</title>
    <desc>Created with Sketch.</desc>
    <defs>
        <polygon id="path-1" points="54.609 54.3911 54.609 0.3911 0.6091 0.3911 0.6091 54.3911 54.609 54.3911"></polygon>
        <polygon id="path-3" points="35.0129 0.488 0.399965998 0.488 0.399965998 21.2431417 35.0129 21.2431417 35.0129 0.488"></polygon>
    </defs>
    <g id="Page-1" stroke="none" stroke-width="1" fill="none" fill-rule="evenodd">
        <g id="netguru-cartoon-characters" transform="translate(-358.000000, -149.000000)">
            <g id="sbp-2" transform="translate(358.000000, 148.000000)">
                <g id="shadow-copy-2" transform="translate(0.000000, 117.000000)">
                    <ellipse id="Oval-Copy" fill="#F7F9FA" cx="43" cy="5" rx="43" ry="5"></ellipse>
                    <ellipse id="Oval" fill="#E9EAEC" cx="42.5" cy="5" rx="17.5" ry="2"></ellipse>
                </g>
                <g id="Person-8" transform="translate(15.000000, 0.000000)">
                    <path d="M34.6091,76.5831 L20.6091,76.5831 C10.1161,76.5831 1.6091,85.0901 1.6091,95.5831 L1.6091,104.5831 C1.6091,106.7921 3.4001,108.5831 5.6091,108.5831 L49.6091,108.5831 C51.8181,108.5831 53.6091,106.7921 53.6091,104.5831 L53.6091,95.5831 C53.6091,85.0901 45.1021,76.5831 34.6091,76.5831" id="Fill-1" fill="#F7D4AA"></path>
                    <path d="M53.6091,104.5831 L53.6091,95.5831 C53.6091,85.7641 46.1591,77.6861 36.6041,76.6891 C36.5461,81.6101 32.5441,85.5831 27.6091,85.5831 C22.6741,85.5831 18.6721,81.6101 18.6141,76.6891 C9.0591,77.6861 1.6091,85.7641 1.6091,95.5831 L1.6091,104.5831 L12.6091,104.5831 L12.6091,108.5831 L42.6091,108.5831 L42.6091,104.5831 L53.6091,104.5831 Z" id="Fill-3" fill="#3BABE1"></path>
                    <path d="M24.0735,119.761166 L12.6095,108.5 L42.6095,108.5 L31.1445,119.761166 C29.1915,121.679611 26.0265,121.679611 24.0735,119.761166" id="Fill-5" fill="#3BABE1"></path>
                    <path d="M27.6091,87.0831 C33.2871,87.0831 37.9141,82.5511 38.0921,76.9161 C37.6011,76.8241 37.1071,76.7421 36.6041,76.6891 C36.5461,81.6101 32.5441,85.5831 27.6091,85.5831 C22.6741,85.5831 18.6721,81.6101 18.6141,76.6891 C18.1111,76.7421 17.6171,76.8241 17.1261,76.9161 C17.3041,82.5511 21.9311,87.0831 27.6091,87.0831" id="Fill-8" fill="#85B9E4"></path>
                    <path d="M27.6091,85.5831 L27.6091,85.5831 C24.2951,85.5831 21.6091,82.8971 21.6091,79.5831 L21.6091,65.5831 L33.6091,65.5831 L33.6091,79.5831 C33.6091,82.8971 30.9231,85.5831 27.6091,85.5831" id="Fill-10" fill="#F7D4AA"></path>
                    <path d="M33.6091,74.5831 C33.6091,74.5831 29.1301,75.5831 27.6091,75.5831 C26.0881,75.5831 21.6091,74.5831 21.6091,74.5831 L21.6091,72.5831 C21.6091,72.5831 26.0881,73.5831 27.6091,73.5831 C29.1301,73.5831 33.6091,72.5831 33.6091,72.5831 L33.6091,74.5831 Z" id="Fill-12" fill="#292929" opacity="0.200000003"></path>
                    <g id="Group-16" transform="translate(0.000000, 5.512000)">
                        <mask id="mask-2" fill="white">
                            <use xlink:href="#path-1"></use>
                        </mask>
                        <g id="Clip-15"></g>
                        <path d="M54.6091,27.3911 C54.6091,42.3031 42.5211,54.3911 27.6091,54.3911 C12.6971,54.3911 0.6091,42.3031 0.6091,27.3911 C0.6091,12.4791 12.6971,0.3911 27.6091,0.3911 C42.5211,0.3911 54.6091,12.4791 54.6091,27.3911" id="Fill-14" fill="#5F5C61" mask="url(#mask-2)"></path>
                    </g>
                    <path d="M54.5085,45.6333 C54.5085,48.3673 52.2925,50.5833 49.5585,50.5833 C46.8255,50.5833 44.6095,48.3673 44.6095,45.6333 C44.6095,42.8993 46.8255,40.6833 49.5585,40.6833 C52.2925,40.6833 54.5085,42.8993 54.5085,45.6333" id="Fill-17" fill="#E9C6A0"></path>
                    <path d="M10.6091,45.6333 C10.6091,48.3673 8.3931,50.5833 5.6591,50.5833 C2.9261,50.5833 0.7101,48.3673 0.7101,45.6333 C0.7101,42.8993 2.9261,40.6833 5.6591,40.6833 C8.3931,40.6833 10.6091,42.8993 10.6091,45.6333" id="Fill-19" fill="#E9C6A0"></path>
                    <path d="M27.6091,72.5831 L27.6091,72.5831 C15.4591,72.5831 5.6091,62.7331 5.6091,50.5831 L5.6091,31.5831 C5.6091,19.4331 15.4591,9.5831 27.6091,9.5831 L27.6091,9.5831 C39.7591,9.5831 49.6091,19.4331 49.6091,31.5831 L49.6091,50.5831 C49.6091,62.7331 39.7591,72.5831 27.6091,72.5831" id="Fill-21" fill="#F7D4AA"></path>
                    <path d="M29.9848,52.2358 C29.6628,52.3288 29.1848,52.4758 28.7418,52.6148 C28.0028,52.8458 27.2148,52.8458 26.4758,52.6158 C26.0318,52.4778 25.5518,52.3308 25.2308,52.2388" id="Stroke-23" stroke="#EAB78A" stroke-width="2" stroke-linecap="round"></path>
                    <path d="M12.8063,47.9082 C12.8283,46.1552 14.0773,44.6012 15.8663,44.2582 C17.4863,43.9482 19.0623,44.7262 19.8413,46.0792" id="Stroke-25" stroke="#4D4C4E" stroke-width="2" stroke-linecap="round"></path>
                    <path d="M42.4119,47.9082 C42.3899,46.1552 41.1409,44.6012 39.3519,44.2582 C37.7319,43.9482 36.1559,44.7262 35.3769,46.0792" id="Stroke-27" stroke="#4D4C4E" stroke-width="2" stroke-linecap="round"></path>
                    <path d="M0.0874,6.5831 C0.0874,6.5831 -0.8986,15.6581 3.7544,23.3331 C7.7954,30.0001 14.7104,32.5291 15.8374,32.9031 C16.9344,33.2671 24.4204,34.9581 35.4194,33.8241 C49.2174,32.4021 52.6624,23.6931 52.6624,23.6931 L42.4114,12.5951 L20.8574,6.7721 C20.8574,6.7721 7.6114,15.6661 0.0874,6.5831" id="Fill-29" fill="#5F5C61"></path>
                    <g id="Group-33" transform="translate(8.000000, 0.512000)">
                        <mask id="mask-4" fill="white">
                            <use xlink:href="#path-3"></use>
                        </mask>
                        <g id="Clip-32"></g>
                        <path d="M2.0129,0.4877 C2.0129,0.4877 -2.7451,12.7377 4.0829,17.2377 C10.9109,21.7377 25.2529,21.2067 26.6529,21.2377 C33.3029,21.3867 35.0129,14.8207 35.0129,14.8207 C35.0129,14.8207 4.0829,8.1547 2.0129,0.4877" id="Fill-31" fill="#5F5C61" mask="url(#mask-4)"></path>
                    </g>
                    <polygon id="Fill-34" fill="#85B9E4" points="1.609 104.583 12.609 104.583 12.609 102.583 1.609 102.583"></polygon>
                    <polygon id="Fill-36" fill="#292929" opacity="0.200000003" points="9.609 108.583 12.609 108.583 12.609 102.583 9.609 102.583"></polygon>
                    <polygon id="Fill-38" fill="#85B9E4" points="42.609 104.583 53.609 104.583 53.609 102.583 42.609 102.583"></polygon>
                    <polygon id="Fill-40" fill="#292929" opacity="0.200000003" points="42.609 108.583 45.609 108.583 45.609 102.583 42.609 102.583"></polygon>
                    <path d="M49.6145,35.7227 L49.6115,46.5857 C49.6105,52.1077 45.1335,56.5827 39.6115,56.5827 L27.6095,56.5827 L15.6065,56.5827 C10.0845,56.5827 5.6075,52.1077 5.6065,46.5857 L5.6035,35.7227 L4.6095,35.7227 L4.6095,54.6467 C4.6095,55.4857 4.7005,56.3277 4.9425,57.1317 C7.3215,65.0057 13.5985,71.1587 21.5065,73.2827 C22.4825,73.5447 26.8305,74.5827 27.6095,74.5827 C28.3875,74.5827 32.7355,73.5447 33.7115,73.2827 C41.6195,71.1587 47.8965,65.0057 50.2755,57.1317 C50.5185,56.3277 50.6095,55.4857 50.6095,54.6467 L50.6095,35.7227 L49.6145,35.7227 Z" id="Fill-42" fill="#5F5C61"></path>
                    <path d="M38.2677,60.0123 C36.5767,64.2413 32.4417,67.2283 27.6087,67.2283 C22.7767,67.2283 18.6417,64.2413 16.9507,60.0123 L38.2677,60.0123 Z" id="Fill-44" fill="#FEFEFE"></path>
                    <path d="M37.4818,61.6004 C37.7818,61.0944 38.0468,60.5644 38.2678,60.0124 L16.9508,60.0124 C17.1718,60.5644 17.4358,61.0944 17.7368,61.6004 L37.4818,61.6004 Z" id="Fill-46" fill="#292929" opacity="0.200000003"></path>
                </g>
            </g>
        </g>
    </g>
</svg>