<?xml version="1.0" encoding="UTF-8"?>
<svg width="86px" height="127px" viewBox="0 0 86 127" version="1.1" xmlns="http://www.w3.org/2000/svg" xmlns:xlink="http://www.w3.org/1999/xlink">
    <!-- Generator: Sketch 52.6 (67491) - http://www.bohemiancoding.com/sketch -->
    <title>teacher-1</title>
    <desc>Created with Sketch.</desc>
    <defs>
        <polygon id="path-1" points="0.1097 16 30.1097 16 30.1097 0.0003 0.1097 0.0003"></polygon>
        <polygon id="path-3" points="5.42101086e-20 0.2511 5.42101086e-20 16.5731 16.3216 16.5731 16.3216 0.2511 0 0.2511"></polygon>
        <polygon id="path-5" points="9.547 8.792 9.547 0.208 0.9621 0.208 0.9621 8.792 9.547 8.792"></polygon>
        <polygon id="path-7" points="8.978 0.358 0.889 0.358 0.889 8.4475 8.978 8.4475 8.978 0.358"></polygon>
    </defs>
    <g id="Page-1" stroke="none" stroke-width="1" fill="none" fill-rule="evenodd">
        <g id="netguru-cartoon-characters" transform="translate(-497.000000, -148.000000)">
            <g id="teacher-1" transform="translate(497.000000, 147.000000)">
                <g id="shadow-copy-3" transform="translate(0.000000, 118.000000)">
                    <ellipse id="Oval-Copy" fill="#F7F9FA" cx="43" cy="5" rx="43" ry="5"></ellipse>
                    <ellipse id="Oval" fill="#E9EAEC" cx="42.5" cy="5" rx="17.5" ry="2"></ellipse>
                </g>
                <g id="Person-9" transform="translate(3.000000, 0.000000)">
                    <path d="M63.7085,64.3574 C63.7085,65.7054 62.6155,66.7974 61.2685,66.7974 C59.9205,66.7974 58.8285,65.7054 58.8285,64.3574 C58.8285,63.0094 59.9205,61.9174 61.2685,61.9174 C62.6155,61.9174 63.7085,63.0094 63.7085,64.3574" id="Fill-1" fill="#4D4C4E"></path>
                    <path d="M67.2827,58.4836 C67.2827,59.8316 66.1897,60.9236 64.8427,60.9236 C63.4947,60.9236 62.4027,59.8316 62.4027,58.4836 C62.4027,57.1356 63.4947,56.0436 64.8427,56.0436 C66.1897,56.0436 67.2827,57.1356 67.2827,58.4836" id="Fill-3" fill="#4D4C4E"></path>
                    <path d="M65.7362,62.0148 C65.7362,63.3628 64.6432,64.4548 63.2962,64.4548 C61.9482,64.4548 60.8562,63.3628 60.8562,62.0148 C60.8562,60.6668 61.9482,59.5748 63.2962,59.5748 C64.6432,59.5748 65.7362,60.6668 65.7362,62.0148" id="Fill-5" fill="#4D4C4E"></path>
                    <path d="M72.7161,55.3404 C72.7161,56.6884 71.6231,57.7804 70.2761,57.7804 C68.9281,57.7804 67.8361,56.6884 67.8361,55.3404 C67.8361,53.9924 68.9281,52.9004 70.2761,52.9004 C71.6231,52.9004 72.7161,53.9924 72.7161,55.3404" id="Fill-7" fill="#4D4C4E"></path>
                    <path d="M74.2771,46.0356 C74.2771,47.3836 73.1841,48.4756 71.8371,48.4756 C70.4891,48.4756 69.3971,47.3836 69.3971,46.0356 C69.3971,44.6876 70.4891,43.5956 71.8371,43.5956 C73.1841,43.5956 74.2771,44.6876 74.2771,46.0356" id="Fill-9" fill="#4D4C4E"></path>
                    <path d="M73.6098,50.0767 C73.6098,51.9177 72.1168,53.4107 70.2758,53.4107 C68.4348,53.4107 66.9418,51.9177 66.9418,50.0767 C66.9418,48.2357 68.4348,46.7427 70.2758,46.7427 C72.1168,46.7427 73.6098,48.2357 73.6098,50.0767" id="Fill-11" fill="#4D4C4E"></path>
                    <path d="M70.546,45.5952 C70.546,47.0232 69.389,48.1802 67.961,48.1802 C66.533,48.1802 65.376,47.0232 65.376,45.5952 C65.376,44.1672 66.533,43.0102 67.961,43.0102 C69.389,43.0102 70.546,44.1672 70.546,45.5952" id="Fill-13" fill="#4D4C4E"></path>
                    <path d="M71.1834,48.0121 C71.1834,49.3601 70.0904,50.4521 68.7434,50.4521 C67.3954,50.4521 66.3034,49.3601 66.3034,48.0121 C66.3034,46.6641 67.3954,45.5721 68.7434,45.5721 C70.0904,45.5721 71.1834,46.6641 71.1834,48.0121" id="Fill-15" fill="#4D4C4E"></path>
                    <path d="M65.6542,64.5835 C65.6542,65.3085 65.0672,65.8955 64.3422,65.8955 C63.6172,65.8955 63.0302,65.3085 63.0302,64.5835 C63.0302,63.8585 63.6172,63.2715 64.3422,63.2715 C65.0672,63.2715 65.6542,63.8585 65.6542,64.5835" id="Fill-17" fill="#4D4C4E"></path>
                    <path d="M47.1097,79.642 L33.1097,79.642 C22.6167,79.642 14.1097,88.149 14.1097,98.642 L14.1097,107.642 C14.1097,109.851 15.9007,111.642 18.1097,111.642 L62.1097,111.642 C64.3187,111.642 66.1097,109.851 66.1097,107.642 L66.1097,98.642 C66.1097,88.149 57.6027,79.642 47.1097,79.642" id="Fill-19" fill="#B68F65"></path>
                    <path d="M40.1097,87.642 L40.1097,87.642 C36.7957,87.642 34.1097,84.956 34.1097,81.642 L34.1097,67.642 L46.1097,67.642 L46.1097,81.642 C46.1097,84.956 43.4237,87.642 40.1097,87.642" id="Fill-21" fill="#B68F65"></path>
                    <path d="M46.1097,76.642 C46.1097,76.642 41.6307,77.642 40.1097,77.642 C38.5887,77.642 34.1097,76.642 34.1097,76.642 L34.1097,74.642 C34.1097,74.642 38.5887,75.642 40.1097,75.642 C41.6307,75.642 46.1097,74.642 46.1097,74.642 L46.1097,76.642 Z" id="Fill-23" fill="#292929" opacity="0.200000003"></path>
                    <path d="M15.9538,52.9223 C15.9538,54.5823 14.6078,55.9273 12.9488,55.9273 C11.2888,55.9273 9.9428,54.5823 9.9428,52.9223 C9.9428,51.2623 11.2888,49.9173 12.9488,49.9173 C14.6078,49.9173 15.9538,51.2623 15.9538,52.9223" id="Fill-25" fill="#4D4C4E"></path>
                    <path d="M13.7119,48.0121 C13.7119,51.2351 11.0989,53.8481 7.8759,53.8481 C4.6519,53.8481 2.0389,51.2351 2.0389,48.0121 C2.0389,44.7891 4.6519,42.1761 7.8759,42.1761 C11.0989,42.1761 13.7119,44.7891 13.7119,48.0121" id="Fill-27" fill="#4D4C4E"></path>
                    <path d="M13.5596,55.9277 C13.5596,57.6557 12.1586,59.0567 10.4306,59.0567 C8.7026,59.0567 7.3016,57.6557 7.3016,55.9277 C7.3016,54.1997 8.7026,52.7987 10.4306,52.7987 C12.1586,52.7987 13.5596,54.1997 13.5596,55.9277" id="Fill-29" fill="#4D4C4E"></path>
                    <path d="M18.6141,61.2035 C18.6141,63.4635 16.7821,65.2955 14.5221,65.2955 C12.2621,65.2955 10.4311,63.4635 10.4311,61.2035 C10.4311,58.9435 12.2621,57.1115 14.5221,57.1115 C16.7821,57.1115 18.6141,58.9435 18.6141,61.2035" id="Fill-31" fill="#4D4C4E"></path>
                    <path d="M22.7109,66.6654 C22.7109,68.8634 20.9289,70.6444 18.7319,70.6444 C16.5339,70.6444 14.7519,68.8634 14.7519,66.6654 C14.7519,64.4684 16.5339,62.6864 18.7319,62.6864 C20.9289,62.6864 22.7109,64.4684 22.7109,66.6654" id="Fill-33" fill="#4D4C4E"></path>
                    <path d="M73.1097,39.642 C73.1097,57.867 58.3347,72.642 40.1097,72.642 C21.8847,72.642 7.1097,57.867 7.1097,39.642 C7.1097,21.417 21.8847,6.642 40.1097,6.642 C58.3347,6.642 73.1097,21.417 73.1097,39.642" id="Fill-35" fill="#4D4C4E"></path>
                    <path d="M66.7797,44.962 C66.7797,59.831 54.7257,71.885 39.8567,71.885 C24.9877,71.885 12.9337,59.831 12.9337,44.962 C12.9337,30.093 24.9877,18.039 39.8567,18.039 C54.7257,18.039 66.7797,30.093 66.7797,44.962" id="Fill-37" fill="#4D4C4E"></path>
                    <path d="M25.1097,50.642 C25.1097,53.403 22.8707,55.642 20.1097,55.642 C17.3487,55.642 15.1097,53.403 15.1097,50.642 C15.1097,47.881 17.3487,45.642 20.1097,45.642 C22.8707,45.642 25.1097,47.881 25.1097,50.642" id="Fill-39" fill="#8C7052"></path>
                    <path d="M18.1103,54.6421 C19.2153,54.6421 20.1103,55.7621 20.1093,57.1421 C20.1093,57.7091 19.9583,58.2321 19.7033,58.6521 C19.3383,59.2531 18.7603,59.6421 18.1093,59.6421 C17.0043,59.6421 16.1093,58.5221 16.1093,57.1411 C16.1103,55.7611 17.0053,54.6421 18.1103,54.6421 L18.1103,54.6421 Z" id="Stroke-41" stroke="#FEC94B"></path>
                    <path d="M65.1097,50.642 C65.1097,53.403 62.8707,55.642 60.1097,55.642 C57.3487,55.642 55.1097,53.403 55.1097,50.642 C55.1097,47.881 57.3487,45.642 60.1097,45.642 C62.8707,45.642 65.1097,47.881 65.1097,50.642" id="Fill-43" fill="#8C7052"></path>
                    <path d="M62.1103,54.6421 C63.2153,54.6421 64.1103,55.7621 64.1093,57.1421 C64.1093,57.7091 63.9583,58.2321 63.7033,58.6521 C63.3383,59.2531 62.7603,59.6421 62.1093,59.6421 C61.0043,59.6421 60.1093,58.5221 60.1093,57.1411 C60.1103,55.7611 61.0053,54.6421 62.1103,54.6421 L62.1103,54.6421 Z" id="Stroke-45" stroke="#FEC94B"></path>
                    <g id="Group-49" transform="translate(25.000000, 106.642000)">
                        <mask id="mask-2" fill="white">
                            <use xlink:href="#path-1"></use>
                        </mask>
                        <g id="Clip-48"></g>
                        <path d="M30.1097,4.6863 C30.1097,10.9343 23.3937,16.0003 15.1097,16.0003 C6.8257,16.0003 0.1097,10.9343 0.1097,4.6863 C0.1097,-1.5617 30.1097,-1.5617 30.1097,4.6863" id="Fill-47" fill="#EAC463" mask="url(#mask-2)"></path>
                    </g>
                    <path d="M40.1097,75.642 L40.1097,75.642 C27.9597,75.642 18.1097,65.792 18.1097,53.642 L18.1097,34.642 C18.1097,22.492 27.9597,12.642 40.1097,12.642 L40.1097,12.642 C52.2597,12.642 62.1097,22.492 62.1097,34.642 L62.1097,53.642 C62.1097,65.792 52.2597,75.642 40.1097,75.642" id="Fill-50" fill="#B68F65"></path>
                    <path d="M51.1097,51.142 C51.1097,51.97 50.4377,52.642 49.6097,52.642 C48.7817,52.642 48.1097,51.97 48.1097,51.142 C48.1097,50.314 48.7817,49.642 49.6097,49.642 C50.4377,49.642 51.1097,50.314 51.1097,51.142" id="Fill-52" fill="#2D2D2D"></path>
                    <path d="M32.1097,51.142 C32.1097,51.97 31.4377,52.642 30.6097,52.642 C29.7817,52.642 29.1097,51.97 29.1097,51.142 C29.1097,50.314 29.7817,49.642 30.6097,49.642 C31.4377,49.642 32.1097,50.314 32.1097,51.142" id="Fill-54" fill="#2D2D2D"></path>
                    <path d="M41.383,58.4643 C40.764,59.1543 39.407,59.1813 38.837,58.4663" id="Stroke-56" stroke="#997862" stroke-width="2" stroke-linecap="round"></path>
                    <path d="M42.7314,67.5623 C41.4564,68.9823 38.6634,69.0383 37.4884,67.5653" id="Stroke-58" stroke="#ED3A52" stroke-width="2" stroke-linecap="round"></path>
                    <path d="M30.5777,44.6943 C28.5677,44.5463 26.7937,45.6403 26.1097,47.0333" id="Stroke-60" stroke="#4D4C4E" stroke-width="2" stroke-linecap="round"></path>
                    <path d="M49.6417,44.6943 C51.6517,44.5463 53.4257,45.6403 54.1097,47.0333" id="Stroke-62" stroke="#4D4C4E" stroke-width="2" stroke-linecap="round"></path>
                    <path d="M75.8047,38.117 C75.8047,40.616 73.7787,42.642 71.2797,42.642 C68.7807,42.642 66.7547,40.616 66.7547,38.117 C66.7547,35.618 68.7807,33.592 71.2797,33.592 C73.7787,33.592 75.8047,35.618 75.8047,38.117" id="Fill-64" fill="#4D4C4E"></path>
                    <path d="M25.0075,35.7235 C25.0075,36.4485 24.4205,37.0355 23.6955,37.0355 C22.9705,37.0355 22.3835,36.4485 22.3835,35.7235 C22.3835,34.9985 22.9705,34.4115 23.6955,34.4115 C24.4205,34.4115 25.0075,34.9985 25.0075,35.7235" id="Fill-66" fill="#4D4C4E"></path>
                    <path d="M12.6789,17.8027 C12.6789,19.8767 10.9969,21.5587 8.9229,21.5587 C6.8489,21.5587 5.1669,19.8767 5.1669,17.8027 C5.1669,15.7287 6.8489,14.0467 8.9229,14.0467 C10.9969,14.0467 12.6789,15.7287 12.6789,17.8027" id="Fill-68" fill="#4D4C4E"></path>
                    <path d="M31.2664,20.8979 C31.2664,27.1139 26.2274,32.1539 20.0104,32.1539 C13.7944,32.1539 8.7544,27.1139 8.7544,20.8979 C8.7544,14.6819 13.7944,9.6419 20.0104,9.6419 C26.2274,9.6419 31.2664,14.6819 31.2664,20.8979" id="Fill-70" fill="#4D4C4E"></path>
                    <g id="Group-74" transform="translate(0.000000, 19.642000)">
                        <mask id="mask-4" fill="white">
                            <use xlink:href="#path-3"></use>
                        </mask>
                        <g id="Clip-73"></g>
                        <path d="M16.3216,8.4121 C16.3216,12.9191 12.6676,16.5731 8.1606,16.5731 C3.6536,16.5731 -0.0004,12.9191 -0.0004,8.4121 C-0.0004,3.9051 3.6536,0.2511 8.1606,0.2511 C12.6676,0.2511 16.3216,3.9051 16.3216,8.4121" id="Fill-72" fill="#4D4C4E" mask="url(#mask-4)"></path>
                    </g>
                    <path d="M9.392,38.5558 C9.392,41.0098 7.402,42.9998 4.948,42.9998 C2.494,42.9998 0.504,41.0098 0.504,38.5558 C0.504,36.1018 2.494,34.1118 4.948,34.1118 C7.402,34.1118 9.392,36.1018 9.392,38.5558" id="Fill-75" fill="#4D4C4E"></path>
                    <path d="M78.5365,28.9355 C78.5365,31.5345 76.4295,33.6425 73.8295,33.6425 C71.2305,33.6425 69.1235,31.5345 69.1235,28.9355 C69.1235,26.3365 71.2305,24.2285 73.8295,24.2285 C76.4295,24.2285 78.5365,26.3365 78.5365,28.9355" id="Fill-77" fill="#4D4C4E"></path>
                    <path d="M20.173,26.1426 C20.173,27.5396 19.04,28.6726 17.643,28.6726 C16.246,28.6726 15.114,27.5396 15.114,26.1426 C15.114,24.7456 16.246,23.6126 17.643,23.6126 C19.04,23.6126 20.173,24.7456 20.173,26.1426" id="Fill-79" fill="#4D4C4E"></path>
                    <path d="M64.6031,23.3069 C64.6031,24.7099 63.4661,25.8469 62.0631,25.8469 C60.6601,25.8469 59.5231,24.7099 59.5231,23.3069 C59.5231,21.9039 60.6601,20.7669 62.0631,20.7669 C63.4661,20.7669 64.6031,21.9039 64.6031,23.3069" id="Fill-81" fill="#4D4C4E"></path>
                    <path d="M55.1794,35.8945 C55.1794,37.4125 53.9484,38.6435 52.4304,38.6435 C50.9124,38.6435 49.6814,37.4125 49.6814,35.8945 C49.6814,34.3765 50.9124,33.1455 52.4304,33.1455 C53.9484,33.1455 55.1794,34.3765 55.1794,35.8945" id="Fill-83" fill="#4D4C4E"></path>
                    <path d="M45.07,11.8881 C45.07,13.9281 43.416,15.5821 41.376,15.5821 C39.335,15.5821 37.682,13.9281 37.682,11.8881 C37.682,9.8481 39.335,8.1941 41.376,8.1941 C43.416,8.1941 45.07,9.8481 45.07,11.8881" id="Fill-85" fill="#4D4C4E"></path>
                    <path d="M71.8369,29.0675 C71.8369,30.5955 70.5979,31.8345 69.0699,31.8345 C67.5419,31.8345 66.3039,30.5955 66.3039,29.0675 C66.3039,27.5395 67.5419,26.3005 69.0699,26.3005 C70.5979,26.3005 71.8369,27.5395 71.8369,29.0675" id="Fill-87" fill="#4D4C4E"></path>
                    <path d="M52.2961,33.488 C52.2961,34.836 51.2031,35.928 49.8561,35.928 C48.5081,35.928 47.4161,34.836 47.4161,33.488 C47.4161,32.14 48.5081,31.048 49.8561,31.048 C51.2031,31.048 52.2961,32.14 52.2961,33.488" id="Fill-89" fill="#4D4C4E"></path>
                    <path d="M55.3586,10.5851 C55.3586,11.9171 54.2786,12.9971 52.9456,12.9971 C51.6136,12.9971 50.5336,11.9171 50.5336,10.5851 C50.5336,9.2531 51.6136,8.1721 52.9456,8.1721 C54.2786,8.1721 55.3586,9.2531 55.3586,10.5851" id="Fill-91" fill="#4D4C4E"></path>
                    <path d="M58.9251,36.5533 C58.9251,37.9013 57.8321,38.9933 56.4851,38.9933 C55.1371,38.9933 54.0451,37.9013 54.0451,36.5533 C54.0451,35.2053 55.1371,34.1133 56.4851,34.1133 C57.8321,34.1133 58.9251,35.2053 58.9251,36.5533" id="Fill-93" fill="#4D4C4E"></path>
                    <path d="M49.2471,22.2755 C49.2471,25.6625 46.5011,28.4095 43.1131,28.4095 C39.7261,28.4095 36.9801,25.6625 36.9801,22.2755 C36.9801,18.8885 39.7261,16.1415 43.1131,16.1415 C46.5011,16.1415 49.2471,18.8885 49.2471,22.2755" id="Fill-95" fill="#4D4C4E"></path>
                    <path d="M60.4411,8.2656 C60.4411,9.8546 59.1531,11.1426 57.5641,11.1426 C55.9751,11.1426 54.6871,9.8546 54.6871,8.2656 C54.6871,6.6766 55.9751,5.3886 57.5641,5.3886 C59.1531,5.3886 60.4411,6.6766 60.4411,8.2656" id="Fill-97" fill="#4D4C4E"></path>
                    <path d="M69.8954,9.1499 C69.8954,11.2189 68.2184,12.8969 66.1484,12.8969 C64.0794,12.8969 62.4024,11.2189 62.4024,9.1499 C62.4024,7.0809 64.0794,5.4029 66.1484,5.4029 C68.2184,5.4029 69.8954,7.0809 69.8954,9.1499" id="Fill-99" fill="#4D4C4E"></path>
                    <path d="M39.3496,20.9286 C39.3496,22.3486 38.1986,23.4996 36.7786,23.4996 C35.3586,23.4996 34.2076,22.3486 34.2076,20.9286 C34.2076,19.5086 35.3586,18.3576 36.7786,18.3576 C38.1986,18.3576 39.3496,19.5086 39.3496,20.9286" id="Fill-101" fill="#4D4C4E"></path>
                    <path d="M53.1097,37.642 C53.1097,39.851 51.3187,41.642 49.1097,41.642 C46.9007,41.642 45.1097,39.851 45.1097,37.642 C45.1097,35.433 46.9007,33.642 49.1097,33.642 C51.3187,33.642 53.1097,35.433 53.1097,37.642" id="Fill-103" fill="#4D4C4E"></path>
                    <path d="M26.5132,10.6169 C26.5132,12.8149 24.7312,14.5969 22.5332,14.5969 C20.3352,14.5969 18.5532,12.8149 18.5532,10.6169 C18.5532,8.4189 20.3352,6.6369 22.5332,6.6369 C24.7312,6.6369 26.5132,8.4189 26.5132,10.6169" id="Fill-105" fill="#4D4C4E"></path>
                    <path d="M78.4799,15.1482 C78.4799,18.1722 76.0289,20.6232 73.0049,20.6232 C69.9809,20.6232 67.5289,18.1722 67.5289,15.1482 C67.5289,12.1242 69.9809,9.6732 73.0049,9.6732 C76.0289,9.6732 78.4799,12.1242 78.4799,15.1482" id="Fill-107" fill="#4D4C4E"></path>
                    <g id="Group-111" transform="translate(69.000000, 18.642000)">
                        <mask id="mask-6" fill="white">
                            <use xlink:href="#path-5"></use>
                        </mask>
                        <g id="Clip-110"></g>
                        <path d="M9.5471,4.5 C9.5471,6.871 7.6251,8.792 5.2551,8.792 C2.8841,8.792 0.9621,6.871 0.9621,4.5 C0.9621,2.129 2.8841,0.208 5.2551,0.208 C7.6251,0.208 9.5471,2.129 9.5471,4.5" id="Fill-109" fill="#4D4C4E" mask="url(#mask-6)"></path>
                    </g>
                    <path d="M35.4943,7.8261 C35.4943,9.9211 33.7963,11.6191 31.7013,11.6191 C29.6063,11.6191 27.9083,9.9211 27.9083,7.8261 C27.9083,5.7311 29.6063,4.0331 31.7013,4.0331 C33.7963,4.0331 35.4943,5.7311 35.4943,7.8261" id="Fill-112" fill="#4D4C4E"></path>
                    <path d="M64.7193,34.9935 C64.7193,37.0695 63.0363,38.7525 60.9603,38.7525 C58.8833,38.7525 57.2003,37.0695 57.2003,34.9935 C57.2003,32.9175 58.8833,31.2345 60.9603,31.2345 C63.0363,31.2345 64.7193,32.9175 64.7193,34.9935" id="Fill-114" fill="#4D4C4E"></path>
                    <path d="M63.3028,6.0023 C63.3028,8.0083 61.6758,9.6353 59.6698,9.6353 C57.6638,9.6353 56.0368,8.0083 56.0368,6.0023 C56.0368,3.9963 57.6638,2.3693 59.6698,2.3693 C61.6758,2.3693 63.3028,3.9963 63.3028,6.0023" id="Fill-116" fill="#4D4C4E"></path>
                    <path d="M35.0776,31.4759 C33.7476,32.9139 31.5036,33.0019 30.0646,31.6719 C28.6266,30.3419 28.5386,28.0969 29.8686,26.6589 C31.1986,25.2209 33.4436,25.1329 34.8816,26.4629 C36.3196,27.7929 36.4076,30.0379 35.0776,31.4759" id="Fill-118" fill="#4D4C4E"></path>
                    <path d="M46.5047,29.2303 C46.5047,30.6083 45.3877,31.7253 44.0097,31.7253 C42.6307,31.7253 41.5137,30.6083 41.5137,29.2303 C41.5137,27.8523 42.6307,26.7353 44.0097,26.7353 C45.3877,26.7353 46.5047,27.8523 46.5047,29.2303" id="Fill-120" fill="#4D4C4E"></path>
                    <path d="M76.5996,34.2554 C76.5996,36.4314 74.8356,38.1954 72.6596,38.1954 C70.4836,38.1954 68.7196,36.4314 68.7196,34.2554 C68.7196,32.0794 70.4836,30.3154 72.6596,30.3154 C74.8356,30.3154 76.5996,32.0794 76.5996,34.2554" id="Fill-122" fill="#4D4C4E"></path>
                    <g id="Group-126" transform="translate(48.000000, 0.642000)">
                        <mask id="mask-8" fill="white">
                            <use xlink:href="#path-7"></use>
                        </mask>
                        <g id="Clip-125"></g>
                        <path d="M8.978,4.4025 C8.978,6.6365 7.167,8.4475 4.933,8.4475 C2.7,8.4475 0.889,6.6365 0.889,4.4025 C0.889,2.1685 2.7,0.3575 4.933,0.3575 C7.167,0.3575 8.978,2.1685 8.978,4.4025" id="Fill-124" fill="#4D4C4E" mask="url(#mask-8)"></path>
                    </g>
                    <path d="M49.3297,7.3874 C49.3297,9.7284 47.4317,11.6264 45.0907,11.6264 C42.7497,11.6264 40.8517,9.7284 40.8517,7.3874 C40.8517,5.0464 42.7497,3.1484 45.0907,3.1484 C47.4317,3.1484 49.3297,5.0464 49.3297,7.3874" id="Fill-127" fill="#4D4C4E"></path>
                    <path d="M19.4028,31.6705 C19.4028,33.0185 18.3098,34.1105 16.9628,34.1105 C15.6148,34.1105 14.5228,33.0185 14.5228,31.6705 C14.5228,30.3225 15.6148,29.2305 16.9628,29.2305 C18.3098,29.2305 19.4028,30.3225 19.4028,31.6705" id="Fill-129" fill="#4D4C4E"></path>
                    <path d="M13.6559,36.7091 C13.6559,38.3641 12.3139,39.7061 10.6589,39.7061 C9.0039,39.7061 7.6629,38.3641 7.6629,36.7091 C7.6629,35.0541 9.0039,33.7121 10.6589,33.7121 C12.3139,33.7121 13.6559,35.0541 13.6559,36.7091" id="Fill-131" fill="#4D4C4E"></path>
                    <path d="M30.0002,31.0746 C30.0002,34.9656 26.8462,38.1196 22.9552,38.1196 C19.0652,38.1196 15.9112,34.9656 15.9112,31.0746 C15.9112,27.1836 19.0652,24.0296 22.9552,24.0296 C26.8462,24.0296 30.0002,27.1836 30.0002,31.0746" id="Fill-133" fill="#4D4C4E"></path>
                    <path d="M24.1097,40.642 C24.1097,43.956 21.4237,46.642 18.1097,46.642 C14.7957,46.642 12.1097,43.956 12.1097,40.642 C12.1097,37.328 14.7957,34.642 18.1097,34.642 C21.4237,34.642 24.1097,37.328 24.1097,40.642" id="Fill-135" fill="#4D4C4E"></path>
                    <path d="M26.4391,38.7828 C26.4391,40.6628 24.9151,42.1868 23.0351,42.1868 C21.1551,42.1868 19.6311,40.6628 19.6311,38.7828 C19.6311,36.9028 21.1551,35.3788 23.0351,35.3788 C24.9151,35.3788 26.4391,36.9028 26.4391,38.7828" id="Fill-137" fill="#4D4C4E"></path>
                    <path d="M30.3389,9.0021 C30.3389,12.0751 27.8479,14.5661 24.7749,14.5661 C21.7019,14.5661 19.2109,12.0751 19.2109,9.0021 C19.2109,5.9291 21.7019,3.4381 24.7749,3.4381 C27.8479,3.4381 30.3389,5.9291 30.3389,9.0021" id="Fill-139" fill="#4D4C4E"></path>
                    <path d="M41.6725,7.0135 C41.6725,8.8755 40.1635,10.3855 38.3005,10.3855 C36.4385,10.3855 34.9295,8.8755 34.9295,7.0135 C34.9295,5.1515 36.4385,3.6415 38.3005,3.6415 C40.1635,3.6415 41.6725,5.1515 41.6725,7.0135" id="Fill-141" fill="#4D4C4E"></path>
                    <path d="M41.6725,14.1178 C41.6725,18.4648 38.1485,21.9898 33.8005,21.9898 C29.4535,21.9898 25.9295,18.4648 25.9295,14.1178 C25.9295,9.7708 29.4535,6.2458 33.8005,6.2458 C38.1485,6.2458 41.6725,9.7708 41.6725,14.1178" id="Fill-143" fill="#4D4C4E"></path>
                    <path d="M15.451,35.1501 C15.451,36.7561 14.149,38.0571 12.544,38.0571 C10.938,38.0571 9.637,36.7561 9.637,35.1501 C9.637,33.5441 10.938,32.2431 12.544,32.2431 C14.149,32.2431 15.451,33.5441 15.451,35.1501" id="Fill-145" fill="#4D4C4E"></path>
                    <path d="M37.4614,28.9103 C35.0924,31.3863 31.1644,31.4743 28.6884,29.1053 C26.2114,26.7363 26.1244,22.8083 28.4934,20.3323 C30.8624,17.8553 34.7904,17.7683 37.2664,20.1373 C39.7434,22.5063 39.8304,26.4343 37.4614,28.9103" id="Fill-147" fill="#4D4C4E"></path>
                    <path d="M52.4303,32.3098 C52.4303,33.9458 51.1043,35.2728 49.4673,35.2728 C47.8313,35.2728 46.5043,33.9458 46.5043,32.3098 C46.5043,30.6738 47.8313,29.3468 49.4673,29.3468 C51.1043,29.3468 52.4303,30.6738 52.4303,32.3098" id="Fill-149" fill="#4D4C4E"></path>
                    <path d="M50.3586,33.4459 C50.3586,35.3259 48.8346,36.8489 46.9556,36.8489 C45.0756,36.8489 43.5516,35.3259 43.5516,33.4459 C43.5516,31.5659 45.0756,30.0429 46.9556,30.0429 C48.8346,30.0429 50.3586,31.5659 50.3586,33.4459" id="Fill-151" fill="#4D4C4E"></path>
                    <path d="M72.1097,36.642 C72.1097,42.165 67.6327,46.642 62.1097,46.642 C56.5867,46.642 52.1097,42.165 52.1097,36.642 C52.1097,31.119 56.5867,26.642 62.1097,26.642 C67.6327,26.642 72.1097,31.119 72.1097,36.642" id="Fill-153" fill="#4D4C4E"></path>
                    <path d="M56.7304,27.85 C56.7304,31.08 54.1124,33.698 50.8824,33.698 C47.6524,33.698 45.0344,31.08 45.0344,27.85 C45.0344,24.62 47.6524,22.002 50.8824,22.002 C54.1124,22.002 56.7304,24.62 56.7304,27.85" id="Fill-155" fill="#4D4C4E"></path>
                    <path d="M73.0459,43.4936 C73.0459,44.8966 71.9069,46.0356 70.5039,46.0356 C69.0999,46.0356 67.9609,44.8966 67.9609,43.4936 C67.9609,42.0896 69.0999,40.9506 70.5039,40.9506 C71.9069,40.9506 73.0459,42.0896 73.0459,43.4936" id="Fill-157" fill="#4D4C4E"></path>
                    <path d="M14.7586,12.6848 C14.7586,14.1258 13.5906,15.2928 12.1506,15.2928 C10.7096,15.2928 9.5416,14.1258 9.5416,12.6848 C9.5416,11.2438 10.7096,10.0768 12.1506,10.0768 C13.5906,10.0768 14.7586,11.2438 14.7586,12.6848" id="Fill-159" fill="#4D4C4E"></path>
                    <path d="M25.0333,9.1499 C25.0333,12.2109 22.5513,14.6929 19.4903,14.6929 C16.4293,14.6929 13.9473,12.2109 13.9473,9.1499 C13.9473,6.0889 16.4293,3.6069 19.4903,3.6069 C22.5513,3.6069 25.0333,6.0889 25.0333,9.1499" id="Fill-161" fill="#4D4C4E"></path>
                    <path d="M71.7547,20.642 C71.7547,29.479 64.5917,36.642 55.7547,36.642 C46.9177,36.642 39.7547,29.479 39.7547,20.642 C39.7547,11.805 46.9177,4.642 55.7547,4.642 C64.5917,4.642 71.7547,11.805 71.7547,20.642" id="Fill-163" fill="#4D4C4E"></path>
                    <path d="M66.1097,107.642 L66.1097,98.642 C66.1097,90.835 61.3967,84.134 54.6647,81.212 C53.0607,87.769 47.1617,92.642 40.1097,92.642 C33.0577,92.642 27.1587,87.769 25.5547,81.212 C18.8227,84.134 14.1097,90.835 14.1097,98.642 L14.1097,107.642 L25.1097,107.642 L25.1097,111.642 L55.1097,111.642 L55.1097,107.642 L66.1097,107.642 Z" id="Fill-165" fill="#EAC463"></path>
                    <path d="M23.6097,104.1424 C22.7807,104.1424 22.1097,104.8144 22.1097,105.6424 L22.1097,111.6424 L25.1097,111.6424 L25.1097,105.6424 C25.1097,104.8144 24.4387,104.1424 23.6097,104.1424" id="Fill-167" fill="#292929" opacity="0.200000003"></path>
                    <path d="M56.6097,104.1424 C55.7807,104.1424 55.1097,104.8144 55.1097,105.6424 L55.1097,111.6424 L58.1097,111.6424 L58.1097,105.6424 C58.1097,104.8144 57.4387,104.1424 56.6097,104.1424" id="Fill-169" fill="#292929" opacity="0.200000003"></path>
                    <path d="M54.6644,81.2117 C53.0604,87.7697 47.1614,92.6417 40.1094,92.6417 C33.0584,92.6417 27.1594,87.7697 25.5554,81.2117 C24.7714,81.5517 24.0194,81.9477 23.2944,82.3857 C25.4134,89.9227 32.2334,95.1417 40.1094,95.1417 C47.9854,95.1417 54.8064,89.9227 56.9244,82.3857 C56.2004,81.9477 55.4474,81.5517 54.6644,81.2117" id="Fill-171" fill="#F1DCA0"></path>
                </g>
            </g>
        </g>
    </g>
</svg>