<?xml version="1.0" encoding="UTF-8"?>
<svg width="28px" height="23px" viewBox="0 0 28 23" version="1.1" xmlns="http://www.w3.org/2000/svg" xmlns:xlink="http://www.w3.org/1999/xlink">
    <!-- Generator: Sketch 51.3 (57544) - http://www.bohemiancoding.com/sketch -->
    <title>Alert</title>
    <desc>Created with Sketch.</desc>
    <defs></defs>
    <g id="Page-1" stroke="none" stroke-width="1" fill="none" fill-rule="evenodd">
        <g id="Alert" fill="#D0021B">
            <path d="M14,2.75376475 L25.2,20.0487647 L2.8,20.0487647 L14,2.75376475 L14,2.75376475 Z M2.014,22.0537647 L26.018,22.0537647 C28.375,22.0537647 28.296,20.6667647 27.628,19.6327647 L15.44,0.613764747 C14.882,-0.170235253 13.22,-0.238235253 12.56,0.613764747 L0.372,19.6327647 C-0.232,20.7617647 -0.313,22.0537647 2.014,22.0537647 L2.014,22.0537647 Z" id="Fill-121"></path>
            <path d="M17.3469932,10 L10.6530068,10 C10.2925204,10 10,10.4479167 10,11 C10,11.5520833 10.2925204,12 10.6530068,12 L17.3469932,12 C17.7074796,12 18,11.5520833 18,11 C18,10.4479167 17.7074796,10 17.3469932,10 L17.3469932,10 Z" id="Path" transform="translate(14.000000, 11.000000) rotate(90.000000) translate(-14.000000, -11.000000) "></path>
            <circle id="Oval" cx="14" cy="17" r="1"></circle>
        </g>
    </g>
</svg>