<?xml version="1.0" encoding="UTF-8"?>
<svg width="418px" height="426px" viewBox="0 0 418 426" version="1.1" xmlns="http://www.w3.org/2000/svg" xmlns:xlink="http://www.w3.org/1999/xlink">
    <!-- Generator: Sketch 49 (51002) - http://www.bohemiancoding.com/sketch -->
    <title>Connectivity</title>
    <desc>Created with Sketch.</desc>
    <defs></defs>
    <g id="Page-1" stroke="none" stroke-width="1" fill="none" fill-rule="evenodd" stroke-linecap="round" stroke-linejoin="round">
        <g id="20-Internet-Element-Icons" transform="translate(-1054.000000, -970.000000)" stroke="#3D9AD9" stroke-width="26">
            <g id="Connectivity" transform="translate(1067.000000, 983.000000)">
                <path d="M276.9,127 L24.8,127 C11.1,127 0,138.1 0,151.8 L0,308.3 C0,322 11.1,333.1 24.8,333.1 L276.9,333.1 C290.6,333.1 301.7,322 301.7,308.3 L301.7,151.8 C301.7,138.1 290.6,127 276.9,127 L276.9,127 Z" id="Shape"></path>
                <path d="M132.1,333.1 L118.8,400" id="Shape"></path>
                <path d="M169.7,333.1 L182.9,400" id="Shape"></path>
                <path d="M81.2,400 L220.5,400" id="Shape"></path>
                <path d="M301.7,289 C354.8,265.6 391.9,212.6 391.9,150.9 C391.9,67.6 324.4,0 241,0 C165.8,0 103.5,55 92,127" id="Shape"></path>
                <path d="M301.7,150.9 L391.9,150.9" id="Shape"></path>
                <path d="M241,0 L241,127" id="Shape"></path>
                <path d="M241,0 C276.6,35.6 302.2,82.5 302.2,150.9" id="Shape"></path>
                <path d="M179.9,127 C185.1,80.6 205.5,35.6 241.1,0" id="Shape"></path>
                <path d="M370.9,74.1 L111.1,74.1" id="Shape"></path>
                <path d="M301.7,227.6 L370.9,227.6" id="Shape"></path>
            </g>
        </g>
    </g>
</svg>