<?xml version="1.0" encoding="UTF-8"?>
<svg width="146px" height="146px" viewBox="0 0 146 146" version="1.1" xmlns="http://www.w3.org/2000/svg" xmlns:xlink="http://www.w3.org/1999/xlink">
    <!-- Generator: Sketch 49 (51002) - http://www.bohemiancoding.com/sketch -->
    <title>demographic</title>
    <desc>Created with Sketch.</desc>
    <defs></defs>
    <g id="Page-1" stroke="none" stroke-width="1" fill="none" fill-rule="evenodd">
        <g id="4_user_status_icons" transform="translate(-452.000000, -127.000000)" fill="#3D9AD9">
            <g id="Icons" transform="translate(202.000000, 127.000000)">
                <path d="M367.35845,38.2826688 C366.766272,38.8788923 365.936249,39.1053072 365.16211,38.9571366 C364.683458,38.8683351 364.226004,38.6379585 363.857249,38.2666834 L354.731206,29.0782874 C353.760425,28.1008743 353.752777,26.5238748 354.729223,25.5407574 C355.698908,24.5644467 357.275779,24.569179 358.242747,25.5427535 L365.645742,32.9963284 L383.799573,14.7184625 C384.749985,13.761557 386.313051,13.7572215 387.274464,14.7252041 C388.242581,15.6999354 388.238876,17.2595784 387.28116,18.2238377 L367.35845,38.2826688 Z M347.599212,4.24926443 C349.159196,4.80748953 349.971282,6.52463745 349.413057,8.08462166 C348.854832,9.64460588 347.137684,10.4566921 345.5777,9.89846699 C344.546257,9.52937529 343.505273,9.18563334 342.455529,8.86761669 C341.407958,8.5502582 340.351877,8.25858315 339.288044,7.99292576 C338.225535,7.72759912 337.155502,7.48827733 336.078676,7.27525666 C335.004988,7.06285653 333.924748,6.87664437 332.838658,6.71688002 C331.755387,6.55753032 330.666492,6.42451993 329.572643,6.31807569 C328.483482,6.21208771 327.389596,6.13245675 326.291621,6.07937887 C325.198091,6.0265159 324.100684,6 323,6 C285.996922,6 256,35.9969218 256,73 C256,110.003078 285.996922,140 323,140 C360.003078,140 390,110.003078 390,73 C390,71.8993162 389.973484,70.8019091 389.920621,69.7083792 C389.867543,68.6104038 389.787912,67.5165183 389.681924,66.4273574 C389.57548,65.3335078 389.44247,64.2446128 389.28312,63.1613419 C389.123356,62.0752523 388.937143,60.9950125 388.724743,59.9213236 C388.511723,58.844498 388.272401,57.7744648 388.007074,56.7119562 C387.741417,55.6481231 387.449742,54.5920422 387.132383,53.5444711 C386.652004,51.9587844 387.548033,50.2839074 389.13372,49.8035284 C390.719407,49.3231495 392.394284,50.2191784 392.874663,51.804865 C393.220675,52.947021 393.538682,54.0984439 393.828316,55.2582922 C394.117572,56.4166253 394.378468,57.5831177 394.610679,58.7569514 C394.842184,59.9272187 395.045132,61.1045427 395.219239,62.2881357 C395.39286,63.4684215 395.537766,64.6547061 395.653716,65.8462329 C395.769136,67.0323188 395.85584,68.2233707 395.913623,69.418668 C395.97115,70.6086866 396,71.8026922 396,73 C396,113.316787 363.316787,146 323,146 C282.683213,146 250,113.316787 250,73 C250,32.6832133 282.683213,0 323,0 C324.197308,0 325.391313,0.0288499444 326.581332,0.086377338 C327.776629,0.14415991 328.967681,0.230864238 330.153767,0.346284143 C331.345294,0.462233514 332.531579,0.607140201 333.711864,0.780760842 C334.895457,0.954867984 336.072781,1.15781556 337.243049,1.38932112 C338.416882,1.62153218 339.583375,1.88242789 340.741708,2.17168356 C341.901556,2.46131757 343.052979,2.77932479 344.195135,3.12533745 C345.339668,3.47207036 346.474649,3.84685063 347.599212,4.24926443 Z M323,75.2684564 C311.817938,75.2684564 302.753086,66.2540554 302.753086,55.1342282 C302.753086,44.014401 311.817938,35 323,35 C334.182062,35 343.246914,44.014401 343.246914,55.1342282 C343.246914,66.2540554 334.182062,75.2684564 323,75.2684564 Z M323,70.2348993 C331.386546,70.2348993 338.185185,63.4740986 338.185185,55.1342282 C338.185185,46.7943578 331.386546,40.033557 323,40.033557 C314.613454,40.033557 307.814815,46.7943578 307.814815,55.1342282 C307.814815,63.4740986 314.613454,70.2348993 323,70.2348993 Z M305.053918,71.6859279 C306.331945,71.1634215 307.791566,71.7758917 308.314072,73.0539185 C308.836579,74.3319452 308.224108,75.7915657 306.946082,76.3140721 C303.121236,77.877816 299.646577,80.1750484 296.720339,83.0601888 C290.851819,88.8462867 287.5,96.6595791 287.5,105 C287.5,106.380712 286.380712,107.5 285,107.5 C283.619288,107.5 282.5,106.380712 282.5,105 C282.5,95.3046682 286.399658,86.2143309 293.209896,79.4997406 C296.599588,76.1576561 300.623648,73.4971926 305.053918,71.6859279 Z M339.053918,76.3140721 C337.775892,75.7915657 337.163421,74.3319452 337.685928,73.0539185 C338.208434,71.7758917 339.668055,71.1634215 340.946082,71.6859279 C345.376352,73.4971926 349.400412,76.1576561 352.790104,79.4997406 C359.600342,86.2143309 363.5,95.3046682 363.5,105 C363.5,106.380712 362.380712,107.5 361,107.5 C359.619288,107.5 358.5,106.380712 358.5,105 C358.5,96.6595791 355.148181,88.8462867 349.279661,83.0601888 C346.353423,80.1750484 342.878764,77.877816 339.053918,76.3140721 Z" id="demographic"></path>
            </g>
        </g>
    </g>
</svg>