<?xml version="1.0" encoding="UTF-8"?>
<svg width="102px" height="102px" viewBox="0 0 102 102" version="1.1" xmlns="http://www.w3.org/2000/svg" xmlns:xlink="http://www.w3.org/1999/xlink">
    <!-- Generator: Sketch 48.2 (47327) - http://www.bohemiancoding.com/sketch -->
    <title>fingerprint</title>
    <desc>Created with Sketch.</desc>
    <defs></defs>
    <g id="Sign-In" stroke="none" stroke-width="1" fill="red" fill-rule="evenodd" transform="translate(-512.000000, -246.000000)">
        <g id="Fingerprint" transform="translate(478.000000, 144.000000)" fill="#9B9B9B">
            <path d="M135.371822,153.113242 C135.371822,149.901136 135.073413,146.767076 134.456701,143.532015 L134.216444,142.287879 L134.184307,142.287879 C131.428231,130.12503 124.19755,119.134394 114.19855,111.980227 C113.509913,111.485939 112.556534,111.646621 112.062247,112.333727 C111.571019,113.020833 111.72711,113.977273 112.414216,114.4685 C122.122459,121.416076 129.056262,132.223076 131.445065,144.118121 L131.507807,144.428773 C132.049534,147.359303 132.311216,150.202606 132.311216,153.113242 C132.311216,153.95797 132.995262,154.643545 133.841519,154.643545 C134.687777,154.643545 135.371822,153.95797 135.371822,153.113242 M46.9111253,124.582273 C53.9704132,115.12347 64.2540496,108.676303 75.8721102,106.428288 C78.8148829,105.851364 81.8494738,105.560606 84.8886556,105.560606 C92.1331102,105.560606 99.1189435,107.184258 105.657928,110.384121 C106.420019,110.755985 107.336671,110.443803 107.705474,109.683242 C108.075807,108.924212 107.762095,108.007561 107.003065,107.635697 C100.043247,104.227712 92.6044435,102.5 84.8886556,102.5 C81.6520647,102.5 78.4200647,102.810652 75.2875344,103.424303 C62.9226859,105.817697 51.9748981,112.681106 44.4580496,122.75203 C43.9515193,123.429955 44.0923071,124.387924 44.7687011,124.892924 C45.0441556,125.097985 45.363989,125.197455 45.682292,125.197455 C46.1505647,125.197455 46.6111859,124.984742 46.9111253,124.582273 M37.6237162,165.891273 C38.445489,165.693864 38.9520193,164.8675 38.7561405,164.045727 C38.7255344,163.918712 38.6949284,163.811591 38.6658526,163.712121 L38.6689132,163.712121 L38.3475496,161.88647 C36.3030647,151.543152 37.9114132,140.641273 42.8099132,131.187061 C43.1986102,130.437212 42.9843678,129.512909 42.2345193,129.124212 C41.4831405,128.735515 40.717989,129.029333 40.329292,129.779182 C35.1385041,139.795015 32.8415193,151.342682 35.9021253,162.313424 L35.9021253,162.321076 C35.9021253,163.479515 35.8164284,163.904939 35.9817011,164.385455 C36.0168981,164.489515 35.7414435,164.601227 35.7797011,164.761909 C35.9480344,165.461258 36.5754587,165.935652 37.2671556,165.935652 C37.384989,165.932591 37.5043526,165.917288 37.6237162,165.891273 M73.8306859,201.368288 C86.0639284,185.064439 89.8147011,170.52503 86.3807011,152.750561 C86.2200193,151.921136 85.4135496,151.377879 84.5871859,151.538561 C83.7577617,151.699242 83.2160344,152.501121 83.3751859,153.332076 C86.6775799,170.394955 83.2007314,183.778985 71.3837314,199.530394 C70.8756708,200.206788 71.0133981,201.166288 71.689792,201.671288 C71.9652465,201.877879 72.2881405,201.977348 72.6064435,201.977348 C73.0716556,201.981939 73.5307465,201.770758 73.8306859,201.368288 M80.5288223,202.571106 C92.4835496,185.67197 96.030792,170.42403 92.3886708,151.590591 C91.9999738,149.579773 90.8507162,147.841348 89.1551405,146.695152 C87.4641556,145.552015 85.4273223,145.137303 83.4241556,145.52753 C81.4179284,145.916227 79.6825647,147.062424 78.5378981,148.758 C77.3947617,150.452045 76.9785193,152.491939 77.3672162,154.498167 C78.7307162,161.551333 78.7353071,167.923515 77.3825193,173.978924 C77.1988829,174.803758 77.7176556,175.620939 78.542489,175.804576 C79.3719132,175.989742 80.1860344,175.469439 80.3696708,174.644606 C81.8158071,168.172955 81.8173375,161.389121 80.3727314,153.913591 C80.1401253,152.707712 80.3895647,151.48347 81.0751405,150.465818 C81.7607162,149.448167 82.8013223,148.761061 84.0072011,148.526924 C85.2115496,148.294318 86.4296708,148.542227 87.4427314,149.226273 C88.4619132,149.913379 89.1505496,150.957045 89.3877465,152.165985 C92.8554132,170.101136 89.4596708,184.648197 78.0328981,200.799015 C77.5447314,201.489182 77.7084738,202.442561 78.3986405,202.933788 C78.6679738,203.123545 78.9755647,203.215364 79.2816253,203.215364 C79.7575496,203.215364 80.2304132,202.991939 80.5288223,202.571106 M67.6620344,199.35747 C72.2544738,193.465803 75.5752314,188.001091 77.8125344,182.646561 C78.138489,181.866106 77.7696859,180.969348 76.9892314,180.643394 C76.2057162,180.314379 75.3120193,180.683182 74.987595,181.465167 C72.8574132,186.564136 69.6713223,191.800833 65.2487465,197.473667 C64.7284435,198.140879 64.8478071,199.100379 65.5150193,199.619152 C65.7950647,199.837985 66.1256102,199.943576 66.4546253,199.943576 C66.9106556,199.946636 67.3605647,199.744636 67.6620344,199.35747 M61.9999132,196.645773 C72.9752465,182.94497 76.7107162,171.847212 74.8896556,158.343818 C74.7764132,157.503682 74.0005496,156.926758 73.1680647,157.032348 C72.330989,157.145591 71.7433526,157.915333 71.856595,158.753939 C73.5766556,171.499833 70.1426556,181.589121 59.6126405,194.734424 C59.0831556,195.395515 59.1902768,196.359606 59.8498375,196.8845 C60.1314132,197.110985 60.4696102,197.221167 60.8062768,197.221167 C61.2531253,197.219636 61.6984435,197.026818 61.9999132,196.645773 M98.3140041,165.242424 C99.1602617,165.242424 99.833595,164.578273 99.8213526,163.736606 C99.7555496,159.428803 99.2796253,154.978682 98.3951102,150.4245 C97.1433223,143.954379 91.4643678,139.259409 84.885595,139.259409 C84.0056708,139.259409 83.1211556,139.345106 82.2580647,139.511909 C78.6450193,140.212788 75.5216708,142.278697 73.4618829,145.328591 C72.4733071,146.794621 71.7831405,148.413682 71.4112768,150.141394 C71.2337617,150.967758 71.7586556,151.781879 72.5850193,151.959394 C73.4144435,152.132318 74.2255041,151.610485 74.4030193,150.785652 C74.6922465,149.440515 75.2309132,148.178015 75.9991253,147.037939 C77.5998223,144.66597 80.0299435,143.056091 82.8411102,142.511303 C83.5129132,142.381227 84.2015496,142.309303 84.885595,142.309303 C89.9998678,142.309303 94.4178526,145.951424 95.3911253,150.983061 C96.2373829,155.362788 96.6980041,159.653758 96.7607465,163.782515 C96.772989,164.619591 97.4539738,165.243955 98.2910496,165.243955 C98.2971708,165.242424 98.3063526,165.242424 98.3140041,165.242424 M87.7396102,202.803712 C94.3872465,192.567515 98.202292,182.525667 99.4005193,172.104303 C99.4953981,171.264167 98.8955193,170.505136 98.0553829,170.410258 C97.2121859,170.315379 96.4562162,170.916788 96.3613375,171.755394 C95.2166708,181.694712 91.5561859,191.305015 85.1717617,201.135682 C84.7111405,201.845742 84.9131405,202.793 85.6216708,203.253621 C85.880292,203.420424 86.1695193,203.5 86.4541556,203.5 C86.9545647,203.5 87.4488526,203.255152 87.7396102,202.803712 M95.5212011,201.88247 C105.289125,185.142485 108.114065,168.420864 104.407671,149.258409 C103.319625,143.640667 99.8504284,138.752879 94.8937768,135.851424 C94.1653526,135.422939 93.2272768,135.667788 92.8018526,136.397742 C92.3748981,137.127697 92.6197465,138.064242 93.3481708,138.491197 C97.545792,140.948864 100.480913,145.085273 101.403686,149.839924 C104.95858,168.231106 102.253004,184.277864 92.8798981,200.339924 C92.4560041,201.071409 92.7023829,202.007955 93.4292768,202.431848 C93.6710647,202.575697 93.9373375,202.6415 94.2005496,202.6415 C94.7239132,202.6415 95.2365647,202.373697 95.5212011,201.88247 M56.8443223,193.292879 C67.836489,179.743576 70.9552465,169.701727 68.3537314,156.244242 C67.498292,151.824727 68.4134132,147.337879 70.932292,143.610061 C73.4511708,139.880712 77.2677465,137.357242 81.6826708,136.500273 C83.1915496,136.204924 84.7570496,136.13147 86.2735799,136.252364 C87.107595,136.319697 87.8543829,135.692273 87.9217162,134.850606 C87.9905799,134.008939 87.3631556,133.269803 86.5199587,133.20247 C84.7279738,133.057091 82.8793678,133.148909 81.098095,133.494758 C75.881292,134.504758 71.3699587,137.488848 68.3950496,141.894591 C65.4201405,146.298803 64.3382162,151.601303 65.3482162,156.822697 C67.7523223,169.25947 64.8034284,178.620333 54.4677617,191.360106 C53.9352162,192.018136 54.0346859,192.982227 54.6911859,193.511712 C54.974292,193.741258 55.3155496,193.85603 55.6537465,193.85603 C56.100595,193.859091 56.5413223,193.666273 56.8443223,193.292879 M103.856762,199.417152 C106.146095,194.835424 107.99011,190.111379 109.338307,185.375091 C109.567853,184.5625 109.09805,183.716242 108.285459,183.485167 C107.471337,183.25103 106.62508,183.725424 106.395534,184.538015 C105.100898,189.092197 103.328807,193.635667 101.12211,198.04753 C100.744125,198.8035 101.048656,199.723212 101.804625,200.101197 C102.026519,200.208318 102.259125,200.260348 102.488671,200.260348 C103.048762,200.263409 103.587428,199.955818 103.856762,199.417152 M111.162428,177.258364 C112.671307,168.038288 112.427989,158.496848 110.41564,148.095379 C108.051322,135.875909 97.3162465,127.006273 84.8917162,127.006273 C83.2282768,127.006273 81.5617768,127.166955 79.9396556,127.483727 C73.1160344,128.802848 67.2167162,132.705121 63.3266859,138.469773 C59.4351253,144.231364 58.0211253,151.165167 59.3417768,157.994909 C60.008989,161.444212 60.1880344,164.339545 59.9064587,167.109394 C59.8207617,167.951061 60.4328829,168.700909 61.2730193,168.788136 C62.1269284,168.857 62.8645344,168.261712 62.9502314,167.420045 C63.2654738,164.344136 63.0726556,161.164167 62.347292,157.411864 C61.1796708,151.38553 62.4283981,145.267379 65.8623981,140.182182 C69.2948678,135.096985 74.4994284,131.653803 80.5227011,130.489242 C81.9535344,130.209197 83.4241556,130.068409 84.8901859,130.068409 C95.8548071,130.068409 105.325853,137.894379 107.411656,148.678424 C109.35361,158.718742 109.590807,167.906682 108.14161,176.765606 C108.005413,177.599621 108.568565,178.386197 109.40564,178.520864 C109.489807,178.536167 109.569383,178.542288 109.65355,178.542288 C110.389625,178.539227 111.040004,178.008212 111.162428,177.258364 M52.1723071,189.329394 C56.2245496,184.30847 59.0418375,179.852227 60.781792,175.711227 C61.1092768,174.930773 60.7435344,174.034015 59.9630799,173.70653 C59.181095,173.380576 58.2873981,173.744788 57.9599132,174.522182 C56.3332011,178.395379 53.6597617,182.609833 49.7896253,187.407333 C49.2586102,188.065364 49.3626708,189.029455 50.0191708,189.558939 C50.3022768,189.785424 50.6420041,189.897136 50.9786708,189.897136 C51.4270496,189.897136 51.8708375,189.702788 52.1723071,189.329394 M47.9884587,184.756848 C57.9721556,172.150212 57.7120041,165.698455 56.3362617,158.574894 C54.8595193,150.944803 56.4403223,143.193818 60.7879132,136.751242 C62.3488223,134.440485 64.2234435,132.368455 66.3628071,130.594833 C67.0131859,130.054636 67.1034738,129.090545 66.5632768,128.440167 C66.0230799,127.789788 65.058989,127.70103 64.4086102,128.239697 C62.0458223,130.198485 59.973792,132.486288 58.2506708,135.038833 C53.4455193,142.157803 51.6994435,150.722909 53.3307465,159.153348 C54.5978375,165.707636 54.7845344,171.244273 45.5889435,182.854682 C45.0640496,183.518833 45.1757617,184.479864 45.8399132,185.004758 C46.121489,185.228182 46.455095,185.335303 46.7887011,185.335303 C47.2401405,185.336833 47.686989,185.137894 47.9884587,184.756848 M112.649883,194.8645 C118.630307,179.775712 119.828534,164.544606 116.42361,146.929288 C115.551337,142.410303 113.754762,138.214212 111.087444,134.455788 C110.597747,133.767152 109.644368,133.604939 108.952671,134.094636 C108.264034,134.584333 108.100292,135.539242 108.591519,136.229409 C111.004807,139.628212 112.629989,143.424894 113.418095,147.512333 C116.708247,164.527773 115.560519,179.215621 109.80505,193.739727 C109.494398,194.524773 109.878504,195.415409 110.66508,195.726061 C110.850247,195.799515 111.038474,195.833182 111.226701,195.833182 C111.835762,195.833182 112.412686,195.467439 112.649883,194.8645 M105.492656,130.371409 C106.031322,129.7195 105.937974,128.753879 105.283004,128.216742 C99.5413071,123.485045 92.2999132,120.878939 84.8886556,120.878939 C82.8319284,120.878939 80.7736708,121.076348 78.7735647,121.468106 C76.3250799,121.9425 73.9255647,122.703061 71.6438829,123.731424 C70.8741405,124.078803 70.5298223,124.984742 70.8772011,125.754485 C71.2230496,126.524227 72.1274587,126.868545 72.9002617,126.521167 C74.9661708,125.590742 77.1392011,124.902106 79.3581405,124.472091 C81.1669587,124.118591 83.0278071,123.939545 84.8886556,123.939545 C91.5898526,123.939545 98.1426102,126.297742 103.336459,130.578 C103.621095,130.813667 103.963883,130.928439 104.308201,130.928439 C104.750459,130.928439 105.186595,130.738682 105.492656,130.371409 M121.92964,152.012955 C122.765186,151.884409 123.33905,151.102424 123.208974,150.266879 C122.980959,148.777894 122.726928,147.279727 122.43311,145.766258 C118.956262,127.795909 103.168125,114.753136 84.8886556,114.753136 C82.4417011,114.753136 79.9916859,114.988803 77.6120647,115.454015 C67.5793981,117.3975 58.9025799,123.134606 53.1807768,131.609424 C50.1293526,136.128409 48.1124132,141.124848 47.1850496,146.457955 C47.0396708,147.290439 47.5982314,148.083136 48.4307162,148.228515 C49.2723829,148.373894 50.0558981,147.815333 50.2012768,146.982848 C51.0536556,142.076697 52.9099132,137.481197 55.716489,133.321833 C60.9807314,125.524939 68.962792,120.246924 78.1951102,118.458 C80.3865041,118.031045 82.6375799,117.813742 84.8886556,117.813742 C101.705156,117.813742 116.230792,129.814379 119.429125,146.347773 C119.713762,147.824515 119.961671,149.284424 120.183565,150.736682 C120.298337,151.492652 120.951777,152.032848 121.693974,152.032848 C121.772019,152.031318 121.850065,152.025197 121.92964,152.012955 M121.637353,187.369076 C124.102671,178.089318 124.924444,168.632045 124.156231,158.457061 C124.091959,157.613864 123.357413,156.986439 122.517277,157.046121 C121.67255,157.108864 121.040534,157.843409 121.104807,158.685076 C121.848534,168.514212 121.055837,177.639409 118.680807,186.58097 C118.463504,187.396621 118.951671,188.236758 119.767322,188.454061 C119.898928,188.487727 120.033595,188.504561 120.16214,188.504561 C120.838534,188.506091 121.456777,188.053121 121.637353,187.369076 M44.318792,179.504848 C52.1478223,169.163061 51.2633071,164.584394 50.3267617,159.733333 C50.0115193,158.111212 49.8095193,156.440121 49.7238223,154.759848 C49.6825041,153.913591 48.9770344,153.264742 48.1185344,153.309121 C47.2753375,153.35197 46.6249587,154.071212 46.6678071,154.914409 C46.7596253,156.73547 46.979989,158.55347 47.3212465,160.314848 C48.1935193,164.832303 48.8836859,168.40097 41.8779587,177.654712 C41.3683678,178.328045 41.4999738,179.289076 42.1748375,179.797136 C42.4518223,180.006788 42.7762465,180.107788 43.0976102,180.107788 C43.5597617,180.112379 44.0173223,179.902727 44.318792,179.504848 M41.2122768,173.374455 C45.5063071,167.049712 44.9553981,164.198758 44.318792,160.899424 C42.2207465,150.057227 44.4687617,139.045167 50.646595,129.890894 C56.8259587,120.736621 66.1975344,114.540424 77.0351405,112.442379 C81.3184587,111.603773 85.8037768,111.453803 90.2462465,112.038379 C91.0894435,112.137848 91.854595,111.557864 91.9617162,110.720788 C92.0718981,109.882182 91.4842617,109.11397 90.6441253,109.003788 C85.8787617,108.376364 81.0521859,108.537045 76.452095,109.438394 C64.8141405,111.69253 54.7478071,118.347818 48.1108829,128.180015 C41.475489,138.010682 39.0606708,149.838394 41.3148071,161.48247 C41.8856102,164.435955 42.2620647,166.38403 38.6826859,171.655924 C38.2067617,172.355273 38.3903981,173.308652 39.0897465,173.783045 C39.3529587,173.962091 39.6513678,174.047788 39.9482465,174.047788 C40.4348829,174.046258 40.9153981,173.812121 41.2122768,173.374455 M128.59258,176.624818 C128.54361,176.624818 128.49158,176.621758 128.434959,176.618697 C127.594822,176.529939 126.984231,175.780091 127.066868,174.938424 C128.024837,165.540833 127.487701,155.809636 125.435565,145.181682 C122.601444,130.545864 112.040822,118.522273 97.8748071,113.801288 C97.0744587,113.533485 96.6398526,112.667333 96.9076556,111.865455 C97.1754587,111.065106 98.035489,110.62897 98.843489,110.898303 C114.053171,115.966667 125.397307,128.882424 128.43955,144.601697 C130.552898,155.528061 131.100747,165.553076 130.113701,175.250606 C130.037186,176.038712 129.369974,176.624818 128.59258,176.624818" id="fingerprint"></path>
        </g>
    </g>
</svg>