<?xml version="1.0" encoding="UTF-8"?>
<svg width="432px" height="127px" viewBox="0 0 432 127" version="1.1" xmlns="http://www.w3.org/2000/svg" xmlns:xlink="http://www.w3.org/1999/xlink">
    <!-- Generator: Sketch 48.2 (47327) - http://www.bohemiancoding.com/sketch -->
    <title>Group</title>
    <desc>Created with Sketch.</desc>
    <defs>
        <polygon id="path-1" points="0.8792 16 30.8792 16 30.8792 0.0003 0.8792 0.0003 0.8792 16"></polygon>
        <path d="M12.5450453,32.1055 C11.5639485,31.6435193 10.6054151,31.1012434 9.678,30.477 C-0.165,23.852 -2.774,10.502 3.851,0.658 L23.324,18.724 C28.794,22.406 35.346,23.232 41.226,21.554 C40.742,22.615 40.169,23.651 39.497,24.65 C37.2434052,27.9985868 34.2116444,30.5099943 30.8044237,32.1055 L12.5450444,32.1055 L12.5450453,32.1055 Z" id="path-3"></path>
        <path d="M19.9206943,37.5128 C15.8378036,37.2107053 12.464837,35.982837 10.702,34.22 C1.222,24.739 -3.368,11.65 4.117,0.528 L26.12,20.94 C32.301,25.099 39.703,26.033 46.347,24.136 C40.7789764,33.2011812 31.6981068,36.9618278 23.9298285,37.5128 L19.9206943,37.5128 L19.9206943,37.5128 Z" id="path-5"></path>
        <path d="M2.59037171,37.5737 C1.48399834,34.5630246 0.88,31.3095976 0.88,27.915 C0.88,13.5958841 11.6284963,1.78726575 25.4966,0.117239748 L25.4966,37.5737 L2.59037171,37.5737 L2.59037171,37.5737 Z" id="path-7"></path>
        <path d="M39.9124234,41.4721 C41.8104385,37.695507 42.879,33.4301292 42.879,28.915 C42.879,13.451 30.343,0.915 14.879,0.915 C9.50875662,0.915 4.49155263,2.42702652 0.2299,5.04860944 L0.2299,41.4721 L39.9124234,41.4721 L39.9124234,41.4721 Z" id="path-9"></path>
        <polygon id="path-11" points="0.0005 13 30.0005 13 30.0005 0.0715 0.0005 0.0715 0.0005 13"></polygon>
        <polygon id="path-13" points="24.737 16.365269 24.737 0.309249742 0.48638685 0.309249742 0.48638685 16.365269 24.737 16.365269"></polygon>
        <polygon id="path-15" points="54.609 54.3911 54.609 0.3911 0.6091 0.3911 0.6091 54.3911 54.609 54.3911"></polygon>
        <polygon id="path-17" points="35.0129 0.488 0.399965998 0.488 0.399965998 21.2431417 35.0129 21.2431417 35.0129 0.488"></polygon>
        <polygon id="path-19" points="0.1097 16 30.1097 16 30.1097 0.0003 0.1097 0.0003"></polygon>
        <polygon id="path-21" points="5.42101086e-20 0.2511 5.42101086e-20 16.5731 16.3216 16.5731 16.3216 0.2511 0 0.2511"></polygon>
        <polygon id="path-23" points="9.547 8.792 9.547 0.208 0.9621 0.208 0.9621 8.792 9.547 8.792"></polygon>
        <polygon id="path-25" points="8.978 0.358 0.889 0.358 0.889 8.4475 8.978 8.4475 8.978 0.358"></polygon>
        <path d="M14.4407644,31.0084 C14.4820176,30.4339768 14.503,29.8539398 14.503,29.269 C14.503,29.186 14.498,29.105 14.497,29.023 L14.503,29.023 L14.503,22.407 C14.503,16.145 12.096,10.447 8.16,6.181 C5.99941539,3.83913177 3.37791991,1.92889475 0.4393,0.595280621 L0.4393,31.0084 L14.4407644,31.0084 L14.4407644,31.0084 Z" id="path-27"></path>
    </defs>
    <g id="2" stroke="none" stroke-width="1" fill="none" fill-rule="evenodd" transform="translate(-20.000000, -370.000000)">
        <g id="Group" transform="translate(20.000000, 369.000000)">
            <g id="girl_3" transform="translate(0.000000, 7.000000)">
                <g id="shadow" transform="translate(0.000000, 111.000000)">
                    <ellipse id="Oval-Copy" fill="#F7F9FA" cx="43" cy="5" rx="43" ry="5"></ellipse>
                    <ellipse id="Oval" fill="#E9EAEC" cx="42.5" cy="5" rx="17.5" ry="2"></ellipse>
                </g>
                <g id="Person-6" transform="translate(14.000000, 0.000000)">
                    <g id="Group-48" transform="translate(0.000000, 6.000000)">
                        <path d="M56.8792,23.1503 L21.6622,17.2833 L0.8792,23.1503 L0.8792,44.4763 C0.8792,64.8793 17.4182,81.4183 37.8212,81.4183 L53.7942,82.0003 C46.5792,57.4103 56.1982,33.0773 56.1982,33.0773 L56.8792,23.1503 Z" id="Fill-1" fill="#F1BC38"></path>
                        <path d="M30.8792,65 L26.8792,65 C13.6242,65 2.8792,75.745 2.8792,89 L2.8792,91 C2.8792,94.314 5.5652,97 8.8792,97 L48.8792,97 C52.1932,97 54.8792,94.314 54.8792,91 L54.8792,89 C54.8792,75.745 44.1342,65 30.8792,65" id="Fill-3" fill="#F4CE9F"></path>
                        <path d="M28.8792,73 L28.8792,73 C25.5652,73 22.8792,70.314 22.8792,67 L22.8792,53 L34.8792,53 L34.8792,67 C34.8792,70.314 32.1932,73 28.8792,73" id="Fill-5" fill="#F4CE9F"></path>
                        <path d="M37.6414,65.9726 C37.7914,66.6256 37.8794,67.3016 37.8794,67.9996 C37.8794,72.9706 33.8494,76.9996 28.8794,76.9996 C23.9084,76.9996 19.8794,72.9706 19.8794,67.9996 C19.8794,67.3016 19.9664,66.6256 20.1174,65.9726 C10.1564,68.8936 2.8794,78.0946 2.8794,88.9996 L2.8794,90.9996 C2.8794,94.3136 5.5654,96.9996 8.8794,96.9996 L48.8794,96.9996 C52.1934,96.9996 54.8794,94.3136 54.8794,90.9996 L54.8794,88.9996 C54.8794,78.0946 47.6024,68.8936 37.6414,65.9726" id="Fill-7" fill="#F06168"></path>
                        <path d="M12.3792,89.5004 C11.5502,89.5004 10.8792,90.1724 10.8792,91.0004 L10.8792,97.0004 L13.8792,97.0004 L13.8792,91.0004 C13.8792,90.1724 13.2082,89.5004 12.3792,89.5004" id="Fill-9" fill="#292929" opacity="0.200000003"></path>
                        <path d="M45.3792,89.5004 C44.5502,89.5004 43.8792,90.1724 43.8792,91.0004 L43.8792,97.0004 L46.8792,97.0004 L46.8792,91.0004 C46.8792,90.1724 46.2082,89.5004 45.3792,89.5004" id="Fill-11" fill="#292929" opacity="0.200000003"></path>
                        <g id="Group-15" transform="translate(13.000000, 92.000000)">
                            <mask id="mask-2" fill="white">
                                <use xlink:href="#path-1"></use>
                            </mask>
                            <g id="Clip-14"></g>
                            <path d="M30.8792,4.6863 C30.8792,10.9343 24.1632,16.0003 15.8792,16.0003 C7.5952,16.0003 0.8792,10.9343 0.8792,4.6863 C0.8792,-1.5617 30.8792,-1.5617 30.8792,4.6863" id="Fill-13" fill="#F06168" mask="url(#mask-2)"></path>
                        </g>
                        <path d="M34.8792,64 C34.8792,64 30.4002,65 28.8792,65 C27.3582,65 22.8792,64 22.8792,64 L22.8792,62 C22.8792,62 27.3582,63 28.8792,63 C30.4002,63 34.8792,62 34.8792,62 L34.8792,64 Z" id="Fill-16" fill="#292929" opacity="0.200000003"></path>
                        <path d="M34.8792,62 C34.8792,62 30.4002,63 28.8792,63 C27.3582,63 22.8792,62 22.8792,62 L22.8792,60 C22.8792,60 27.3582,61 28.8792,61 C30.4002,61 34.8792,60 34.8792,60 L34.8792,62 Z" id="Fill-18" fill="#292929"></path>
                        <path d="M28.8792,63 L28.8792,63 C16.7292,63 6.8792,53.15 6.8792,41 L6.8792,22 C6.8792,9.85 16.7292,0 28.8792,0 L28.8792,0 C41.0292,0 50.8792,9.85 50.8792,22 L50.8792,41 C50.8792,53.15 41.0292,63 28.8792,63" id="Fill-20" fill="#F4CE9F"></path>
                        <path d="M54.6229,34.6305 C54.4569,32.4635 52.8669,30.7655 50.8449,30.3315 L50.8449,39.6605 C53.1539,39.1665 54.8079,37.0505 54.6229,34.6305" id="Fill-22" fill="#FDCC85"></path>
                        <path d="M7.773,30.2236 C7.697,30.2256 7.624,30.2126 7.548,30.2186 C4.909,30.4196 2.934,32.7226 3.136,35.3616 C3.301,37.5286 4.891,39.2256 6.913,39.6596 L6.913,35.2326 C6.913,33.7446 7.215,31.9706 7.773,30.2236" id="Fill-24" fill="#FDCC85"></path>
                        <path d="M35.0536,53.9709 C34.1346,56.2679 31.9426,57.7519 29.4676,57.7519 C26.9916,57.7519 24.7996,56.2679 23.8816,53.9709 C23.6886,53.4869 23.8426,52.9599 24.2766,52.6299 C25.4896,51.7059 33.4436,51.7069 34.6576,52.6289 C35.0916,52.9589 35.2466,53.4859 35.0536,53.9709" id="Fill-26" fill="#F4CE9F"></path>
                        <path d="M29.6531,47.3348 C27.9641,47.3348 25.9311,46.2988 26.1811,45.5248 C26.7021,43.9128 27.4861,45.8348 29.4691,45.8348 C31.4031,45.8348 32.2321,43.9128 32.7531,45.5248 C33.0041,46.2988 31.3421,47.3348 29.6531,47.3348" id="Fill-28" fill="#F4CE9F"></path>
                        <path d="M13.7324,44.3352 C13.4024,45.7752 14.1994,47.1872 15.5134,47.4882 C16.8284,47.7892 18.1614,46.8662 18.4914,45.4262 C18.8214,43.9862 18.0234,42.5752 16.7094,42.2732 C15.3954,41.9722 14.0624,42.8952 13.7324,44.3352" id="Fill-30" fill="#F1B08E"></path>
                        <path d="M44.026,44.3352 C44.356,45.7752 43.559,47.1872 42.245,47.4882 C40.93,47.7892 39.597,46.8662 39.267,45.4262 C38.937,43.9862 39.735,42.5752 41.049,42.2732 C42.363,41.9722 43.696,42.8952 44.026,44.3352" id="Fill-32" fill="#F1B08E"></path>
                        <path d="M29.4694,45.8348 C27.4864,45.8348 26.7024,43.9128 26.1814,45.5248 C25.9304,46.2988 27.9644,47.3348 29.6534,47.3348 C31.3424,47.3348 33.0034,46.2988 32.7534,45.5248 C32.2324,43.9128 31.4034,45.8348 29.4694,45.8348" id="Fill-34" fill="#F1B08E"></path>
                        <path d="M26.2118,54.092 C26.9538,55.123 28.1508,55.752 29.4678,55.752 C30.7838,55.752 31.9808,55.123 32.7228,54.092 C31.1188,53.887 27.8168,53.887 26.2118,54.092" id="Fill-36" fill="#FEFEFE"></path>
                        <path d="M29.4677,55.7521 C28.1517,55.7521 26.9537,55.1231 26.2117,54.0921 C27.8177,53.8871 31.1187,53.8871 32.7227,54.0921 C31.9807,55.1231 30.7837,55.7521 29.4677,55.7521 M24.2767,52.6301 C23.8427,52.9601 23.6887,53.4861 23.8817,53.9711 C24.7997,56.2681 26.9917,57.7521 29.4677,57.7521 C31.9427,57.7521 34.1347,56.2681 35.0537,53.9711 C35.2467,53.4851 35.0917,52.9591 34.6577,52.6291 C33.4437,51.7071 25.4887,51.7061 24.2767,52.6301" id="Fill-38" fill="#F0644B"></path>
                        <path d="M20.8792,36 C20.8792,34.895 19.9842,34 18.8792,34 C17.7742,34 16.8792,34.895 16.8792,36 C16.8792,37.105 17.7742,38 18.8792,38 C19.9842,38 20.8792,37.105 20.8792,36" id="Fill-40" fill="#2D2D2D"></path>
                        <path d="M40.8792,36 C40.8792,34.895 39.9842,34 38.8792,34 C37.7742,34 36.8792,34.895 36.8792,36 C36.8792,37.105 37.7742,38 38.8792,38 C39.9842,38 40.8792,37.105 40.8792,36" id="Fill-42" fill="#2D2D2D"></path>
                        <path d="M13.8528,33.5717 C13.6628,33.5717 13.4708,33.4997 13.3258,33.3547 C13.0308,33.0627 13.0288,32.5887 13.3198,32.2947 C14.9038,30.6937 18.4568,29.6177 21.6548,30.5827 C22.0508,30.7017 22.2758,31.1207 22.1558,31.5167 C22.0368,31.9137 21.6208,32.1417 21.2208,32.0177 C18.6788,31.2527 15.6348,32.0877 14.3858,33.3487 C14.2398,33.4977 14.0458,33.5717 13.8528,33.5717" id="Fill-44" fill="#BE7A5E"></path>
                        <path d="M43.9056,33.5717 C43.7126,33.5717 43.5186,33.4977 43.3726,33.3487 C42.1236,32.0867 39.0786,31.2527 36.5376,32.0177 C36.1366,32.1407 35.7216,31.9127 35.6026,31.5167 C35.4826,31.1207 35.7076,30.7017 36.1036,30.5827 C39.3026,29.6167 42.8556,30.6937 44.4386,32.2947 C44.7296,32.5887 44.7276,33.0627 44.4326,33.3547 C44.2876,33.4997 44.0956,33.5717 43.9056,33.5717" id="Fill-46" fill="#BE7A5E"></path>
                    </g>
                    <g id="Group-51" transform="translate(22.000000, 2.000000)">
                        <mask id="mask-4" fill="white">
                            <use xlink:href="#path-3"></use>
                        </mask>
                        <g id="Clip-50"></g>
                        <path d="M50.1543,5.5525 C50.1543,20.2175 38.2663,32.1055 23.6013,32.1055 C8.9373,32.1055 -2.9507,20.2175 -2.9507,5.5525 C-2.9507,-9.1125 8.9373,-21.0005 23.6013,-21.0005 C38.2663,-21.0005 50.1543,-9.1125 50.1543,5.5525" id="Fill-49" fill="#F1BC38" mask="url(#mask-4)"></path>
                    </g>
                    <path d="M44.6434,39.4346 C34.1914,39.4346 25.2014,33.0566 21.3614,23.9876 L17.4934,25.0796 C21.8294,35.8266 32.3614,43.4346 44.6434,43.4346 C48.6364,43.4346 51.8954,42.6516 55.3664,41.1966 C55.8364,39.6536 56.1554,38.8036 56.1554,38.8036 L56.8794,36.2486 C53.2504,38.2686 49.0834,39.4346 44.6434,39.4346" id="Fill-52" fill="#373535" opacity="0.200000003"></path>
                    <g id="Group-56" transform="translate(22.000000, 4.000000)">
                        <mask id="mask-6" fill="white">
                            <use xlink:href="#path-5"></use>
                        </mask>
                        <g id="Clip-55"></g>
                        <path d="M51.1764,8.2278 C51.1764,24.4018 38.0654,37.5128 21.8914,37.5128 C5.7174,37.5128 -7.3936,24.4018 -7.3936,8.2278 C-7.3936,-7.9462 5.7174,-21.0572 21.8914,-21.0572 C38.0654,-21.0572 51.1764,-7.9462 51.1764,8.2278" id="Fill-54" fill="#F1BC38" mask="url(#mask-6)"></path>
                    </g>
                    <g id="Group-63">
                        <g id="Group-59" transform="translate(0.000000, 1.000000)">
                            <mask id="mask-8" fill="white">
                                <use xlink:href="#path-7"></use>
                            </mask>
                            <g id="Clip-58"></g>
                            <path d="M25.4966,16.8257 C25.4966,28.2847 16.2076,37.5737 4.7486,37.5737 C-6.7104,37.5737 -16.0004,28.2847 -16.0004,16.8257 C-16.0004,5.3667 -6.7104,-3.9223 4.7486,-3.9223 C16.2076,-3.9223 25.4966,5.3667 25.4966,16.8257" id="Fill-57" fill="#F1BC38" mask="url(#mask-8)"></path>
                        </g>
                        <g id="Group-62" transform="translate(14.000000, 0.000000)">
                            <mask id="mask-10" fill="white">
                                <use xlink:href="#path-9"></use>
                            </mask>
                            <g id="Clip-61"></g>
                            <path d="M59.7019,11.7361 C59.7019,28.1591 46.3889,41.4721 29.9659,41.4721 C13.5429,41.4721 0.2299,28.1591 0.2299,11.7361 C0.2299,-4.6869 13.5429,-17.9999 29.9659,-17.9999 C46.3889,-17.9999 59.7019,-4.6869 59.7019,11.7361" id="Fill-60" fill="#F1BC38" mask="url(#mask-10)"></path>
                        </g>
                    </g>
                </g>
            </g>
            <g id="boy_3" transform="translate(140.000000, 6.000000)">
                <g id="shadow-copy" transform="translate(0.000000, 112.000000)">
                    <ellipse id="Oval-Copy" fill="#F7F9FA" cx="43" cy="5" rx="43" ry="5"></ellipse>
                    <ellipse id="Oval" fill="#E9EAEC" cx="42.5" cy="5" rx="17.5" ry="2"></ellipse>
                </g>
                <g id="Person-7" transform="translate(15.000000, 0.000000)">
                    <path d="M54,27.0001 C54,41.9121 41.912,54.0001 27,54.0001 C12.088,54.0001 0,41.9121 0,27.0001 C0,12.0881 12.088,0.0001 27,0.0001 C41.912,0.0001 54,12.0881 54,27.0001" id="Fill-1" fill="#A76A4A"></path>
                    <path d="M52,39.7303 C52,42.2153 49.985,44.2303 47.5,44.2303 C45.015,44.2303 43,42.2153 43,39.7303 C43,37.2453 45.015,35.2303 47.5,35.2303 C49.985,35.2303 52,37.2453 52,39.7303" id="Fill-3" fill="#FDCC85"></path>
                    <path d="M11,39.7303 C11,42.2153 8.985,44.2303 6.5,44.2303 C4.015,44.2303 2,42.2153 2,39.7303 C2,37.2453 4.015,35.2303 6.5,35.2303 C8.985,35.2303 11,37.2453 11,39.7303" id="Fill-5" fill="#FDCC85"></path>
                    <path d="M34,70.6801 L20,70.6801 C9.507,70.6801 1,79.1871 1,89.6801 L1,98.6801 C1,100.8891 2.791,102.6801 5,102.6801 L49,102.6801 C51.209,102.6801 53,100.8891 53,98.6801 L53,89.6801 C53,79.1871 44.493,70.6801 34,70.6801" id="Fill-7" fill="#FFE2AF"></path>
                    <path d="M34.251,70.6928 L35,79.6798 L29.44,79.4418 L27,85.6798 L24.56,79.4418 L21,79.6798 L21,70.6798 L20,70.6798 C9.507,70.6798 1,79.1868 1,89.6798 L1,98.6798 C1,100.8888 2.791,102.6798 5,102.6798 L49,102.6798 C51.209,102.6798 53,100.8888 53,98.6798 L53,89.6798 C53,79.2718 44.627,70.8288 34.251,70.6928" id="Fill-9" fill="#F1F2F1"></path>
                    <g id="Group-13" transform="translate(12.000000, 102.609000)">
                        <mask id="mask-12" fill="white">
                            <use xlink:href="#path-11"></use>
                        </mask>
                        <g id="Clip-12"></g>
                        <path d="M11.4645,11.5355 L0.0005,0.0715 L30.0005,0.0715 L18.5355,11.5355 C16.5825,13.4885 13.4175,13.4885 11.4645,11.5355" id="Fill-11" fill="#F1F2F1" mask="url(#mask-12)"></path>
                    </g>
                    <path d="M27,79.6801 L27,79.6801 C23.686,79.6801 21,76.9941 21,73.6801 L21,59.6801 L33,59.6801 L33,73.6801 C33,76.9941 30.314,79.6801 27,79.6801" id="Fill-14" fill="#FFE2AF"></path>
                    <path d="M33,67.6801 C33,67.6801 28.521,68.6801 27,68.6801 C25.479,68.6801 21,67.6801 21,67.6801 L21,65.6801 C21,65.6801 25.479,66.6801 27,66.6801 C28.521,66.6801 33,65.6801 33,65.6801 L33,67.6801 Z" id="Fill-16" fill="#292929" opacity="0.200000003"></path>
                    <path d="M10.5,95.1804 C9.671,95.1804 9,95.8524 9,96.6804 L9,102.6804 L12,102.6804 L12,96.6804 C12,95.8524 11.329,95.1804 10.5,95.1804" id="Fill-18" fill="#292929" opacity="0.200000003"></path>
                    <path d="M43.5,95.1804 C42.671,95.1804 42,95.8524 42,96.6804 L42,102.6804 L45,102.6804 L45,96.6804 C45,95.8524 44.329,95.1804 43.5,95.1804" id="Fill-20" fill="#292929" opacity="0.200000003"></path>
                    <path d="M26.9987,54.1208 C23.6607,54.1208 20.9297,56.8518 20.9297,60.1898 L20.9297,60.6728 C20.9297,57.3348 23.6607,54.6038 26.9987,54.6038 C30.3367,54.6038 33.0677,57.3348 33.0677,60.6728 L33.0677,60.1898 C33.0677,56.8518 30.3367,54.1208 26.9987,54.1208" id="Fill-22" fill="#373535"></path>
                    <path d="M27,66.6801 L27,66.6801 C14.85,66.6801 5,56.8301 5,44.6801 L5,25.6801 C5,13.5301 14.85,3.6801 27,3.6801 L27,3.6801 C39.15,3.6801 49,13.5301 49,25.6801 L49,44.6801 C49,56.8301 39.15,66.6801 27,66.6801" id="Fill-24" fill="#FFE2AF"></path>
                    <path d="M29.3757,45.6308 C28.6197,45.8488 27.8207,45.9658 26.9947,45.9658 C26.1707,45.9658 25.3747,45.8498 24.6217,45.6338" id="Fill-26" fill="#FDCC85"></path>
                    <path d="M26.9945,46.9661 C26.0945,46.9661 25.2035,46.8411 24.3455,46.5941 C23.8145,46.4421 23.5075,45.8881 23.6605,45.3571 C23.8125,44.8261 24.3665,44.5221 24.8975,44.6721 C26.2565,45.0631 27.7365,45.0631 29.0985,44.6701 C29.6305,44.5191 30.1845,44.8231 30.3365,45.3551 C30.4895,45.8851 30.1835,46.4401 29.6525,46.5921 C28.7905,46.8401 27.8965,46.9661 26.9945,46.9661" id="Fill-28" fill="#FDCC85"></path>
                    <path d="M32.3309,52.1208 C33.8229,52.1208 34.8249,53.6418 34.2709,55.0268 C33.1169,57.9118 30.2959,59.9498 26.9989,59.9498 C23.7019,59.9498 20.8809,57.9118 19.7269,55.0268 C19.1729,53.6418 20.1749,52.1208 21.6669,52.1208 L32.3309,52.1208 Z" id="Fill-30" fill="#524758"></path>
                    <path d="M43.0529,49.3158 C43.0529,50.0458 41.8689,50.6378 40.4089,50.6378 C38.9489,50.6378 37.7659,50.0458 37.7659,49.3158 C37.7659,48.5858 38.9489,47.9938 40.4089,47.9938 C41.8689,47.9938 43.0529,48.5858 43.0529,49.3158" id="Fill-32" fill="#FBC5A0"></path>
                    <path d="M15.3984,49.3158 C15.3984,50.0458 14.2144,50.6378 12.7544,50.6378 C11.2944,50.6378 10.1114,50.0458 10.1114,49.3158 C10.1114,48.5858 11.2944,47.9938 12.7544,47.9938 C14.2144,47.9938 15.3984,48.5858 15.3984,49.3158" id="Fill-34" fill="#FBC5A0"></path>
                    <path d="M30.5251,54.8 L23.5171,54.8 C22.3221,54.8 21.3531,53.831 21.3531,52.637 L21.3531,52.121 L32.6881,52.121 L32.6881,52.637 C32.6881,53.831 31.7201,54.8 30.5251,54.8" id="Fill-36" fill="#FEFEFE"></path>
                    <path d="M27,57.0501 C25.476,57.0501 24.132,57.8421 23.348,59.0321 C24.44,59.6101 25.678,59.9501 27,59.9501 C28.322,59.9501 29.56,59.6101 30.652,59.0321 C29.868,57.8421 28.524,57.0501 27,57.0501" id="Fill-38" fill="#F37F65"></path>
                    <path d="M37.5946,44.4463 C34.5986,44.4463 32.1606,42.0083 32.1606,39.0123 C32.1606,36.0153 34.5986,33.5773 37.5946,33.5773 C40.5906,33.5773 43.0286,36.0153 43.0286,39.0123 C43.0286,42.0083 40.5906,44.4463 37.5946,44.4463 M16.4566,44.4463 C13.4596,44.4463 11.0226,42.0083 11.0226,39.0123 C11.0226,36.0153 13.4596,33.5773 16.4566,33.5773 C19.4526,33.5773 21.8906,36.0153 21.8906,39.0123 C21.8906,42.0083 19.4526,44.4463 16.4566,44.4463 M37.5946,31.5813 C34.5836,31.5813 31.9916,33.3833 30.8256,35.9633 L30.1376,35.7653 C28.3116,35.2383 26.3796,35.2383 24.5526,35.7653 L23.3036,36.1253 C22.1746,33.4573 19.5306,31.5813 16.4566,31.5813 C12.3586,31.5813 9.0256,34.9143 9.0256,39.0123 C9.0256,43.1093 12.3586,46.4433 16.4566,46.4433 C20.5546,46.4433 23.8876,43.1093 23.8876,39.0123 C23.8876,38.6873 23.8596,38.3693 23.8186,38.0543 L25.1066,37.6833 C26.5706,37.2603 28.1196,37.2603 29.5846,37.6833 L30.2596,37.8783 C30.2026,38.2493 30.1636,38.6253 30.1636,39.0123 C30.1636,43.1093 33.4966,46.4433 37.5946,46.4433 C41.6926,46.4433 45.0256,43.1093 45.0256,39.0123 C45.0256,34.9143 41.6926,31.5813 37.5946,31.5813" id="Fill-40" fill="#2D2D2D"></path>
                    <path d="M39.0256,39.1801 C39.0256,40.0081 38.3536,40.6801 37.5256,40.6801 C36.6976,40.6801 36.0256,40.0081 36.0256,39.1801 C36.0256,38.3521 36.6976,37.6801 37.5256,37.6801 C38.3536,37.6801 39.0256,38.3521 39.0256,39.1801" id="Fill-42" fill="#2D2D2D"></path>
                    <path d="M18.0256,39.1801 C18.0256,40.0081 17.3536,40.6801 16.5256,40.6801 C15.6976,40.6801 15.0256,40.0081 15.0256,39.1801 C15.0256,38.3521 15.6976,37.6801 16.5256,37.6801 C17.3536,37.6801 18.0256,38.3521 18.0256,39.1801" id="Fill-44" fill="#2D2D2D"></path>
                    <g id="Group-48" transform="translate(30.000000, 4.609000)">
                        <mask id="mask-14" fill="white">
                            <use xlink:href="#path-13"></use>
                        </mask>
                        <g id="Clip-47"></g>
                        <path d="M24.5201,4.8064 C25.6871,10.1414 22.0781,14.3714 15.5261,15.8054 C6.9001,17.6924 1.7711,14.6314 0.6031,9.2964 C-0.4039,4.6894 5.1951,-3.0866 13.9291,1.9404 C21.0391,6.0344 23.3531,-0.5286 24.5201,4.8064" id="Fill-46" fill="#A76A4A" mask="url(#mask-14)"></path>
                    </g>
                    <path d="M34.1487,27.6801 C39.5407,27.6801 44.6227,25.9531 48.8117,22.8411 C48.7147,22.0871 48.5797,21.3451 48.4077,20.6161 C44.4167,23.8651 39.4467,25.6801 34.1487,25.6801 C24.1137,25.6801 15.4427,19.0801 12.5277,9.8001 C11.9887,10.3381 11.4807,10.9071 10.9997,11.4981 C14.4957,21.0131 23.6297,27.6801 34.1487,27.6801" id="Fill-49" fill="#292929" opacity="0.200000003"></path>
                    <path d="M26.7471,0.0772 C20.2181,0.0772 14.2331,2.4022 9.5711,6.2682 C11.0271,17.9542 20.9881,27.0002 33.0681,27.0002 C40.7911,27.0002 47.6491,23.3022 51.9731,17.5822 C48.1541,7.3582 38.3021,0.0772 26.7471,0.0772" id="Fill-51" fill="#A76A4A"></path>
                    <path d="M8.4348,8.3998 C4.1008,12.9318 1.3288,18.9708 0.9998,25.6558 C1.9148,25.9508 2.8888,26.1148 3.9018,26.1148 C9.1138,26.1148 13.3388,21.8888 13.3388,16.6768 C13.3388,13.1078 11.3568,10.0038 8.4348,8.3998" id="Fill-53" fill="#A76A4A"></path>
                    <path d="M9.2983,32.0172 C9.5873,32.0172 9.8733,31.8932 10.0713,31.6532 C11.1523,30.3382 13.0523,28.9842 18.1993,30.1772 C18.7363,30.3052 19.2763,29.9682 19.4003,29.4302 C19.5253,28.8922 19.1903,28.3542 18.6523,28.2302 C13.8653,27.1172 10.6503,27.8032 8.5273,30.3812 C8.1763,30.8082 8.2373,31.4382 8.6633,31.7892 C8.8503,31.9432 9.0743,32.0172 9.2983,32.0172" id="Fill-55" fill="#A76A4A"></path>
                    <path d="M34.9644,30.1774 C40.1094,28.9834 42.0114,30.3384 43.0924,31.6534 C43.2904,31.8934 43.5764,32.0174 43.8654,32.0174 C44.0894,32.0174 44.3144,31.9434 44.5004,31.7894 C44.9264,31.4384 44.9874,30.8084 44.6374,30.3814 C42.5144,27.8014 39.2984,27.1144 34.5114,28.2304 C33.9744,28.3544 33.6394,28.8924 33.7644,29.4304 C33.8884,29.9684 34.4304,30.3064 34.9644,30.1774" id="Fill-57" fill="#A76A4A"></path>
                    <path d="M21,73.7733 L21,69.6803 C20.04,70.2373 18.67,70.8433 18,71.6803 C16.857,73.1073 16,74.4253 16,76.6803 C16,78.5463 17.186,80.7523 18.267,82.3753 C19.082,83.5993 20.83,83.7263 21.796,82.6173 L24.56,79.4413 C24.56,79.4413 21,77.6803 21,73.7733" id="Fill-59" fill="#AAABAE"></path>
                    <path d="M33,73.7733 L33,69.6803 C33.96,70.2373 35.33,70.8433 36,71.6803 C37.143,73.1073 38,74.4253 38,76.6803 C38,78.5463 36.814,80.7523 35.733,82.3753 C34.918,83.5993 33.17,83.7263 32.204,82.6173 L29.44,79.4413 C29.44,79.4413 33,77.6803 33,73.7733" id="Fill-61" fill="#AAABAE"></path>
                    <path d="M28,85.8253 C28,86.3773 27.552,86.8253 27,86.8253 C26.448,86.8253 26,86.3773 26,85.8253 C26,85.2733 26.448,84.8253 27,84.8253 C27.552,84.8253 28,85.2733 28,85.8253" id="Fill-63" fill="#AAABAE"></path>
                    <path d="M28,90.6801 C28,91.2321 27.552,91.6801 27,91.6801 C26.448,91.6801 26,91.2321 26,90.6801 C26,90.1281 26.448,89.6801 27,89.6801 C27.552,89.6801 28,90.1281 28,90.6801" id="Fill-65" fill="#AAABAE"></path>
                </g>
            </g>
            <g id="boy_4" transform="translate(280.000000, 1.000000)">
                <g id="shadow-copy-2" transform="translate(0.000000, 117.000000)">
                    <ellipse id="Oval-Copy" fill="#F7F9FA" cx="43" cy="5" rx="43" ry="5"></ellipse>
                    <ellipse id="Oval" fill="#E9EAEC" cx="42.5" cy="5" rx="17.5" ry="2"></ellipse>
                </g>
                <g id="Person-8" transform="translate(15.000000, 0.000000)">
                    <path d="M34.6091,76.5831 L20.6091,76.5831 C10.1161,76.5831 1.6091,85.0901 1.6091,95.5831 L1.6091,104.5831 C1.6091,106.7921 3.4001,108.5831 5.6091,108.5831 L49.6091,108.5831 C51.8181,108.5831 53.6091,106.7921 53.6091,104.5831 L53.6091,95.5831 C53.6091,85.0901 45.1021,76.5831 34.6091,76.5831" id="Fill-1" fill="#F7D4AA"></path>
                    <path d="M53.6091,104.5831 L53.6091,95.5831 C53.6091,85.7641 46.1591,77.6861 36.6041,76.6891 C36.5461,81.6101 32.5441,85.5831 27.6091,85.5831 C22.6741,85.5831 18.6721,81.6101 18.6141,76.6891 C9.0591,77.6861 1.6091,85.7641 1.6091,95.5831 L1.6091,104.5831 L12.6091,104.5831 L12.6091,108.5831 L42.6091,108.5831 L42.6091,104.5831 L53.6091,104.5831 Z" id="Fill-3" fill="#3BABE1"></path>
                    <path d="M24.0735,119.761166 L12.6095,108.5 L42.6095,108.5 L31.1445,119.761166 C29.1915,121.679611 26.0265,121.679611 24.0735,119.761166" id="Fill-5" fill="#3BABE1"></path>
                    <path d="M27.6091,87.0831 C33.2871,87.0831 37.9141,82.5511 38.0921,76.9161 C37.6011,76.8241 37.1071,76.7421 36.6041,76.6891 C36.5461,81.6101 32.5441,85.5831 27.6091,85.5831 C22.6741,85.5831 18.6721,81.6101 18.6141,76.6891 C18.1111,76.7421 17.6171,76.8241 17.1261,76.9161 C17.3041,82.5511 21.9311,87.0831 27.6091,87.0831" id="Fill-8" fill="#85B9E4"></path>
                    <path d="M27.6091,85.5831 L27.6091,85.5831 C24.2951,85.5831 21.6091,82.8971 21.6091,79.5831 L21.6091,65.5831 L33.6091,65.5831 L33.6091,79.5831 C33.6091,82.8971 30.9231,85.5831 27.6091,85.5831" id="Fill-10" fill="#F7D4AA"></path>
                    <path d="M33.6091,74.5831 C33.6091,74.5831 29.1301,75.5831 27.6091,75.5831 C26.0881,75.5831 21.6091,74.5831 21.6091,74.5831 L21.6091,72.5831 C21.6091,72.5831 26.0881,73.5831 27.6091,73.5831 C29.1301,73.5831 33.6091,72.5831 33.6091,72.5831 L33.6091,74.5831 Z" id="Fill-12" fill="#292929" opacity="0.200000003"></path>
                    <g id="Group-16" transform="translate(0.000000, 5.512000)">
                        <mask id="mask-16" fill="white">
                            <use xlink:href="#path-15"></use>
                        </mask>
                        <g id="Clip-15"></g>
                        <path d="M54.6091,27.3911 C54.6091,42.3031 42.5211,54.3911 27.6091,54.3911 C12.6971,54.3911 0.6091,42.3031 0.6091,27.3911 C0.6091,12.4791 12.6971,0.3911 27.6091,0.3911 C42.5211,0.3911 54.6091,12.4791 54.6091,27.3911" id="Fill-14" fill="#5F5C61" mask="url(#mask-16)"></path>
                    </g>
                    <path d="M54.5085,45.6333 C54.5085,48.3673 52.2925,50.5833 49.5585,50.5833 C46.8255,50.5833 44.6095,48.3673 44.6095,45.6333 C44.6095,42.8993 46.8255,40.6833 49.5585,40.6833 C52.2925,40.6833 54.5085,42.8993 54.5085,45.6333" id="Fill-17" fill="#E9C6A0"></path>
                    <path d="M10.6091,45.6333 C10.6091,48.3673 8.3931,50.5833 5.6591,50.5833 C2.9261,50.5833 0.7101,48.3673 0.7101,45.6333 C0.7101,42.8993 2.9261,40.6833 5.6591,40.6833 C8.3931,40.6833 10.6091,42.8993 10.6091,45.6333" id="Fill-19" fill="#E9C6A0"></path>
                    <path d="M27.6091,72.5831 L27.6091,72.5831 C15.4591,72.5831 5.6091,62.7331 5.6091,50.5831 L5.6091,31.5831 C5.6091,19.4331 15.4591,9.5831 27.6091,9.5831 L27.6091,9.5831 C39.7591,9.5831 49.6091,19.4331 49.6091,31.5831 L49.6091,50.5831 C49.6091,62.7331 39.7591,72.5831 27.6091,72.5831" id="Fill-21" fill="#F7D4AA"></path>
                    <path d="M29.9848,52.2358 C29.6628,52.3288 29.1848,52.4758 28.7418,52.6148 C28.0028,52.8458 27.2148,52.8458 26.4758,52.6158 C26.0318,52.4778 25.5518,52.3308 25.2308,52.2388" id="Stroke-23" stroke="#EAB78A" stroke-width="2" stroke-linecap="round"></path>
                    <path d="M12.8063,47.9082 C12.8283,46.1552 14.0773,44.6012 15.8663,44.2582 C17.4863,43.9482 19.0623,44.7262 19.8413,46.0792" id="Stroke-25" stroke="#4D4C4E" stroke-width="2" stroke-linecap="round"></path>
                    <path d="M42.4119,47.9082 C42.3899,46.1552 41.1409,44.6012 39.3519,44.2582 C37.7319,43.9482 36.1559,44.7262 35.3769,46.0792" id="Stroke-27" stroke="#4D4C4E" stroke-width="2" stroke-linecap="round"></path>
                    <path d="M0.0874,6.5831 C0.0874,6.5831 -0.8986,15.6581 3.7544,23.3331 C7.7954,30.0001 14.7104,32.5291 15.8374,32.9031 C16.9344,33.2671 24.4204,34.9581 35.4194,33.8241 C49.2174,32.4021 52.6624,23.6931 52.6624,23.6931 L42.4114,12.5951 L20.8574,6.7721 C20.8574,6.7721 7.6114,15.6661 0.0874,6.5831" id="Fill-29" fill="#5F5C61"></path>
                    <g id="Group-33" transform="translate(8.000000, 0.512000)">
                        <mask id="mask-18" fill="white">
                            <use xlink:href="#path-17"></use>
                        </mask>
                        <g id="Clip-32"></g>
                        <path d="M2.0129,0.4877 C2.0129,0.4877 -2.7451,12.7377 4.0829,17.2377 C10.9109,21.7377 25.2529,21.2067 26.6529,21.2377 C33.3029,21.3867 35.0129,14.8207 35.0129,14.8207 C35.0129,14.8207 4.0829,8.1547 2.0129,0.4877" id="Fill-31" fill="#5F5C61" mask="url(#mask-18)"></path>
                    </g>
                    <polygon id="Fill-34" fill="#85B9E4" points="1.609 104.583 12.609 104.583 12.609 102.583 1.609 102.583"></polygon>
                    <polygon id="Fill-36" fill="#292929" opacity="0.200000003" points="9.609 108.583 12.609 108.583 12.609 102.583 9.609 102.583"></polygon>
                    <polygon id="Fill-38" fill="#85B9E4" points="42.609 104.583 53.609 104.583 53.609 102.583 42.609 102.583"></polygon>
                    <polygon id="Fill-40" fill="#292929" opacity="0.200000003" points="42.609 108.583 45.609 108.583 45.609 102.583 42.609 102.583"></polygon>
                    <path d="M49.6145,35.7227 L49.6115,46.5857 C49.6105,52.1077 45.1335,56.5827 39.6115,56.5827 L27.6095,56.5827 L15.6065,56.5827 C10.0845,56.5827 5.6075,52.1077 5.6065,46.5857 L5.6035,35.7227 L4.6095,35.7227 L4.6095,54.6467 C4.6095,55.4857 4.7005,56.3277 4.9425,57.1317 C7.3215,65.0057 13.5985,71.1587 21.5065,73.2827 C22.4825,73.5447 26.8305,74.5827 27.6095,74.5827 C28.3875,74.5827 32.7355,73.5447 33.7115,73.2827 C41.6195,71.1587 47.8965,65.0057 50.2755,57.1317 C50.5185,56.3277 50.6095,55.4857 50.6095,54.6467 L50.6095,35.7227 L49.6145,35.7227 Z" id="Fill-42" fill="#5F5C61"></path>
                    <path d="M38.2677,60.0123 C36.5767,64.2413 32.4417,67.2283 27.6087,67.2283 C22.7767,67.2283 18.6417,64.2413 16.9507,60.0123 L38.2677,60.0123 Z" id="Fill-44" fill="#FEFEFE"></path>
                    <path d="M37.4818,61.6004 C37.7818,61.0944 38.0468,60.5644 38.2678,60.0124 L16.9508,60.0124 C17.1718,60.5644 17.4358,61.0944 17.7368,61.6004 L37.4818,61.6004 Z" id="Fill-46" fill="#292929" opacity="0.200000003"></path>
                </g>
            </g>
            <g id="girl_4" transform="translate(69.000000, 0.000000)">
                <g id="shadow-copy-3" transform="translate(0.000000, 118.000000)">
                    <ellipse id="Oval-Copy" fill="#F7F9FA" cx="43" cy="5" rx="43" ry="5"></ellipse>
                    <ellipse id="Oval" fill="#E9EAEC" cx="42.5" cy="5" rx="17.5" ry="2"></ellipse>
                </g>
                <g id="Person-9" transform="translate(3.000000, 0.000000)">
                    <path d="M63.7085,64.3574 C63.7085,65.7054 62.6155,66.7974 61.2685,66.7974 C59.9205,66.7974 58.8285,65.7054 58.8285,64.3574 C58.8285,63.0094 59.9205,61.9174 61.2685,61.9174 C62.6155,61.9174 63.7085,63.0094 63.7085,64.3574" id="Fill-1" fill="#4D4C4E"></path>
                    <path d="M67.2827,58.4836 C67.2827,59.8316 66.1897,60.9236 64.8427,60.9236 C63.4947,60.9236 62.4027,59.8316 62.4027,58.4836 C62.4027,57.1356 63.4947,56.0436 64.8427,56.0436 C66.1897,56.0436 67.2827,57.1356 67.2827,58.4836" id="Fill-3" fill="#4D4C4E"></path>
                    <path d="M65.7362,62.0148 C65.7362,63.3628 64.6432,64.4548 63.2962,64.4548 C61.9482,64.4548 60.8562,63.3628 60.8562,62.0148 C60.8562,60.6668 61.9482,59.5748 63.2962,59.5748 C64.6432,59.5748 65.7362,60.6668 65.7362,62.0148" id="Fill-5" fill="#4D4C4E"></path>
                    <path d="M72.7161,55.3404 C72.7161,56.6884 71.6231,57.7804 70.2761,57.7804 C68.9281,57.7804 67.8361,56.6884 67.8361,55.3404 C67.8361,53.9924 68.9281,52.9004 70.2761,52.9004 C71.6231,52.9004 72.7161,53.9924 72.7161,55.3404" id="Fill-7" fill="#4D4C4E"></path>
                    <path d="M74.2771,46.0356 C74.2771,47.3836 73.1841,48.4756 71.8371,48.4756 C70.4891,48.4756 69.3971,47.3836 69.3971,46.0356 C69.3971,44.6876 70.4891,43.5956 71.8371,43.5956 C73.1841,43.5956 74.2771,44.6876 74.2771,46.0356" id="Fill-9" fill="#4D4C4E"></path>
                    <path d="M73.6098,50.0767 C73.6098,51.9177 72.1168,53.4107 70.2758,53.4107 C68.4348,53.4107 66.9418,51.9177 66.9418,50.0767 C66.9418,48.2357 68.4348,46.7427 70.2758,46.7427 C72.1168,46.7427 73.6098,48.2357 73.6098,50.0767" id="Fill-11" fill="#4D4C4E"></path>
                    <path d="M70.546,45.5952 C70.546,47.0232 69.389,48.1802 67.961,48.1802 C66.533,48.1802 65.376,47.0232 65.376,45.5952 C65.376,44.1672 66.533,43.0102 67.961,43.0102 C69.389,43.0102 70.546,44.1672 70.546,45.5952" id="Fill-13" fill="#4D4C4E"></path>
                    <path d="M71.1834,48.0121 C71.1834,49.3601 70.0904,50.4521 68.7434,50.4521 C67.3954,50.4521 66.3034,49.3601 66.3034,48.0121 C66.3034,46.6641 67.3954,45.5721 68.7434,45.5721 C70.0904,45.5721 71.1834,46.6641 71.1834,48.0121" id="Fill-15" fill="#4D4C4E"></path>
                    <path d="M65.6542,64.5835 C65.6542,65.3085 65.0672,65.8955 64.3422,65.8955 C63.6172,65.8955 63.0302,65.3085 63.0302,64.5835 C63.0302,63.8585 63.6172,63.2715 64.3422,63.2715 C65.0672,63.2715 65.6542,63.8585 65.6542,64.5835" id="Fill-17" fill="#4D4C4E"></path>
                    <path d="M47.1097,79.642 L33.1097,79.642 C22.6167,79.642 14.1097,88.149 14.1097,98.642 L14.1097,107.642 C14.1097,109.851 15.9007,111.642 18.1097,111.642 L62.1097,111.642 C64.3187,111.642 66.1097,109.851 66.1097,107.642 L66.1097,98.642 C66.1097,88.149 57.6027,79.642 47.1097,79.642" id="Fill-19" fill="#B68F65"></path>
                    <path d="M40.1097,87.642 L40.1097,87.642 C36.7957,87.642 34.1097,84.956 34.1097,81.642 L34.1097,67.642 L46.1097,67.642 L46.1097,81.642 C46.1097,84.956 43.4237,87.642 40.1097,87.642" id="Fill-21" fill="#B68F65"></path>
                    <path d="M46.1097,76.642 C46.1097,76.642 41.6307,77.642 40.1097,77.642 C38.5887,77.642 34.1097,76.642 34.1097,76.642 L34.1097,74.642 C34.1097,74.642 38.5887,75.642 40.1097,75.642 C41.6307,75.642 46.1097,74.642 46.1097,74.642 L46.1097,76.642 Z" id="Fill-23" fill="#292929" opacity="0.200000003"></path>
                    <path d="M15.9538,52.9223 C15.9538,54.5823 14.6078,55.9273 12.9488,55.9273 C11.2888,55.9273 9.9428,54.5823 9.9428,52.9223 C9.9428,51.2623 11.2888,49.9173 12.9488,49.9173 C14.6078,49.9173 15.9538,51.2623 15.9538,52.9223" id="Fill-25" fill="#4D4C4E"></path>
                    <path d="M13.7119,48.0121 C13.7119,51.2351 11.0989,53.8481 7.8759,53.8481 C4.6519,53.8481 2.0389,51.2351 2.0389,48.0121 C2.0389,44.7891 4.6519,42.1761 7.8759,42.1761 C11.0989,42.1761 13.7119,44.7891 13.7119,48.0121" id="Fill-27" fill="#4D4C4E"></path>
                    <path d="M13.5596,55.9277 C13.5596,57.6557 12.1586,59.0567 10.4306,59.0567 C8.7026,59.0567 7.3016,57.6557 7.3016,55.9277 C7.3016,54.1997 8.7026,52.7987 10.4306,52.7987 C12.1586,52.7987 13.5596,54.1997 13.5596,55.9277" id="Fill-29" fill="#4D4C4E"></path>
                    <path d="M18.6141,61.2035 C18.6141,63.4635 16.7821,65.2955 14.5221,65.2955 C12.2621,65.2955 10.4311,63.4635 10.4311,61.2035 C10.4311,58.9435 12.2621,57.1115 14.5221,57.1115 C16.7821,57.1115 18.6141,58.9435 18.6141,61.2035" id="Fill-31" fill="#4D4C4E"></path>
                    <path d="M22.7109,66.6654 C22.7109,68.8634 20.9289,70.6444 18.7319,70.6444 C16.5339,70.6444 14.7519,68.8634 14.7519,66.6654 C14.7519,64.4684 16.5339,62.6864 18.7319,62.6864 C20.9289,62.6864 22.7109,64.4684 22.7109,66.6654" id="Fill-33" fill="#4D4C4E"></path>
                    <path d="M73.1097,39.642 C73.1097,57.867 58.3347,72.642 40.1097,72.642 C21.8847,72.642 7.1097,57.867 7.1097,39.642 C7.1097,21.417 21.8847,6.642 40.1097,6.642 C58.3347,6.642 73.1097,21.417 73.1097,39.642" id="Fill-35" fill="#4D4C4E"></path>
                    <path d="M66.7797,44.962 C66.7797,59.831 54.7257,71.885 39.8567,71.885 C24.9877,71.885 12.9337,59.831 12.9337,44.962 C12.9337,30.093 24.9877,18.039 39.8567,18.039 C54.7257,18.039 66.7797,30.093 66.7797,44.962" id="Fill-37" fill="#4D4C4E"></path>
                    <path d="M25.1097,50.642 C25.1097,53.403 22.8707,55.642 20.1097,55.642 C17.3487,55.642 15.1097,53.403 15.1097,50.642 C15.1097,47.881 17.3487,45.642 20.1097,45.642 C22.8707,45.642 25.1097,47.881 25.1097,50.642" id="Fill-39" fill="#8C7052"></path>
                    <path d="M18.1102996,54.6421 C19.2152993,54.6421 20.1102992,55.7621 20.1092992,57.1421 C20.1092992,57.7091 19.9582992,58.2321 19.7032992,58.6521 C19.3382993,59.2531 18.7602994,59.6421 18.1092996,59.6421 C17.0042998,59.6421 16.1093,58.5221 16.1093,57.1411 C16.1103,55.7611 17.0052998,54.6421 18.1102996,54.6421 L18.1102996,54.6421 Z" id="Stroke-41" stroke="#FEC94B"></path>
                    <path d="M65.1097,50.642 C65.1097,53.403 62.8707,55.642 60.1097,55.642 C57.3487,55.642 55.1097,53.403 55.1097,50.642 C55.1097,47.881 57.3487,45.642 60.1097,45.642 C62.8707,45.642 65.1097,47.881 65.1097,50.642" id="Fill-43" fill="#8C7052"></path>
                    <path d="M62.1102996,54.6421 C63.2152993,54.6421 64.1102992,55.7621 64.1092992,57.1421 C64.1092992,57.7091 63.9582992,58.2321 63.7032992,58.6521 C63.3382993,59.2531 62.7602994,59.6421 62.1092996,59.6421 C61.0042998,59.6421 60.1093,58.5221 60.1093,57.1411 C60.1103,55.7611 61.0052998,54.6421 62.1102996,54.6421 L62.1102996,54.6421 Z" id="Stroke-45" stroke="#FEC94B"></path>
                    <g id="Group-49" transform="translate(25.000000, 106.642000)">
                        <mask id="mask-20" fill="white">
                            <use xlink:href="#path-19"></use>
                        </mask>
                        <g id="Clip-48"></g>
                        <path d="M30.1097,4.6863 C30.1097,10.9343 23.3937,16.0003 15.1097,16.0003 C6.8257,16.0003 0.1097,10.9343 0.1097,4.6863 C0.1097,-1.5617 30.1097,-1.5617 30.1097,4.6863" id="Fill-47" fill="#EAC463" mask="url(#mask-20)"></path>
                    </g>
                    <path d="M40.1097,75.642 L40.1097,75.642 C27.9597,75.642 18.1097,65.792 18.1097,53.642 L18.1097,34.642 C18.1097,22.492 27.9597,12.642 40.1097,12.642 L40.1097,12.642 C52.2597,12.642 62.1097,22.492 62.1097,34.642 L62.1097,53.642 C62.1097,65.792 52.2597,75.642 40.1097,75.642" id="Fill-50" fill="#B68F65"></path>
                    <path d="M51.1097,51.142 C51.1097,51.97 50.4377,52.642 49.6097,52.642 C48.7817,52.642 48.1097,51.97 48.1097,51.142 C48.1097,50.314 48.7817,49.642 49.6097,49.642 C50.4377,49.642 51.1097,50.314 51.1097,51.142" id="Fill-52" fill="#2D2D2D"></path>
                    <path d="M32.1097,51.142 C32.1097,51.97 31.4377,52.642 30.6097,52.642 C29.7817,52.642 29.1097,51.97 29.1097,51.142 C29.1097,50.314 29.7817,49.642 30.6097,49.642 C31.4377,49.642 32.1097,50.314 32.1097,51.142" id="Fill-54" fill="#2D2D2D"></path>
                    <path d="M41.383,58.4643 C40.764,59.1543 39.407,59.1813 38.837,58.4663" id="Stroke-56" stroke="#997862" stroke-width="2" stroke-linecap="round"></path>
                    <path d="M42.7314,67.5623 C41.4564,68.9823 38.6634,69.0383 37.4884,67.5653" id="Stroke-58" stroke="#ED3A52" stroke-width="2" stroke-linecap="round"></path>
                    <path d="M30.5777,44.6943 C28.5677,44.5463 26.7937,45.6403 26.1097,47.0333" id="Stroke-60" stroke="#4D4C4E" stroke-width="2" stroke-linecap="round"></path>
                    <path d="M49.6417,44.6943 C51.6517,44.5463 53.4257,45.6403 54.1097,47.0333" id="Stroke-62" stroke="#4D4C4E" stroke-width="2" stroke-linecap="round"></path>
                    <path d="M75.8047,38.117 C75.8047,40.616 73.7787,42.642 71.2797,42.642 C68.7807,42.642 66.7547,40.616 66.7547,38.117 C66.7547,35.618 68.7807,33.592 71.2797,33.592 C73.7787,33.592 75.8047,35.618 75.8047,38.117" id="Fill-64" fill="#4D4C4E"></path>
                    <path d="M25.0075,35.7235 C25.0075,36.4485 24.4205,37.0355 23.6955,37.0355 C22.9705,37.0355 22.3835,36.4485 22.3835,35.7235 C22.3835,34.9985 22.9705,34.4115 23.6955,34.4115 C24.4205,34.4115 25.0075,34.9985 25.0075,35.7235" id="Fill-66" fill="#4D4C4E"></path>
                    <path d="M12.6789,17.8027 C12.6789,19.8767 10.9969,21.5587 8.9229,21.5587 C6.8489,21.5587 5.1669,19.8767 5.1669,17.8027 C5.1669,15.7287 6.8489,14.0467 8.9229,14.0467 C10.9969,14.0467 12.6789,15.7287 12.6789,17.8027" id="Fill-68" fill="#4D4C4E"></path>
                    <path d="M31.2664,20.8979 C31.2664,27.1139 26.2274,32.1539 20.0104,32.1539 C13.7944,32.1539 8.7544,27.1139 8.7544,20.8979 C8.7544,14.6819 13.7944,9.6419 20.0104,9.6419 C26.2274,9.6419 31.2664,14.6819 31.2664,20.8979" id="Fill-70" fill="#4D4C4E"></path>
                    <g id="Group-74" transform="translate(0.000000, 19.642000)">
                        <mask id="mask-22" fill="white">
                            <use xlink:href="#path-21"></use>
                        </mask>
                        <g id="Clip-73"></g>
                        <path d="M16.3216,8.4121 C16.3216,12.9191 12.6676,16.5731 8.1606,16.5731 C3.6536,16.5731 -0.0004,12.9191 -0.0004,8.4121 C-0.0004,3.9051 3.6536,0.2511 8.1606,0.2511 C12.6676,0.2511 16.3216,3.9051 16.3216,8.4121" id="Fill-72" fill="#4D4C4E" mask="url(#mask-22)"></path>
                    </g>
                    <path d="M9.392,38.5558 C9.392,41.0098 7.402,42.9998 4.948,42.9998 C2.494,42.9998 0.504,41.0098 0.504,38.5558 C0.504,36.1018 2.494,34.1118 4.948,34.1118 C7.402,34.1118 9.392,36.1018 9.392,38.5558" id="Fill-75" fill="#4D4C4E"></path>
                    <path d="M78.5365,28.9355 C78.5365,31.5345 76.4295,33.6425 73.8295,33.6425 C71.2305,33.6425 69.1235,31.5345 69.1235,28.9355 C69.1235,26.3365 71.2305,24.2285 73.8295,24.2285 C76.4295,24.2285 78.5365,26.3365 78.5365,28.9355" id="Fill-77" fill="#4D4C4E"></path>
                    <path d="M20.173,26.1426 C20.173,27.5396 19.04,28.6726 17.643,28.6726 C16.246,28.6726 15.114,27.5396 15.114,26.1426 C15.114,24.7456 16.246,23.6126 17.643,23.6126 C19.04,23.6126 20.173,24.7456 20.173,26.1426" id="Fill-79" fill="#4D4C4E"></path>
                    <path d="M64.6031,23.3069 C64.6031,24.7099 63.4661,25.8469 62.0631,25.8469 C60.6601,25.8469 59.5231,24.7099 59.5231,23.3069 C59.5231,21.9039 60.6601,20.7669 62.0631,20.7669 C63.4661,20.7669 64.6031,21.9039 64.6031,23.3069" id="Fill-81" fill="#4D4C4E"></path>
                    <path d="M55.1794,35.8945 C55.1794,37.4125 53.9484,38.6435 52.4304,38.6435 C50.9124,38.6435 49.6814,37.4125 49.6814,35.8945 C49.6814,34.3765 50.9124,33.1455 52.4304,33.1455 C53.9484,33.1455 55.1794,34.3765 55.1794,35.8945" id="Fill-83" fill="#4D4C4E"></path>
                    <path d="M45.07,11.8881 C45.07,13.9281 43.416,15.5821 41.376,15.5821 C39.335,15.5821 37.682,13.9281 37.682,11.8881 C37.682,9.8481 39.335,8.1941 41.376,8.1941 C43.416,8.1941 45.07,9.8481 45.07,11.8881" id="Fill-85" fill="#4D4C4E"></path>
                    <path d="M71.8369,29.0675 C71.8369,30.5955 70.5979,31.8345 69.0699,31.8345 C67.5419,31.8345 66.3039,30.5955 66.3039,29.0675 C66.3039,27.5395 67.5419,26.3005 69.0699,26.3005 C70.5979,26.3005 71.8369,27.5395 71.8369,29.0675" id="Fill-87" fill="#4D4C4E"></path>
                    <path d="M52.2961,33.488 C52.2961,34.836 51.2031,35.928 49.8561,35.928 C48.5081,35.928 47.4161,34.836 47.4161,33.488 C47.4161,32.14 48.5081,31.048 49.8561,31.048 C51.2031,31.048 52.2961,32.14 52.2961,33.488" id="Fill-89" fill="#4D4C4E"></path>
                    <path d="M55.3586,10.5851 C55.3586,11.9171 54.2786,12.9971 52.9456,12.9971 C51.6136,12.9971 50.5336,11.9171 50.5336,10.5851 C50.5336,9.2531 51.6136,8.1721 52.9456,8.1721 C54.2786,8.1721 55.3586,9.2531 55.3586,10.5851" id="Fill-91" fill="#4D4C4E"></path>
                    <path d="M58.9251,36.5533 C58.9251,37.9013 57.8321,38.9933 56.4851,38.9933 C55.1371,38.9933 54.0451,37.9013 54.0451,36.5533 C54.0451,35.2053 55.1371,34.1133 56.4851,34.1133 C57.8321,34.1133 58.9251,35.2053 58.9251,36.5533" id="Fill-93" fill="#4D4C4E"></path>
                    <path d="M49.2471,22.2755 C49.2471,25.6625 46.5011,28.4095 43.1131,28.4095 C39.7261,28.4095 36.9801,25.6625 36.9801,22.2755 C36.9801,18.8885 39.7261,16.1415 43.1131,16.1415 C46.5011,16.1415 49.2471,18.8885 49.2471,22.2755" id="Fill-95" fill="#4D4C4E"></path>
                    <path d="M60.4411,8.2656 C60.4411,9.8546 59.1531,11.1426 57.5641,11.1426 C55.9751,11.1426 54.6871,9.8546 54.6871,8.2656 C54.6871,6.6766 55.9751,5.3886 57.5641,5.3886 C59.1531,5.3886 60.4411,6.6766 60.4411,8.2656" id="Fill-97" fill="#4D4C4E"></path>
                    <path d="M69.8954,9.1499 C69.8954,11.2189 68.2184,12.8969 66.1484,12.8969 C64.0794,12.8969 62.4024,11.2189 62.4024,9.1499 C62.4024,7.0809 64.0794,5.4029 66.1484,5.4029 C68.2184,5.4029 69.8954,7.0809 69.8954,9.1499" id="Fill-99" fill="#4D4C4E"></path>
                    <path d="M39.3496,20.9286 C39.3496,22.3486 38.1986,23.4996 36.7786,23.4996 C35.3586,23.4996 34.2076,22.3486 34.2076,20.9286 C34.2076,19.5086 35.3586,18.3576 36.7786,18.3576 C38.1986,18.3576 39.3496,19.5086 39.3496,20.9286" id="Fill-101" fill="#4D4C4E"></path>
                    <path d="M53.1097,37.642 C53.1097,39.851 51.3187,41.642 49.1097,41.642 C46.9007,41.642 45.1097,39.851 45.1097,37.642 C45.1097,35.433 46.9007,33.642 49.1097,33.642 C51.3187,33.642 53.1097,35.433 53.1097,37.642" id="Fill-103" fill="#4D4C4E"></path>
                    <path d="M26.5132,10.6169 C26.5132,12.8149 24.7312,14.5969 22.5332,14.5969 C20.3352,14.5969 18.5532,12.8149 18.5532,10.6169 C18.5532,8.4189 20.3352,6.6369 22.5332,6.6369 C24.7312,6.6369 26.5132,8.4189 26.5132,10.6169" id="Fill-105" fill="#4D4C4E"></path>
                    <path d="M78.4799,15.1482 C78.4799,18.1722 76.0289,20.6232 73.0049,20.6232 C69.9809,20.6232 67.5289,18.1722 67.5289,15.1482 C67.5289,12.1242 69.9809,9.6732 73.0049,9.6732 C76.0289,9.6732 78.4799,12.1242 78.4799,15.1482" id="Fill-107" fill="#4D4C4E"></path>
                    <g id="Group-111" transform="translate(69.000000, 18.642000)">
                        <mask id="mask-24" fill="white">
                            <use xlink:href="#path-23"></use>
                        </mask>
                        <g id="Clip-110"></g>
                        <path d="M9.5471,4.5 C9.5471,6.871 7.6251,8.792 5.2551,8.792 C2.8841,8.792 0.9621,6.871 0.9621,4.5 C0.9621,2.129 2.8841,0.208 5.2551,0.208 C7.6251,0.208 9.5471,2.129 9.5471,4.5" id="Fill-109" fill="#4D4C4E" mask="url(#mask-24)"></path>
                    </g>
                    <path d="M35.4943,7.8261 C35.4943,9.9211 33.7963,11.6191 31.7013,11.6191 C29.6063,11.6191 27.9083,9.9211 27.9083,7.8261 C27.9083,5.7311 29.6063,4.0331 31.7013,4.0331 C33.7963,4.0331 35.4943,5.7311 35.4943,7.8261" id="Fill-112" fill="#4D4C4E"></path>
                    <path d="M64.7193,34.9935 C64.7193,37.0695 63.0363,38.7525 60.9603,38.7525 C58.8833,38.7525 57.2003,37.0695 57.2003,34.9935 C57.2003,32.9175 58.8833,31.2345 60.9603,31.2345 C63.0363,31.2345 64.7193,32.9175 64.7193,34.9935" id="Fill-114" fill="#4D4C4E"></path>
                    <path d="M63.3028,6.0023 C63.3028,8.0083 61.6758,9.6353 59.6698,9.6353 C57.6638,9.6353 56.0368,8.0083 56.0368,6.0023 C56.0368,3.9963 57.6638,2.3693 59.6698,2.3693 C61.6758,2.3693 63.3028,3.9963 63.3028,6.0023" id="Fill-116" fill="#4D4C4E"></path>
                    <path d="M35.0776,31.4759 C33.7476,32.9139 31.5036,33.0019 30.0646,31.6719 C28.6266,30.3419 28.5386,28.0969 29.8686,26.6589 C31.1986,25.2209 33.4436,25.1329 34.8816,26.4629 C36.3196,27.7929 36.4076,30.0379 35.0776,31.4759" id="Fill-118" fill="#4D4C4E"></path>
                    <path d="M46.5047,29.2303 C46.5047,30.6083 45.3877,31.7253 44.0097,31.7253 C42.6307,31.7253 41.5137,30.6083 41.5137,29.2303 C41.5137,27.8523 42.6307,26.7353 44.0097,26.7353 C45.3877,26.7353 46.5047,27.8523 46.5047,29.2303" id="Fill-120" fill="#4D4C4E"></path>
                    <path d="M76.5996,34.2554 C76.5996,36.4314 74.8356,38.1954 72.6596,38.1954 C70.4836,38.1954 68.7196,36.4314 68.7196,34.2554 C68.7196,32.0794 70.4836,30.3154 72.6596,30.3154 C74.8356,30.3154 76.5996,32.0794 76.5996,34.2554" id="Fill-122" fill="#4D4C4E"></path>
                    <g id="Group-126" transform="translate(48.000000, 0.642000)">
                        <mask id="mask-26" fill="white">
                            <use xlink:href="#path-25"></use>
                        </mask>
                        <g id="Clip-125"></g>
                        <path d="M8.978,4.4025 C8.978,6.6365 7.167,8.4475 4.933,8.4475 C2.7,8.4475 0.889,6.6365 0.889,4.4025 C0.889,2.1685 2.7,0.3575 4.933,0.3575 C7.167,0.3575 8.978,2.1685 8.978,4.4025" id="Fill-124" fill="#4D4C4E" mask="url(#mask-26)"></path>
                    </g>
                    <path d="M49.3297,7.3874 C49.3297,9.7284 47.4317,11.6264 45.0907,11.6264 C42.7497,11.6264 40.8517,9.7284 40.8517,7.3874 C40.8517,5.0464 42.7497,3.1484 45.0907,3.1484 C47.4317,3.1484 49.3297,5.0464 49.3297,7.3874" id="Fill-127" fill="#4D4C4E"></path>
                    <path d="M19.4028,31.6705 C19.4028,33.0185 18.3098,34.1105 16.9628,34.1105 C15.6148,34.1105 14.5228,33.0185 14.5228,31.6705 C14.5228,30.3225 15.6148,29.2305 16.9628,29.2305 C18.3098,29.2305 19.4028,30.3225 19.4028,31.6705" id="Fill-129" fill="#4D4C4E"></path>
                    <path d="M13.6559,36.7091 C13.6559,38.3641 12.3139,39.7061 10.6589,39.7061 C9.0039,39.7061 7.6629,38.3641 7.6629,36.7091 C7.6629,35.0541 9.0039,33.7121 10.6589,33.7121 C12.3139,33.7121 13.6559,35.0541 13.6559,36.7091" id="Fill-131" fill="#4D4C4E"></path>
                    <path d="M30.0002,31.0746 C30.0002,34.9656 26.8462,38.1196 22.9552,38.1196 C19.0652,38.1196 15.9112,34.9656 15.9112,31.0746 C15.9112,27.1836 19.0652,24.0296 22.9552,24.0296 C26.8462,24.0296 30.0002,27.1836 30.0002,31.0746" id="Fill-133" fill="#4D4C4E"></path>
                    <path d="M24.1097,40.642 C24.1097,43.956 21.4237,46.642 18.1097,46.642 C14.7957,46.642 12.1097,43.956 12.1097,40.642 C12.1097,37.328 14.7957,34.642 18.1097,34.642 C21.4237,34.642 24.1097,37.328 24.1097,40.642" id="Fill-135" fill="#4D4C4E"></path>
                    <path d="M26.4391,38.7828 C26.4391,40.6628 24.9151,42.1868 23.0351,42.1868 C21.1551,42.1868 19.6311,40.6628 19.6311,38.7828 C19.6311,36.9028 21.1551,35.3788 23.0351,35.3788 C24.9151,35.3788 26.4391,36.9028 26.4391,38.7828" id="Fill-137" fill="#4D4C4E"></path>
                    <path d="M30.3389,9.0021 C30.3389,12.0751 27.8479,14.5661 24.7749,14.5661 C21.7019,14.5661 19.2109,12.0751 19.2109,9.0021 C19.2109,5.9291 21.7019,3.4381 24.7749,3.4381 C27.8479,3.4381 30.3389,5.9291 30.3389,9.0021" id="Fill-139" fill="#4D4C4E"></path>
                    <path d="M41.6725,7.0135 C41.6725,8.8755 40.1635,10.3855 38.3005,10.3855 C36.4385,10.3855 34.9295,8.8755 34.9295,7.0135 C34.9295,5.1515 36.4385,3.6415 38.3005,3.6415 C40.1635,3.6415 41.6725,5.1515 41.6725,7.0135" id="Fill-141" fill="#4D4C4E"></path>
                    <path d="M41.6725,14.1178 C41.6725,18.4648 38.1485,21.9898 33.8005,21.9898 C29.4535,21.9898 25.9295,18.4648 25.9295,14.1178 C25.9295,9.7708 29.4535,6.2458 33.8005,6.2458 C38.1485,6.2458 41.6725,9.7708 41.6725,14.1178" id="Fill-143" fill="#4D4C4E"></path>
                    <path d="M15.451,35.1501 C15.451,36.7561 14.149,38.0571 12.544,38.0571 C10.938,38.0571 9.637,36.7561 9.637,35.1501 C9.637,33.5441 10.938,32.2431 12.544,32.2431 C14.149,32.2431 15.451,33.5441 15.451,35.1501" id="Fill-145" fill="#4D4C4E"></path>
                    <path d="M37.4614,28.9103 C35.0924,31.3863 31.1644,31.4743 28.6884,29.1053 C26.2114,26.7363 26.1244,22.8083 28.4934,20.3323 C30.8624,17.8553 34.7904,17.7683 37.2664,20.1373 C39.7434,22.5063 39.8304,26.4343 37.4614,28.9103" id="Fill-147" fill="#4D4C4E"></path>
                    <path d="M52.4303,32.3098 C52.4303,33.9458 51.1043,35.2728 49.4673,35.2728 C47.8313,35.2728 46.5043,33.9458 46.5043,32.3098 C46.5043,30.6738 47.8313,29.3468 49.4673,29.3468 C51.1043,29.3468 52.4303,30.6738 52.4303,32.3098" id="Fill-149" fill="#4D4C4E"></path>
                    <path d="M50.3586,33.4459 C50.3586,35.3259 48.8346,36.8489 46.9556,36.8489 C45.0756,36.8489 43.5516,35.3259 43.5516,33.4459 C43.5516,31.5659 45.0756,30.0429 46.9556,30.0429 C48.8346,30.0429 50.3586,31.5659 50.3586,33.4459" id="Fill-151" fill="#4D4C4E"></path>
                    <path d="M72.1097,36.642 C72.1097,42.165 67.6327,46.642 62.1097,46.642 C56.5867,46.642 52.1097,42.165 52.1097,36.642 C52.1097,31.119 56.5867,26.642 62.1097,26.642 C67.6327,26.642 72.1097,31.119 72.1097,36.642" id="Fill-153" fill="#4D4C4E"></path>
                    <path d="M56.7304,27.85 C56.7304,31.08 54.1124,33.698 50.8824,33.698 C47.6524,33.698 45.0344,31.08 45.0344,27.85 C45.0344,24.62 47.6524,22.002 50.8824,22.002 C54.1124,22.002 56.7304,24.62 56.7304,27.85" id="Fill-155" fill="#4D4C4E"></path>
                    <path d="M73.0459,43.4936 C73.0459,44.8966 71.9069,46.0356 70.5039,46.0356 C69.0999,46.0356 67.9609,44.8966 67.9609,43.4936 C67.9609,42.0896 69.0999,40.9506 70.5039,40.9506 C71.9069,40.9506 73.0459,42.0896 73.0459,43.4936" id="Fill-157" fill="#4D4C4E"></path>
                    <path d="M14.7586,12.6848 C14.7586,14.1258 13.5906,15.2928 12.1506,15.2928 C10.7096,15.2928 9.5416,14.1258 9.5416,12.6848 C9.5416,11.2438 10.7096,10.0768 12.1506,10.0768 C13.5906,10.0768 14.7586,11.2438 14.7586,12.6848" id="Fill-159" fill="#4D4C4E"></path>
                    <path d="M25.0333,9.1499 C25.0333,12.2109 22.5513,14.6929 19.4903,14.6929 C16.4293,14.6929 13.9473,12.2109 13.9473,9.1499 C13.9473,6.0889 16.4293,3.6069 19.4903,3.6069 C22.5513,3.6069 25.0333,6.0889 25.0333,9.1499" id="Fill-161" fill="#4D4C4E"></path>
                    <path d="M71.7547,20.642 C71.7547,29.479 64.5917,36.642 55.7547,36.642 C46.9177,36.642 39.7547,29.479 39.7547,20.642 C39.7547,11.805 46.9177,4.642 55.7547,4.642 C64.5917,4.642 71.7547,11.805 71.7547,20.642" id="Fill-163" fill="#4D4C4E"></path>
                    <path d="M66.1097,107.642 L66.1097,98.642 C66.1097,90.835 61.3967,84.134 54.6647,81.212 C53.0607,87.769 47.1617,92.642 40.1097,92.642 C33.0577,92.642 27.1587,87.769 25.5547,81.212 C18.8227,84.134 14.1097,90.835 14.1097,98.642 L14.1097,107.642 L25.1097,107.642 L25.1097,111.642 L55.1097,111.642 L55.1097,107.642 L66.1097,107.642 Z" id="Fill-165" fill="#EAC463"></path>
                    <path d="M23.6097,104.1424 C22.7807,104.1424 22.1097,104.8144 22.1097,105.6424 L22.1097,111.6424 L25.1097,111.6424 L25.1097,105.6424 C25.1097,104.8144 24.4387,104.1424 23.6097,104.1424" id="Fill-167" fill="#292929" opacity="0.200000003"></path>
                    <path d="M56.6097,104.1424 C55.7807,104.1424 55.1097,104.8144 55.1097,105.6424 L55.1097,111.6424 L58.1097,111.6424 L58.1097,105.6424 C58.1097,104.8144 57.4387,104.1424 56.6097,104.1424" id="Fill-169" fill="#292929" opacity="0.200000003"></path>
                    <path d="M54.6644,81.2117 C53.0604,87.7697 47.1614,92.6417 40.1094,92.6417 C33.0584,92.6417 27.1594,87.7697 25.5554,81.2117 C24.7714,81.5517 24.0194,81.9477 23.2944,82.3857 C25.4134,89.9227 32.2334,95.1417 40.1094,95.1417 C47.9854,95.1417 54.8064,89.9227 56.9244,82.3857 C56.2004,81.9477 55.4474,81.5517 54.6644,81.2117" id="Fill-171" fill="#F1DCA0"></path>
                </g>
            </g>
            <g id="boy_5" transform="translate(209.000000, 3.000000)">
                <g id="shadow-copy-4" transform="translate(0.000000, 115.000000)">
                    <ellipse id="Oval-Copy" fill="#F7F9FA" cx="43" cy="5" rx="43" ry="5"></ellipse>
                    <ellipse id="Oval" fill="#E9EAEC" cx="42.5" cy="5" rx="17.5" ry="2"></ellipse>
                </g>
                <g id="Person-0" transform="translate(14.000000, 0.000000)">
                    <g id="Group-47" transform="translate(0.000000, 0.479000)">
                        <path d="M41.564,74.0711 L17.564,74.0711 C9.832,74.0711 3.564,80.3391 3.564,88.0711 L3.564,102.0711 C3.564,104.2801 5.355,106.0711 7.564,106.0711 L51.564,106.0711 C53.773,106.0711 55.564,104.2801 55.564,102.0711 L55.564,88.0711 C55.564,80.3391 49.296,74.0711 41.564,74.0711" id="Fill-1" fill="#4D4C4E"></path>
                        <path d="M29.564,82.0711 L29.564,82.0711 C26.25,82.0711 23.564,79.3851 23.564,76.0711 L23.564,62.0711 L35.564,62.0711 L35.564,76.0711 C35.564,79.3851 32.878,82.0711 29.564,82.0711" id="Fill-3" fill="#E9C6A0"></path>
                        <path d="M35.564,71.0711 C35.564,71.0711 31.085,72.0711 29.564,72.0711 C28.043,72.0711 23.564,71.0711 23.564,71.0711 L23.564,69.0711 C23.564,69.0711 28.043,70.0711 29.564,70.0711 C31.085,70.0711 35.564,69.0711 35.564,69.0711 L35.564,71.0711 Z" id="Fill-5" fill="#292929" opacity="0.200000003"></path>
                        <path d="M56.564,24.0711 L2.564,24.0711 L2.564,36.0711 C2.564,41.5941 7.041,46.0711 12.564,46.0711 L46.564,46.0711 C52.087,46.0711 56.564,41.5941 56.564,36.0711 L56.564,24.0711 Z" id="Fill-7" fill="#5F5C61"></path>
                        <path d="M56.564,43.1213 C56.564,45.8823 54.325,48.1213 51.564,48.1213 C48.803,48.1213 46.564,45.8823 46.564,43.1213 C46.564,40.3603 48.803,38.1213 51.564,38.1213 C54.325,38.1213 56.564,40.3603 56.564,43.1213" id="Fill-9" fill="#E9C6A0"></path>
                        <path d="M12.564,43.1213 C12.564,45.8823 10.325,48.1213 7.564,48.1213 C4.803,48.1213 2.564,45.8823 2.564,43.1213 C2.564,40.3603 4.803,38.1213 7.564,38.1213 C10.325,38.1213 12.564,40.3603 12.564,43.1213" id="Fill-11" fill="#E9C6A0"></path>
                        <path d="M56.564,24.0711 C56.564,35.1171 47.61,44.0711 36.564,44.0711 C25.518,44.0711 16.564,35.1171 16.564,24.0711 C16.564,13.0251 25.518,4.0711 36.564,4.0711 C49.591,4.0711 56.564,13.0251 56.564,24.0711" id="Fill-13" fill="#5F5C61"></path>
                        <path d="M29.5641,70.0711 L29.5641,70.0711 C17.4141,70.0711 7.5641,60.2211 7.5641,48.0711 L7.5641,29.0711 C7.5641,16.9211 17.4141,7.0711 29.5641,7.0711 L29.5641,7.0711 C41.7141,7.0711 51.5641,16.9211 51.5641,29.0711 L51.5641,48.0711 C51.5641,60.2211 41.7141,70.0711 29.5641,70.0711" id="Fill-15" fill="#F7D4AA"></path>
                        <polygon id="Fill-17" fill="#F1F2F1" points="33.564 74.0711 29.563 83.3061 25.564 74.0711 19.564 74.0711 29.564 101.0711 39.564 74.0711"></polygon>
                        <path d="M19.2352,30.7304 C13.1432,30.7014 7.3442,28.2284 3.0842,23.9754 L2.5642,24.0714 L2.5642,26.3954 C7.1072,30.4714 13.0262,32.8204 19.2252,32.8504 C21.2922,32.8594 23.3212,32.6164 25.2782,32.1414 C32.0342,30.5024 37.9142,26.1034 41.3712,19.8514 L39.5162,18.8264 C35.4332,26.2094 27.6642,30.7734 19.2352,30.7304" id="Fill-19" fill="#292929" opacity="0.200000003"></path>
                        <path d="M31.9712,53.7023 C30.4022,54.1933 28.7262,54.1943 27.1562,53.7053" id="Stroke-21" stroke="#E9C6A0" stroke-width="2" stroke-linecap="round"></path>
                        <path d="M14.5653,39.5867 C14.3243,39.5867 14.0823,39.4997 13.8903,39.3247 C13.4833,38.9517 13.4553,38.3187 13.8273,37.9117 C15.2353,36.3717 17.7113,35.8547 19.8603,36.6577 C20.3773,36.8517 20.6393,37.4277 20.4463,37.9447 C20.2523,38.4617 19.6813,38.7247 19.1593,38.5307 C17.6003,37.9477 16.0383,38.4567 15.3033,39.2617 C15.1063,39.4777 14.8363,39.5867 14.5653,39.5867" id="Fill-23" fill="#5F5C61"></path>
                        <path d="M44.5634,39.5867 C44.2924,39.5867 44.0224,39.4777 43.8254,39.2617 C43.0904,38.4567 41.5274,37.9477 39.9694,38.5307 C39.4524,38.7237 38.8764,38.4617 38.6824,37.9447 C38.4894,37.4277 38.7514,36.8517 39.2684,36.6577 C41.4114,35.8547 43.8924,36.3717 45.3014,37.9117 C45.6734,38.3187 45.6454,38.9517 45.2384,39.3247 C45.0464,39.4997 44.8044,39.5867 44.5634,39.5867" id="Fill-25" fill="#5F5C61"></path>
                        <path d="M42.1508,41.5711 C42.1508,42.3991 41.4788,43.0711 40.6508,43.0711 C39.8228,43.0711 39.1508,42.3991 39.1508,41.5711 C39.1508,40.7431 39.8228,40.0711 40.6508,40.0711 C41.4788,40.0711 42.1508,40.7431 42.1508,41.5711" id="Fill-27" fill="#2D2D2D"></path>
                        <path d="M19.9773,41.5711 C19.9773,42.3991 19.3053,43.0711 18.4773,43.0711 C17.6493,43.0711 16.9773,42.3991 16.9773,41.5711 C16.9773,40.7431 17.6493,40.0711 18.4773,40.0711 C19.3053,40.0711 19.9773,40.7431 19.9773,41.5711" id="Fill-29" fill="#2D2D2D"></path>
                        <polygon id="Fill-31" fill="#2878A0" points="30.8352 78.1162 29.5652 78.1162 29.5642 78.1162 29.5632 78.1162 28.2932 78.1162 25.0592 79.9402 27.4662 85.4552 31.6622 85.4552 34.0692 79.9402"></polygon>
                        <polygon id="Fill-33" fill="#2878A0" points="29.564 101.0711 26.564 93.0711 27.466 85.4551 31.662 85.4551 32.564 93.0711"></polygon>
                        <polygon id="Fill-35" fill="#292929" points="31.7792 86.3336 31.6602 85.4556 27.4702 85.4556 27.3482 86.3336"></polygon>
                        <polygon id="Fill-37" fill="#FEFEFE" points="23.564 71.0711 19.564 74.0711 23.889 81.8791 29.541 78.1161"></polygon>
                        <polygon id="Fill-39" fill="#FEFEFE" points="35.541 71.0711 39.541 74.0711 35.216 81.8791 29.564 78.1161"></polygon>
                        <path d="M33.7307,61.0453 C32.9397,61.7673 30.9407,62.0453 29.7727,62.0453" id="Stroke-41" stroke="#F4876D" stroke-width="2" stroke-linecap="round" stroke-linejoin="round"></path>
                        <path d="M25.8137,61.0453 C26.6047,61.7673 28.6037,62.0453 29.7727,62.0453" id="Stroke-43" stroke="#F4876D" stroke-width="2" stroke-linecap="round" stroke-linejoin="round"></path>
                        <path d="M41.3714,5.306 C32.3134,-3.762 4.7344,-1.776 0.0004,23.696 C5.5184,29.431 13.6224,32.513 22.0934,31.245 C31.6184,29.818 39.1094,23.282 42.2094,14.836" id="Fill-45" fill="#5F5C61"></path>
                        <path d="M26.0285,117.459507 L14.5645,106.021 L44.5645,106.021 L33.0995,117.459507 C31.1465,119.408164 27.9815,119.408164 26.0285,117.459507" id="Fill-51" fill="#4D4C4E"></path>
                    </g>
                    <g id="Group-50" transform="translate(39.000000, 5.479000)">
                        <mask id="mask-28" fill="white">
                            <use xlink:href="#path-27"></use>
                        </mask>
                        <g id="Clip-49"></g>
                        <path d="M43.9263,9.2644 C43.9263,21.2734 34.1913,31.0084 22.1823,31.0084 C10.1743,31.0084 0.4393,21.2734 0.4393,9.2644 C0.4393,-2.7446 10.1743,-12.4796 22.1823,-12.4796 C34.1913,-12.4796 43.9263,-2.7446 43.9263,9.2644" id="Fill-48" fill="#5F5C61" mask="url(#mask-28)"></path>
                    </g>
                </g>
            </g>
            <g id="boy_2" transform="translate(346.000000, 12.000000)">
                <g id="shadow" transform="translate(0.000000, 106.000000)">
                    <ellipse id="Oval-Copy" fill="#F7F9FA" cx="43" cy="5" rx="43" ry="5"></ellipse>
                    <ellipse id="Oval" fill="#E9EAEC" cx="42.5" cy="5" rx="17.5" ry="2"></ellipse>
                </g>
                <g id="boy" transform="translate(10.000000, 0.000000)">
                    <path d="M38.2401,94.2948 L37.4081,95.1268 L34.9131,97.6218 C34.4541,98.0818 33.7091,98.0818 33.2491,97.6218 C32.7901,97.1628 32.7901,96.4178 33.2491,95.9588 L35.5121,93.6958 C35.6411,93.5668 35.6411,93.3588 35.5121,93.2308 L33.2491,90.9678 C32.7901,90.5088 32.7901,89.7638 33.2491,89.3038 C33.7091,88.8448 34.4541,88.8448 34.9131,89.3038 L37.4081,91.7998 L38.2401,92.6308 C38.6991,93.0908 38.6991,93.8358 38.2401,94.2948 M32.9671,78.5118 C32.9611,78.5158 32.9571,78.5238 32.9511,78.5288 C32.5951,78.7678 32.6551,78.7248 32.9671,78.5118 M27.9031,90.3028 L30.1661,92.5658 C30.6251,93.0258 30.6251,93.7708 30.1661,94.2298 C29.7061,94.6888 28.9621,94.6888 28.5021,94.2298 L26.0071,91.7348 L25.1751,90.9028 C24.7161,90.4428 24.7161,89.6988 25.1751,89.2388 L26.0071,88.4068 L28.5021,85.9118 C28.9621,85.4528 29.7061,85.4528 30.1661,85.9118 C30.6251,86.3708 30.6251,87.1158 30.1661,87.5758 L27.9031,89.8388 C27.7751,89.9668 27.7751,90.1748 27.9031,90.3028 M39.8341,64.7678 C40.8661,66.1608 41.4661,67.9188 41.4661,70.0528 C41.4661,73.3868 39.1271,75.6468 37.3421,76.8868 C36.7631,77.2888 36.0451,77.1638 35.5981,76.7238 C35.3901,76.5188 35.2351,76.2528 35.1891,75.9288 C35.0281,74.7798 34.6981,73.4428 34.0421,72.6618 C34.0071,72.6198 33.9731,72.5748 33.9351,72.5358 L33.9381,72.5528 L33.9131,72.5138 C32.4571,72.6698 31.1541,72.5848 28.8851,72.6298 C28.8961,72.5838 28.9031,72.5528 28.9031,72.5528 L28.8491,72.5108 C28.7941,72.6318 28.7251,72.7468 28.6461,72.8558 C28.1461,73.5468 27.8451,74.6098 27.6631,75.6178 C27.5561,76.2088 27.1841,76.6528 26.7171,76.9048 C26.1271,77.2238 25.3821,77.2308 24.7861,76.7638 C23.1201,75.4598 21.2701,73.3438 21.2701,70.3778 C21.2701,68.1228 21.9401,66.2888 23.0831,64.8618 C12.8061,67.7338 5.4141,75.6218 5.4141,84.9258 L5.4141,90.0708 L13.7111,90.0708 L16.7961,90.0708 L16.7961,94.8688 L16.7111,94.8688 L29.3121,106.8988 C30.6201,108.1468 32.6761,108.1518 33.9891,106.9098 L46.7261,94.8688 L46.7261,90.0708 L57.8321,90.0708 L57.8321,84.9258 C57.8321,75.5228 50.2831,67.5618 39.8341,64.7678" id="Fill-112" fill="#AEE1F9"></path>
                    <path d="M16.7958,90.0708 L13.7108,90.0708 L5.4148,90.0708 L5.4148,92.3578 C5.4148,93.7448 6.5388,94.8688 7.9258,94.8688 L16.7108,94.8688 L16.7958,94.8688 L16.7958,90.0708 Z" id="Fill-114" fill="#A4633D"></path>
                    <path d="M30.166,87.5754 C30.625,87.1164 30.625,86.3714 30.166,85.9114 C29.707,85.4524 28.962,85.4524 28.502,85.9114 L26.007,88.4074 L25.175,89.2394 C24.716,89.6984 24.716,90.4434 25.175,90.9024 L26.007,91.7344 L28.502,94.2294 C28.962,94.6894 29.707,94.6894 30.166,94.2294 C30.625,93.7704 30.625,93.0254 30.166,92.5664 L27.903,90.3034 C27.775,90.1744 27.775,89.9664 27.903,89.8384 L30.166,87.5754 Z" id="Fill-116" fill="#33393D"></path>
                    <path d="M37.4083,91.7995 L34.9133,89.3045 C34.4533,88.8445 33.7083,88.8445 33.2493,89.3045 C32.7903,89.7635 32.7903,90.5085 33.2493,90.9675 L35.5123,93.2305 C35.6403,93.3585 35.6403,93.5675 35.5123,93.6955 L33.2493,95.9585 C32.7903,96.4175 32.7903,97.1625 33.2493,97.6215 C33.7083,98.0815 34.4533,98.0815 34.9133,97.6215 L37.4083,95.1265 L38.2403,94.2945 C38.6993,93.8355 38.6993,93.0905 38.2403,92.6315 L37.4083,91.7995 Z" id="Fill-118" fill="#33393D"></path>
                    <path d="M33.9165,72.5131 C33.9235,72.5201 33.9285,72.5291 33.9355,72.5361 L33.9325,72.5111 C33.9275,72.5111 33.9215,72.5121 33.9165,72.5131" id="Fill-120" fill="#AEE1F9"></path>
                    <path d="M31.6236,64.6392 C32.0306,64.6392 32.4346,64.6262 32.8366,64.6082 L32.7146,63.7322 C32.3506,63.7202 31.9916,63.6872 31.6236,63.6872 C31.1016,63.6872 30.5916,63.7262 30.0766,63.7502 L29.9656,64.5802 C30.5146,64.6152 31.0656,64.6392 31.6236,64.6392" id="Fill-122" fill="#AEE1F9"></path>
                    <path d="M32.9506,78.5285 C32.9566,78.5245 32.9606,78.5165 32.9676,78.5115 C32.6546,78.7255 32.5946,78.7675 32.9506,78.5285" id="Fill-124" fill="#AEE1F9"></path>
                    <path d="M33.9032,72.4975 L33.9132,72.5135 L33.9382,72.5525 L33.9352,72.5355 C33.9292,72.5285 33.9232,72.5195 33.9162,72.5135 C33.9122,72.5085 33.9082,72.5025 33.9032,72.4975" id="Fill-126" fill="#D6EEF8"></path>
                    <path d="M39.8339,64.7681 C39.2509,63.9821 38.5249,63.3181 37.6929,62.7641 L37.6929,63.6871 L37.6929,64.1701 L37.6929,66.8761 C37.6929,69.3371 36.2249,71.5481 33.9409,72.5421 C33.9759,72.5791 34.0089,72.6211 34.0429,72.6611 C34.6979,73.4421 35.0279,74.7801 35.1899,75.9291 C35.2349,76.2531 35.3899,76.5191 35.5979,76.7231 C36.0449,77.1631 36.7629,77.2881 37.3419,76.8871 C39.1269,75.6471 41.4659,73.3871 41.4659,70.0521 C41.4659,67.9181 40.8669,66.1611 39.8339,64.7681" id="Fill-128" fill="#D6EEF8"></path>
                    <path d="M25.5543,66.876 L25.5543,64.17 L25.5543,63.687 L25.5543,62.783 C24.5943,63.34 23.7523,64.025 23.0823,64.862 C21.9393,66.289 21.2703,68.123 21.2703,70.378 C21.2703,73.344 23.1203,75.46 24.7863,76.764 C25.3823,77.231 26.1273,77.224 26.7163,76.905 C27.1843,76.652 27.5563,76.209 27.6623,75.618 C27.8443,74.61 28.1463,73.547 28.6463,72.856 C28.7173,72.757 28.7773,72.652 28.8293,72.544 C26.8243,71.551 25.5543,69.339 25.5543,66.876" id="Fill-130" fill="#D6EEF8"></path>
                    <path d="M34.4311,61.2113 C33.8891,61.2813 33.3411,61.3293 32.7871,61.3583 C32.4011,61.3793 32.0151,61.4003 31.6231,61.4003 C30.7461,61.4003 29.8861,61.3363 29.0361,61.2353 C28.7911,61.2063 28.5471,61.1783 28.3041,61.1413 C27.3681,60.9973 26.4491,60.8013 25.5541,60.5443 L25.5541,62.7823 L25.5541,63.6873 L25.5541,64.1703 L25.5541,66.8763 C25.5541,69.3393 26.8241,71.5513 28.8301,72.5443 C28.8551,72.5573 28.8831,72.5663 28.9091,72.5783 L30.3691,78.7843 C30.6571,80.0103 32.4101,79.9853 32.6631,78.7523 L33.9381,72.5523 L33.9121,72.5523 C33.9211,72.5483 33.9311,72.5463 33.9411,72.5423 C36.2241,71.5483 37.6931,69.3373 37.6931,66.8763 L37.6931,64.1703 L37.6931,63.6873 L37.6931,62.7643 L37.6931,60.5443 C36.6361,60.8473 35.5461,61.0673 34.4311,61.2113" id="Fill-132" fill="#A4633D"></path>
                    <path d="M57.8326,90.0708 L46.7126,90.0708 L46.7126,94.8688 L55.3646,94.8688 C56.7276,94.8688 57.8326,93.7638 57.8326,92.4008 L57.8326,90.0708 Z" id="Fill-134" fill="#A4633D"></path>
                    <polygon id="Fill-136" fill="#D6EEF8" points="5.415 90.071 16.796 90.071 16.796 87.819 5.415 87.819"></polygon>
                    <polygon id="Fill-138" fill="#D6EEF8" points="46.712 90.071 57.832 90.071 57.832 87.819 46.712 87.819"></polygon>
                    <path d="M49.1415,31.1774 C48.9545,31.3304 48.7305,31.4054 48.5065,31.4054 C48.2175,31.4054 47.9315,31.2814 47.7335,31.0404 C46.6525,29.7264 44.7495,28.3704 39.6055,29.5654 C39.0715,29.6944 38.5295,29.3564 38.4055,28.8184 C38.2805,28.2804 38.6155,27.7414 39.1525,27.6174 C43.9395,26.5024 47.1555,27.1894 49.2785,29.7694 C49.6285,30.1964 49.5675,30.8254 49.1415,31.1774 M42.9425,34.6994 C41.9225,34.6994 41.0965,33.8724 41.0965,32.8534 C41.0965,31.8344 41.9225,31.0074 42.9425,31.0074 C43.9615,31.0074 44.7875,31.8344 44.7875,32.8534 C44.7875,33.8724 43.9615,34.6994 42.9425,34.6994 M37.2155,50.7844 C36.2485,52.5774 33.8835,53.1014 31.1185,53.1014 C28.3545,53.1014 25.9895,52.5774 25.0215,50.7844 C24.5575,49.9244 25.3975,48.9794 26.6485,48.9794 L35.5895,48.9794 C36.8405,48.9794 37.6805,49.9244 37.2155,50.7844 M24.0405,28.8184 C23.9165,29.3564 23.3765,29.6934 22.8405,29.5654 C17.6935,28.3714 15.7935,29.7264 14.7125,31.0404 C14.5145,31.2814 14.2285,31.4054 13.9395,31.4054 C13.7155,31.4054 13.4915,31.3304 13.3045,31.1774 C12.8785,30.8254 12.8175,30.1964 13.1675,29.7694 C15.2905,27.1914 18.5065,26.5044 23.2935,27.6174 C23.8305,27.7414 24.1655,28.2804 24.0405,28.8184 M19.3975,34.6994 C18.3775,34.6994 17.5515,33.8724 17.5515,32.8534 C17.5515,31.8344 18.3775,31.0074 19.3975,31.0074 C20.4165,31.0074 21.2425,31.8344 21.2425,32.8534 C21.2425,33.8724 20.4165,34.6994 19.3975,34.6994 M27.8425,41.5014 C28.3645,39.8884 29.6385,39.4174 31.1285,39.4174 C32.6185,39.4174 33.8935,39.8884 34.4155,41.5014 C34.6655,42.2754 34.2125,43.1254 33.5385,43.1254 L28.7195,43.1254 C28.0455,43.1254 27.5925,42.2754 27.8425,41.5014 M52.1015,17.7924 C51.6435,16.0104 51.0775,14.9814 50.1575,15.7704 C50.0475,15.8654 49.9325,15.9804 49.8115,16.1294 C46.0455,20.7694 37.6945,22.2694 31.1185,19.0194 C30.0435,18.4874 28.6505,17.8964 27.1055,17.3044 C19.2015,14.2794 7.2325,11.2444 12.4455,16.1294 C13.6475,17.2554 14.2225,18.4074 14.3685,19.5334 C15.0695,24.9224 5.7235,29.7314 5.6645,28.3734 L5.6645,35.6414 L5.6645,37.1274 L5.6715,37.1274 C5.6705,37.1934 5.6645,37.2584 5.6645,37.3254 C5.6645,46.5414 14.1735,57.0374 25.5545,59.7274 C27.3495,60.1524 29.2125,60.3894 31.1285,60.3894 C33.3985,60.3894 35.5985,60.0624 37.6925,59.4754 C48.5735,56.4284 56.5925,46.2724 56.5925,37.3254 C56.5925,37.2584 56.5865,37.1934 56.5855,37.1274 L56.5925,37.1274 L56.5925,35.6394 L56.5925,29.0074 C53.6435,30.0194 53.1585,21.9064 52.1015,17.7924" id="Fill-139" fill="#A4633D"></path>
                    <path d="M25.5543,59.7277 L25.5543,62.7317 C27.4823,63.2847 29.5173,63.5877 31.6233,63.5877 C33.7303,63.5877 35.7643,63.2847 37.6933,62.7317 L37.6933,59.4757 C35.5983,60.0617 33.3993,60.3887 31.1283,60.3887 C29.2133,60.3887 27.3493,60.1517 25.5543,59.7277" id="Fill-140" fill="#66311A"></path>
                    <path d="M62.1054,30.0868 C62.1054,27.0558 59.6764,24.5958 56.6594,24.5378 C56.8034,26.0858 56.8174,27.6438 56.5924,29.0078 L56.5924,35.6398 C59.6404,35.6168 62.1054,33.1408 62.1054,30.0868" id="Fill-141" fill="#66311A"></path>
                    <path d="M5.6969,24.7167 C5.6999,24.6557 5.7049,24.5947 5.7089,24.5337 C5.6959,24.5337 5.6839,24.5317 5.6709,24.5317 C2.6039,24.5317 0.1169,27.0187 0.1169,30.0867 C0.1169,33.1527 2.5999,35.6377 5.6649,35.6407 L5.6649,28.3737 C5.6099,27.1057 5.6229,25.8877 5.6969,24.7167" id="Fill-142" fill="#66311A"></path>
                    <path d="M13.9394,31.405 C14.2284,31.405 14.5144,31.281 14.7124,31.041 C15.7934,29.726 17.6934,28.372 22.8404,29.565 C23.3774,29.693 23.9174,29.356 24.0414,28.818 C24.1664,28.28 23.8314,27.742 23.2934,27.618 C18.5064,26.505 15.2914,27.191 13.1684,29.769 C12.8174,30.196 12.8784,30.826 13.3044,31.177 C13.4914,31.331 13.7154,31.405 13.9394,31.405" id="Fill-143" fill="#231F20"></path>
                    <path d="M39.6054,29.5651 C44.7504,28.3711 46.6524,29.7261 47.7334,31.0411 C47.9314,31.2811 48.2174,31.4051 48.5064,31.4051 C48.7304,31.4051 48.9554,31.3311 49.1414,31.1771 C49.5674,30.8261 49.6284,30.1961 49.2784,29.7691 C47.1554,27.1891 43.9394,26.5021 39.1524,27.6181 C38.6154,27.7421 38.2804,28.2801 38.4054,28.8181 C38.5294,29.3561 39.0714,29.6941 39.6054,29.5651" id="Fill-144" fill="#231F20"></path>
                    <path d="M21.2428,32.8534 C21.2428,31.8344 20.4168,31.0074 19.3968,31.0074 C18.3778,31.0074 17.5518,31.8344 17.5518,32.8534 C17.5518,33.8724 18.3778,34.6994 19.3968,34.6994 C20.4168,34.6994 21.2428,33.8724 21.2428,32.8534" id="Fill-145" fill="#0E0F0E"></path>
                    <path d="M44.788,32.8534 C44.788,31.8344 43.962,31.0074 42.942,31.0074 C41.923,31.0074 41.097,31.8344 41.097,32.8534 C41.097,33.8724 41.923,34.6994 42.942,34.6994 C43.962,34.6994 44.788,33.8724 44.788,32.8534" id="Fill-146" fill="#0E0F0E"></path>
                    <path d="M37.2269,50.7849 C37.6909,49.9239 36.8509,48.9789 35.6009,48.9789 L26.6589,48.9789 C25.4089,48.9789 24.5679,49.9239 25.0329,50.7849 C25.9999,52.5779 28.3659,53.1019 31.1299,53.1019 C33.8939,53.1019 36.2599,52.5779 37.2269,50.7849" id="Fill-147" fill="#FEFEFE"></path>
                    <path d="M28.7192,43.1253 L33.5382,43.1253 C34.2122,43.1253 34.6652,42.2753 34.4152,41.5013 C33.8932,39.8893 32.6192,39.4183 31.1292,39.4183 C29.6392,39.4183 28.3642,39.8893 27.8422,41.5013 C27.5922,42.2753 28.0452,43.1253 28.7192,43.1253" id="Fill-148" fill="#773F23"></path>
                    <path d="M5.6969,24.7167 C5.6229,25.8877 5.6099,27.1057 5.6649,28.3737 C5.7229,29.7317 15.0689,24.9227 14.3689,19.5337 C14.2229,18.4067 13.6479,17.2557 12.4459,16.1297 C7.2329,11.2447 19.2019,14.2797 27.1049,17.3047 C28.6509,17.8967 30.0429,18.4877 31.1189,19.0187 C37.6939,22.2687 46.0459,20.7687 49.8119,16.1297 C49.9329,15.9807 50.0469,15.8657 50.1579,15.7707 C51.0779,14.9807 51.6439,16.0107 52.1019,17.7927 C53.1589,21.9057 53.6439,30.0197 56.5919,29.0077 C56.8169,27.6437 56.8029,26.0857 56.6599,24.5377 C56.3349,21.0247 55.3389,17.5577 54.9209,16.4967 C52.9209,11.4127 49.2459,7.2607 44.7269,4.4587 C44.5069,4.3217 44.2889,4.1817 44.0639,4.0517 C43.9289,3.9727 43.7939,3.8937 43.6569,3.8177 C40.4479,2.0317 36.8649,0.9117 33.1719,0.6077 C33.0809,0.6007 32.9909,0.5937 32.8999,0.5877 C32.3119,0.5457 31.7209,0.5187 31.1289,0.5187 C30.7939,0.5187 30.4519,0.5287 30.1049,0.5447 C25.6599,0.7587 20.3109,2.3587 15.7469,5.6927 C11.4229,8.8517 7.8089,13.5727 6.3409,20.1627 C6.0219,21.5937 5.7979,23.1067 5.6969,24.7167" id="Fill-149" fill="#0E0F0E"></path>
                </g>
            </g>
        </g>
    </g>
</svg>