<?xml version="1.0" encoding="UTF-8"?>
<svg width="58px" height="58px" viewBox="0 0 58 58" version="1.1" xmlns="http://www.w3.org/2000/svg" xmlns:xlink="http://www.w3.org/1999/xlink">
    <!-- Generator: Sketch 51.3 (57544) - http://www.bohemiancoding.com/sketch -->
    <title>info</title>
    <desc>Created with Sketch.</desc>
    <defs></defs>
    <g id="Page-1" stroke="none" stroke-width="1" fill="none" fill-rule="evenodd">
        <g id="100-Basic-Element-Icons-Dark" transform="translate(-572.000000, -798.000000)" fill="#9B9B9B">
            <path d="M601.024978,856 C617.011197,856 630,843 630,827 C630,811 617.011197,798 601.024978,798 C585.03876,798 572,811 572,827 C572,843 585.03876,856 601.024978,856 L601.024978,856 Z M601.024978,802 C614.763135,802 625.953488,813.2 625.953488,826.95 C625.953488,840.7 614.763135,851.9 601.024978,851.9 C587.286822,851.9 576.096469,840.7 576.096469,826.95 C576.096469,813.2 587.286822,802 601.024978,802 Z M596.179156,839.75 C595.030146,839.75 594.130922,840.65 594.130922,841.8 C594.130922,842.95 595.030146,843.85 596.179156,843.85 L609.617571,843.85 C610.766581,843.85 611.665805,842.95 611.665805,841.8 C611.665805,840.65 610.766581,839.75 609.617571,839.75 L604.921619,839.75 L604.921619,821.7 C604.921619,820.55 604.022394,819.65 602.873385,819.65 L596.179156,819.65 C595.030146,819.65 594.130922,820.55 594.130922,821.7 C594.130922,822.85 595.030146,823.75 596.179156,823.75 L600.875108,823.75 L600.875108,839.75 L596.179156,839.75 Z M600.125754,816.25 C601.946724,816.25 603.422911,814.77254 603.422911,812.95 C603.422911,811.12746 601.946724,809.65 600.125754,809.65 C598.304784,809.65 596.828596,811.12746 596.828596,812.95 C596.828596,814.77254 598.304784,816.25 600.125754,816.25 Z" id="info"></path>
        </g>
    </g>
</svg>