<?xml version="1.0" encoding="UTF-8"?>
<svg width="244px" height="48px" viewBox="0 0 244 48" version="1.1" xmlns="http://www.w3.org/2000/svg" xmlns:xlink="http://www.w3.org/1999/xlink">
    <!-- Generator: Sketch 49 (51002) - http://www.bohemiancoding.com/sketch -->
    <title>OS</title>
    <desc>Created with Sketch.</desc>
    <defs></defs>
    <g id="Page-1" stroke="none" stroke-width="1" fill="none" fill-rule="evenodd">
        <g id="5" transform="translate(-492.000000, -333.000000)">
            <g id="OS" transform="translate(492.000000, 333.000000)">
                <path d="M196,6.79593989 L215.616154,4.1326369 L215.624728,22.995574 L196.01826,23.106885 L196,6.79593989 Z M215.606809,25.1691539 L215.622035,44.0488427 L196.01549,41.3614999 L196.01439,25.0428447 L215.606809,25.1691539 Z M217.984711,3.78431418 L243.993926,0 L243.993926,22.7559155 L217.984711,22.9617638 L217.984711,3.78431418 Z M244,25.3466004 L243.993899,48 L217.984683,44.3403894 L217.94824,25.3043841 L244,25.3466004 Z" id="Windowsphone" fill="#00B6F0"></path>
                <path d="M126.727009,9.60090475 C125.935377,9.60090475 125.294532,8.97719462 125.294532,8.20672916 C125.294532,7.43626371 125.935377,6.81537579 126.727009,6.81537579 C127.518641,6.81537579 128.159486,7.43626371 128.159486,8.20672916 C128.159486,8.97719462 127.518641,9.60090475 126.727009,9.60090475 L126.727009,9.60090475 Z M115.272991,9.60090475 C114.481359,9.60090475 113.840514,8.97719462 113.840514,8.20672916 C113.840514,7.43626371 114.481359,6.81537579 115.272991,6.81537579 C116.064623,6.81537579 116.705468,7.43626371 116.705468,8.20672916 C116.705468,8.97719462 116.064623,9.60090475 115.272991,9.60090475 L115.272991,9.60090475 Z M127.573737,4.01855796 C131.62179,5.85582174 134.362055,9.33561628 134.362055,13.3177656 L107.637945,13.3177656 C107.637945,9.33561628 110.37821,5.85582174 114.429163,4.01855796 L113.892709,3.23398142 L113.359155,2.46069374 L112.170257,0.722207583 C112.025269,0.507719031 112.086164,0.219852816 112.303645,0.0787419268 C112.524027,-0.0623689627 112.819801,-0.00592460691 112.967688,0.208563945 L114.243579,2.07122769 L114.780033,2.85298201 L115.322287,3.64884743 C117.047639,2.99691512 118.973074,2.63284903 121,2.63284903 C123.029826,2.63284903 124.952361,2.99691512 126.677713,3.64884743 L127.222867,2.85298201 L129.038111,0.208563945 C129.180199,-0.00592460691 129.478873,-0.0651911805 129.696355,0.0787419268 C129.916736,0.219852816 129.97763,0.507719031 129.829743,0.722207583 L128.640845,2.46069374 L128.107291,3.23398142 L127.573737,4.01855796 Z M107.843828,15.1747849 L134.362055,15.1747849 L134.362055,35.6132861 C134.362055,37.2360613 133.010771,38.5568593 131.340514,38.5568593 L129.157001,38.5568593 C129.232394,38.8023922 129.275891,39.059214 129.275891,39.3301469 L129.275891,45.214471 C129.275891,46.7525797 127.991301,48 126.408036,48 C124.827672,48 123.545982,46.7525797 123.545982,45.214471 L123.545982,39.3301469 C123.545982,39.059214 123.586578,38.8023922 123.659072,38.5568593 L118.340928,38.5568593 C118.413422,38.8023922 118.456918,39.059214 118.456918,39.3301469 L118.456918,45.214471 C118.456918,46.7525797 117.172328,48 115.591964,48 C114.011599,48 112.727009,46.7525797 112.727009,45.214471 L112.727009,39.3301469 C112.727009,39.059214 112.767606,38.8023922 112.842999,38.5568593 L110.662386,38.5568593 C108.992129,38.5568593 107.637945,37.2360613 107.637945,35.6132861 L107.637945,15.1747849 L107.843828,15.1747849 Z M102.864954,15.1747849 C104.445319,15.1747849 105.727009,16.4222051 105.727009,17.9603138 L105.727009,29.884184 C105.727009,31.4222927 104.445319,32.669713 102.864954,32.669713 C101.28169,32.669713 100,31.4222927 100,29.884184 L100,17.9603138 C100,16.4222051 101.28169,15.1747849 102.864954,15.1747849 Z M139.137945,15.1747849 C140.71831,15.1747849 142,16.4222051 142,17.9603138 L142,29.884184 C142,31.4222927 140.71831,32.669713 139.137945,32.669713 C137.554681,32.669713 136.272991,31.4222927 136.272991,29.884184 L136.272991,17.9603138 C136.272991,16.4222051 137.554681,15.1747849 139.137945,15.1747849 Z" id="Android" fill="#95CF00"></path>
                <path d="M27.1747352,7.792499 C28.7401771,5.77169882 29.9268831,2.91548405 29.497649,0 C26.9390773,0.177807837 23.948466,1.81476887 22.2034752,3.94846291 C20.6127843,5.88177034 19.3054439,8.75774154 19.816036,11.5490423 C22.6130711,11.6365351 25.4998807,9.96006119 27.1747352,7.792499 L27.1747352,7.792499 Z M41,35.217241 C39.8806249,37.7121954 39.3419782,38.8270223 37.8999761,41.0369197 C35.8884674,44.1217446 33.052156,47.9629583 29.5341199,47.9911818 C26.4116524,48.02505 25.6064879,45.9449805 21.3674507,45.9703816 C17.1284135,45.9929604 16.2446963,48.0306946 13.116618,47.9996488 C9.60138728,47.968603 6.91376479,44.5027614 4.90225609,41.4179365 C-0.725479534,32.79849 -1.31742979,22.6803774 2.15291366,17.2981624 C4.62171095,13.4767051 8.51567757,11.2414066 12.1739863,11.2414066 C15.8968204,11.2414066 18.2393723,13.2960749 21.3225635,13.2960749 C24.3131747,13.2960749 26.1339127,11.2357619 30.4402807,11.2357619 C33.7002153,11.2357619 37.1537261,13.0223073 39.6113015,16.1043098 C31.5540449,20.5466833 32.8585799,32.1211268 41,35.217241 L41,35.217241 Z" id="Apple" fill="#0B0B0A"></path>
            </g>
        </g>
    </g>
</svg>