<?xml version="1.0" encoding="UTF-8"?>
<svg width="86px" height="125px" viewBox="0 0 86 125" version="1.1" xmlns="http://www.w3.org/2000/svg" xmlns:xlink="http://www.w3.org/1999/xlink">
    <!-- Generator: Sketch 52.6 (67491) - http://www.bohemiancoding.com/sketch -->
    <title>sbp</title>
    <desc>Created with Sketch.</desc>
    <defs>
        <path d="M14.4407644,31.0084 C14.4820176,30.4339768 14.503,29.8539398 14.503,29.269 C14.503,29.186 14.498,29.105 14.497,29.023 L14.503,29.023 L14.503,22.407 C14.503,16.145 12.096,10.447 8.16,6.181 C5.99941539,3.83913177 3.37791991,1.92889475 0.4393,0.595280621 L0.4393,31.0084 L14.4407644,31.0084 L14.4407644,31.0084 Z" id="path-1"></path>
    </defs>
    <g id="Page-1" stroke="none" stroke-width="1" fill="none" fill-rule="evenodd">
        <g id="netguru-cartoon-characters" transform="translate(-637.000000, -150.000000)">
            <g id="sbp" transform="translate(637.000000, 150.000000)">
                <g id="shadow-copy-4" transform="translate(0.000000, 115.000000)">
                    <ellipse id="Oval-Copy" fill="#F7F9FA" cx="43" cy="5" rx="43" ry="5"></ellipse>
                    <ellipse id="Oval" fill="#E9EAEC" cx="42.5" cy="5" rx="17.5" ry="2"></ellipse>
                </g>
                <g id="Person-0" transform="translate(14.000000, 0.000000)">
                    <g id="Group-47" transform="translate(0.000000, 0.479000)">
                        <path d="M41.564,74.0711 L17.564,74.0711 C9.832,74.0711 3.564,80.3391 3.564,88.0711 L3.564,102.0711 C3.564,104.2801 5.355,106.0711 7.564,106.0711 L51.564,106.0711 C53.773,106.0711 55.564,104.2801 55.564,102.0711 L55.564,88.0711 C55.564,80.3391 49.296,74.0711 41.564,74.0711" id="Fill-1" fill="#4D4C4E"></path>
                        <path d="M29.564,82.0711 L29.564,82.0711 C26.25,82.0711 23.564,79.3851 23.564,76.0711 L23.564,62.0711 L35.564,62.0711 L35.564,76.0711 C35.564,79.3851 32.878,82.0711 29.564,82.0711" id="Fill-3" fill="#E9C6A0"></path>
                        <path d="M35.564,71.0711 C35.564,71.0711 31.085,72.0711 29.564,72.0711 C28.043,72.0711 23.564,71.0711 23.564,71.0711 L23.564,69.0711 C23.564,69.0711 28.043,70.0711 29.564,70.0711 C31.085,70.0711 35.564,69.0711 35.564,69.0711 L35.564,71.0711 Z" id="Fill-5" fill="#292929" opacity="0.200000003"></path>
                        <path d="M56.564,24.0711 L2.564,24.0711 L2.564,36.0711 C2.564,41.5941 7.041,46.0711 12.564,46.0711 L46.564,46.0711 C52.087,46.0711 56.564,41.5941 56.564,36.0711 L56.564,24.0711 Z" id="Fill-7" fill="#5F5C61"></path>
                        <path d="M56.564,43.1213 C56.564,45.8823 54.325,48.1213 51.564,48.1213 C48.803,48.1213 46.564,45.8823 46.564,43.1213 C46.564,40.3603 48.803,38.1213 51.564,38.1213 C54.325,38.1213 56.564,40.3603 56.564,43.1213" id="Fill-9" fill="#E9C6A0"></path>
                        <path d="M12.564,43.1213 C12.564,45.8823 10.325,48.1213 7.564,48.1213 C4.803,48.1213 2.564,45.8823 2.564,43.1213 C2.564,40.3603 4.803,38.1213 7.564,38.1213 C10.325,38.1213 12.564,40.3603 12.564,43.1213" id="Fill-11" fill="#E9C6A0"></path>
                        <path d="M56.564,24.0711 C56.564,35.1171 47.61,44.0711 36.564,44.0711 C25.518,44.0711 16.564,35.1171 16.564,24.0711 C16.564,13.0251 25.518,4.0711 36.564,4.0711 C49.591,4.0711 56.564,13.0251 56.564,24.0711" id="Fill-13" fill="#5F5C61"></path>
                        <path d="M29.5641,70.0711 L29.5641,70.0711 C17.4141,70.0711 7.5641,60.2211 7.5641,48.0711 L7.5641,29.0711 C7.5641,16.9211 17.4141,7.0711 29.5641,7.0711 L29.5641,7.0711 C41.7141,7.0711 51.5641,16.9211 51.5641,29.0711 L51.5641,48.0711 C51.5641,60.2211 41.7141,70.0711 29.5641,70.0711" id="Fill-15" fill="#F7D4AA"></path>
                        <polygon id="Fill-17" fill="#F1F2F1" points="33.564 74.0711 29.563 83.3061 25.564 74.0711 19.564 74.0711 29.564 101.0711 39.564 74.0711"></polygon>
                        <path d="M19.2352,30.7304 C13.1432,30.7014 7.3442,28.2284 3.0842,23.9754 L2.5642,24.0714 L2.5642,26.3954 C7.1072,30.4714 13.0262,32.8204 19.2252,32.8504 C21.2922,32.8594 23.3212,32.6164 25.2782,32.1414 C32.0342,30.5024 37.9142,26.1034 41.3712,19.8514 L39.5162,18.8264 C35.4332,26.2094 27.6642,30.7734 19.2352,30.7304" id="Fill-19" fill="#292929" opacity="0.200000003"></path>
                        <path d="M31.9712,53.7023 C30.4022,54.1933 28.7262,54.1943 27.1562,53.7053" id="Stroke-21" stroke="#E9C6A0" stroke-width="2" stroke-linecap="round"></path>
                        <path d="M14.5653,39.5867 C14.3243,39.5867 14.0823,39.4997 13.8903,39.3247 C13.4833,38.9517 13.4553,38.3187 13.8273,37.9117 C15.2353,36.3717 17.7113,35.8547 19.8603,36.6577 C20.3773,36.8517 20.6393,37.4277 20.4463,37.9447 C20.2523,38.4617 19.6813,38.7247 19.1593,38.5307 C17.6003,37.9477 16.0383,38.4567 15.3033,39.2617 C15.1063,39.4777 14.8363,39.5867 14.5653,39.5867" id="Fill-23" fill="#5F5C61"></path>
                        <path d="M44.5634,39.5867 C44.2924,39.5867 44.0224,39.4777 43.8254,39.2617 C43.0904,38.4567 41.5274,37.9477 39.9694,38.5307 C39.4524,38.7237 38.8764,38.4617 38.6824,37.9447 C38.4894,37.4277 38.7514,36.8517 39.2684,36.6577 C41.4114,35.8547 43.8924,36.3717 45.3014,37.9117 C45.6734,38.3187 45.6454,38.9517 45.2384,39.3247 C45.0464,39.4997 44.8044,39.5867 44.5634,39.5867" id="Fill-25" fill="#5F5C61"></path>
                        <path d="M42.1508,41.5711 C42.1508,42.3991 41.4788,43.0711 40.6508,43.0711 C39.8228,43.0711 39.1508,42.3991 39.1508,41.5711 C39.1508,40.7431 39.8228,40.0711 40.6508,40.0711 C41.4788,40.0711 42.1508,40.7431 42.1508,41.5711" id="Fill-27" fill="#2D2D2D"></path>
                        <path d="M19.9773,41.5711 C19.9773,42.3991 19.3053,43.0711 18.4773,43.0711 C17.6493,43.0711 16.9773,42.3991 16.9773,41.5711 C16.9773,40.7431 17.6493,40.0711 18.4773,40.0711 C19.3053,40.0711 19.9773,40.7431 19.9773,41.5711" id="Fill-29" fill="#2D2D2D"></path>
                        <polygon id="Fill-31" fill="#2878A0" points="30.8352 78.1162 29.5652 78.1162 29.5642 78.1162 29.5632 78.1162 28.2932 78.1162 25.0592 79.9402 27.4662 85.4552 31.6622 85.4552 34.0692 79.9402"></polygon>
                        <polygon id="Fill-33" fill="#2878A0" points="29.564 101.0711 26.564 93.0711 27.466 85.4551 31.662 85.4551 32.564 93.0711"></polygon>
                        <polygon id="Fill-35" fill="#292929" points="31.7792 86.3336 31.6602 85.4556 27.4702 85.4556 27.3482 86.3336"></polygon>
                        <polygon id="Fill-37" fill="#FEFEFE" points="23.564 71.0711 19.564 74.0711 23.889 81.8791 29.541 78.1161"></polygon>
                        <polygon id="Fill-39" fill="#FEFEFE" points="35.541 71.0711 39.541 74.0711 35.216 81.8791 29.564 78.1161"></polygon>
                        <path d="M33.7307,61.0453 C32.9397,61.7673 30.9407,62.0453 29.7727,62.0453" id="Stroke-41" stroke="#F4876D" stroke-width="2" stroke-linecap="round" stroke-linejoin="round"></path>
                        <path d="M25.8137,61.0453 C26.6047,61.7673 28.6037,62.0453 29.7727,62.0453" id="Stroke-43" stroke="#F4876D" stroke-width="2" stroke-linecap="round" stroke-linejoin="round"></path>
                        <path d="M41.3714,5.306 C32.3134,-3.762 4.7344,-1.776 0.0004,23.696 C5.5184,29.431 13.6224,32.513 22.0934,31.245 C31.6184,29.818 39.1094,23.282 42.2094,14.836" id="Fill-45" fill="#5F5C61"></path>
                        <path d="M26.0285,117.459507 L14.5645,106.021 L44.5645,106.021 L33.0995,117.459507 C31.1465,119.408164 27.9815,119.408164 26.0285,117.459507" id="Fill-51" fill="#4D4C4E"></path>
                    </g>
                    <g id="Group-50" transform="translate(39.000000, 5.479000)">
                        <mask id="mask-2" fill="white">
                            <use xlink:href="#path-1"></use>
                        </mask>
                        <g id="Clip-49"></g>
                        <path d="M43.9263,9.2644 C43.9263,21.2734 34.1913,31.0084 22.1823,31.0084 C10.1743,31.0084 0.4393,21.2734 0.4393,9.2644 C0.4393,-2.7446 10.1743,-12.4796 22.1823,-12.4796 C34.1913,-12.4796 43.9263,-2.7446 43.9263,9.2644" id="Fill-48" fill="#5F5C61" mask="url(#mask-2)"></path>
                    </g>
                </g>
            </g>
        </g>
    </g>
</svg>