<?xml version="1.0" encoding="UTF-8"?>
<svg width="144px" height="64px" viewBox="0 0 144 64" version="1.1" xmlns="http://www.w3.org/2000/svg" xmlns:xlink="http://www.w3.org/1999/xlink">
    <!-- Generator: Sketch 52.6 (67491) - http://www.bohemiancoding.com/sketch -->
    <title>social-icons</title>
    <desc>Created with Sketch.</desc>
    <defs>
        <linearGradient x1="50%" y1="6.76%" x2="50%" y2="95.6%" id="linearGradient-1">
            <stop stop-color="#00C6FF" offset="0%"></stop>
            <stop stop-color="#0068FF" offset="100%"></stop>
        </linearGradient>
    </defs>
    <g id="social-icons" stroke="none" stroke-width="1" fill="none" fill-rule="evenodd">
        <g id="Mail" fill-rule="nonzero">
            <circle id="Oval" fill="#0971BD" cx="24" cy="24" r="24"></circle>
            <path d="M24.3344,22.653024 C22.45952,22.653024 12.8,17.17536 12.8,17.17536 L12.8,16.32 C12.8,15.26016 13.66016,14.4 14.72192,14.4 L33.94688,14.4 C35.0096,14.4 35.86976,15.26016 35.86976,16.32 L35.8544,17.28 C35.8544,17.28 26.29952,22.653024 24.3344,22.653024 Z M24.3344,25.293024 C26.38976,25.293024 35.8544,20.16 35.8544,20.16 L35.86976,31.68 C35.86976,32.73984 35.0096,33.6 33.94688,33.6 L14.72192,33.6 C13.66112,33.6 12.8,32.73984 12.8,31.68 L12.81536,20.16 C12.8144,20.16 22.45952,25.293024 24.3344,25.293024 Z" id="Shape" fill="#FFFFFF"></path>
        </g>
        <g id="Messenger" transform="translate(34.000000, 16.000000)" fill-rule="nonzero">
            <circle id="Oval" fill="#FFFFFF" cx="24" cy="24" r="24"></circle>
            <g id="logo" transform="translate(9.600000, 9.600000)">
                <path d="M5.25727434,23.6414867 L5.25727434,28.7643186 L10.047377,26.0410619 C11.3826266,26.4259115 12.8019823,26.6336283 14.2725664,26.6336283 C22.1556106,26.6336283 28.5451327,20.6710089 28.5451327,13.3168142 C28.5451327,5.96210974 22.1556106,2.84217094e-14 14.2725664,2.84217094e-14 C6.39003186,2.84217094e-14 0,5.96210974 0,13.3168142 C0,17.4813451 2.04887788,21.1998584 5.25727434,23.6414867 Z" id="Shape" fill="url(#linearGradient-1)"></path>
                <polygon id="Shape" fill="#FFFFFF" points="12.7484602 9.66940888 5.05134159 17.8190442 12.0563682 13.975646 15.7163894 17.8190442 23.3700531 9.66940888 16.442761 13.4455222"></polygon>
            </g>
        </g>
        <g id="WhatsApp" transform="translate(58.000000, 0.000000)" fill-rule="nonzero">
            <circle id="Oval" fill="#25D366" cx="24" cy="24" r="24"></circle>
            <path d="M24.791075,37.3525167 L24.7851708,37.3525167 C22.3967046,37.3516929 20.0498014,36.7524275 17.9653482,35.6154517 L10.4,37.6 L12.4246147,30.2048446 C11.1757332,28.0405195 10.5185789,25.5854866 10.5196498,23.0702443 C10.5227805,15.2016934 16.9248172,8.8 24.7909377,8.8 C28.608639,8.80164768 32.1918187,10.2878654 34.8862063,12.985411 C37.5805938,15.6828194 39.0636535,19.2683334 39.0621431,23.0815035 C39.058985,30.9482694 32.6594886,37.3493038 24.791075,37.3525167 Z M18.315867,33.0318851 L18.7490039,33.2889525 C20.5701837,34.3696734 22.657795,34.9415184 24.7862692,34.9423422 L24.791075,34.9423422 C31.3288403,34.9423422 36.6499228,29.6211362 36.6525316,23.0806797 C36.6537674,19.9112078 35.4211568,16.931083 33.1816694,14.6889868 C30.9421821,12.4468906 27.9639796,11.2115338 24.7957434,11.2104354 C18.2529252,11.2104354 12.9317742,16.5311059 12.929179,23.0710682 C12.928259,25.312368 13.5553705,27.4951198 14.7427382,29.3836352 L15.024768,29.8324252 L13.8264843,34.2095452 L18.315867,33.0318851 Z M31.980777,26.4751302 C31.8916643,26.3263848 31.6539848,26.2371486 31.2973969,26.0585938 C30.940809,25.8801213 29.1876652,25.0175685 28.8607358,24.8984542 C28.5339436,24.7795046 28.2961268,24.7200641 28.0584473,25.0769266 C27.8207678,25.4338578 27.1373878,26.2371486 26.9293666,26.4751302 C26.7213456,26.7130431 26.5133246,26.7429212 26.156874,26.5643664 C25.8002861,26.3858939 24.6512958,26.0093827 23.2892454,24.7944848 C22.2291756,23.8489158 21.5135282,22.6812518 21.3055209,22.3242519 C21.0975136,21.9672522 21.2833458,21.7743349 21.4618594,21.5965215 C21.6222896,21.4366954 21.8184747,21.1799302 21.996755,20.9717718 C22.1750352,20.7636134 22.2344619,20.614772 22.3533291,20.3769552 C22.4721826,20.1388638 22.4127696,19.9307054 22.323602,19.7522055 C22.2344619,19.5737056 21.5213273,17.8185022 21.2241798,17.1045026 C20.9347079,16.4091767 20.640746,16.5033698 20.4218777,16.4923851 C20.2141175,16.4819498 19.9761359,16.4797529 19.7384427,16.4797529 C19.5007358,16.4797529 19.1143933,16.5690028 18.7875462,16.9260026 C18.4606991,17.2830025 17.539516,18.1457062 17.539516,19.9007723 C17.539516,21.6559758 18.8172458,23.3515876 18.9955535,23.5895418 C19.1738338,23.8276331 21.5099857,27.4292946 25.0871102,28.9738818 C25.9378683,29.3413033 26.6020253,29.5607071 27.1199497,29.7250232 C27.9741404,29.9964941 28.7515762,29.9581853 29.3658905,29.8663265 C30.0510555,29.763991 31.4756222,29.0037737 31.7728932,28.1708518 C32.0698896,27.3377653 32.0698896,26.6238069 31.980777,26.4751302 Z" id="Page-1" fill="#FDFDFD"></path>
        </g>
        <g id="Facebook" transform="translate(96.000000, 10.000000)" fill-rule="nonzero">
            <path d="M0,24 C0,10.7451654 10.7451654,0 24,0 C37.2548346,0 48,10.7451654 48,24 C48,37.2548346 37.2548346,48 24,48 C10.7451654,48 0,37.2548346 0,24 Z" id="back" fill="#3B5998"></path>
            <path d="M26.5015551,38.1114767 L26.5015551,25.0542096 L30.1059318,25.0542096 L30.5835896,20.554603 L26.5015551,20.554603 L26.5076789,18.3025066 C26.5076789,17.12894 26.6191834,16.5001162 28.3047641,16.5001162 L30.5580737,16.5001162 L30.5580737,12 L26.9531866,12 C22.6231375,12 21.0990725,14.1827933 21.0990725,17.8535652 L21.0990725,20.5551126 L18.4,20.5551126 L18.4,25.0547192 L21.0990725,25.0547192 L21.0990725,38.1114767 L26.5015551,38.1114767 Z" id="Shape" fill="#FFFFFF"></path>
        </g>
    </g>
</svg>