<?xml version="1.0" encoding="UTF-8"?>
<svg width="86px" height="121px" viewBox="0 0 86 121" version="1.1" xmlns="http://www.w3.org/2000/svg" xmlns:xlink="http://www.w3.org/1999/xlink">
    <!-- Generator: Sketch 52.6 (67491) - http://www.bohemiancoding.com/sketch -->
    <title>teacher-2</title>
    <desc>Created with Sketch.</desc>
    <defs>
        <polygon id="path-1" points="0.8792 16 30.8792 16 30.8792 0.0003 0.8792 0.0003 0.8792 16"></polygon>
        <path d="M12.5450453,32.1055 C11.5639485,31.6435193 10.6054151,31.1012434 9.678,30.477 C-0.165,23.852 -2.774,10.502 3.851,0.658 L23.324,18.724 C28.794,22.406 35.346,23.232 41.226,21.554 C40.742,22.615 40.169,23.651 39.497,24.65 C37.2434052,27.9985868 34.2116444,30.5099943 30.8044237,32.1055 L12.5450444,32.1055 L12.5450453,32.1055 Z" id="path-3"></path>
        <path d="M19.9206943,37.5128 C15.8378036,37.2107053 12.464837,35.982837 10.702,34.22 C1.222,24.739 -3.368,11.65 4.117,0.528 L26.12,20.94 C32.301,25.099 39.703,26.033 46.347,24.136 C40.7789764,33.2011812 31.6981068,36.9618278 23.9298285,37.5128 L19.9206943,37.5128 L19.9206943,37.5128 Z" id="path-5"></path>
        <path d="M2.59037171,37.5737 C1.48399834,34.5630246 0.88,31.3095976 0.88,27.915 C0.88,13.5958841 11.6284963,1.78726575 25.4966,0.117239748 L25.4966,37.5737 L2.59037171,37.5737 L2.59037171,37.5737 Z" id="path-7"></path>
        <path d="M39.9124234,41.4721 C41.8104385,37.695507 42.879,33.4301292 42.879,28.915 C42.879,13.451 30.343,0.915 14.879,0.915 C9.50875662,0.915 4.49155263,2.42702652 0.2299,5.04860944 L0.2299,41.4721 L39.9124234,41.4721 L39.9124234,41.4721 Z" id="path-9"></path>
    </defs>
    <g id="Page-1" stroke="none" stroke-width="1" fill="none" fill-rule="evenodd">
        <g id="netguru-cartoon-characters" transform="translate(-78.000000, -154.000000)">
            <g id="teacher-2" transform="translate(78.000000, 154.000000)">
                <g id="shadow" transform="translate(0.000000, 111.000000)">
                    <ellipse id="Oval-Copy" fill="#F7F9FA" cx="43" cy="5" rx="43" ry="5"></ellipse>
                    <ellipse id="Oval" fill="#E9EAEC" cx="42.5" cy="5" rx="17.5" ry="2"></ellipse>
                </g>
                <g id="Person-6" transform="translate(14.000000, 0.000000)">
                    <g id="Group-48" transform="translate(0.000000, 6.000000)">
                        <path d="M56.8792,23.1503 L21.6622,17.2833 L0.8792,23.1503 L0.8792,44.4763 C0.8792,64.8793 17.4182,81.4183 37.8212,81.4183 L53.7942,82.0003 C46.5792,57.4103 56.1982,33.0773 56.1982,33.0773 L56.8792,23.1503 Z" id="Fill-1" fill="#F1BC38"></path>
                        <path d="M30.8792,65 L26.8792,65 C13.6242,65 2.8792,75.745 2.8792,89 L2.8792,91 C2.8792,94.314 5.5652,97 8.8792,97 L48.8792,97 C52.1932,97 54.8792,94.314 54.8792,91 L54.8792,89 C54.8792,75.745 44.1342,65 30.8792,65" id="Fill-3" fill="#F4CE9F"></path>
                        <path d="M28.8792,73 L28.8792,73 C25.5652,73 22.8792,70.314 22.8792,67 L22.8792,53 L34.8792,53 L34.8792,67 C34.8792,70.314 32.1932,73 28.8792,73" id="Fill-5" fill="#F4CE9F"></path>
                        <path d="M37.6414,65.9726 C37.7914,66.6256 37.8794,67.3016 37.8794,67.9996 C37.8794,72.9706 33.8494,76.9996 28.8794,76.9996 C23.9084,76.9996 19.8794,72.9706 19.8794,67.9996 C19.8794,67.3016 19.9664,66.6256 20.1174,65.9726 C10.1564,68.8936 2.8794,78.0946 2.8794,88.9996 L2.8794,90.9996 C2.8794,94.3136 5.5654,96.9996 8.8794,96.9996 L48.8794,96.9996 C52.1934,96.9996 54.8794,94.3136 54.8794,90.9996 L54.8794,88.9996 C54.8794,78.0946 47.6024,68.8936 37.6414,65.9726" id="Fill-7" fill="#F06168"></path>
                        <path d="M12.3792,89.5004 C11.5502,89.5004 10.8792,90.1724 10.8792,91.0004 L10.8792,97.0004 L13.8792,97.0004 L13.8792,91.0004 C13.8792,90.1724 13.2082,89.5004 12.3792,89.5004" id="Fill-9" fill="#292929" opacity="0.200000003"></path>
                        <path d="M45.3792,89.5004 C44.5502,89.5004 43.8792,90.1724 43.8792,91.0004 L43.8792,97.0004 L46.8792,97.0004 L46.8792,91.0004 C46.8792,90.1724 46.2082,89.5004 45.3792,89.5004" id="Fill-11" fill="#292929" opacity="0.200000003"></path>
                        <g id="Group-15" transform="translate(13.000000, 92.000000)">
                            <mask id="mask-2" fill="white">
                                <use xlink:href="#path-1"></use>
                            </mask>
                            <g id="Clip-14"></g>
                            <path d="M30.8792,4.6863 C30.8792,10.9343 24.1632,16.0003 15.8792,16.0003 C7.5952,16.0003 0.8792,10.9343 0.8792,4.6863 C0.8792,-1.5617 30.8792,-1.5617 30.8792,4.6863" id="Fill-13" fill="#F06168" mask="url(#mask-2)"></path>
                        </g>
                        <path d="M34.8792,64 C34.8792,64 30.4002,65 28.8792,65 C27.3582,65 22.8792,64 22.8792,64 L22.8792,62 C22.8792,62 27.3582,63 28.8792,63 C30.4002,63 34.8792,62 34.8792,62 L34.8792,64 Z" id="Fill-16" fill="#292929" opacity="0.200000003"></path>
                        <path d="M34.8792,62 C34.8792,62 30.4002,63 28.8792,63 C27.3582,63 22.8792,62 22.8792,62 L22.8792,60 C22.8792,60 27.3582,61 28.8792,61 C30.4002,61 34.8792,60 34.8792,60 L34.8792,62 Z" id="Fill-18" fill="#292929"></path>
                        <path d="M28.8792,63 L28.8792,63 C16.7292,63 6.8792,53.15 6.8792,41 L6.8792,22 C6.8792,9.85 16.7292,0 28.8792,0 L28.8792,0 C41.0292,0 50.8792,9.85 50.8792,22 L50.8792,41 C50.8792,53.15 41.0292,63 28.8792,63" id="Fill-20" fill="#F4CE9F"></path>
                        <path d="M54.6229,34.6305 C54.4569,32.4635 52.8669,30.7655 50.8449,30.3315 L50.8449,39.6605 C53.1539,39.1665 54.8079,37.0505 54.6229,34.6305" id="Fill-22" fill="#FDCC85"></path>
                        <path d="M7.773,30.2236 C7.697,30.2256 7.624,30.2126 7.548,30.2186 C4.909,30.4196 2.934,32.7226 3.136,35.3616 C3.301,37.5286 4.891,39.2256 6.913,39.6596 L6.913,35.2326 C6.913,33.7446 7.215,31.9706 7.773,30.2236" id="Fill-24" fill="#FDCC85"></path>
                        <path d="M35.0536,53.9709 C34.1346,56.2679 31.9426,57.7519 29.4676,57.7519 C26.9916,57.7519 24.7996,56.2679 23.8816,53.9709 C23.6886,53.4869 23.8426,52.9599 24.2766,52.6299 C25.4896,51.7059 33.4436,51.7069 34.6576,52.6289 C35.0916,52.9589 35.2466,53.4859 35.0536,53.9709" id="Fill-26" fill="#F4CE9F"></path>
                        <path d="M29.6531,47.3348 C27.9641,47.3348 25.9311,46.2988 26.1811,45.5248 C26.7021,43.9128 27.4861,45.8348 29.4691,45.8348 C31.4031,45.8348 32.2321,43.9128 32.7531,45.5248 C33.0041,46.2988 31.3421,47.3348 29.6531,47.3348" id="Fill-28" fill="#F4CE9F"></path>
                        <path d="M13.7324,44.3352 C13.4024,45.7752 14.1994,47.1872 15.5134,47.4882 C16.8284,47.7892 18.1614,46.8662 18.4914,45.4262 C18.8214,43.9862 18.0234,42.5752 16.7094,42.2732 C15.3954,41.9722 14.0624,42.8952 13.7324,44.3352" id="Fill-30" fill="#F1B08E"></path>
                        <path d="M44.026,44.3352 C44.356,45.7752 43.559,47.1872 42.245,47.4882 C40.93,47.7892 39.597,46.8662 39.267,45.4262 C38.937,43.9862 39.735,42.5752 41.049,42.2732 C42.363,41.9722 43.696,42.8952 44.026,44.3352" id="Fill-32" fill="#F1B08E"></path>
                        <path d="M29.4694,45.8348 C27.4864,45.8348 26.7024,43.9128 26.1814,45.5248 C25.9304,46.2988 27.9644,47.3348 29.6534,47.3348 C31.3424,47.3348 33.0034,46.2988 32.7534,45.5248 C32.2324,43.9128 31.4034,45.8348 29.4694,45.8348" id="Fill-34" fill="#F1B08E"></path>
                        <path d="M26.2118,54.092 C26.9538,55.123 28.1508,55.752 29.4678,55.752 C30.7838,55.752 31.9808,55.123 32.7228,54.092 C31.1188,53.887 27.8168,53.887 26.2118,54.092" id="Fill-36" fill="#FEFEFE"></path>
                        <path d="M29.4677,55.7521 C28.1517,55.7521 26.9537,55.1231 26.2117,54.0921 C27.8177,53.8871 31.1187,53.8871 32.7227,54.0921 C31.9807,55.1231 30.7837,55.7521 29.4677,55.7521 M24.2767,52.6301 C23.8427,52.9601 23.6887,53.4861 23.8817,53.9711 C24.7997,56.2681 26.9917,57.7521 29.4677,57.7521 C31.9427,57.7521 34.1347,56.2681 35.0537,53.9711 C35.2467,53.4851 35.0917,52.9591 34.6577,52.6291 C33.4437,51.7071 25.4887,51.7061 24.2767,52.6301" id="Fill-38" fill="#F0644B"></path>
                        <path d="M20.8792,36 C20.8792,34.895 19.9842,34 18.8792,34 C17.7742,34 16.8792,34.895 16.8792,36 C16.8792,37.105 17.7742,38 18.8792,38 C19.9842,38 20.8792,37.105 20.8792,36" id="Fill-40" fill="#2D2D2D"></path>
                        <path d="M40.8792,36 C40.8792,34.895 39.9842,34 38.8792,34 C37.7742,34 36.8792,34.895 36.8792,36 C36.8792,37.105 37.7742,38 38.8792,38 C39.9842,38 40.8792,37.105 40.8792,36" id="Fill-42" fill="#2D2D2D"></path>
                        <path d="M13.8528,33.5717 C13.6628,33.5717 13.4708,33.4997 13.3258,33.3547 C13.0308,33.0627 13.0288,32.5887 13.3198,32.2947 C14.9038,30.6937 18.4568,29.6177 21.6548,30.5827 C22.0508,30.7017 22.2758,31.1207 22.1558,31.5167 C22.0368,31.9137 21.6208,32.1417 21.2208,32.0177 C18.6788,31.2527 15.6348,32.0877 14.3858,33.3487 C14.2398,33.4977 14.0458,33.5717 13.8528,33.5717" id="Fill-44" fill="#BE7A5E"></path>
                        <path d="M43.9056,33.5717 C43.7126,33.5717 43.5186,33.4977 43.3726,33.3487 C42.1236,32.0867 39.0786,31.2527 36.5376,32.0177 C36.1366,32.1407 35.7216,31.9127 35.6026,31.5167 C35.4826,31.1207 35.7076,30.7017 36.1036,30.5827 C39.3026,29.6167 42.8556,30.6937 44.4386,32.2947 C44.7296,32.5887 44.7276,33.0627 44.4326,33.3547 C44.2876,33.4997 44.0956,33.5717 43.9056,33.5717" id="Fill-46" fill="#BE7A5E"></path>
                    </g>
                    <g id="Group-51" transform="translate(22.000000, 2.000000)">
                        <mask id="mask-4" fill="white">
                            <use xlink:href="#path-3"></use>
                        </mask>
                        <g id="Clip-50"></g>
                        <path d="M50.1543,5.5525 C50.1543,20.2175 38.2663,32.1055 23.6013,32.1055 C8.9373,32.1055 -2.9507,20.2175 -2.9507,5.5525 C-2.9507,-9.1125 8.9373,-21.0005 23.6013,-21.0005 C38.2663,-21.0005 50.1543,-9.1125 50.1543,5.5525" id="Fill-49" fill="#F1BC38" mask="url(#mask-4)"></path>
                    </g>
                    <path d="M44.6434,39.4346 C34.1914,39.4346 25.2014,33.0566 21.3614,23.9876 L17.4934,25.0796 C21.8294,35.8266 32.3614,43.4346 44.6434,43.4346 C48.6364,43.4346 51.8954,42.6516 55.3664,41.1966 C55.8364,39.6536 56.1554,38.8036 56.1554,38.8036 L56.8794,36.2486 C53.2504,38.2686 49.0834,39.4346 44.6434,39.4346" id="Fill-52" fill="#373535" opacity="0.200000003"></path>
                    <g id="Group-56" transform="translate(22.000000, 4.000000)">
                        <mask id="mask-6" fill="white">
                            <use xlink:href="#path-5"></use>
                        </mask>
                        <g id="Clip-55"></g>
                        <path d="M51.1764,8.2278 C51.1764,24.4018 38.0654,37.5128 21.8914,37.5128 C5.7174,37.5128 -7.3936,24.4018 -7.3936,8.2278 C-7.3936,-7.9462 5.7174,-21.0572 21.8914,-21.0572 C38.0654,-21.0572 51.1764,-7.9462 51.1764,8.2278" id="Fill-54" fill="#F1BC38" mask="url(#mask-6)"></path>
                    </g>
                    <g id="Group-63">
                        <g id="Group-59" transform="translate(0.000000, 1.000000)">
                            <mask id="mask-8" fill="white">
                                <use xlink:href="#path-7"></use>
                            </mask>
                            <g id="Clip-58"></g>
                            <path d="M25.4966,16.8257 C25.4966,28.2847 16.2076,37.5737 4.7486,37.5737 C-6.7104,37.5737 -16.0004,28.2847 -16.0004,16.8257 C-16.0004,5.3667 -6.7104,-3.9223 4.7486,-3.9223 C16.2076,-3.9223 25.4966,5.3667 25.4966,16.8257" id="Fill-57" fill="#F1BC38" mask="url(#mask-8)"></path>
                        </g>
                        <g id="Group-62" transform="translate(14.000000, 0.000000)">
                            <mask id="mask-10" fill="white">
                                <use xlink:href="#path-9"></use>
                            </mask>
                            <g id="Clip-61"></g>
                            <path d="M59.7019,11.7361 C59.7019,28.1591 46.3889,41.4721 29.9659,41.4721 C13.5429,41.4721 0.2299,28.1591 0.2299,11.7361 C0.2299,-4.6869 13.5429,-17.9999 29.9659,-17.9999 C46.3889,-17.9999 59.7019,-4.6869 59.7019,11.7361" id="Fill-60" fill="#F1BC38" mask="url(#mask-10)"></path>
                        </g>
                    </g>
                </g>
            </g>
        </g>
    </g>
</svg>