<?xml version="1.0" encoding="UTF-8"?>
<svg width="58px" height="121px" viewBox="0 0 58 121" version="1.1" xmlns="http://www.w3.org/2000/svg" xmlns:xlink="http://www.w3.org/1999/xlink">
    <!-- Generator: Sketch 52.6 (67491) - http://www.bohemiancoding.com/sketch -->
    <title>Admin</title>
    <desc>Created with Sketch.</desc>
    <g id="Page-1" stroke="none" stroke-width="1" fill="none" fill-rule="evenodd">
        <g id="Admin">
            <g id="Clothes" transform="translate(0.000000, 48.913726)">
                <g id="Body" transform="translate(0.000000, 1.609867)">
                    <path d="M12.5607181,4.75254617 C14.8612608,3.08313203 23.5245193,1.18089766 23.5245193,1.18089766 L28.9775709,36.0155444 L36.3127739,1.73925999 C36.3127739,1.73925999 39.807166,2.42399071 43.7830924,4.02111813 C47.7590188,5.61824555 55.3621803,9.5092953 55.3621803,28.2735698 C55.3621803,47.0378443 49.2534479,47.3002733 49.2534479,47.9936394 C49.2534479,48.6870056 50.6475517,70.213568 50.6475517,70.213568 C50.6503498,70.2567903 50.6210762,70.2918288 50.5820223,70.2918288 L7.20469648,70.2918288 C7.16570753,70.2918288 7.13357251,70.263101 7.13265691,70.2128455 C7.13265691,70.2128455 6.80586907,52.5919232 7.13410075,51.4247995 C7.66340619,49.5426993 0.0213671094,47.4251435 0.0213671094,28.2735698 C0.0213671094,9.1219961 10.2601753,6.42196031 12.5607181,4.75254617 Z" id="Fill---Suit" fill="#4A4A4A" opacity="0.965013587"></path>
                    <path d="M10.1449084,67.8710955 L52.4521678,67.8710955 C52.4457612,67.771995 52.4378394,67.6494553 52.4279036,67.4957596 C52.3802511,66.7582584 52.3271529,65.9353137 52.2699703,65.0476083 C52.1065908,62.5112985 51.943211,59.9641503 51.7907215,57.5716156 C51.7821636,57.4373321 51.7821636,57.4373321 51.7736072,57.3030251 C51.3419053,50.5261243 51.0924726,46.4843829 51.0924726,46.1640391 C51.0924726,46.0717994 51.1103851,45.9824057 51.1436425,45.8987527 C51.2664707,45.5898001 52.4518985,44.8311211 52.3637556,44.8969495 C53.0316305,44.398156 53.6430115,43.7382453 54.2336355,42.7722395 C56.0873537,39.7403566 57.201205,34.5392871 57.201205,26.4439695 C57.201205,18.054784 55.691246,12.1537108 53.0053037,8.21299343 C51.0949338,5.41016798 48.9708929,3.93630491 45.9929054,2.74004898 C44.2766682,2.05063745 42.5248846,1.48010755 40.8327336,1.02228275 C40.240821,0.86213614 39.6990432,0.72760756 39.2192381,0.6178528 C39.211761,0.61614242 39.2043422,0.61444778 39.1969821,0.61276885 L31.3175567,37.4321222 L25.4685656,0.06817451 C25.1099912,0.15144288 24.7163331,0.24526842 24.2957032,0.34849223 C22.9543378,0.67766723 21.6132488,1.03448452 20.3634585,1.4057459 C18.6069598,1.92752953 17.1791982,2.43460072 16.2080317,2.90359091 C15.8427355,3.07999761 15.5501422,3.24748237 15.3380589,3.40138296 C14.9811732,3.66036099 13.0070907,4.73513562 12.8351348,4.83530583 C11.5332147,5.59371887 10.4216663,6.39452672 9.35716326,7.41166633 C5.37032556,11.221116 3.0426578,17.1985986 3.0426578,26.4439695 C3.0426578,34.407514 4.32740377,39.9273425 6.5370972,43.8828339 C7.28741028,45.2259419 7.86871413,46.0036233 9.06259949,47.4182346 C10.0870388,48.6320727 10.3326622,49.0464021 10.133316,49.755236 C10.0188031,50.16242 9.98423664,53.7234289 10.0275329,58.9540048 C10.0401848,60.482477 10.0586812,62.1073552 10.0814863,63.7752525 C10.0973168,64.9330532 10.1142784,66.043201 10.1312395,67.0664116 C10.1361071,67.3600571 10.1406894,67.6291874 10.1449084,67.8710955 Z" id="Outline---Suit" stroke="#3C3C3C" stroke-width="1.18226601"></path>
                    <polygon id="Bottom-of-shirt" stroke="#3C3C3C" stroke-width="1.18226601" fill="#FFFFFF" points="30.7002564 38.2996621 34.7200022 56.6418741 26.6805106 56.6418741"></polygon>
                </g>
                <g id="Lapels" transform="translate(21.202297, 0.000000)" fill="#FFFFFF">
                    <path d="M2.65490573,13.2833942 L5.77250646,10.0573977 L9.56883151,15.8760822 L4.37341809,0.570674783 C4.37341809,0.570674783 3.79857116,0.593691708 1.27791605,1.37911076 C-1.24273905,2.16452981 2.65490573,13.2833942 2.65490573,13.2833942 Z" id="Left"></path>
                    <path d="M13.0315524,13.8932609 L16.1491532,10.6672645 L19.9454782,16.485949 L14.7500648,1.18054156 C14.7500648,1.18054156 14.1752179,1.20355848 11.6545628,1.98897753 C9.13390761,2.77439658 13.0315524,13.8932609 13.0315524,13.8932609 Z" id="Right" transform="translate(15.375711, 8.833245) scale(-1, 1) translate(-15.375711, -8.833245) "></path>
                </g>
            </g>
            <g id="Face" transform="translate(15.838039, 0.493608)">
                <path d="M14.4476057,65.1277498 C14.7585798,65.8414599 15.2192232,65.8295847 15.4788348,65.0945632 L20.5016873,50.8736849 C20.5016873,50.8736849 18.2942272,50.2779752 18.2963406,50.2617867 C18.3019271,50.2189956 18.2963406,45.2431965 18.2963406,45.2431965 C18.2963406,45.2431965 28.7354304,42.4175696 28.3990756,31.9598755 C28.1540036,24.3402761 22.0768848,18.145383 14.2780672,18.145383 C6.47924956,18.145383 0.157058721,24.3303419 0.157058721,31.9598755 C0.157058721,43.2189952 10.3867687,45.2431965 10.3867687,45.2431965 C10.3867687,45.2431965 10.3792322,50.1765789 10.3867687,50.2617867 C10.3899265,50.2974893 8.13007362,50.6285138 8.13007362,50.6285138 L14.4476057,65.1277498 Z" id="Path" fill="#BA9462" opacity="0.905853714"></path>
                <path d="M15.6683876,63.9080162 C15.9793617,64.6217264 16.4400051,64.6098511 16.6996167,63.8748296 L21.7224693,49.6539513 C21.7224693,49.6539513 19.5150091,49.0582417 19.5171226,49.0420531 C19.5227091,48.999262 19.5171226,44.0234629 19.5171226,44.0234629 C19.5171226,44.0234629 29.9562124,41.1978361 29.6198576,30.7401419 C29.3747855,23.1205426 23.2976667,16.9256494 15.4988491,16.9256494 C7.7000315,16.9256494 1.37784066,23.1106084 1.37784066,30.7401419 C1.37784066,41.9992617 11.6075507,44.0234629 11.6075507,44.0234629 C11.6075507,44.0234629 11.6000142,48.9568453 11.6075507,49.0420531 C11.6107085,49.0777558 9.35085556,49.4087803 9.35085556,49.4087803 L15.6683876,63.9080162 Z" id="Path" stroke="#B18D5F" stroke-width="1.18226601"></path>
                <g id="Mouth" transform="translate(11.718128, 37.213218)" fill="#C94240">
                    <path d="M3.94160323,3.07865833 C5.49652277,3.07865833 7.67122248,1.84166653 7.67122248,0.315759828 C7.67122248,-0.440465909 5.33679714,0.598350146 3.94160323,0.591681854 C2.54640932,0.585013561 0.0108558351,-0.45392114 0.0108558351,0.315759828 C0.0108558351,1.84166653 2.38668369,3.07865833 3.94160323,3.07865833 Z" id="Oval"></path>
                </g>
                <g id="Eyes" transform="translate(6.409029, 26.003745)" fill="#472424">
                    <path d="M1.60881682,3.08518694 C2.03862213,3.08518694 2.63865557,2.8505225 2.95655512,2.4009379 C3.27445466,1.95135329 3.33895658,1.22438699 3.33895658,1.22438699 C3.33895658,1.22438699 5.00074872,1.81196758 5.38519154,1.79110614 C6.04574763,1.75526165 6.05052349,0.875177268 5.58914729,1.03511495 C5.24411318,1.15472223 4.68755431,1.00270106 4.12746483,0.794283605 C3.56737535,0.58586615 3.34554621,0.382031822 2.9376502,0.249953597 C1.97197339,-0.0627360998 1.83366668,0.00652861661 1.60881682,0.00652861661 C0.720291364,0.00652861661 -8.30741925e-07,0.695709758 -8.30741925e-07,1.54585778 C-8.30741925e-07,2.3960058 0.720291364,3.08518694 1.60881682,3.08518694 Z" id="Left" transform="translate(2.955777, 1.542593) scale(-1, 1) translate(-2.955777, -1.542593) "></path>
                    <path d="M14.4793588,3.08518694 C14.9091641,3.08518694 15.5091976,2.8505225 15.8270971,2.4009379 C16.1449967,1.95135329 16.2094986,1.22438699 16.2094986,1.22438699 C16.2094986,1.22438699 17.8712907,1.81196758 18.2557335,1.79110614 C18.9162896,1.75526165 18.9210655,0.875177268 18.4596893,1.03511495 C18.1146552,1.15472223 17.5580963,1.00270106 16.9980068,0.794283605 C16.4379173,0.58586615 16.2160882,0.382031822 15.8081922,0.249953597 C14.8425154,-0.0627360998 14.7042087,0.00652861661 14.4793588,0.00652861661 C13.5908334,0.00652861661 12.8705412,0.695709758 12.8705412,1.54585778 C12.8705412,2.3960058 13.5908334,3.08518694 14.4793588,3.08518694 Z" id="Right"></path>
                </g>
                <g id="Hair">
                    <path d="M5.85470567,12.5355048 C5.12436669,9.87333171 5.90607267,6.34620415 7.47504753,4.10547583 C10.1507327,0.284201344 15.5797134,-0.530940656 19.6010153,2.28480521 C23.0651904,4.71044676 24.3546486,9.03931154 22.9349039,12.6351396 C26.9572077,15.2524297 28.5234876,20.1975651 28.5234876,26.9482785 C28.5234876,31.7718024 16.3492656,17.0980848 14.3251325,17.0980848 C12.1556045,17.0980848 0.0637301068,32.8746647 0.0637301068,26.9482785 C0.0637301068,20.110913 1.69808509,15.1257757 5.85470567,12.5355048 Z" id="Fill" fill="#371C1B" opacity="0.91479846"></path>
                    <path d="M7.07548761,12.5355048 C6.34514863,9.87333171 7.12685461,6.34620415 8.69582947,4.10547583 C11.3715147,0.284201344 16.8004953,-0.530940656 20.8217972,2.28480521 C24.2859723,4.71044676 25.5754306,9.03931154 24.1556858,12.6351396 C28.1779897,15.2524297 29.7442695,20.1975651 29.7442695,26.9482785 C29.7442695,31.7718024 17.5700475,17.0980848 15.5459145,17.0980848 C13.3763864,17.0980848 1.28451205,32.8746647 1.28451205,26.9482785 C1.28451205,20.110913 2.91886703,15.1257757 7.07548761,12.5355048 Z" id="Outline" stroke="#281514" stroke-width="0.886699507"></path>
                </g>
                <path d="M12.6790213,23.1112926 C12.5844469,23.2359312 10.2717086,22.9777337 8.51525807,23.475929 C6.75880756,23.9741242 5.34796263,25.2854074 5.34796263,25.2854074" id="Left" stroke="#4E2928" stroke-width="0.761034809"></path>
                <path d="M26.3539714,23.1112926 C26.2593969,23.2359312 23.9466587,22.9777337 22.1902082,23.475929 C20.4337576,23.9741242 19.0229127,25.2854074 19.0229127,25.2854074" id="Right" stroke="#4E2928" stroke-width="0.761034809" transform="translate(22.688442, 24.198350) scale(-1, 1) translate(-22.688442, -24.198350) "></path>
            </g>
            <g id="Glasses" transform="translate(17.910156, 25.445342)" stroke="#000000" stroke-width="0.70466186">
                <rect id="Rectangle-2" x="15.7004513" y="0.35233093" width="7.33482974" height="5.13248995" rx="1.40932372"></rect>
                <path d="M23.0221805,1.82410994 L26.6764949,1.09446596" id="Line" stroke-linecap="square"></path>
                <path d="M4.75060868,1.82410994 L0.365431437,1.09446596" id="Line" stroke-linecap="square"></path>
                <path d="M12.0592374,2.55375392 C12.0592374,2.55375392 13.2620324,2.36538376 13.8863946,2.36538376 C14.5107568,2.36538376 15.7135518,2.55375392 15.7135518,2.55375392" id="Line" stroke-linecap="square"></path>
                <rect id="Rectangle-2" x="4.73750817" y="0.35233093" width="7.33482974" height="5.13248995" rx="1.40932372"></rect>
            </g>
            <g id="Pocket" transform="translate(38.454631, 70.170206)">
                <path d="M0,3.62877816 C0,2.9719398 0.534557645,2.43946711 1.18821149,2.43946711 L7.3572621,2.43946711 C8.01349319,2.43946711 8.54547359,2.96785823 8.54547359,3.62877816 L8.54547359,9.85010039 C8.54547359,11.4832627 7.22897099,12.8072023 5.58066423,12.8072023 L2.96480936,12.8072023 C1.32739036,12.8072023 0,11.4835907 0,9.85010039 L0,3.62877816 Z" id="Path" fill="#3C3C3C"></path>
                <path d="M3.66234583,2.4512669 C3.66234583,2.4512669 3.66234583,0.0117997905 3.05195485,0.0117997905 C2.44156388,0.0117997905 2.44156388,2.4512669 2.44156388,2.4512669 L3.66234583,2.4512669 Z" id="Pen" fill="#2075B8"></path>
            </g>
        </g>
    </g>
</svg>