<?xml version="1.0" encoding="UTF-8"?>
<svg width="60px" height="122px" viewBox="0 0 60 122" version="1.1" xmlns="http://www.w3.org/2000/svg" xmlns:xlink="http://www.w3.org/1999/xlink">
    <!-- Generator: Sketch 49 (51002) - http://www.bohemiancoding.com/sketch -->
    <title>Doctor</title>
    <desc>Created with Sketch.</desc>
    <defs>
        <path d="M9.7715912,8.56475238 C9.73451229,8.54492326 9.72498504,8.50438228 9.75069388,8.47438503 C9.75069388,8.47438503 16.6987901,0 31.9956816,0 C47.292573,0 46.5879308,7.72160913 46.5879308,7.72160913 C46.5859309,7.75879771 46.5787139,7.82830533 46.5718531,7.8767818 C46.5718531,7.8767818 44.6336437,21.4435833 44.6336437,27.6666908 C44.6336437,33.8897982 37.0891025,45.9274353 37.0891025,45.9274353 C37.066563,45.9636721 37.0368388,45.9671531 37.0171632,45.9226648 L35.2860083,42.0083798 C35.2688168,41.9695084 35.2280037,41.9342146 35.1810131,41.9273103 C35.1810131,41.9273103 18.686871,39.7019732 18.686871,27.6666908 C18.686871,13.0768624 9.7715912,8.56475238 9.7715912,8.56475238 Z" id="path-1"></path>
    </defs>
    <g id="Page-1" stroke="none" stroke-width="1" fill="none" fill-rule="evenodd">
        <g id="Healthcare-illustrations" transform="translate(-18.000000, -13.000000)">
            <g id="Professionals" transform="translate(18.000000, 13.000000)">
                <g id="Doctor" transform="translate(0.000000, 1.201970)">
                    <g id="Hair" transform="translate(6.588832, 0.000000)">
                        <path d="M24.2854379,39.7265611 C26.3590568,39.7265611 29.4332437,46.4674953 33.8575836,49.2897675 C38.2819234,52.1120396 51.2578809,56.0876133 48.9014583,51.0956077 C45.2162981,43.2887142 43.8160144,25.4305004 43.8160144,20.4642658 C43.8160144,9.82599381 35.0718775,1.20197044 24.2854379,1.20197044 C13.4989983,1.20197044 4.75486129,9.82599381 4.75486129,20.4642658 C4.75486129,26.5659925 2.4854361,45.9904898 0.105275846,51.0956077 C-1.12480166,53.7339555 8.70955536,52.9259241 14.7255245,49.2897675 C20.7414937,45.6536108 22.0628693,39.7265611 24.2854379,39.7265611 Z" id="Fill" fill="#572F2D"></path>
                        <path d="M26.0823922,38.5245906 C28.1560111,38.5245906 31.230198,45.2655249 35.6545379,48.087797 C40.0788778,50.9100692 53.0548352,54.8856429 50.6984126,49.8936372 C47.0132524,42.0867437 45.6129688,24.22853 45.6129688,19.2622953 C45.6129688,8.62402336 36.8688318,0 26.0823922,0 C15.2959526,0 6.5518156,8.62402336 6.5518156,19.2622953 C6.5518156,25.364022 4.28239042,44.7885194 1.90223016,49.8936372 C0.672152655,52.531985 10.5065097,51.7239537 16.5224788,48.087797 C22.538448,44.4516404 23.8598236,38.5245906 26.0823922,38.5245906 Z" id="Outline" stroke="#000000" stroke-width="0.9"></path>
                    </g>
                    <g id="Clothes" transform="translate(0.000000, 48.078818)">
                        <g id="Body">
                            <g id="Shirt">
                                <use fill="#6BC0B8" fill-rule="evenodd" xlink:href="#path-1"></use>
                                <path stroke="#979797" stroke-width="0.81" d="M10.339015,8.42487908 C10.3488089,8.430934 10.358746,8.43710094 10.3688252,8.44338029 C10.6852966,8.64054276 11.0364259,8.88455521 11.4134649,9.17821552 C12.4853124,10.0130339 13.5551788,11.0797537 14.5524408,12.4004858 C17.391343,16.1602093 19.091871,21.1952265 19.091871,27.6666908 C19.091871,32.7547335 22.0845241,36.4339669 27.1149916,38.9479525 C28.890992,39.835512 30.7974965,40.5100673 32.7044389,40.9992524 C33.3719758,41.1704946 33.9914783,41.3062335 34.5467388,41.4100873 C34.8780336,41.4720514 35.1129005,41.5094514 35.2398872,41.5266124 C35.4261081,41.5539736 35.5833963,41.6794985 35.6564009,41.8445678 L37.1062981,45.1229059 C37.3525023,44.7145548 37.6248863,44.2533975 37.9171478,43.7469032 C38.7973861,42.2214348 39.6776485,40.5991137 40.4988428,38.9501824 C41.2094005,37.523406 41.8428009,36.1412743 42.3789933,34.8279395 C43.5704789,31.909548 44.2286437,29.4640539 44.2286437,27.6666908 C44.2286437,25.6563293 44.4265,22.780171 44.7799262,19.2581236 C44.9040472,18.0212026 45.0452873,16.7265497 45.2004558,15.3913201 C45.4127201,13.5647787 45.6401223,11.754002 45.8675283,10.0405471 C45.947126,9.4407957 46.0210443,8.89600862 46.0873909,8.4163889 C46.1272238,8.12843738 46.1556989,7.9260737 46.1708493,7.82002846 C46.1761834,7.78233941 46.1822009,7.72429922 46.1846067,7.68480343 C46.1845168,7.68642388 46.1845168,7.68642388 46.1858967,7.6622858 C46.1999909,7.36642089 46.1606368,6.94193084 46.0201686,6.43506381 C45.8019696,5.64771226 45.3875391,4.86614601 44.7269969,4.13161363 C42.6436105,1.814858 38.5827701,0.405 31.9956816,0.405 C25.3766513,0.405 19.8413669,1.97417843 15.3401999,4.58744274 C13.7681435,5.50013916 12.4381576,6.47705274 11.3449852,7.45245556 C10.9639583,7.79243364 10.6401504,8.10736924 10.3729183,8.38901375 C10.3613205,8.40123704 10.3500203,8.41319235 10.339015,8.42487908 Z M10.0626301,8.73257476 C10.0611212,8.73439884 10.0596473,8.73618637 10.0582084,8.73793732 C10.0597552,8.73613248 10.0612794,8.73431838 10.0627811,8.7324953 Z"></path>
                            </g>
                            <path d="M12.8678018,5.24098219 C15.224588,3.52217607 22.167274,2.01699805 22.167274,2.01699805 L29.6860128,37.4289406 L37.2005464,2.13854368 C37.2005464,2.13854368 40.7803692,2.84353312 44.8534988,4.48791382 C48.9266284,6.13229452 56.7156716,10.1384665 56.7156716,29.4579086 C56.7156716,48.7773508 50.4575932,49.0475441 50.4575932,49.7614245 C50.4575932,50.4753049 51.88578,72.6387612 51.88578,72.6387612 C51.8886464,72.6832622 51.8586572,72.7193374 51.8186485,72.7193374 L7.38083647,72.7193374 C7.34089432,72.7193374 7.30797366,72.6848851 7.30731184,72.6424172 C7.30731184,72.6424172 6.97225855,51.4908289 7.30851481,50.2891742 C7.85076068,48.3513893 0.0218894911,49.1761088 0.0218894911,29.4579086 C0.0218894911,9.73970853 10.5110155,6.95978832 12.8678018,5.24098219 Z" id="Fill" fill="#F4F4F4"></path>
                            <path d="M10.2953243,70.917367 L53.6470481,70.917367 C53.6403806,70.8137145 53.6320805,70.6846784 53.6215878,70.5215555 C53.5727704,69.762235 53.5183741,68.914943 53.4597935,68.0009744 C53.2924199,65.3896267 53.125046,62.76712 52.9688286,60.3038018 C52.9600615,60.1655454 52.9600615,60.1655454 52.9512959,60.027265 C52.509158,53.0517255 52.2535323,48.888858 52.2535323,48.5594541 C52.2535323,48.4659712 52.271602,48.3753407 52.3051788,48.2904606 C52.4297945,47.9754397 53.6395639,47.1972985 53.5524996,47.2626475 C54.2373691,46.7485962 54.8643452,46.0684582 55.4699752,45.0729404 C57.3701112,41.9495499 58.5116107,36.5926433 58.5116107,28.2559382 C58.5116107,19.6164651 56.9641895,13.5386526 54.2113734,9.47956236 C52.2533381,6.59239464 50.0765007,5.07431986 47.0248231,3.84231394 C46.1757181,3.4995181 45.166297,3.40399914 44.0255186,3.53183563 C42.716832,3.67848804 41.2992341,4.10910826 39.8604324,4.73621088 C39.2214922,5.01469337 38.6215948,5.31330853 38.0791299,5.61158857 C37.9012766,5.70938309 37.751553,5.79480523 37.6329595,5.86444349 L32.1598226,39.4826167 L24.1028194,1.53554336 C23.8053746,1.60543099 23.4811307,1.68414819 23.1360198,1.77102089 C21.9673777,2.06519611 20.7990954,2.39192111 19.7111847,2.74176148 C17.8309292,3.34639686 16.3952337,3.95642786 15.6172866,4.52378531 C15.2520039,4.79018624 13.2300655,5.89653727 13.0536141,5.99984182 C11.7195218,6.78089437 10.5804478,7.60564901 9.48952028,8.65326592 C5.40346323,12.5771035 3.01782858,18.7341747 3.01782858,28.2559382 C3.01782858,36.4429291 4.33036118,41.6010212 6.56312056,44.7321725 C7.52547891,46.0817535 10.0587229,48.1254467 10.0504138,48.114431 C10.3085407,48.4566381 10.3971815,48.8381961 10.2822582,49.2488894 C10.1639672,49.6716174 10.1288676,53.9347115 10.1741915,60.2329019 C10.18716,62.0349966 10.2059095,63.9501128 10.2289314,65.9165653 C10.2451737,67.3039231 10.2625763,68.6352494 10.2799787,69.8631263 C10.2854854,70.2516732 10.2906364,70.6045468 10.2953243,70.917367 Z" id="Outline" stroke="#D5D5D5" stroke-width="1.2"></path>
                            <g id="Clipboard" transform="translate(22.761421, 33.655172)">
                                <rect id="Back" fill="#C0C0C0" x="0.677198549" y="0.846919724" width="18.7182741" height="28.546798" rx="1.5"></rect>
                                <rect id="Front-" fill="#D8D8D8" x="0" y="0.0293449815" width="18.7182741" height="29.2686846" rx="1.5"></rect>
                            </g>
                            <g id="Hand" transform="translate(9.985864, 40.627433)" fill="#FCC988">
                                <path d="M7.51162391,8.991818 C5.70639988,9.15971681 3.74366909,9.07692712 2.32358318,8.69641625 C0.198711407,8.12705857 0.710259837,1.61686239 3.98539947,2.49443341 C5.75931368,2.96975229 8.16170285,3.79509503 9.91844772,4.72398088 C11.2454895,4.05217749 12.6490409,3.63733145 12.6490409,3.63733145 C12.6490409,3.63733145 13.159763,5.81734177 13.3430121,6.06557938 C13.6934175,6.54025447 15.8547986,5.87173621 15.8547986,5.87173621 C16.659237,5.67431656 17.4293715,6.16000155 17.5726121,6.97770816 C17.5726121,6.97770816 18.1750247,8.30427514 16.8433611,9.56067805 C16.2037346,10.1641552 14.5345415,11.8535062 12.370418,11.6849658 C10.2062946,11.5164255 7.88131496,9.47642383 7.61980806,9.1523632 C7.57686386,9.09914653 7.54110714,9.04565905 7.51162389,8.99181801 Z" id="Combined-Shape" transform="translate(9.377941, 7.054965) rotate(16.000000) translate(-9.377941, -7.054965) "></path>
                                <path d="M34.3701199,9.00223671 C32.5648959,9.17013551 30.6021651,9.08734583 29.1820792,8.70683495 C27.0572074,8.13747728 27.5687558,1.6272811 30.8438954,2.50485212 C32.6178097,2.980171 35.0201988,3.80551373 36.7769437,4.73439958 C38.1039855,4.0625962 39.5075369,3.64775015 39.5075369,3.64775015 C39.5075369,3.64775015 40.018259,5.82776047 40.2015081,6.07599808 C40.5519135,6.55067317 42.7132946,5.88215491 42.7132946,5.88215491 C43.517733,5.68473527 44.2878675,6.17042025 44.431108,6.98812687 C44.431108,6.98812687 45.0335207,8.31469385 43.7018571,9.57109676 C43.0622306,10.1745739 41.3930374,11.8639249 39.228914,11.6953845 C37.0647906,11.5268442 34.7398109,9.48684253 34.478304,9.1627819 C34.4353598,9.10956524 34.3996031,9.05607776 34.3701199,9.00223671 Z" id="Combined-Shape" transform="translate(36.236437, 7.065383) scale(-1, 1) rotate(16.000000) translate(-36.236437, -7.065383) "></path>
                            </g>
                        </g>
                        <g id="Lapels" transform="translate(17.624844, 0.000000)" fill="#DEDEDE">
                            <path d="M0.581782602,2.8503936 C0.581782602,3.5462774 0.711812728,10.4584934 0.711812728,10.4584934 L5.65111203,10.3762251 L2.0779745,15.9373194 L11.5625445,32.7277678 C12.5406831,34.4593578 13.0627646,34.2779086 12.727731,32.3171348 L7.30260652,0.56675549 C7.30260652,0.56675549 0.581782602,2.15450981 0.581782602,2.8503936 Z" id="Path-3"></path>
                            <path d="M14.8744018,2.86535561 L15.0860333,10.6793718 L20.0253326,10.5942865 L16.452195,16.3457986 L28.5654837,33.9113438 L21.709337,0.677322813 C21.709337,0.677322813 20.4733694,0.850001284 17.8910895,1.65865807 C15.3088096,2.46731485 15.7661229,2.44414986 14.8744018,2.86535561 Z" id="Path-3" transform="translate(21.719943, 17.294333) scale(-1, 1) translate(-21.719943, -17.294333) "></path>
                        </g>
                    </g>
                    <g id="Face" transform="translate(17.370558, 15.024631)">
                        <g id="Stethoscope" transform="translate(16.057833, 47.200738) rotate(-180.000000) translate(-16.057833, -47.200738) translate(0.557833, 29.200738)">
                            <path d="M24.737318,22.2901875 C25.4511803,21.3754314 26.1651826,20.4415462 26.8326578,19.541944 C26.9679539,19.3595963 27.1001891,19.1801819 27.2291247,19.0039721 C28.5406886,17.2115228 29.4389085,15.8561182 29.8245036,15.0126788 C30.3917888,13.7718158 30.3701583,13.8207104 30.5082931,13.4198638 C30.890264,12.3114412 30.9444408,11.4589355 30.9444407,7.66505496 C30.9444407,5.53118008 30.9435207,3.92596786 30.9468097,3.87559546 C30.9781044,3.31515401 30.8519831,2.65769528 30.4294993,2.01484404 C29.7131459,0.924840806 28.3784199,0.312988834 26.4444042,0.312988834 L26.4444042,2.66467014 C27.6389929,2.66467014 28.2232164,2.93248411 28.4703948,3.30859078 C28.5765693,3.47014576 28.6100175,3.64450817 28.6044525,3.74416784 C28.5999066,3.77346918 28.598417,5.5297283 28.5984171,7.66505501 C28.5984171,11.1499377 28.550921,11.8973179 28.2908437,12.6520238 C28.1907339,12.9425274 28.2045003,12.911409 27.6917668,14.0329474 C27.396792,14.6781666 26.5504125,15.9553445 25.3374124,17.6130915 C25.2116171,17.7850097 25.0824662,17.9602392 24.9502125,18.1384867 C24.2953095,19.0211443 23.592478,19.9404186 22.8895065,20.8412191 C22.8468307,20.8959046 22.8046854,20.9498404 22.7631013,21.0029908 C22.7216602,20.9500228 22.679662,20.8962751 22.6371372,20.841783 C21.9341656,19.9409825 21.2313342,19.0217081 20.5764312,18.1390506 C20.4441774,17.9608031 20.3150266,17.7855736 20.1892313,17.6136554 C18.9762311,15.9559084 18.1298517,14.6787305 17.8348769,14.0335113 C17.3221434,12.9119729 17.3359098,12.9430913 17.2358,12.6525877 C16.9757226,11.8978817 16.9282265,11.1505016 16.9282266,7.6656189 C16.9282267,5.53029219 16.926737,3.77403307 16.9221912,3.74473173 C16.9166262,3.64507206 16.9500744,3.47070965 17.0562488,3.30915467 C17.3034273,2.933048 17.8876507,2.66523402 19.0822394,2.66523402 L19.0822394,0.313552722 C17.1482238,0.313552722 15.8134978,0.925404694 15.0971444,2.01540793 C14.6746606,2.65825917 14.5485393,3.3157179 14.579834,3.87615935 C14.583123,3.92653175 14.582203,5.53174397 14.5822029,7.66561885 C14.5822029,11.4594994 14.6363797,12.312005 15.0183505,13.4204277 C15.1564853,13.8212743 15.1348549,13.7723797 15.7021401,15.0132427 C16.0877352,15.8566821 16.985955,17.2120867 18.297519,19.004536 C18.4264546,19.1807458 18.5586898,19.3601602 18.6939859,19.5425079 C19.3614611,20.44211 20.0754634,21.3759953 20.7893257,22.2907514 C21.0390846,22.6107971 21.2710651,22.9056932 21.4793897,23.1686948 C21.5618223,23.2727627 21.6289196,23.3571757 21.6790076,23.4200117 C21.7364292,24.6663824 21.6743654,26.2811204 21.4300791,28.2785242 C21.2410684,29.8239672 20.7822887,30.9669603 20.1496337,31.7845676 C19.6873314,32.3820206 19.2617131,32.6710213 19.0498035,32.7499257 C18.8870356,32.8103596 18.5616804,32.9114274 18.1203079,33.0147702 C16.9965562,33.2778853 15.8456611,33.3747043 14.8076521,33.2150954 C13.6693394,33.0400634 12.7710957,32.571093 12.1323291,31.7480976 C11.6904485,31.1787728 11.3990916,30.5393136 11.2406485,29.8328416 C10.9608861,28.5854268 11.1039453,27.1985208 11.5223943,25.8430365 C11.6158934,25.5401644 11.9125513,24.795038 11.9310713,24.7573747 C12.2038498,24.1304965 12.2675915,24.0150509 12.8872984,22.9578997 C13.5658979,21.8002845 13.9236707,20.9384225 14.2438406,19.4462902 C14.569717,16.9770906 13.2665295,15.3448062 11.1025831,14.4311165 C10.0337687,13.9798277 8.9901824,13.7788444 8.25489634,13.7216635 L8.07343745,16.0662996 C8.18731409,16.0751555 8.41607244,16.1042024 8.71880814,16.162506 C9.22596511,16.2601788 9.73140421,16.4039492 10.1918898,16.5983815 C11.4837356,17.1438415 12.0839886,17.8956778 11.9339342,19.0466655 C11.686997,20.1787521 11.4240529,20.812175 10.8646352,21.7664795 C10.1914877,22.9147943 10.104565,23.072224 9.80279699,23.7695978 C9.681854,24.0124021 9.47989248,24.504287 9.28122596,25.1478285 C8.75204144,26.8620187 8.56861264,28.6402942 8.95175403,30.3486593 C9.18388215,31.3836808 9.62005539,32.3409775 10.2807077,33.1921707 C11.3167265,34.526991 12.7570333,35.2789709 14.4519455,35.5395882 C15.8281171,35.7511945 17.262974,35.6304872 18.6539209,35.3048111 C19.1978929,35.1774456 19.6152294,35.047805 19.8656862,34.9548122 C20.4639215,34.7320604 21.251992,34.1969496 22.0033785,33.2259006 C22.899581,32.0676997 23.5189726,30.5245616 23.7586687,28.5646905 C24.0247504,26.3890773 24.0891654,24.6073303 24.0172248,23.2060283 C24.2555786,22.9051293 24.4875591,22.6102332 24.737318,22.2901875 Z" id="Cord" fill="#8D8C92" fill-rule="nonzero"></path>
                            <path d="M18.8763395,1.95399252e-14 L21.2223632,1.95399252e-14 L21.2223632,3.13557507 L18.8763395,3.13557507 L18.8763395,1.95399252e-14 Z M24.266044,1.95399252e-14 L26.6120677,1.95399252e-14 L26.6120677,3.13557507 L24.266044,3.13557507 L24.266044,1.95399252e-14 Z M4.75893411,18.7646379 C2.13064738,18.7646379 -3.55271368e-15,16.6288524 -3.55271368e-15,13.9942273 C-3.55271368e-15,11.3596023 2.13064738,9.22381666 4.75893411,9.22381666 C7.38722085,9.22381666 9.51786823,11.3596023 9.51786823,13.9942273 C9.51786823,16.6288524 7.38722085,18.7646379 4.75893411,18.7646379 Z" id="Instruments" fill="#C1C0C5"></path>
                        </g>
                        <path d="M15.214969,39.5005317 C23.299697,39.5005317 19.3257579,33.1106701 19.3314809,33.066613 C19.337204,33.0225559 19.3314809,27.8995407 19.3314809,27.8995407 C19.3314809,27.8995407 30.025785,24.9903137 29.681207,14.2232138 C29.4301434,6.37817785 23.2044516,0 15.214969,0 C7.22548634,0 0.748730964,6.36794974 0.748730964,14.2232138 C0.748730964,25.8154506 11.2285363,27.8995407 11.2285363,27.8995407 C11.2285363,27.8995407 11.2208156,32.9788842 11.2285363,33.066613 C11.236257,33.1543418 7.13024095,39.5005317 15.214969,39.5005317 Z" stroke="#E4B67D" stroke-width="0.9" fill="#FCC988"></path>
                        <g id="Mouth" transform="translate(11.379298, 20.887805)" fill="#EA4F4D">
                            <path d="M4.03796731,3.1697448 C5.63090143,3.1697448 7.85876807,1.89615485 7.85876807,0.325102031 C7.85876807,-0.453497717 5.46727084,0.616053183 4.03796731,0.6091876 C2.60866378,0.602322017 0.0111212379,-0.467351041 0.0111212379,0.325102031 C0.0111212379,1.89615485 2.44503319,3.1697448 4.03796731,3.1697448 Z" id="Oval"></path>
                        </g>
                        <g id="Eyes" transform="translate(5.940403, 9.346683)" fill="#3F1D1E">
                            <path d="M2.1049229,2.7743592 C2.54523607,2.7743592 3.15993909,2.53275188 3.48561063,2.06986567 C3.81128216,1.60697947 3.87736102,1.26061222 3.87736102,1.26061222 C3.87736102,1.26061222 5.57978055,1.86557721 5.97362221,1.84409855 C6.65032753,1.80719356 6.65522015,0.901070628 6.18256425,1.06574029 C5.82909477,1.18888633 5.25892918,1.03236739 4.68514667,0.817783612 C4.11136416,0.603199831 3.88411175,0.393334775 3.46624352,0.257348828 C2.47695791,-0.0645922362 2.33526988,0.00672177499 2.1049229,0.00672177499 C1.19467483,0.00672177499 0.456772978,0.716293318 0.456772978,1.59159417 C0.456772978,2.46689503 1.19467483,2.7743592 2.1049229,2.7743592 Z" id="Left" transform="translate(3.484813, 1.387180) scale(-1, 1) translate(-3.484813, -1.387180) "></path>
                            <path d="M14.8333493,2.7743592 C15.2736625,2.7743592 15.8883655,2.53275188 16.214037,2.06986567 C16.5397086,1.60697947 16.6057874,1.26061222 16.6057874,1.26061222 C16.6057874,1.26061222 18.3082069,1.86557721 18.7020486,1.84409855 C19.3787539,1.80719356 19.3836465,0.901070628 18.9109906,1.06574029 C18.5575212,1.18888633 17.9873556,1.03236739 17.4135731,0.817783612 C16.8397906,0.603199831 16.6125381,0.393334775 16.1946699,0.257348828 C15.2053843,-0.0645922362 15.0636963,0.00672177499 14.8333493,0.00672177499 C13.9231012,0.00672177499 13.1851994,0.716293318 13.1851994,1.59159417 C13.1851994,2.46689503 13.9231012,2.7743592 14.8333493,2.7743592 Z" id="Right"></path>
                        </g>
                        <path d="M12.3636835,6.36865415 C12.2667969,6.49698039 9.89751691,6.23114379 8.09812481,6.74407885 C6.29873271,7.25701391 4.85339553,8.60709323 4.85339553,8.60709323" id="Left" stroke="#572F2D" stroke-width="0.81"></path>
                        <path d="M26.3729579,6.36865415 C26.2760712,6.49698039 23.9067912,6.23114379 22.1073991,6.74407885 C20.308007,7.25701391 18.8626699,8.60709323 18.8626699,8.60709323" id="Right" stroke="#572F2D" stroke-width="0.81" transform="translate(22.617814, 7.487874) scale(-1, 1) translate(-22.617814, -7.487874) "></path>
                    </g>
                    <g id="Bangs" transform="translate(15.873096, 3.004926)" fill="#572F2D">
                        <path d="M9.10602832,16.2072868 C14.0923256,13.4947167 18.2120566,13.4994122 18.2120566,8.69647932 C18.2120566,3.89354641 14.1351489,0 9.10602832,0 C4.07690775,0 0,3.89354641 0,8.69647932 C0,13.4994122 4.119731,18.9198569 9.10602832,16.2072868 Z" id="left-bang"></path>
                        <path d="M23.8348378,16.0225891 C28.4367814,18.3992627 32.3418814,16.8294404 32.3418814,12.0265075 C32.3418814,7.22357455 28.2649736,3.33002814 23.235853,3.33002814 C18.2067325,3.33002814 15.3277943,4.21864844 15.3277943,9.02158135 C15.3277943,13.8245143 19.2328942,13.6459154 23.8348378,16.0225891 Z" id="right-bang"></path>
                    </g>
                </g>
            </g>
        </g>
    </g>
</svg>