<?xml version="1.0" encoding="UTF-8"?>
<svg width="130px" height="44px" viewBox="0 0 130 44" version="1.1" xmlns="http://www.w3.org/2000/svg" xmlns:xlink="http://www.w3.org/1999/xlink">
    <!-- Generator: Sketch 48.2 (47327) - http://www.bohemiancoding.com/sketch -->
    <title>faces-horiz</title>
    <desc>Created with Sketch.</desc>
    <defs></defs>
    <g id="3" stroke="none" stroke-width="1" fill="none" fill-rule="evenodd" transform="translate(-430.000000, -60.000000)">
        <g id="faces-horiz" transform="translate(430.000000, 60.000000)" fill-rule="nonzero">
            <path d="M64.6666667,39.3939394 C74.457169,39.3939394 82.3939394,31.457169 82.3939394,21.6666667 C82.3939394,11.8761643 74.457169,3.93939394 64.6666667,3.93939394 C54.8761643,3.93939394 46.9393939,11.8761643 46.9393939,21.6666667 C46.9393939,31.457169 54.8761643,39.3939394 64.6666667,39.3939394 Z M64.6666667,43.3333333 C52.7004971,43.3333333 43,33.6328362 43,21.6666667 C43,9.70049709 52.7004971,0 64.6666667,0 C76.6328362,0 86.3333333,9.70049709 86.3333333,21.6666667 C86.3333333,33.6328362 76.6328362,43.3333333 64.6666667,43.3333333 Z M56.7878788,21.6666667 C58.963546,21.6666667 60.7272727,19.9029399 60.7272727,17.7272727 C60.7272727,15.5516055 58.963546,13.7878788 56.7878788,13.7878788 C54.6122116,13.7878788 52.8484848,15.5516055 52.8484848,17.7272727 C52.8484848,19.9029399 54.6122116,21.6666667 56.7878788,21.6666667 Z M72.5454545,21.6666667 C70.3697873,21.6666667 68.6060606,19.9029399 68.6060606,17.7272727 C68.6060606,15.5516055 70.3697873,13.7878788 72.5454545,13.7878788 C74.7211217,13.7878788 76.4848485,15.5516055 76.4848485,17.7272727 C76.4848485,19.9029399 74.7211217,21.6666667 72.5454545,21.6666667 Z M57.3647897,30.9382406 C56.5955752,30.1690261 56.5955752,28.921883 57.3647897,28.1526685 C58.1340042,27.3834539 59.3811473,27.3834539 60.1503618,28.1526685 C60.1479147,28.1502213 60.2010566,28.1967205 60.3087121,28.2774621 C60.5244387,28.4392571 60.7936621,28.6075217 61.1157237,28.7685525 C62.0807477,29.2510645 63.2583079,29.5454545 64.6666667,29.5454545 C66.0750254,29.5454545 67.2525856,29.2510645 68.2176096,28.7685525 C68.5396713,28.6075217 68.8088946,28.4392571 69.0246212,28.2774621 C69.1322767,28.1967205 69.1854187,28.1502213 69.1829715,28.1526685 C69.952186,27.3834539 71.1993291,27.3834539 71.9685437,28.1526685 C72.7377582,28.921883 72.7377582,30.1690261 71.9685437,30.9382406 C71.5803761,31.3264082 70.9198266,31.8218203 69.9793601,32.2920536 C68.4822629,33.0406022 66.7052776,33.4848485 64.6666667,33.4848485 C62.6280557,33.4848485 60.8510705,33.0406022 59.3539732,32.2920536 C58.4135067,31.8218203 57.7529573,31.3264082 57.3647897,30.9382406 Z" id="Combined-Shape" fill="#009C9C"></path>
            <path d="M107.666667,39.3939394 C117.457169,39.3939394 125.393939,31.457169 125.393939,21.6666667 C125.393939,11.8761643 117.457169,3.93939394 107.666667,3.93939394 C97.8761643,3.93939394 89.9393939,11.8761643 89.9393939,21.6666667 C89.9393939,31.457169 97.8761643,39.3939394 107.666667,39.3939394 Z M107.666667,43.3333333 C95.7004971,43.3333333 86,33.6328362 86,21.6666667 C86,9.70049709 95.7004971,0 107.666667,0 C119.632836,0 129.333333,9.70049709 129.333333,21.6666667 C129.333333,33.6328362 119.632836,43.3333333 107.666667,43.3333333 Z M99.7878788,21.6666667 C101.963546,21.6666667 103.727273,19.9029399 103.727273,17.7272727 C103.727273,15.5516055 101.963546,13.7878788 99.7878788,13.7878788 C97.6122116,13.7878788 95.8484848,15.5516055 95.8484848,17.7272727 C95.8484848,19.9029399 97.6122116,21.6666667 99.7878788,21.6666667 Z M115.545455,21.6666667 C113.369787,21.6666667 111.606061,19.9029399 111.606061,17.7272727 C111.606061,15.5516055 113.369787,13.7878788 115.545455,13.7878788 C117.721122,13.7878788 119.484848,15.5516055 119.484848,17.7272727 C119.484848,19.9029399 117.721122,21.6666667 115.545455,21.6666667 Z M100.36479,30.1223654 C100.752957,29.7341978 101.413507,29.2387858 102.353973,28.7685525 C103.85107,28.0200039 105.628056,27.5757576 107.666667,27.5757576 C109.705278,27.5757576 111.482263,28.0200039 112.97936,28.7685525 C113.919827,29.2387858 114.580376,29.7341978 114.968544,30.1223654 C115.737758,30.8915799 115.737758,32.1387231 114.968544,32.9079376 C114.199329,33.6771521 112.952186,33.6771521 112.182971,32.9079376 C112.185419,32.9103848 112.132277,32.8638856 112.024621,32.7831439 C111.808895,32.621349 111.539671,32.4530844 111.21761,32.2920536 C110.252586,31.8095416 109.075025,31.5151515 107.666667,31.5151515 C106.258308,31.5151515 105.080748,31.8095416 104.115724,32.2920536 C103.793662,32.4530844 103.524439,32.621349 103.308712,32.7831439 C103.201057,32.8638856 103.147915,32.9103848 103.150362,32.9079376 C102.381147,33.6771521 101.134004,33.6771521 100.36479,32.9079376 C99.5955752,32.1387231 99.5955752,30.8915799 100.36479,30.1223654 Z" id="Combined-Shape" fill="#FFB81C"></path>
            <path d="M21.6666667,39.3939394 C31.457169,39.3939394 39.3939394,31.457169 39.3939394,21.6666667 C39.3939394,11.8761643 31.457169,3.93939394 21.6666667,3.93939394 C11.8761643,3.93939394 3.93939394,11.8761643 3.93939394,21.6666667 C3.93939394,31.457169 11.8761643,39.3939394 21.6666667,39.3939394 Z M21.6666667,43.3333333 C9.70049709,43.3333333 0,33.6328362 0,21.6666667 C0,9.70049709 9.70049709,0 21.6666667,0 C33.6328362,0 43.3333333,9.70049709 43.3333333,21.6666667 C43.3333333,33.6328362 33.6328362,43.3333333 21.6666667,43.3333333 Z M26.1829715,28.1526685 C26.952186,27.3834539 28.1993291,27.3834539 28.9685437,28.1526685 C29.7377582,28.921883 29.7377582,30.1690261 28.9685437,30.9382406 C28.5803761,31.3264082 27.9198266,31.8218203 26.9793601,32.2920536 C25.4822629,33.0406022 23.7052776,33.4848485 21.6666667,33.4848485 C19.6280557,33.4848485 17.8510705,33.0406022 16.3539732,32.2920536 C15.4135067,31.8218203 14.7529573,31.3264082 14.3647897,30.9382406 C13.5955752,30.1690261 13.5955752,28.921883 14.3647897,28.1526685 C15.1340042,27.3834539 16.3811473,27.3834539 17.1503618,28.1526685 C17.1479147,28.1502213 17.2010566,28.1967205 17.3087121,28.2774621 C17.5244387,28.4392571 17.7936621,28.6075217 18.1157237,28.7685525 C19.0807477,29.2510645 20.2583079,29.5454545 21.6666667,29.5454545 C23.0750254,29.5454545 24.2525856,29.2510645 25.2176096,28.7685525 C25.5396713,28.6075217 25.8088946,28.4392571 26.0246212,28.2774621 C26.1322767,28.1967205 26.1854187,28.1502213 26.1829715,28.1526685 Z M14.3338069,23.1874403 C14.3338069,23.1874403 9.90762553,22.3869183 8.26428151,20.2946231 C7.09565755,18.8067385 6.86097406,16.3796472 9.06632153,15.5769664 C11.271669,14.7742855 11.7003463,15.9520659 11.7003463,15.9520659 C11.7003463,15.9520659 11.292193,14.7833407 13.4865654,13.9681292 C15.6809377,13.1529177 17.0626904,15.1790352 17.1238661,17.069998 C17.2100567,19.734182 14.3338069,23.1874403 14.3338069,23.1874403 Z M28.9989158,23.1872181 C28.9989158,23.1872181 26.1228298,19.7288881 26.2088567,17.0697758 C26.2700326,15.1788131 27.6503588,13.1687016 29.8557063,13.9713825 C32.0610538,14.7740633 31.632377,15.9518439 31.632377,15.9518439 C31.632377,15.9518439 32.0709555,14.7941926 34.2759502,15.5802197 C36.4809448,16.3662468 36.2370655,18.8065164 35.0684413,20.2944009 C33.4219626,22.3906864 28.9989158,23.1872181 28.9989158,23.1872181 Z" id="Oval-32" fill="#FF3399"></path>
        </g>
    </g>
</svg>