<?xml version="1.0" encoding="UTF-8"?>
<svg width="44px" height="130px" viewBox="0 0 44 130" version="1.1" xmlns="http://www.w3.org/2000/svg" xmlns:xlink="http://www.w3.org/1999/xlink">
    <!-- Generator: Sketch 48.2 (47327) - http://www.bohemiancoding.com/sketch -->
    <title>faces</title>
    <desc>Created with Sketch.</desc>
    <defs></defs>
    <g id="3" stroke="none" stroke-width="1" fill="none" fill-rule="evenodd" transform="translate(-513.000000, -190.000000)">
        <g id="faces" transform="translate(513.000000, 190.000000)" fill-rule="nonzero">
            <path d="M21.6666667,82.7272727 C31.457169,82.7272727 39.3939394,74.7905024 39.3939394,65 C39.3939394,55.2094976 31.457169,47.2727273 21.6666667,47.2727273 C11.8761643,47.2727273 3.93939394,55.2094976 3.93939394,65 C3.93939394,74.7905024 11.8761643,82.7272727 21.6666667,82.7272727 Z M21.6666667,86.6666667 C9.70049709,86.6666667 0,76.9661696 0,65 C0,53.0338304 9.70049709,43.3333333 21.6666667,43.3333333 C33.6328362,43.3333333 43.3333333,53.0338304 43.3333333,65 C43.3333333,76.9661696 33.6328362,86.6666667 21.6666667,86.6666667 Z M13.7878788,65 C15.963546,65 17.7272727,63.2362733 17.7272727,61.0606061 C17.7272727,58.8849389 15.963546,57.1212121 13.7878788,57.1212121 C11.6122116,57.1212121 9.84848485,58.8849389 9.84848485,61.0606061 C9.84848485,63.2362733 11.6122116,65 13.7878788,65 Z M29.5454545,65 C27.3697873,65 25.6060606,63.2362733 25.6060606,61.0606061 C25.6060606,58.8849389 27.3697873,57.1212121 29.5454545,57.1212121 C31.7211217,57.1212121 33.4848485,58.8849389 33.4848485,61.0606061 C33.4848485,63.2362733 31.7211217,65 29.5454545,65 Z M14.3647897,74.271574 C13.5955752,73.5023594 13.5955752,72.2552163 14.3647897,71.4860018 C15.1340042,70.7167873 16.3811473,70.7167873 17.1503618,71.4860018 C17.1479147,71.4835546 17.2010566,71.5300538 17.3087121,71.6107955 C17.5244387,71.7725904 17.7936621,71.940855 18.1157237,72.1018858 C19.0807477,72.5843978 20.2583079,72.8787879 21.6666667,72.8787879 C23.0750254,72.8787879 24.2525856,72.5843978 25.2176096,72.1018858 C25.5396713,71.940855 25.8088946,71.7725904 26.0246212,71.6107955 C26.1322767,71.5300538 26.1854187,71.4835546 26.1829715,71.4860018 C26.952186,70.7167873 28.1993291,70.7167873 28.9685437,71.4860018 C29.7377582,72.2552163 29.7377582,73.5023594 28.9685437,74.271574 C28.5803761,74.6597415 27.9198266,75.1551536 26.9793601,75.6253869 C25.4822629,76.3739355 23.7052776,76.8181818 21.6666667,76.8181818 C19.6280557,76.8181818 17.8510705,76.3739355 16.3539732,75.6253869 C15.4135067,75.1551536 14.7529573,74.6597415 14.3647897,74.271574 Z" id="Combined-Shape" fill="#009C9C"></path>
            <path d="M21.6666667,126.060606 C31.457169,126.060606 39.3939394,118.123836 39.3939394,108.333333 C39.3939394,98.542831 31.457169,90.6060606 21.6666667,90.6060606 C11.8761643,90.6060606 3.93939394,98.542831 3.93939394,108.333333 C3.93939394,118.123836 11.8761643,126.060606 21.6666667,126.060606 Z M21.6666667,130 C9.70049709,130 0,120.299503 0,108.333333 C0,96.3671638 9.70049709,86.6666667 21.6666667,86.6666667 C33.6328362,86.6666667 43.3333333,96.3671638 43.3333333,108.333333 C43.3333333,120.299503 33.6328362,130 21.6666667,130 Z M13.7878788,108.333333 C15.963546,108.333333 17.7272727,106.569607 17.7272727,104.393939 C17.7272727,102.218272 15.963546,100.454545 13.7878788,100.454545 C11.6122116,100.454545 9.84848485,102.218272 9.84848485,104.393939 C9.84848485,106.569607 11.6122116,108.333333 13.7878788,108.333333 Z M29.5454545,108.333333 C27.3697873,108.333333 25.6060606,106.569607 25.6060606,104.393939 C25.6060606,102.218272 27.3697873,100.454545 29.5454545,100.454545 C31.7211217,100.454545 33.4848485,102.218272 33.4848485,104.393939 C33.4848485,106.569607 31.7211217,108.333333 29.5454545,108.333333 Z M14.3647897,116.789032 C14.7529573,116.400865 15.4135067,115.905452 16.3539732,115.435219 C17.8510705,114.686671 19.6280557,114.242424 21.6666667,114.242424 C23.7052776,114.242424 25.4822629,114.686671 26.9793601,115.435219 C27.9198266,115.905452 28.5803761,116.400865 28.9685437,116.789032 C29.7377582,117.558247 29.7377582,118.80539 28.9685437,119.574604 C28.1993291,120.343819 26.952186,120.343819 26.1829715,119.574604 C26.1854187,119.577051 26.1322767,119.530552 26.0246212,119.449811 C25.8088946,119.288016 25.5396713,119.119751 25.2176096,118.95872 C24.2525856,118.476208 23.0750254,118.181818 21.6666667,118.181818 C20.2583079,118.181818 19.0807477,118.476208 18.1157237,118.95872 C17.7936621,119.119751 17.5244387,119.288016 17.3087121,119.449811 C17.2010566,119.530552 17.1479147,119.577051 17.1503618,119.574604 C16.3811473,120.343819 15.1340042,120.343819 14.3647897,119.574604 C13.5955752,118.80539 13.5955752,117.558247 14.3647897,116.789032 Z" id="Combined-Shape" fill="#FFB81C"></path>
            <path d="M21.6666667,39.3939394 C31.457169,39.3939394 39.3939394,31.457169 39.3939394,21.6666667 C39.3939394,11.8761643 31.457169,3.93939394 21.6666667,3.93939394 C11.8761643,3.93939394 3.93939394,11.8761643 3.93939394,21.6666667 C3.93939394,31.457169 11.8761643,39.3939394 21.6666667,39.3939394 Z M21.6666667,43.3333333 C9.70049709,43.3333333 0,33.6328362 0,21.6666667 C0,9.70049709 9.70049709,0 21.6666667,0 C33.6328362,0 43.3333333,9.70049709 43.3333333,21.6666667 C43.3333333,33.6328362 33.6328362,43.3333333 21.6666667,43.3333333 Z M26.1829715,28.1526685 C26.952186,27.3834539 28.1993291,27.3834539 28.9685437,28.1526685 C29.7377582,28.921883 29.7377582,30.1690261 28.9685437,30.9382406 C28.5803761,31.3264082 27.9198266,31.8218203 26.9793601,32.2920536 C25.4822629,33.0406022 23.7052776,33.4848485 21.6666667,33.4848485 C19.6280557,33.4848485 17.8510705,33.0406022 16.3539732,32.2920536 C15.4135067,31.8218203 14.7529573,31.3264082 14.3647897,30.9382406 C13.5955752,30.1690261 13.5955752,28.921883 14.3647897,28.1526685 C15.1340042,27.3834539 16.3811473,27.3834539 17.1503618,28.1526685 C17.1479147,28.1502213 17.2010566,28.1967205 17.3087121,28.2774621 C17.5244387,28.4392571 17.7936621,28.6075217 18.1157237,28.7685525 C19.0807477,29.2510645 20.2583079,29.5454545 21.6666667,29.5454545 C23.0750254,29.5454545 24.2525856,29.2510645 25.2176096,28.7685525 C25.5396713,28.6075217 25.8088946,28.4392571 26.0246212,28.2774621 C26.1322767,28.1967205 26.1854187,28.1502213 26.1829715,28.1526685 Z M14.3338069,23.1874403 C14.3338069,23.1874403 9.90762553,22.3869183 8.26428151,20.2946231 C7.09565755,18.8067385 6.86097406,16.3796472 9.06632153,15.5769664 C11.271669,14.7742855 11.7003463,15.9520659 11.7003463,15.9520659 C11.7003463,15.9520659 11.292193,14.7833407 13.4865654,13.9681292 C15.6809377,13.1529177 17.0626904,15.1790352 17.1238661,17.069998 C17.2100567,19.734182 14.3338069,23.1874403 14.3338069,23.1874403 Z M28.9989158,23.1872181 C28.9989158,23.1872181 26.1228298,19.7288881 26.2088567,17.0697758 C26.2700326,15.1788131 27.6503588,13.1687016 29.8557063,13.9713825 C32.0610538,14.7740633 31.632377,15.9518439 31.632377,15.9518439 C31.632377,15.9518439 32.0709555,14.7941926 34.2759502,15.5802197 C36.4809448,16.3662468 36.2370655,18.8065164 35.0684413,20.2944009 C33.4219626,22.3906864 28.9989158,23.1872181 28.9989158,23.1872181 Z" id="Oval-32" fill="#FF3399"></path>
        </g>
    </g>
</svg>