<?xml version="1.0" encoding="UTF-8"?>
<svg width="384px" height="311px" viewBox="0 0 384 311" version="1.1" xmlns="http://www.w3.org/2000/svg" xmlns:xlink="http://www.w3.org/1999/xlink">
    <!-- Generator: Sketch 49 (51002) - http://www.bohemiancoding.com/sketch -->
    <title>Hospital</title>
    <desc>Created with Sketch.</desc>
    <defs></defs>
    <g id="Page-1" stroke="none" stroke-width="1" fill="none" fill-rule="evenodd">
        <g id="4" transform="translate(-40.000000, -221.000000)">
            <g id="Hospital" transform="translate(40.000000, 222.000000)">
                <path d="M93.119403,186 L93.119403,62.6056127 C93.119403,62.271142 93.3929681,62 93.7128664,62 L276.02594,62 C276.3537,62 276.619403,62.266375 276.619403,62.6056127 L276.619403,186 L366.405358,186 C366.73377,186 367,186.273067 367,186.608697 L367,309.391303 C367,309.727477 366.732873,310 366.405358,310 L274.475239,310 L93.119403,310 L0.594642184,310 C0.266230374,310 0,309.726933 0,309.391303 L0,186.608697 C0,186.272523 0.267127194,186 0.594642184,186 L93.119403,186 Z" id="Combined-Shape" fill="#0BA6EE" opacity="0.571274909"></path>
                <path d="M377.25,303.25 L377.25,176.956673 C377.25,176.05 376.506018,175.307377 375.592189,175.307377 L284.064815,175.307377 L284.064815,52.75 L101.935185,52.75 L101.935185,175.307377 L10.4078112,175.307377 C9.48996194,175.307377 8.75,176.045305 8.75,176.956673 L8.75,303.25 L101.779068,303.25 L377.25,303.25 Z" id="Combined-Shape" stroke="#2D81A8" stroke-width="1.5"></path>
                <g id="Windows" transform="translate(33.000000, 83.000000)" fill="#FFFFFF" opacity="0.652117301">
                    <g id="1" transform="translate(106.783099, 0.000000)">
                        <rect id="Left" x="0" y="0" width="34.2253521" height="33.0822764" rx="0.3"></rect>
                        <rect id="Right" x="72.5577465" y="0" width="34.2253521" height="33.0822764" rx="0.3"></rect>
                    </g>
                    <g id="2" transform="translate(106.783099, 39.974417)">
                        <rect id="Left" x="0" y="0" width="34.2253521" height="33.0822764" rx="0.3"></rect>
                        <rect id="Right" x="72.5577465" y="0" width="34.2253521" height="33.0822764" rx="0.3"></rect>
                    </g>
                    <g id="3" transform="translate(106.783099, 79.948835)">
                        <rect id="Left" x="0" y="0" width="34.2253521" height="33.0822764" rx="0.3"></rect>
                        <rect id="Right" x="72.5577465" y="0" width="34.2253521" height="33.0822764" rx="0.3"></rect>
                    </g>
                    <g id="4" transform="translate(106.783099, 119.923252)">
                        <rect id="Rectangle-2" x="0" y="0" width="34.2253521" height="33.0822764" rx="0.3"></rect>
                        <rect id="Rectangle-2" x="72.5577465" y="0" width="34.2253521" height="33.0822764" rx="0.3"></rect>
                    </g>
                    <g id="Larger" transform="translate(0.000000, 119.923252)">
                        <rect id="Left" x="0" y="0" width="62.9746479" height="60.6508401" rx="0.3"></rect>
                        <rect id="Right" x="257.374648" y="2.75685637" width="62.9746479" height="60.6508401" rx="0.3"></rect>
                    </g>
                </g>
                <g id="Roof" transform="translate(3.000000, 40.000000)" fill="#2D81A8">
                    <path d="M91.6464286,1.80003324 C91.6464286,0.805902335 92.455143,0 93.4426454,0 L285.453783,0 C286.445806,0 287.25,0.81327796 287.25,1.80003324 L287.25,18.899984 C287.25,19.2341926 286.98302,19.5051221 286.65366,19.5051221 L92.2427683,19.5051221 C91.913419,19.5051221 91.6464286,19.2293916 91.6464286,18.899984 L91.6464286,1.80003324 Z"></path>
                    <path d="M274.939286,129.737568 C274.939286,129.402743 275.205192,129.131313 275.531616,129.131313 L378.458333,129.131313 C379.455733,129.131313 380.264286,129.937571 380.264286,130.926862 L380.264286,145.009907 C380.264286,145.344732 379.998379,145.616162 379.671955,145.616162 L275.531616,145.616162 C275.204481,145.616162 274.939286,145.357224 274.939286,145.009907 L274.939286,129.737568 Z" id="Right"></path>
                    <path d="M0,130.926862 C0,129.935208 0.802172466,129.131313 1.80595257,129.131313 L104.732669,129.131313 C105.059804,129.131313 105.325,129.390251 105.325,129.737568 L105.325,145.009907 C105.325,145.344732 105.059093,145.616162 104.732669,145.616162 L0.59233073,145.616162 C0.265195501,145.616162 0,145.357224 0,145.009907 L0,130.926862 Z" id="Left"></path>
                </g>
                <g id="Medical-cross" transform="translate(153.000000, 0.000000)">
                    <ellipse id="Fill" fill="#FFFFFF" opacity="0.860167572" cx="34.4117647" cy="40.2133333" rx="34.4117647" ry="34.6666667"></ellipse>
                    <ellipse id="Outline" stroke="#4A4A4A" stroke-width="1.2" cx="39.9176471" cy="34.6666667" rx="34.4117647" ry="34.6666667"></ellipse>
                    <path d="M46.1117647,27.9413333 L60.5647059,27.9413333 L60.5647059,40.0053333 L46.1117647,40.0053333 L46.1117647,54.08 L33.7235294,54.08 L33.7235294,40.0053333 L19.2705882,40.0053333 L19.2705882,27.9413333 L33.7235294,27.9413333 L33.7235294,13.8666667 L46.1117647,13.8666667 L46.1117647,27.9413333 Z" id="Combined-Shape" fill="#E16556"></path>
                </g>
                <g id="Door" transform="translate(153.000000, 247.000000)">
                    <rect fill="#2D81A8" x="12.3" y="9.60136752" width="58.7666667" height="46.6352137"></rect>
                    <g id="Door-border">
                        <rect id="Rectangle-8" fill="#EDB762" x="0" y="4.11487179" width="76.5333333" height="12.3446154" rx="0.6"></rect>
                        <rect id="Rectangle-8" stroke="#BA8F4C" stroke-width="0.6" x="3.03333333" y="0.3" width="77.3" height="14.4878632" rx="0.6"></rect>
                    </g>
                </g>
            </g>
        </g>
    </g>
</svg>