<?xml version="1.0" encoding="UTF-8"?>
<svg width="1280px" height="946px" viewBox="0 0 1280 946" version="1.1" xmlns="http://www.w3.org/2000/svg" xmlns:xlink="http://www.w3.org/1999/xlink">
    <!-- Generator: Sketch 52.6 (67491) - http://www.bohemiancoding.com/sketch -->
    <title>Artboard</title>
    <desc>Created with Sketch.</desc>
    <g id="Artboard" stroke="none" stroke-width="1" fill="none" fill-rule="evenodd">
        <g id="1992447" fill="#0072C6">
            <g id="Group" transform="translate(640.000000, 473.000000) scale(-1, 1) rotate(-180.000000) translate(-640.000000, -473.000000) translate(0.000000, 0.000000)">
                <path d="M1094,943.5 C1068.6,938.9 1045.2,924.1 1030.4,903.4 C1024.6,895.3 1017.7,880.5 1015,870.5 C1012,859.3 1011.3,841.3 1013.4,829.4 C1020,791.4 1047.2,761.2 1084.5,750.4 C1095.6,747.2 1114.9,746.1 1126.7,748 C1164.4,754.1 1195.4,781.8 1206.7,819.5 C1209.1,827.7 1209.4,830 1209.4,845.5 C1209.4,859.9 1209.1,863.7 1207.2,870.2 C1193.2,920.8 1144.1,952.5 1094,943.5 Z" id="Path"></path>
                <path d="M150.8,942.5 C95.1,931.9 59.3,877.5 72,822.5 C78.7,793.4 98.1,769.3 125.5,755.9 C141.5,748.1 148.4,746.6 168.5,746.6 C188.6,746.6 195.5,748.1 211.5,755.9 C239.4,769.6 259.1,794.5 265.5,824.5 C267.6,834.1 267.9,853.7 266.1,862.5 C258,901.7 230.5,931.1 192.2,941.1 C182,943.8 161.4,944.5 150.8,942.5 Z" id="Path"></path>
                <path d="M1084,729.4 C1055.6,723.9 1034.6,708.1 1021.8,682.5 C1019.8,678.7 1017.3,672.4 1016,668.5 C1014.8,664.7 1003.6,610.7 991.1,548.5 L968.4,435.5 L946.4,434.9 C934.4,434.5 894.7,434.2 858.2,434.1 C782.8,434 783,434 767,426.3 C758.9,422.4 756.2,420.5 749,413.1 C739.5,403.6 734,394.3 729.8,381 L727.5,373.5 L727.5,207.5 L727.5,41.5 L729.8,34.7 C735.5,18.4 747.9,6.6 764.5,1.9 C772.4,-0.3 788.2,0.2 796,2.9 C812.6,8.6 824.2,21.1 829.7,39 C831.3,44 831.5,55.4 831.7,168.7 L832.1,292.9 L946.8,293.2 L1061.5,293.5 L1069.5,295.8 C1079.4,298.6 1092.2,304.6 1099.2,309.8 C1106.3,315 1117.7,327.4 1121.8,334.3 C1131.2,349.9 1130.3,346.2 1159.8,493 C1187.2,629.2 1187.2,629.5 1187.3,642.5 C1187.3,661.9 1183.4,675.8 1173.5,691.1 C1162.7,707.9 1144.5,720.8 1122.9,727.1 C1117.2,728.7 1112.2,729.3 1101,729.5 C1093,729.7 1085.4,729.6 1084,729.4 Z" id="Path"></path>
                <path d="M163,727.5 C144.9,723.7 129.6,715.6 116.9,703 C99,685.2 91.1,664.2 92.3,637.5 C92.8,627 96.2,608.7 119.4,493 C134,420.1 147,357.6 148.1,354 C151.4,344 158.6,331 165.4,323 C176.5,309.7 191.9,299.9 209.5,294.9 L217.5,292.6 L332.8,292.3 L448,291.9 L448,169.1 C448,50 448.1,46.1 450,38.6 C451.1,34.3 453.2,28.5 454.7,25.7 C459.1,17.6 468.2,9 477.4,4.4 C485.3,0.6 485.6,0.5 498.5,0.2 C509.7,-0.1 512.4,0.1 517.8,1.9 C533.5,7.2 545.2,19.3 550.3,35.5 L552.5,42.5 L552.5,205.5 C552.5,389.8 553.1,375.7 544.5,392.8 C534.9,411.7 522.2,422.9 502.8,429.5 L494.5,432.4 L403.1,433.1 C352.9,433.5 311.6,434.1 311.4,434.3 C311.1,434.5 300.9,485.1 288.5,546.8 C276.2,608.5 265.2,662.1 264,666.1 C261.2,675.3 253.7,689.9 247.7,697.7 C237.4,711.1 222,721.3 204.5,726.3 C195.4,728.9 172.5,729.6 163,727.5 Z" id="Path"></path>
                <path d="M1228.9,613.7 C1215.9,610 1206.2,599.6 1202.6,585.5 C1201.8,582.2 1191.4,531.8 1179.5,473.5 C1155.6,356.4 1154.8,352.3 1151.3,343 C1137.8,307 1112.4,284.4 1075.2,275.3 C1069.4,273.9 1057.5,273.6 984,273.1 C899.9,272.5 899.5,272.5 894.1,270.3 C887.1,267.4 881.6,263.6 877.9,258.9 C868.5,247 866.2,229.8 872,214.5 C875.1,206.3 884.2,197.3 892.5,193.9 L898.5,191.5 L990.5,191.5 C1082.2,191.5 1082.5,191.5 1092.7,193.8 C1147,205.8 1190.9,240.4 1216.1,291 C1226.8,312.4 1227.9,316.9 1255.1,448.7 C1277.7,558.4 1280.1,571.2 1279.7,577.5 C1278.6,592.6 1271,603.9 1257.5,610.6 C1251.3,613.7 1249,614.3 1241.8,614.6 C1236.8,614.8 1231.7,614.5 1228.9,613.7 Z" id="Path"></path>
                <path d="M27.6,612 C15.6,608.2 5.9,599 1.9,587.5 C-2,576.3 -2,576.4 24.5,447.5 C52.9,309.5 54.2,304.5 69.3,278.8 C95.6,234.1 137.3,203.6 186.8,192.7 C196.2,190.7 199.4,190.6 285.5,190.2 C351.9,190 375.9,190.2 380,191 C394.9,194.3 405.6,204.6 409.4,219.5 C415.6,243.2 402.2,266 379.2,270.9 C375.6,271.6 349.7,272 297.2,272 C251.8,272 217.6,272.4 213.5,273 C196.1,275.5 178.3,282.3 165.6,291.4 C152.1,301 138.2,318.6 130.8,335.5 C125.9,346.5 123.2,358.7 100.1,472 C87.5,533.9 76.2,587.2 74.9,590.5 C73.2,595 71.1,598.1 66,603.1 C60.3,608.9 58.5,610.1 52.6,611.9 C44.2,614.5 35.5,614.5 27.6,612 Z" id="Path"></path>
            </g>
        </g>
    </g>
</svg>