<?xml version="1.0" encoding="UTF-8"?>
<svg width="76px" height="85px" viewBox="0 0 76 85" version="1.1" xmlns="http://www.w3.org/2000/svg" xmlns:xlink="http://www.w3.org/1999/xlink">
    <!-- Generator: Sketch 48.2 (47327) - http://www.bohemiancoding.com/sketch -->
    <title>iсon_machine</title>
    <desc>Created with Sketch.</desc>
    <defs></defs>
    <g id="3" stroke="none" stroke-width="1" fill="none" fill-rule="evenodd" transform="translate(-474.000000, -434.000000)" opacity="0.570935236">
        <g id="analytics" transform="translate(474.000000, 416.000000)">
            <g id="iсon_machine" transform="translate(0.000000, 19.000000)">
                <circle id="Oval-3" stroke="#C1C5C9" stroke-width="2" cx="64.29375" cy="11.64375" r="8.60625"></circle>
                <path d="M74.925,10.4252364 C74.925,4.57029698 70.5112484,0 65.2763625,0 C60.7237649,0 56.9754203,2.96272367 55.6875,7.17325845 L74.1937877,14.175 C74.6640467,13.0110007 74.925,11.7432534 74.925,10.4252364 Z" id="Combined-Shape" stroke="#28303D" stroke-width="2" fill="#FFFFFF"></path>
                <circle id="Oval-3" stroke="#C1C5C9" stroke-width="2" cx="37.96875" cy="11.64375" r="8.60625"></circle>
                <path d="M37.9662156,1.0125 C33.164428,1.0125 29.2792118,4.34760963 28.35,8.93194041 L38.5245082,12.15 L45.5625,5.11829107 C43.8326473,2.61203495 41.0449063,1.0125 37.9662156,1.0125 Z" id="Combined-Shape" stroke="#28303D" stroke-width="2" fill="#FFFFFF"></path>
                <circle id="Oval-3" stroke="#C1C5C9" stroke-width="2" cx="11.64375" cy="11.64375" r="8.60625"></circle>
                <path d="M2.025,9.63796322 L11.1375,11.1375 L8.33605256,2.025 C5.12689824,3.22831808 2.73302556,6.06920052 2.025,9.63796322 Z" id="Combined-Shape" stroke="#28303D" stroke-width="2" fill="#FFFFFF"></path>
                <path d="M6.075,31.3875 L20.25,31.3875" id="Path-4" stroke="#C1C5C9" stroke-width="2"></path>
                <circle id="Oval-9" fill="#005EB8" cx="3.0375" cy="31.3875" r="2.025"></circle>
                <path d="M6.075,38.475 L20.25,38.475" id="Path-4" stroke="#28303D" stroke-width="2"></path>
                <circle id="Oval-9" fill="#005EB8" cx="3.0375" cy="38.475" r="2.025"></circle>
                <path d="M6.075,45.5625 L20.25,45.5625" id="Path-4" stroke="#C1C5C9" stroke-width="2"></path>
                <circle id="Oval-9" fill="#005EB8" cx="3.0375" cy="45.5625" r="2.025"></circle>
                <path d="M30.375,28.35 L30.375,31.3875" id="Path-7" stroke="#C1C5C9" stroke-width="2"></path>
                <path d="M30.375,32.4 L30.375,38.475" id="Path-7" stroke="#005EB8" stroke-width="4"></path>
                <path d="M38.475,38.475 L38.475,44.55" id="Path-7" stroke="#005EB8" stroke-width="4"></path>
                <path d="M46.575,35.4375 L46.575,41.5125" id="Path-7" stroke="#005EB8" stroke-width="4"></path>
                <path d="M30.375,39.4875 L30.375,48.6" id="Path-7" stroke="#C1C5C9" stroke-width="2"></path>
                <path d="M38.475,28.35 L38.475,37.4625" id="Path-7" stroke="#C1C5C9" stroke-width="2"></path>
                <path d="M38.475,45.5625 L38.475,48.6" id="Path-7" stroke="#C1C5C9" stroke-width="2"></path>
                <path d="M46.575,28.35 L46.575,34.425" id="Path-7" stroke="#C1C5C9" stroke-width="2"></path>
                <path d="M46.575,42.525 L46.575,48.6" id="Path-7" stroke="#C1C5C9" stroke-width="2"></path>
                <polyline id="Path-17" stroke="#C1C5C9" stroke-width="2" points="56.7 47.5875 56.7 42.525 72.9 42.525 72.9 47.5875"></polyline>
                <path d="M64.8,47.5875 L64.8,37.4625" id="Path-18" stroke="#C1C5C9" stroke-width="2"></path>
                <circle id="Oval-9" fill="#005EB8" cx="56.7" cy="48.6" r="2.025"></circle>
                <circle id="Oval-9" fill="#005EB8" cx="64.8" cy="48.6" r="2.025"></circle>
                <circle id="Oval-9" fill="#005EB8" cx="72.9" cy="48.6" r="2.025"></circle>
                <circle id="Oval-9" stroke="#28303D" stroke-width="2" cx="64.8" cy="32.4" r="4.05"></circle>
                <rect id="Rectangle-1" stroke="#28303D" stroke-width="2" stroke-linecap="square" x="1.0125" y="61.7625" width="10.125" height="11.1375"></rect>
                <rect id="Rectangle-1" stroke="#28303D" stroke-width="2" stroke-linecap="square" x="21.2625" y="65.8125" width="10.125" height="7.0875"></rect>
                <rect id="Rectangle-1" stroke="#28303D" stroke-width="2" stroke-linecap="square" x="31.3875" y="58.725" width="10.125" height="14.175"></rect>
                <rect id="Rectangle-1" stroke="#005EB8" stroke-width="2" stroke-linecap="square" x="11.1375" y="55.6875" width="10.125" height="17.2125"></rect>
                <rect id="Rectangle-5" fill="#28303D" x="0" y="76.95" width="42.525" height="2.025"></rect>
                <path d="M55.3017857,58.725 L67.2107143,58.725 C69.4090567,58.725 70.875,60.2854851 70.875,62.5821429 L70.875,73.1892857 C70.875,75.0136703 69.4511613,77.0464286 67.2107143,77.0464286 L60.7982143,77.0464286 C59.8810246,77.362776 56.712195,80.9973639 56.712195,80.9973639 C56.712195,80.9973639 56.7411577,78.0380228 56.712195,77.0464282 C56.3023559,77.0464282 55.9415932,77.0464286 55.3017857,77.0464286 C53.1023182,76.5924752 51.6375,75.0128993 51.6375,73.1892857 L51.6375,62.5821429 C51.6375,60.2847142 53.1071509,58.725 55.3017857,58.725 Z" id="Rectangle-6" stroke="#28303D" stroke-width="2" stroke-linecap="square"></path>
                <rect id="Rectangle-7" fill="#005EB8" x="57.7125" y="66.825" width="2.025" height="2.025"></rect>
                <rect id="Rectangle-7" fill="#C1C5C9" x="60.75" y="66.825" width="2.025" height="2.025"></rect>
                <rect id="Rectangle-7" fill="#C1C5C9" x="63.7875" y="66.825" width="2.025" height="2.025"></rect>
            </g>
        </g>
    </g>
</svg>