<?xml version="1.0" encoding="UTF-8"?>
<svg width="256px" height="236px" viewBox="0 0 256 236" version="1.1" xmlns="http://www.w3.org/2000/svg" xmlns:xlink="http://www.w3.org/1999/xlink">
    <!-- Generator: Sketch 49 (51002) - http://www.bohemiancoding.com/sketch -->
    <title>schedules</title>
    <desc>Created with Sketch.</desc>
    <defs></defs>
    <g id="Page-1" stroke="none" stroke-width="1" fill="none" fill-rule="evenodd">
        <g id="30-Airport-Element-Icons" transform="translate(-1308.000000, -1905.000000)" fill="#3D9AD9">
            <path d="M1558.9005,1905 L1313.0995,1905 C1310.2835,1905 1308,1907.2835 1308,1910.1 L1308,2135.1965 C1308,2138.013 1310.2835,2140.296 1313.0995,2140.296 L1558.9005,2140.296 C1561.7165,2140.296 1564,2138.013 1564,2135.1965 L1564,1910.1 C1564,1907.2835 1561.7165,1905 1558.9005,1905 L1558.9005,1905 L1558.9005,1905 Z M1553.801,2130.0965 L1318.199,2130.0965 L1318.199,1915.1995 L1553.8005,1915.1995 L1553.8005,2130.0965 L1553.801,2130.0965 L1553.801,2130.0965 Z M1368.6855,1933.915 L1336.558,1933.915 C1333.742,1933.915 1331.4585,1936.198 1331.4585,1939.0145 C1331.4585,1941.831 1333.742,1944.114 1336.558,1944.114 L1368.6855,1944.114 C1371.5015,1944.114 1373.785,1941.831 1373.785,1939.0145 C1373.785,1936.198 1371.5015,1933.915 1368.6855,1933.915 L1368.6855,1933.915 Z M1535.442,1933.915 L1503.315,1933.915 C1500.499,1933.915 1498.2155,1936.198 1498.2155,1939.0145 C1498.2155,1941.831 1500.499,1944.114 1503.315,1944.114 L1535.4425,1944.114 C1538.2585,1944.114 1540.542,1941.831 1540.542,1939.0145 C1540.542,1936.198 1538.258,1933.915 1535.442,1933.915 L1535.442,1933.915 Z M1483.4265,1933.915 L1472.2075,1933.915 C1469.3915,1933.915 1467.108,1936.198 1467.108,1939.0145 C1467.108,1941.831 1469.3915,1944.114 1472.2075,1944.114 L1483.4265,1944.114 C1486.2425,1944.114 1488.526,1941.831 1488.526,1939.0145 C1488.526,1936.198 1486.2425,1933.915 1483.4265,1933.915 L1483.4265,1933.915 Z M1445.1795,1933.915 L1390.1035,1933.915 C1387.2875,1933.915 1385.004,1936.198 1385.004,1939.0145 C1385.004,1941.831 1387.2875,1944.114 1390.1035,1944.114 L1445.179,1944.114 C1447.995,1944.114 1450.2785,1941.831 1450.2785,1939.0145 C1450.279,1936.198 1447.9955,1933.915 1445.1795,1933.915 L1445.1795,1933.915 Z M1368.6855,1960.943 L1336.558,1960.943 C1333.742,1960.943 1331.4585,1963.226 1331.4585,1966.0425 C1331.4585,1968.859 1333.742,1971.142 1336.558,1971.142 L1368.6855,1971.142 C1371.5015,1971.142 1373.785,1968.859 1373.785,1966.0425 C1373.785,1963.226 1371.5015,1960.943 1368.6855,1960.943 L1368.6855,1960.943 Z M1535.442,1960.943 L1503.315,1960.943 C1500.499,1960.943 1498.2155,1963.226 1498.2155,1966.0425 C1498.2155,1968.859 1500.499,1971.142 1503.315,1971.142 L1535.4425,1971.142 C1538.2585,1971.142 1540.542,1968.859 1540.542,1966.0425 C1540.542,1963.226 1538.258,1960.943 1535.442,1960.943 L1535.442,1960.943 Z M1483.4265,1960.943 L1390.1035,1960.943 C1387.2875,1960.943 1385.004,1963.226 1385.004,1966.0425 C1385.004,1968.859 1387.2875,1971.142 1390.1035,1971.142 L1483.426,1971.142 C1486.242,1971.142 1488.5255,1968.859 1488.5255,1966.0425 C1488.526,1963.226 1486.2425,1960.943 1483.4265,1960.943 L1483.4265,1960.943 Z M1368.6855,1989.5005 L1336.558,1989.5005 C1333.742,1989.5005 1331.4585,1991.7835 1331.4585,1994.6 C1331.4585,1997.4165 1333.742,1999.6995 1336.558,1999.6995 L1368.6855,1999.6995 C1371.5015,1999.6995 1373.785,1997.4165 1373.785,1994.6 C1373.785,1991.7835 1371.5015,1989.5005 1368.6855,1989.5005 L1368.6855,1989.5005 Z M1535.442,1989.5005 L1503.315,1989.5005 C1500.499,1989.5005 1498.2155,1991.7835 1498.2155,1994.6 C1498.2155,1997.4165 1500.499,1999.6995 1503.315,1999.6995 L1535.4425,1999.6995 C1538.2585,1999.6995 1540.542,1997.4165 1540.542,1994.6 C1540.542,1991.7835 1538.258,1989.5005 1535.442,1989.5005 L1535.442,1989.5005 Z M1483.4265,1989.5005 L1390.1035,1989.5005 C1387.2875,1989.5005 1385.004,1991.7835 1385.004,1994.6 C1385.004,1997.4165 1387.2875,1999.6995 1390.1035,1999.6995 L1483.426,1999.6995 C1486.242,1999.6995 1488.5255,1997.4165 1488.5255,1994.6 C1488.526,1991.7835 1486.2425,1989.5005 1483.4265,1989.5005 L1483.4265,1989.5005 Z M1368.6855,2016.5285 L1336.558,2016.5285 C1333.742,2016.5285 1331.4585,2018.8115 1331.4585,2021.628 C1331.4585,2024.4445 1333.742,2026.7275 1336.558,2026.7275 L1368.6855,2026.7275 C1371.5015,2026.7275 1373.785,2024.4445 1373.785,2021.628 C1373.785,2018.8115 1371.5015,2016.5285 1368.6855,2016.5285 L1368.6855,2016.5285 Z M1535.442,2016.5285 L1503.315,2016.5285 C1500.499,2016.5285 1498.2155,2018.8115 1498.2155,2021.628 C1498.2155,2024.4445 1500.499,2026.7275 1503.315,2026.7275 L1535.4425,2026.7275 C1538.2585,2026.7275 1540.542,2024.4445 1540.542,2021.628 C1540.542,2018.8115 1538.258,2016.5285 1535.442,2016.5285 L1535.442,2016.5285 Z M1483.4265,2016.5285 L1390.1035,2016.5285 C1387.2875,2016.5285 1385.004,2018.8115 1385.004,2021.628 C1385.004,2024.4445 1387.2875,2026.7275 1390.1035,2026.7275 L1483.426,2026.7275 C1486.242,2026.7275 1488.5255,2024.4445 1488.5255,2021.628 C1488.526,2018.8115 1486.2425,2016.5285 1483.4265,2016.5285 L1483.4265,2016.5285 Z M1368.6855,2045.596 L1336.558,2045.596 C1333.742,2045.596 1331.4585,2047.879 1331.4585,2050.6955 C1331.4585,2053.512 1333.742,2055.795 1336.558,2055.795 L1368.6855,2055.795 C1371.5015,2055.795 1373.785,2053.512 1373.785,2050.6955 C1373.785,2047.8795 1371.5015,2045.596 1368.6855,2045.596 L1368.6855,2045.596 Z M1535.442,2045.596 L1503.315,2045.596 C1500.499,2045.596 1498.2155,2047.879 1498.2155,2050.6955 C1498.2155,2053.512 1500.499,2055.795 1503.315,2055.795 L1535.4425,2055.795 C1538.2585,2055.795 1540.542,2053.512 1540.542,2050.6955 C1540.542,2047.8795 1538.258,2045.596 1535.442,2045.596 L1535.442,2045.596 Z M1483.4265,2045.596 L1390.1035,2045.596 C1387.2875,2045.596 1385.004,2047.879 1385.004,2050.6955 C1385.004,2053.512 1387.2875,2055.795 1390.1035,2055.795 L1483.426,2055.795 C1486.242,2055.795 1488.5255,2053.512 1488.5255,2050.6955 C1488.526,2047.8795 1486.2425,2045.596 1483.4265,2045.596 L1483.4265,2045.596 Z M1368.6855,2072.624 L1336.558,2072.624 C1333.742,2072.624 1331.4585,2074.907 1331.4585,2077.7235 C1331.4585,2080.54 1333.742,2082.823 1336.558,2082.823 L1368.6855,2082.823 C1371.5015,2082.823 1373.785,2080.54 1373.785,2077.7235 C1373.785,2074.907 1371.5015,2072.624 1368.6855,2072.624 L1368.6855,2072.624 Z M1535.442,2072.624 L1503.315,2072.624 C1500.499,2072.624 1498.2155,2074.907 1498.2155,2077.7235 C1498.2155,2080.54 1500.499,2082.823 1503.315,2082.823 L1535.4425,2082.823 C1538.2585,2082.823 1540.542,2080.54 1540.542,2077.7235 C1540.542,2074.907 1538.258,2072.624 1535.442,2072.624 L1535.442,2072.624 Z M1483.4265,2072.624 L1390.1035,2072.624 C1387.2875,2072.624 1385.004,2074.907 1385.004,2077.7235 C1385.004,2080.54 1387.2875,2082.823 1390.1035,2082.823 L1483.426,2082.823 C1486.242,2082.823 1488.5255,2080.54 1488.5255,2077.7235 C1488.526,2074.907 1486.2425,2072.624 1483.4265,2072.624 L1483.4265,2072.624 Z M1368.6855,2101.182 L1336.558,2101.182 C1333.742,2101.182 1331.4585,2103.465 1331.4585,2106.2815 C1331.4585,2109.098 1333.742,2111.381 1336.558,2111.381 L1368.6855,2111.381 C1371.5015,2111.381 1373.785,2109.098 1373.785,2106.2815 C1373.785,2103.465 1371.5015,2101.182 1368.6855,2101.182 L1368.6855,2101.182 Z M1535.442,2101.182 L1503.315,2101.182 C1500.499,2101.182 1498.2155,2103.465 1498.2155,2106.2815 C1498.2155,2109.098 1500.499,2111.381 1503.315,2111.381 L1535.4425,2111.381 C1538.2585,2111.381 1540.542,2109.098 1540.542,2106.2815 C1540.542,2103.465 1538.258,2101.182 1535.442,2101.182 L1535.442,2101.182 Z M1483.4265,2101.182 L1390.1035,2101.182 C1387.2875,2101.182 1385.004,2103.465 1385.004,2106.2815 C1385.004,2109.098 1387.2875,2111.381 1390.1035,2111.381 L1483.426,2111.381 C1486.242,2111.381 1488.5255,2109.098 1488.5255,2106.2815 C1488.526,2103.465 1486.2425,2101.182 1483.4265,2101.182 L1483.4265,2101.182 Z" id="schedules"></path>
        </g>
    </g>
</svg>