<?xml version="1.0" encoding="UTF-8"?>
<svg width="527px" height="438px" viewBox="0 0 527 438" version="1.1" xmlns="http://www.w3.org/2000/svg" xmlns:xlink="http://www.w3.org/1999/xlink">
    <!-- Generator: Sketch 52.6 (67491) - http://www.bohemiancoding.com/sketch -->
    <title>icon_iMac</title>
    <desc>Created with Sketch.</desc>
    <defs>
        <polygon id="path-1" points="13.5692308 0 112.430769 0 126 46 0 46"></polygon>
        <rect id="path-3" x="0" y="0" width="392" height="234"></rect>
        <rect id="path-5" x="0" y="0" width="118" height="166" rx="4"></rect>
        <filter x="-28.8%" y="-15.7%" width="157.6%" height="141.0%" filterUnits="objectBoundingBox" id="filter-6">
            <feOffset dx="0" dy="8" in="SourceAlpha" result="shadowOffsetOuter1"></feOffset>
            <feGaussianBlur stdDeviation="10" in="shadowOffsetOuter1" result="shadowBlurOuter1"></feGaussianBlur>
            <feComposite in="shadowBlurOuter1" in2="SourceAlpha" operator="out" result="shadowBlurOuter1"></feComposite>
            <feColorMatrix values="0 0 0 0 0.77254902   0 0 0 0 0.811764706   0 0 0 0 0.870588235  0 0 0 0.5 0" type="matrix" in="shadowBlurOuter1"></feColorMatrix>
        </filter>
    </defs>
    <g id="Page-1" stroke="none" stroke-width="1" fill="none" fill-rule="evenodd">
        <g id="Icon" transform="translate(-173.000000, -82.000000)">
            <g id="icon_iMac" transform="translate(121.000000, 21.000000)">
                <path d="M437.330078,360.796875 C437.330078,360.796875 386.458984,384.332031 411.894531,403.808594 C437.330078,423.285156 499.209222,439.634074 510.6875,467.460938" id="Mouse-Wire" stroke="#C5CFDE" stroke-width="2"></path>
                <g id="Leg" transform="translate(234.000000, 367.000000)">
                    <rect id="Substrate" stroke="#C5CFDE" stroke-width="2" fill="#FFFFFF" x="1" y="49" width="142" height="8" rx="4"></rect>
                    <path d="M21.7584604,1 L8.3184604,49 L135.68154,49 L122.24154,1 L21.7584604,1 Z" id="Leg-Form" stroke="#C5CFDE" stroke-width="2" fill="#FFFFFF"></path>
                    <g id="Leg-Mask" transform="translate(9.000000, 2.000000)">
                        <mask id="mask-2" fill="white">
                            <use xlink:href="#path-1"></use>
                        </mask>
                        <use id="Mask" fill="#FFFFFF" xlink:href="#path-1"></use>
                        <polygon id="Path-2" fill="#E0E4EC" mask="url(#mask-2)" points="13 0 113 0 115 6 9 15"></polygon>
                    </g>
                </g>
                <g id="Mouse" transform="translate(466.000000, 460.000000)">
                    <path d="M21,38 C36,38 61,38 61,38 C61,38 85,38 85,23 C85,8 61,0 41,0 C21,0 1.50663784e-15,11 0,22 C0,33 6,38 21,38 Z" id="Path-5" stroke="#C5CFDE" stroke-width="2" fill="#FFFFFF"></path>
                    <path d="M1,21 C1,21 20.3677712,26.6691249 41,27 C61.6322288,27.3308751 76.9576445,22.6479658 83,18 C83,18 85.1022473,21.8877892 84,26 C82.8977527,30.1122108 80.3196871,31.9228923 76,34 C65.6353124,38.9838269 57.3224099,37 42,37 C28.412135,37 12,38 6,34 C1.11355369e-13,30 1,21 1,21 Z" id="Path-6" fill="#F5F6FA"></path>
                </g>
                <g id="Keyboard" transform="translate(52.000000, 472.000000)">
                    <g id="Group-2" transform="translate(15.000000, 0.000000)" fill="#FFFFFF" stroke="#C5CFDE" stroke-width="2">
                        <rect id="Rectangle-5" x="1" y="1" width="22" height="12" rx="6"></rect>
                        <rect id="Rectangle-5-Copy" x="30" y="1" width="22" height="12" rx="6"></rect>
                        <rect id="Rectangle-5-Copy-2" x="59" y="1" width="22" height="12" rx="6"></rect>
                        <rect id="Rectangle-5-Copy-4" x="201" y="1" width="22" height="12" rx="6"></rect>
                        <rect id="Rectangle-5-Copy-5" x="230" y="1" width="22" height="12" rx="6"></rect>
                        <rect id="Rectangle-5-Copy-6" x="327" y="1" width="22" height="12" rx="6"></rect>
                        <rect id="Rectangle-5-Copy-7" x="298" y="1" width="22" height="12" rx="6"></rect>
                        <rect id="Rectangle-5-Copy-8" x="269" y="1" width="22" height="12" rx="6"></rect>
                        <rect id="Rectangle-5-Copy-3" x="88" y="1" width="106" height="12" rx="6"></rect>
                    </g>
                    <g id="Group-3" transform="translate(0.000000, 7.000000)">
                        <rect id="Rectangle-3" stroke="#C5CFDE" stroke-width="2" fill="#FFFFFF" x="1" y="1" width="378" height="18" rx="9"></rect>
                        <rect id="Rectangle-4" fill="#C5CFDE" x="2" y="11" width="376" height="2"></rect>
                    </g>
                </g>
                <g id="Monitor" transform="translate(88.000000, 61.000000)">
                    <rect id="Mac-Form" stroke="#C5CFDE" stroke-width="2" fill="#FFFFFF" x="1" y="1" width="434" height="306" rx="18"></rect>
                    <rect id="Screen-Form" stroke="#C5CFDE" stroke-width="2" fill="#FFFFFF" x="21" y="21" width="394" height="236"></rect>
                    <g id="Screen" transform="translate(22.000000, 22.000000)">
                        <mask id="mask-4" fill="white">
                            <use xlink:href="#path-3"></use>
                        </mask>
                        <use id="Mask" fill="#FFFFFF" xlink:href="#path-3"></use>
                        <g id="Terminal" mask="url(#mask-4)">
                            <rect id="Form" fill="#C5CFDE" x="0" y="0" width="196" height="234"></rect>
                            <g id="Lines" transform="translate(15.000000, 18.000000)">
                                <rect id="Rectangle-6" fill="#E0E4EC" x="0" y="16" width="40" height="6" rx="3"></rect>
                                <rect id="Rectangle-6-Copy-16" fill="#7E8FA4" x="0" y="0" width="90" height="6" rx="3"></rect>
                                <rect id="Rectangle-6-Copy" fill="#F5F6FA" x="0" y="32" width="80" height="6" rx="3"></rect>
                                <rect id="Rectangle-6-Copy-7" fill="#F5F6FA" x="0" y="96" width="40" height="6" rx="3"></rect>
                                <rect id="Rectangle-6-Copy-9" fill="#7E8FA4" x="0" y="112" width="60" height="6" rx="3"></rect>
                                <rect id="Rectangle-6-Copy-10" fill="#7E8FA4" x="0" y="148" width="40" height="6" rx="3"></rect>
                                <rect id="Rectangle-6-Copy-11" fill="#E0E4EC" x="0" y="164" width="70" height="6" rx="3"></rect>
                                <rect id="Rectangle-6-Copy-15" fill="#F5F6FA" x="0" y="196" width="50" height="6" rx="3"></rect>
                                <rect id="Rectangle-6-Copy-12" fill="#E0E4EC" x="80" y="164" width="50" height="6" rx="3"></rect>
                                <rect id="Rectangle-6-Copy-14" fill="#7E8FA4" x="20" y="180" width="100" height="6" rx="3"></rect>
                                <rect id="Rectangle-6-Copy-13" fill="#7E8FA4" x="130" y="180" width="20" height="6" rx="3"></rect>
                                <rect id="Rectangle-6-Copy-8" fill="#F5F6FA" x="50" y="96" width="20" height="6" rx="3"></rect>
                                <path d="M20,51 C20,49.3431458 21.3380125,48 22.9928014,48 L117.007199,48 C118.660077,48 120,49.3465171 120,51 L120,51 C120,52.6568542 118.661987,54 117.007199,54 L22.9928014,54 C21.3399228,54 20,52.6534829 20,51 L20,51 Z" id="Rectangle-6-Copy-2" fill="#F5F6FA"></path>
                                <path d="M20,83 C20,81.3431458 21.3476562,80 22.9962474,80 L137.003753,80 C138.658534,80 140,81.3465171 140,83 L140,83 C140,84.6568542 138.652344,86 137.003753,86 L22.9962474,86 C21.3414656,86 20,84.6534829 20,83 L20,83 Z" id="Rectangle-6-Copy-6" fill="#7E8FA4"></path>
                                <path d="M20,67 C20,65.3431458 21.3473186,64 23.0000191,64 L46.9999809,64 C48.6568457,64 50,65.3465171 50,67 L50,67 C50,68.6568542 48.6526814,70 46.9999809,70 L23.0000191,70 C21.3431543,70 20,68.6534829 20,67 L20,67 Z" id="Rectangle-6-Copy-3" fill="#E0E4EC"></path>
                                <path d="M60,67 C60,65.3431458 61.3380125,64 62.9928014,64 L157.007199,64 C158.660077,64 160,65.3465171 160,67 L160,67 C160,68.6568542 158.661987,70 157.007199,70 L62.9928014,70 C61.3399228,70 60,68.6534829 60,67 L60,67 Z" id="Rectangle-6-Copy-4" fill="#E0E4EC"></path>
                            </g>
                        </g>
                        <g id="Text" mask="url(#mask-4)">
                            <g transform="translate(234.000000, 83.000000)">
                                <g id="Group-5" stroke-width="1" fill="none">
                                    <path d="M2.08166817e-16,6 C-4.03753107e-14,2.6862915 2.6888701,0 5.99187487,0 L114.008125,0 C117.317346,0 120,2.69303423 120,6 L120,6 C120,9.3137085 117.31113,12 114.008125,12 L5.99187487,12 C2.68265376,12 4.07090652e-14,9.30696577 2.08166817e-16,6 L2.08166817e-16,6 Z" id="Rectangle-6-Copy-17" fill="#7E8FA4"></path>
                                    <path d="M2.08166817e-16,20 C-4.03753107e-14,18.3431458 1.34765625,17 2.99624738,17 L117.003753,17 C118.658534,17 120,18.3465171 120,20 L120,20 C120,21.6568542 118.652344,23 117.003753,23 L2.99624738,23 C1.34146565,23 4.07090652e-14,21.6534829 2.08166817e-16,20 L2.08166817e-16,20 Z" id="Rectangle-6-Copy-18" fill="#7E8FA4"></path>
                                </g>
                                <g id="Group-4" stroke-width="1" fill="none" transform="translate(0.000000, 33.000000)">
                                    <path d="M2.08166817e-16,2.5 C-4.03753107e-14,1.11928813 1.11132681,0 2.50637054,0 L117.493629,0 C118.87786,0 120,1.10966206 120,2.5 L120,2.5 C120,3.88071187 118.888673,5 117.493629,5 L2.50637054,5 C1.12214032,5 4.10745849e-14,3.89033794 2.08166817e-16,2.5 L2.08166817e-16,2.5 Z" id="Rectangle-6-Copy-20" fill="#C5CFDE"></path>
                                    <path d="M1.38777878e-16,12.5 C-2.69168738e-14,11.1192881 1.11563357,10 2.50412328,10 L77.4958767,10 C78.8788658,10 80,11.1096621 80,12.5 L80,12.5 C80,13.8807119 78.8843664,15 77.4958767,15 L2.50412328,15 C1.12113418,15 2.73830566e-14,13.8903379 1.38777878e-16,12.5 L1.38777878e-16,12.5 Z" id="Rectangle-6-Copy-19" fill="#C5CFDE"></path>
                                </g>
                                <path d="M6.9388939e-17,63 C-1.34584369e-14,60.2385763 2.23628439,58 5.00532213,58 L34.9946779,58 C37.759041,58 40,60.2441952 40,63 L40,63 C40,65.7614237 37.7637156,68 34.9946779,68 L5.00532213,68 C2.24095905,68 1.35696884e-14,65.7558048 6.9388939e-17,63 L6.9388939e-17,63 Z" id="Rectangle-6-Copy-21" fill="#5694ED"></path>
                            </g>
                        </g>
                    </g>
                    <circle id="Apple-Logo" stroke="#C5CFDE" stroke-width="2" fill="#F5F6FA" cx="218" cy="282" r="9"></circle>
                    <circle id="Camera" fill="#7E8FA4" cx="218" cy="11" r="2"></circle>
                </g>
                <g id="Tablet" transform="translate(441.000000, 220.000000)">
                    <g id="Form">
                        <use fill="black" fill-opacity="1" filter="url(#filter-6)" xlink:href="#path-5"></use>
                        <rect stroke="#C5CFDE" stroke-width="2" stroke-linejoin="square" fill="#F5F6FA" fill-rule="evenodd" x="1" y="1" width="116" height="164" rx="4"></rect>
                    </g>
                    <g id="Rows" transform="translate(12.000000, 32.000000)">
                        <path d="M20,82 L35,82 L35,85 L20,85 L20,82 Z M38,82 L58,82 L58,85 L38,85 L38,82 Z M61,82 L76,82 L76,85 L61,85 L61,82 Z" id="8" fill="#7E8FA4"></path>
                        <rect id="7" fill="#C5CFDE" x="20" y="75" width="55" height="3"></rect>
                        <path d="M20,59 L35,59 L35,62 L20,62 L20,59 Z M38,59 L53,59 L53,62 L38,62 L38,59 Z M56,59 L86,59 L86,62 L56,62 L56,59 Z" id="6" fill="#7E8FA4"></path>
                        <polygon id="5" fill="#C5CFDE" points="20 52 45 52 45 55 20 55"></polygon>
                        <path d="M20,34 L60,34 L60,37 L20,37 L20,34 Z M63,34 L73,34 L73,37 L63,37 L63,34 Z" id="4" fill="#7E8FA4"></path>
                        <polygon id="3" fill="#C5CFDE" points="20 27 65 27 65 30 20 30"></polygon>
                        <polygon id="2" fill="#7E8FA4" points="20 10 85 10 85 13 20 13"></polygon>
                        <rect id="1" fill="#C5CFDE" x="20" y="3" width="45" height="3"></rect>
                        <path d="M14.6427782,1.01994739 L13.2971871,0.135884084 C12.9249544,-0.107995449 12.4153859,-0.0143631283 12.1662301,0.342746187 L5.57035704,9.75025398 L2.53921227,6.81861877 C2.2225143,6.51231769 1.70619154,6.51231769 1.38949358,6.81861877 L0.237523476,7.9327708 C-0.0791744921,8.23907188 -0.0791744921,8.73771842 0.237523476,9.04692283 L4.89868718,13.555065 C5.15985043,13.8076545 5.57035704,14 5.93958785,14 C6.30881866,14 6.68105134,13.7764438 6.92120146,13.4389319 L14.8596638,2.11159863 C15.1118214,1.75448931 15.0150109,1.26382692 14.6427782,1.01994739 Z" id="Fill-1" fill="#5694ED"></path>
                        <path d="M14.6427782,25.0199474 L13.2971871,24.1358841 C12.9249544,23.8920046 12.4153859,23.9856369 12.1662301,24.3427462 L5.57035704,33.750254 L2.53921227,30.8186188 C2.2225143,30.5123177 1.70619154,30.5123177 1.38949358,30.8186188 L0.237523476,31.9327708 C-0.0791744921,32.2390719 -0.0791744921,32.7377184 0.237523476,33.0469228 L4.89868718,37.555065 C5.15985043,37.8076545 5.57035704,38 5.93958785,38 C6.30881866,38 6.68105134,37.7764438 6.92120146,37.4389319 L14.8596638,26.1115986 C15.1118214,25.7544893 15.0150109,25.2638269 14.6427782,25.0199474 Z" id="Fill-1-Copy" fill="#5694ED"></path>
                        <path d="M14.6427782,49.0199474 L13.2971871,48.1358841 C12.9249544,47.8920046 12.4153859,47.9856369 12.1662301,48.3427462 L5.57035704,57.750254 L2.53921227,54.8186188 C2.2225143,54.5123177 1.70619154,54.5123177 1.38949358,54.8186188 L0.237523476,55.9327708 C-0.0791744921,56.2390719 -0.0791744921,56.7377184 0.237523476,57.0469228 L4.89868718,61.555065 C5.15985043,61.8076545 5.57035704,62 5.93958785,62 C6.30881866,62 6.68105134,61.7764438 6.92120146,61.4389319 L14.8596638,50.1115986 C15.1118214,49.7544893 15.0150109,49.2638269 14.6427782,49.0199474 Z" id="Fill-1-Copy-2" fill="#5694ED"></path>
                        <path d="M14.6427782,73.0199474 L13.2971871,72.1358841 C12.9249544,71.8920046 12.4153859,71.9856369 12.1662301,72.3427462 L5.57035704,81.750254 L2.53921227,78.8186188 C2.2225143,78.5123177 1.70619154,78.5123177 1.38949358,78.8186188 L0.237523476,79.9327708 C-0.0791744921,80.2390719 -0.0791744921,80.7377184 0.237523476,81.0469228 L4.89868718,85.555065 C5.15985043,85.8076545 5.57035704,86 5.93958785,86 C6.30881866,86 6.68105134,85.7764438 6.92120146,85.4389319 L14.8596638,74.1115986 C15.1118214,73.7544893 15.0150109,73.2638269 14.6427782,73.0199474 Z" id="Fill-1-Copy-3" fill="#5694ED"></path>
                        <path d="M20,106 L35,106 L35,109 L20,109 L20,106 Z M38,106 L88,106 L88,109 L38,109 L38,106 Z" id="8-copy" fill="#7E8FA4"></path>
                        <polygon id="7-copy" fill="#C5CFDE" points="20 99 45 99 45 102 20 102"></polygon>
                        <path d="M14.6427782,97.0199474 L13.2971871,96.1358841 C12.9249544,95.8920046 12.4153859,95.9856369 12.1662301,96.3427462 L5.57035704,105.750254 L2.53921227,102.818619 C2.2225143,102.512318 1.70619154,102.512318 1.38949358,102.818619 L0.237523476,103.932771 C-0.0791744921,104.239072 -0.0791744921,104.737718 0.237523476,105.046923 L4.89868718,109.555065 C5.15985043,109.807655 5.57035704,110 5.93958785,110 C6.30881866,110 6.68105134,109.776444 6.92120146,109.438932 L14.8596638,98.1115986 C15.1118214,97.7544893 15.0150109,97.2638269 14.6427782,97.0199474 Z" id="Fill-1-Copy-4" fill="#5694ED"></path>
                    </g>
                    <g id="Dots" transform="translate(2.000000, 2.000000)">
                        <path d="M0,1.99079514 C0,0.891309342 0.901025834,0 2.00280629,0 L111.997194,0 C113.103313,0 114,0.898212381 114,1.99079514 L114,20 L0,20 L0,1.99079514 Z" id="Substrate" fill="#E0E4EC"></path>
                        <circle id="3" fill="#7E8FA4" cx="29" cy="10" r="3"></circle>
                        <circle id="2" fill="#7E8FA4" cx="21" cy="10" r="3"></circle>
                        <circle id="1" fill="#7E8FA4" cx="13" cy="10" r="3"></circle>
                    </g>
                </g>
            </g>
        </g>
    </g>
</svg>