<?xml version="1.0" encoding="UTF-8"?>
<svg width="123px" height="122px" viewBox="0 0 123 122" version="1.1" xmlns="http://www.w3.org/2000/svg" xmlns:xlink="http://www.w3.org/1999/xlink">
    <!-- Generator: Sketch 48.2 (47327) - http://www.bohemiancoding.com/sketch -->
    <title>Target</title>
    <desc>Created with Sketch.</desc>
    <defs></defs>
    <g id="2" stroke="none" stroke-width="1" fill="none" fill-rule="evenodd" transform="translate(-577.000000, -155.000000)">
        <g id="Target" transform="translate(577.000000, 155.000000)" fill="#005EB8">
            <path d="M93.4896785,46.6779035 L81.9658924,44.8503855 L103.198745,23.6889883 L114.722531,25.5165063 L93.4896785,46.6779035 Z M116.056698,61.5028549 C116.056698,91.9215757 91.2260212,116.668689 60.7045861,116.668689 C30.1831511,116.668689 5.35247457,91.9215757 5.35247457,61.5028549 C5.35247457,31.0841341 30.1831511,6.33702073 60.7045861,6.33702073 C69.8097998,6.33702073 78.4028452,8.5457967 85.9873618,12.4434513 L73.4424007,24.9461946 C69.4493851,23.5598017 65.1655085,22.8035874 60.7045861,22.8035874 C39.2946878,22.8035874 21.8746436,40.1650077 21.8746436,61.5028549 C21.8746436,82.8407021 39.2946878,100.198972 60.7045861,100.198972 C82.1144844,100.198972 99.5345287,82.8407021 99.5345287,61.5028549 C99.5345287,57.4823155 98.9117068,53.6067171 97.767232,49.9579831 L110.444977,37.3229022 C114.033317,44.629823 116.056698,52.8347483 116.056698,61.5028549 L116.056698,61.5028549 Z M97.7609089,8.24961276 L99.5977593,19.7346177 L78.3649068,40.8960149 L76.5280564,29.41101 L97.7609089,8.24961276 Z M60.7045861,72.0299883 C54.8778817,72.0299883 50.1387444,67.3067998 50.1387444,61.5028549 C50.1387444,55.6957592 54.8778817,50.9725706 60.7045861,50.9725706 C66.5312906,50.9725706 71.2672663,55.6957592 71.2672663,61.5028549 C71.2672663,67.3067998 66.5312906,72.0299883 60.7045861,72.0299883 Z M92.7878182,51.9682528 C93.6920165,54.9899591 94.1820541,58.1881155 94.1820541,61.5028549 C94.1820541,79.8977681 79.1647746,94.8676606 60.7045861,94.8676606 C42.2443977,94.8676606 27.2271182,79.8977681 27.2271182,61.5028549 C27.2271182,43.1047908 42.2443977,28.1380492 60.7045861,28.1380492 C64.3593177,28.1380492 67.8781034,28.7304171 71.1755819,29.8143243 L73.6890002,45.5561856 L70.3440988,48.8898303 C67.6662808,46.8543535 64.3245409,45.6381088 60.7045861,45.6381088 C51.9281718,45.6381088 44.7894314,52.755976 44.7894314,61.5028549 C44.7894314,70.2497338 51.9281718,77.3644501 60.7045861,77.3644501 C69.4810004,77.3644501 76.6197409,70.2497338 76.6197409,61.5028549 C76.6197409,58.2857932 75.6523119,55.2924449 73.9956689,52.7906358 L77.2899858,49.5074054 L92.7878182,51.9682528 Z M120.74525,21.0705963 L104.833257,18.546731 C104.830096,18.5435801 102.221831,2.24716165 102.221831,2.24716165 C102.063755,1.25778125 101.361894,0.43854908 100.407112,0.129761569 C99.4491673,-0.179025943 98.3995385,0.0730454952 97.6881937,0.781996414 L89.942439,8.49853331 C81.2671937,3.72493045 71.2988816,1.00255892 60.7045861,1.00255892 C27.2334412,1.00255892 0,28.1412001 0,61.5028549 C0,94.8613588 27.2334412,122 60.7045861,122 C94.175731,122 121.409172,94.8613588 121.409172,61.5028549 C121.409172,51.344376 118.879946,41.7688122 114.425347,33.355928 L122.215363,25.5921277 C122.926708,24.8831768 123.17963,23.8339294 122.8698,22.8823597 C122.55997,21.9276392 121.737972,21.2281409 120.74525,21.0705963 Z" id="Fill-1"></path>
        </g>
    </g>
</svg>