<?xml version="1.0" encoding="UTF-8"?>
<svg width="500px" height="436px" viewBox="0 0 500 436" version="1.1" xmlns="http://www.w3.org/2000/svg" xmlns:xlink="http://www.w3.org/1999/xlink">
    <!-- Generator: Sketch 52.6 (67491) - http://www.bohemiancoding.com/sketch -->
    <title>teacher</title>
    <desc>Created with Sketch.</desc>
    <g id="teacher" stroke="none" stroke-width="1" fill="none" fill-rule="evenodd">
        <rect id="Rectangle" stroke="#FFFFFF" stroke-width="15" x="7.5" y="7.5" width="485" height="293"></rect>
        <polygon id="Path-2" fill="#E0E0E0" points="317 80 288 40 328 74"></polygon>
        <path d="M244,222 C212.519769,222 187,196.480231 187,165 C187,133.519769 212.519769,108 244,108 C275.480231,108 301,133.519769 301,165 C301,196.480231 275.480231,222 244,222 Z M182.151267,358.253247 L171.115765,370.3923 L105.99704,422.283784 L105.108563,422.617291 C93.7592003,426.877502 84.8960997,426.877502 78.9456522,421.422925 C73.2859441,416.234859 71.6412074,407.188807 73.0350625,394.352296 L73.2720884,392.16944 L137.359702,331.133617 C151.828461,309.026382 162.017023,293.247947 167.912622,283.819027 C169.316284,281.574131 170.781274,279.1746 172.465464,276.371152 C173.805434,274.14068 178.270182,266.633616 178.716758,265.886428 C181.151576,261.812622 182.979905,258.818546 184.710344,256.099356 C189.264657,248.942763 192.780978,244.285267 196.114109,241.428364 C207.847379,231.455085 234.529082,223.013165 267.278012,219.043597 C267.513841,219.015012 267.973669,218.909508 268.584753,218.723835 C269.337265,218.495189 270.235449,218.171003 271.24054,217.760592 C273.49459,216.840189 276.132337,215.551439 278.929479,213.9806 C285.586225,210.242259 292.464917,205.318234 298.656619,199.630857 C314.583309,185.001426 324,167.479981 324,148 C324,139.912334 324,139.912334 324,119 C324,113.289937 322.380985,102.604436 319.130001,87.2422212 L318.7622,85.5042132 L319.399926,83.8461255 C323.564872,73.0172663 330.970738,67 341,67 C351.335231,67 358.256124,73.426544 360.846347,84.650843 L360.8913,84.8630824 C368.360521,123.567225 369.38363,156.988794 363.888944,185.149062 C358.416106,213.197355 341.725574,240.972381 314,268.512385 L314,423 L187.472918,423 L182.151267,358.253247 Z" id="Combined-Shape" stroke="#FFFFFF" stroke-width="12" fill="#005EA5"></path>
    </g>
</svg>